<svg width="520" height="520" viewBox="0 0 520 520" fill="none" xmlns="http://www.w3.org/2000/svg">
<g clip-path="url(#clip0_2343_24627)">
<rect width="520" height="520" rx="260" fill="white"/>
<g filter="url(#filter0_d_2343_24627)">
<path fill-rule="evenodd" clip-rule="evenodd" d="M136.84 155.18C115.02 155.18 97.34 166.68 97.34 180.86C97.3423 182.376 97.5441 183.886 97.94 185.35C95.4023 184.738 92.8004 184.433 90.19 184.44C77.98 184.44 68.08 190.92 68.08 198.91C68.1383 201.586 69.1815 204.146 71.01 206.1C66.89 207.85 63.72 210.4 62.11 213.39C52.56 213.74 45 218.55 45 224.39C45 230.49 53.15 235.44 63.2 235.44C66.2303 235.459 69.2433 234.983 72.12 234.03C78.45 238.03 89.2 240.64 101.4 240.64C105.234 240.647 109.064 240.38 112.86 239.84C115.09 245.03 121.98 248.84 130.12 248.84C138.64 248.84 145.78 244.71 147.66 239.14C151.337 239.734 155.056 240.028 158.78 240.02C174.61 240.02 188.3 234.87 194.9 227.38C199.009 228.231 203.194 228.653 207.39 228.64C209.27 228.64 211.11 228.56 212.91 228.4C215.27 234.47 225.91 239.05 238.76 239.05C253.31 239.05 265.1 233.15 265.1 225.88C265.1 219.16 255.03 213.62 242.03 212.81C242.447 211.631 242.66 210.39 242.66 209.14C242.66 203.03 237.58 197.58 229.66 194C230.9 192.624 231.609 190.851 231.66 189C231.655 188.135 231.496 187.279 231.19 186.47C235.64 185.21 238.81 182.01 238.81 178.27C238.81 173.42 233.5 169.49 226.95 169.49C220.4 169.49 215.08 173.42 215.08 178.27C215.08 178.38 215.08 178.49 215.08 178.61C206.58 178.83 199.79 183.39 199.79 189C199.79 189.369 199.82 189.736 199.88 190.1C195.427 190.605 191.058 191.68 186.88 193.3C184.541 188.932 180.739 185.526 176.14 183.68C176.292 182.751 176.369 181.811 176.37 180.87C176.37 166.69 158.69 155.19 136.87 155.19L136.84 155.18ZM88.35 170.18C91.24 170.18 93.59 171.86 93.59 173.93C93.59 176 91.24 177.69 88.35 177.69C85.46 177.69 83.12 176.01 83.12 173.93C83.12 171.85 85.46 170.18 88.35 170.18ZM196.35 239.7C201.64 239.7 205.93 242.7 205.93 246.41C205.93 250.12 201.64 253.12 196.35 253.12C191.06 253.12 186.76 250.12 186.76 246.41C186.76 242.7 191.05 239.7 196.35 239.7ZM194.84 149C200.77 149 205.58 152.37 205.58 156.52C205.58 160.67 200.74 164.04 194.84 164.04C188.94 164.04 184.08 160.67 184.08 156.55C184.08 152.43 188.84 149 194.84 149Z" fill="#E2EEF7"/>
<path fill-rule="evenodd" clip-rule="evenodd" d="M112.9 229.14C109.104 229.683 105.274 229.954 101.44 229.95C89.24 229.95 78.49 227.32 72.16 223.33C69.2834 224.283 66.2703 224.759 63.24 224.74C56.4 224.74 50.43 222.45 47.32 219.06C45.9112 220.499 45.097 222.417 45.04 224.43C45.04 230.53 53.19 235.48 63.24 235.48C66.2703 235.499 69.2834 235.023 72.16 234.07C78.49 238.07 89.24 240.68 101.44 240.68C105.274 240.687 109.104 240.42 112.9 239.88C115.13 245.07 122.02 248.88 130.16 248.88C138.68 248.88 145.82 244.75 147.7 239.18C151.377 239.774 155.096 240.068 158.82 240.06C174.65 240.06 188.34 234.91 194.94 227.42C199.049 228.271 203.234 228.693 207.43 228.68C209.31 228.68 211.15 228.6 212.95 228.44C215.31 234.51 225.95 239.09 238.8 239.09C253.35 239.09 265.14 233.19 265.14 225.92C265.073 223.905 264.252 221.989 262.84 220.55C258.74 225.15 249.51 228.35 238.84 228.35C226.03 228.35 215.35 223.77 212.99 217.71C211.19 217.86 209.35 217.95 207.47 217.95C203.275 217.958 199.089 217.536 194.98 216.69C188.38 224.18 174.69 229.33 158.86 229.33C155.136 229.333 151.417 229.039 147.74 228.45C145.86 234.01 138.74 238.15 130.2 238.15C122.02 238.12 115.13 234.33 112.9 229.14Z" fill="#BDD7EF"/>
<path fill-rule="evenodd" clip-rule="evenodd" d="M108.91 166.72C112.293 163.91 116.169 161.754 120.34 160.36C124.44 159.07 145.05 154.99 145.9 161.42C145.48 162.15 127.9 167.52 124.2 169.3C121.229 170.78 118.446 172.61 115.91 174.75L115.57 175.05C114.661 175.884 113.802 176.773 113 177.71C110.73 180.43 110.58 179.83 107.42 179.21C103.25 178.75 101.84 178.55 104.36 172.4C105.361 170.429 106.717 168.66 108.36 167.18L108.91 166.72Z" fill="white"/>
<path fill-rule="evenodd" clip-rule="evenodd" d="M105.84 181.75C106.394 181.833 106.912 182.072 107.333 182.441C107.754 182.809 108.06 183.291 108.216 183.828C108.371 184.366 108.368 184.937 108.208 185.473C108.049 186.009 107.738 186.488 107.314 186.853C106.89 187.217 106.369 187.453 105.815 187.53C105.261 187.608 104.696 187.525 104.188 187.29C103.68 187.056 103.25 186.681 102.949 186.21C102.648 185.738 102.489 185.19 102.49 184.63C102.559 183.807 102.949 183.043 103.576 182.505C104.202 181.966 105.016 181.695 105.84 181.75Z" fill="white"/>
<path fill-rule="evenodd" clip-rule="evenodd" d="M74.4702 194.07C74.6817 193.63 74.9292 193.209 75.2102 192.81C76.6339 190.781 78.7086 189.299 81.0902 188.61C83.0002 188.12 93.5402 186.61 94.9102 188.12C94.8202 190.25 85.5002 193.12 83.3502 194.12C82.267 194.615 81.3451 195.405 80.6902 196.4C80.6902 196.4 80.4302 196.87 80.3902 196.94C78.7702 200.71 79.9202 201.42 76.5302 201.19C72.0302 201.47 73.0902 197.66 74.4702 194.07Z" fill="white"/>
<path fill-rule="evenodd" clip-rule="evenodd" d="M203.77 190.31C204.239 188.466 205.172 186.772 206.48 185.39C207.636 184.117 209.12 183.186 210.77 182.7C211.91 182.45 215.59 182.13 215.89 183.84C215.76 184.62 213.63 185.84 212.83 186.68C212.176 187.325 211.635 188.075 211.23 188.9C210.767 189.881 210.405 190.906 210.15 191.96C209.38 195.03 209.47 194.96 206.71 194.83C203.49 194.93 202.96 194.44 203.77 190.31Z" fill="white"/>
<path fill-rule="evenodd" clip-rule="evenodd" d="M95.9399 227.09C99.0524 228.722 102.388 229.888 105.84 230.55C106.53 230.64 107.21 230.72 107.9 230.79L108.9 230.91C109.107 230.917 109.312 230.951 109.51 231.01C109.51 231.01 109.25 231.01 109.25 231.01C109.077 230.946 108.915 230.855 108.77 230.74C108.501 230.519 108.297 230.228 108.18 229.9C109.408 234.808 112.439 239.074 116.67 241.85C117.366 242.3 118.091 242.704 118.84 243.06C122.757 245.005 127.252 245.443 131.47 244.29C132.47 243.95 137.12 242.53 135.28 240.82C133.44 239.11 131.13 239.56 128.56 239.12C126.17 238.67 123.827 238.001 121.56 237.12C119.614 236.35 117.842 235.197 116.35 233.73C116.18 233.57 116.03 233.4 115.87 233.23C114.59 231.785 113.574 230.127 112.87 228.33C112.688 227.818 112.37 227.365 111.95 227.02C111.696 226.815 111.413 226.65 111.11 226.53C110.803 226.418 110.484 226.344 110.16 226.31C109.767 226.29 109.373 226.29 108.98 226.31C107.98 226.38 107.05 226.45 106.07 226.49C105.47 226.49 104.88 226.57 104.27 226.59C101.889 226.745 99.5008 226.745 97.1199 226.59C96.6899 226.59 95.8699 226.59 95.9999 227.24L95.9399 227.09Z" fill="#BDD7EF"/>
<path fill-rule="evenodd" clip-rule="evenodd" d="M164.66 223.2C162.635 224.019 160.49 224.505 158.31 224.64C156.8 224.78 155.31 224.86 153.81 224.91C153 224.91 152.2 224.91 151.38 224.91C151.03 224.948 150.69 225.053 150.38 225.22C150.126 225.363 149.897 225.545 149.7 225.76C149.426 226.059 149.197 226.396 149.02 226.76C148.733 227.34 148.476 227.934 148.25 228.54C147.661 229.96 146.902 231.303 145.99 232.54C145.419 233.214 144.79 233.837 144.11 234.4C143.174 235.184 142.17 235.883 141.11 236.49C139.11 237.65 137.03 238.49 134.98 239.61C133.56 240.35 129.89 241.45 131.26 243.02C133.26 245.02 136.26 244.38 138.84 244.02C140.779 243.755 142.653 243.138 144.37 242.2C147.129 240.673 149.426 238.431 151.02 235.71C151.489 234.919 151.903 234.097 152.26 233.25C152.696 232.205 153.053 231.128 153.33 230.03C153.44 229.63 153.59 229.15 153.68 228.75C153.68 228.75 153.54 228.94 153.43 229.06C153.268 229.242 153.075 229.394 152.86 229.51C152.554 229.687 152.212 229.793 151.86 229.82C154.122 229.46 156.353 228.922 158.53 228.21C158.71 228.15 158.89 228.08 159.07 228.03C161.303 227.359 163.302 226.073 164.84 224.32C165.13 223.9 165.16 223.48 164.68 223.2H164.66Z" fill="#BDD7EF"/>
<path fill-rule="evenodd" clip-rule="evenodd" d="M152.25 192.7C152.25 192.7 152.39 192.51 152.39 192.5C153.675 190.843 155.361 189.542 157.29 188.72C160.57 187.38 164.88 186.5 168.29 187.93C168.68 188.11 169.39 188.41 169.43 188.93C169.47 189.45 168.68 189.7 168.29 189.87C165.2 191.3 163.16 191.6 159.99 193.63C158.955 194.301 158.045 195.147 157.3 196.13L157.23 196.22C155.56 198.83 156.4 199 153.53 198.84C149.23 198.98 150.47 195.76 152.25 192.7Z" fill="white"/>
<path fill-rule="evenodd" clip-rule="evenodd" d="M147.84 196.27L147.62 196.19C146.187 195.658 144.653 195.45 143.13 195.58C141.276 195.731 139.47 196.24 137.81 197.08C136.57 197.7 132.07 200.85 131.44 200.68C130.17 199.21 134.44 194.47 135.35 193.58C137.304 191.874 139.645 190.672 142.17 190.08C144.662 189.482 147.273 189.618 149.69 190.47C149.827 190.51 149.961 190.56 150.09 190.62C152.83 191.97 157.31 194.36 153.71 196.82C151.14 199.04 151.42 197.9 147.84 196.27Z" fill="white"/>
<path fill-rule="evenodd" clip-rule="evenodd" d="M205.54 217C214.46 217.3 223.21 213.19 224.28 213.28C222.14 217.67 210.69 220.63 205.41 220.55C203.02 220.43 198.83 220.87 199.25 218.55C199.11 216.03 202.9 216.91 205.54 217Z" fill="#BDD7EF"/>
<path fill-rule="evenodd" clip-rule="evenodd" d="M207.54 220.87C204.952 220.959 202.363 220.731 199.83 220.19C197.22 219.64 194.73 218.623 192.48 217.19C191.48 216.45 186.75 212.39 187.48 210.98C187.48 210.98 192.93 214.7 193.64 215.04C195.78 216.012 198.051 216.665 200.38 216.98C202.698 217.311 205.041 217.428 207.38 217.33C210.38 217.17 212.75 216.11 213.05 218.33C213.84 220.97 210.01 220.7 207.54 220.87Z" fill="#BDD7EF"/>
<path fill-rule="evenodd" clip-rule="evenodd" d="M206.23 196.24C206.78 196.33 207.292 196.575 207.707 196.947C208.123 197.318 208.423 197.801 208.572 198.337C208.722 198.874 208.715 199.442 208.553 199.975C208.39 200.508 208.078 200.983 207.654 201.344C207.23 201.706 206.712 201.938 206.16 202.015C205.608 202.091 205.046 202.008 204.54 201.775C204.034 201.542 203.605 201.17 203.303 200.701C203.002 200.232 202.841 199.687 202.84 199.13C202.871 198.717 202.984 198.315 203.172 197.946C203.36 197.577 203.619 197.249 203.934 196.98C204.249 196.711 204.614 196.508 205.008 196.381C205.402 196.254 205.817 196.206 206.23 196.24Z" fill="white"/>
<path fill-rule="evenodd" clip-rule="evenodd" d="M186.49 228.07C181.76 231.98 180.69 232.65 174.7 234.69C167.25 237.21 159.79 237.23 152.14 235.85C159.42 234.24 153.54 235.43 160.88 234.25C169.557 232.82 178.116 230.754 186.49 228.07Z" fill="#E2EEF7"/>
<path fill-rule="evenodd" clip-rule="evenodd" d="M196.35 253.15C201.64 253.15 205.93 250.15 205.93 246.44C205.926 245.542 205.681 244.661 205.22 243.89C203.78 246.33 200.35 248.05 196.35 248.05C192.35 248.05 188.91 246.33 187.48 243.89C187.011 244.658 186.762 245.54 186.76 246.44C186.76 250.14 191.05 253.15 196.35 253.15Z" fill="#BDD7EF"/>
</g>
<g filter="url(#filter1_d_2343_24627)">
<path fill-rule="evenodd" clip-rule="evenodd" d="M365.84 276.18C344.02 276.18 326.34 287.68 326.34 301.86C326.342 303.376 326.544 304.886 326.94 306.35C324.402 305.738 321.8 305.433 319.19 305.44C306.98 305.44 297.08 311.92 297.08 319.91C297.138 322.586 298.182 325.146 300.01 327.1C295.89 328.85 292.72 331.4 291.11 334.39C281.56 334.74 274 339.55 274 345.39C274 351.49 282.15 356.44 292.2 356.44C295.23 356.459 298.243 355.983 301.12 355.03C307.45 359.03 318.2 361.64 330.4 361.64C334.234 361.647 338.064 361.38 341.86 360.84C344.09 366.03 350.98 369.84 359.12 369.84C367.64 369.84 374.78 365.71 376.66 360.14C380.337 360.734 384.056 361.028 387.78 361.02C403.61 361.02 417.3 355.87 423.9 348.38C428.009 349.231 432.194 349.653 436.39 349.64C438.27 349.64 440.11 349.56 441.91 349.4C444.27 355.47 454.91 360.05 467.76 360.05C482.31 360.05 494.1 354.15 494.1 346.88C494.1 340.16 484.03 334.62 471.03 333.81C471.447 332.631 471.66 331.39 471.66 330.14C471.66 324.03 466.58 318.58 458.66 315C459.9 313.624 460.609 311.851 460.66 310C460.655 309.135 460.496 308.279 460.19 307.47C464.64 306.21 467.81 303.01 467.81 299.27C467.81 294.42 462.5 290.49 455.95 290.49C449.4 290.49 444.08 294.42 444.08 299.27C444.08 299.38 444.08 299.49 444.08 299.61C435.58 299.83 428.79 304.39 428.79 310C428.79 310.369 428.82 310.736 428.88 311.1C424.427 311.605 420.058 312.68 415.88 314.3C413.541 309.932 409.739 306.526 405.14 304.68C405.292 303.751 405.369 302.811 405.37 301.87C405.37 287.69 387.69 276.19 365.87 276.19L365.84 276.18ZM317.35 291.18C320.24 291.18 322.59 292.86 322.59 294.93C322.59 297 320.24 298.69 317.35 298.69C314.46 298.69 312.12 297.01 312.12 294.93C312.12 292.85 314.46 291.18 317.35 291.18ZM425.35 360.7C430.64 360.7 434.93 363.7 434.93 367.41C434.93 371.12 430.64 374.12 425.35 374.12C420.06 374.12 415.76 371.12 415.76 367.41C415.76 363.7 420.05 360.7 425.35 360.7ZM423.84 270C429.77 270 434.58 273.37 434.58 277.52C434.58 281.67 429.74 285.04 423.84 285.04C417.94 285.04 413.08 281.67 413.08 277.55C413.08 273.43 417.84 270 423.84 270Z" fill="#E2EEF7"/>
<path fill-rule="evenodd" clip-rule="evenodd" d="M341.9 350.14C338.104 350.683 334.274 350.954 330.44 350.95C318.24 350.95 307.49 348.32 301.16 344.33C298.283 345.283 295.27 345.759 292.24 345.74C285.4 345.74 279.43 343.45 276.32 340.06C274.911 341.499 274.097 343.417 274.04 345.43C274.04 351.53 282.19 356.48 292.24 356.48C295.27 356.499 298.283 356.023 301.16 355.07C307.49 359.07 318.24 361.68 330.44 361.68C334.274 361.687 338.104 361.42 341.9 360.88C344.13 366.07 351.02 369.88 359.16 369.88C367.68 369.88 374.82 365.75 376.7 360.18C380.377 360.774 384.096 361.068 387.82 361.06C403.65 361.06 417.34 355.91 423.94 348.42C428.049 349.271 432.234 349.693 436.43 349.68C438.31 349.68 440.15 349.6 441.95 349.44C444.31 355.51 454.95 360.09 467.8 360.09C482.35 360.09 494.14 354.19 494.14 346.92C494.073 344.905 493.252 342.989 491.84 341.55C487.74 346.15 478.51 349.35 467.84 349.35C455.03 349.35 444.35 344.77 441.99 338.71C440.19 338.86 438.35 338.95 436.47 338.95C432.275 338.958 428.089 338.536 423.98 337.69C417.38 345.18 403.69 350.33 387.86 350.33C384.136 350.333 380.417 350.039 376.74 349.45C374.86 355.01 367.74 359.15 359.2 359.15C351.02 359.12 344.13 355.33 341.9 350.14Z" fill="#BDD7EF"/>
<path fill-rule="evenodd" clip-rule="evenodd" d="M337.91 287.72C341.293 284.91 345.169 282.754 349.34 281.36C353.44 280.07 374.05 275.99 374.9 282.42C374.48 283.15 356.9 288.52 353.2 290.3C350.229 291.78 347.446 293.61 344.91 295.75L344.57 296.05C343.661 296.884 342.802 297.773 342 298.71C339.73 301.43 339.58 300.83 336.42 300.21C332.25 299.75 330.84 299.55 333.36 293.4C334.361 291.429 335.717 289.66 337.36 288.18L337.91 287.72Z" fill="white"/>
<path fill-rule="evenodd" clip-rule="evenodd" d="M334.84 302.75C335.394 302.833 335.912 303.072 336.333 303.441C336.754 303.809 337.06 304.291 337.216 304.828C337.371 305.366 337.368 305.937 337.208 306.473C337.049 307.009 336.738 307.488 336.314 307.853C335.89 308.217 335.369 308.453 334.815 308.53C334.261 308.608 333.696 308.525 333.188 308.29C332.68 308.056 332.25 307.681 331.949 307.21C331.648 306.738 331.489 306.19 331.49 305.63C331.559 304.807 331.949 304.043 332.576 303.505C333.202 302.966 334.016 302.695 334.84 302.75Z" fill="white"/>
<path fill-rule="evenodd" clip-rule="evenodd" d="M303.47 315.07C303.682 314.63 303.929 314.209 304.21 313.81C305.634 311.781 307.709 310.299 310.09 309.61C312 309.12 322.54 307.61 323.91 309.12C323.82 311.25 314.5 314.12 312.35 315.12C311.267 315.615 310.345 316.405 309.69 317.4C309.69 317.4 309.43 317.87 309.39 317.94C307.77 321.71 308.92 322.42 305.53 322.19C301.03 322.47 302.09 318.66 303.47 315.07Z" fill="white"/>
<path fill-rule="evenodd" clip-rule="evenodd" d="M432.77 311.31C433.239 309.466 434.172 307.772 435.48 306.39C436.636 305.117 438.12 304.186 439.77 303.7C440.91 303.45 444.59 303.13 444.89 304.84C444.76 305.62 442.63 306.84 441.83 307.68C441.176 308.325 440.635 309.075 440.23 309.9C439.767 310.881 439.405 311.906 439.15 312.96C438.38 316.03 438.47 315.96 435.71 315.83C432.49 315.93 431.96 315.44 432.77 311.31Z" fill="white"/>
<path fill-rule="evenodd" clip-rule="evenodd" d="M324.94 348.09C328.052 349.722 331.388 350.888 334.84 351.55C335.53 351.64 336.21 351.72 336.9 351.79L337.9 351.91C338.107 351.917 338.312 351.951 338.51 352.01C338.51 352.01 338.25 352.01 338.25 352.01C338.077 351.946 337.915 351.855 337.77 351.74C337.501 351.519 337.297 351.228 337.18 350.9C338.408 355.808 341.439 360.074 345.67 362.85C346.366 363.3 347.091 363.704 347.84 364.06C351.757 366.005 356.252 366.443 360.47 365.29C361.47 364.95 366.12 363.53 364.28 361.82C362.44 360.11 360.13 360.56 357.56 360.12C355.17 359.67 352.827 359.001 350.56 358.12C348.614 357.35 346.842 356.197 345.35 354.73C345.18 354.57 345.03 354.4 344.87 354.23C343.59 352.785 342.574 351.127 341.87 349.33C341.688 348.818 341.37 348.365 340.95 348.02C340.696 347.815 340.413 347.65 340.11 347.53C339.803 347.418 339.484 347.344 339.16 347.31C338.767 347.29 338.373 347.29 337.98 347.31C336.98 347.38 336.05 347.45 335.07 347.49C334.47 347.49 333.88 347.57 333.27 347.59C330.889 347.745 328.501 347.745 326.12 347.59C325.69 347.59 324.87 347.59 325 348.24L324.94 348.09Z" fill="#BDD7EF"/>
<path fill-rule="evenodd" clip-rule="evenodd" d="M393.66 344.2C391.635 345.019 389.49 345.505 387.31 345.64C385.8 345.78 384.31 345.86 382.81 345.91C382 345.91 381.2 345.91 380.38 345.91C380.03 345.948 379.69 346.053 379.38 346.22C379.126 346.363 378.897 346.545 378.7 346.76C378.426 347.059 378.197 347.396 378.02 347.76C377.733 348.34 377.476 348.934 377.25 349.54C376.661 350.96 375.902 352.303 374.99 353.54C374.419 354.214 373.79 354.837 373.11 355.4C372.174 356.184 371.17 356.883 370.11 357.49C368.11 358.65 366.03 359.49 363.98 360.61C362.56 361.35 358.89 362.45 360.26 364.02C362.26 366.02 365.26 365.38 367.84 365.02C369.779 364.755 371.653 364.138 373.37 363.2C376.129 361.673 378.426 359.431 380.02 356.71C380.489 355.919 380.903 355.097 381.26 354.25C381.696 353.205 382.053 352.128 382.33 351.03C382.44 350.63 382.59 350.15 382.68 349.75C382.68 349.75 382.54 349.94 382.43 350.06C382.268 350.242 382.075 350.394 381.86 350.51C381.554 350.687 381.212 350.793 380.86 350.82C383.122 350.46 385.353 349.922 387.53 349.21C387.71 349.15 387.89 349.08 388.07 349.03C390.303 348.359 392.302 347.073 393.84 345.32C394.13 344.9 394.16 344.48 393.68 344.2H393.66Z" fill="#BDD7EF"/>
<path fill-rule="evenodd" clip-rule="evenodd" d="M381.25 313.7C381.25 313.7 381.39 313.51 381.39 313.5C382.675 311.843 384.361 310.542 386.29 309.72C389.57 308.38 393.88 307.5 397.29 308.93C397.68 309.11 398.39 309.41 398.43 309.93C398.47 310.45 397.68 310.7 397.29 310.87C394.2 312.3 392.16 312.6 388.99 314.63C387.955 315.301 387.045 316.147 386.3 317.13L386.23 317.22C384.56 319.83 385.4 320 382.53 319.84C378.23 319.98 379.47 316.76 381.25 313.7Z" fill="white"/>
<path fill-rule="evenodd" clip-rule="evenodd" d="M376.84 317.27L376.62 317.19C375.187 316.658 373.653 316.45 372.13 316.58C370.276 316.731 368.47 317.24 366.81 318.08C365.57 318.7 361.07 321.85 360.44 321.68C359.17 320.21 363.44 315.47 364.35 314.58C366.304 312.874 368.645 311.672 371.17 311.08C373.662 310.482 376.273 310.618 378.69 311.47C378.827 311.51 378.961 311.56 379.09 311.62C381.83 312.97 386.31 315.36 382.71 317.82C380.14 320.04 380.42 318.9 376.84 317.27Z" fill="white"/>
<path fill-rule="evenodd" clip-rule="evenodd" d="M434.54 338C443.46 338.3 452.21 334.19 453.28 334.28C451.14 338.67 439.69 341.63 434.41 341.55C432.02 341.43 427.83 341.87 428.25 339.55C428.11 337.03 431.9 337.91 434.54 338Z" fill="#BDD7EF"/>
<path fill-rule="evenodd" clip-rule="evenodd" d="M436.54 341.87C433.952 341.959 431.363 341.731 428.83 341.19C426.22 340.64 423.73 339.623 421.48 338.19C420.48 337.45 415.75 333.39 416.48 331.98C416.48 331.98 421.93 335.7 422.64 336.04C424.78 337.012 427.051 337.665 429.38 337.98C431.698 338.311 434.041 338.428 436.38 338.33C439.38 338.17 441.75 337.11 442.05 339.33C442.84 341.97 439.01 341.7 436.54 341.87Z" fill="#BDD7EF"/>
<path fill-rule="evenodd" clip-rule="evenodd" d="M435.23 317.24C435.78 317.33 436.292 317.575 436.707 317.947C437.123 318.318 437.423 318.801 437.572 319.337C437.722 319.874 437.715 320.442 437.553 320.975C437.39 321.508 437.078 321.983 436.654 322.344C436.23 322.706 435.712 322.938 435.16 323.015C434.608 323.091 434.046 323.008 433.54 322.775C433.034 322.542 432.605 322.17 432.303 321.701C432.002 321.232 431.841 320.687 431.84 320.13C431.871 319.717 431.984 319.315 432.172 318.946C432.36 318.577 432.619 318.249 432.934 317.98C433.249 317.711 433.614 317.508 434.008 317.381C434.402 317.254 434.817 317.206 435.23 317.24Z" fill="white"/>
<path fill-rule="evenodd" clip-rule="evenodd" d="M415.49 349.07C410.76 352.98 409.69 353.65 403.7 355.69C396.25 358.21 388.79 358.23 381.14 356.85C388.42 355.24 382.54 356.43 389.88 355.25C398.557 353.82 407.116 351.754 415.49 349.07Z" fill="#E2EEF7"/>
<path fill-rule="evenodd" clip-rule="evenodd" d="M425.35 374.15C430.64 374.15 434.93 371.15 434.93 367.44C434.926 366.542 434.681 365.661 434.22 364.89C432.78 367.33 429.35 369.05 425.35 369.05C421.35 369.05 417.91 367.33 416.48 364.89C416.011 365.658 415.762 366.54 415.76 367.44C415.76 371.14 420.05 374.15 425.35 374.15Z" fill="#BDD7EF"/>
</g>
<rect width="520" height="520" rx="260" fill="black" fill-opacity="0.6"/>
<path fill-rule="evenodd" clip-rule="evenodd" d="M135.399 241C113.168 241 95.137 255.892 95.137 274.271C95.1371 277.498 95.6964 280.699 96.79 283.734C75.9233 283.734 58.9994 295.502 58.9994 310.015C58.9994 316.399 62.2598 322.238 67.6736 326.802C46.8979 329.835 31.8696 338.934 31.8696 349.473C31.8696 362.636 55.0566 373.297 83.6421 373.297C86.5538 373.297 89.4047 373.191 92.1799 372.979C104.539 378.711 122.646 382.336 142.815 382.336C156.584 382.479 170.298 380.594 183.517 376.74C193.208 378.717 203.077 379.683 212.967 379.621C234.865 379.621 253.912 375.284 263.223 369.006C269.078 374.086 276.596 376.839 284.348 376.74C300.286 376.74 313.161 365.927 313.161 352.613C313.151 349.279 312.34 345.997 310.795 343.044C313.131 341.598 315.069 339.593 316.435 337.21C317.802 334.827 318.552 332.141 318.62 329.395C318.62 319.735 309.279 311.926 297.738 311.926C292.082 311.846 286.598 313.867 282.346 317.597C282.346 317.4 282.346 317.203 282.346 316.991C282.346 314.27 281.67 311.592 280.378 309.197C279.086 306.803 277.219 304.767 274.945 303.274C272.671 301.78 270.061 300.876 267.35 300.642C264.64 300.407 261.913 300.851 259.417 301.932C259.187 299.003 258.287 296.166 256.786 293.64C255.284 291.114 253.222 288.968 250.758 287.367C248.295 285.766 245.496 284.754 242.578 284.408C239.66 284.061 236.702 284.391 233.932 285.372C231.162 286.352 228.655 287.956 226.605 290.061C224.554 292.165 223.015 294.713 222.107 297.507C221.199 300.302 220.946 303.267 221.367 306.175C221.789 309.083 222.874 311.855 224.538 314.276C221.443 315.04 218.403 316.013 215.439 317.188C213.786 311.319 207.614 306.102 198.5 302.22C203.049 299.278 206.082 294.865 206.082 289.921C206.082 281.065 196.695 273.892 185.125 273.892C181.886 273.876 178.672 274.463 175.647 275.621C175.647 275.181 175.647 274.742 175.647 274.302C175.647 255.922 157.616 241.03 135.369 241.03L135.399 241ZM37.6171 308.62C44.5777 308.62 50.2342 312.274 50.2342 316.763C50.2342 321.252 44.5777 324.907 37.6171 324.907C30.6565 324.907 25 321.267 25 316.763C25 312.259 30.6413 308.62 37.6171 308.62Z" fill="#E2EEF7"/>
<path fill-rule="evenodd" clip-rule="evenodd" d="M212.967 379.636C234.865 379.636 253.912 375.299 263.223 369.021C269.081 374.096 276.598 376.843 284.348 376.74C297.313 376.74 308.262 369.597 311.917 359.755C312.767 357.47 313.204 355.051 313.206 352.612C313.159 350.792 312.915 348.982 312.478 347.214C312.209 345.711 311.653 344.275 310.84 342.983C310.674 342.983 308.232 348.639 304.532 351.096C298.663 354.993 289.943 356.388 284.348 356.388C276.6 356.496 269.083 353.754 263.223 348.685C253.851 355.024 234.865 359.3 212.967 359.3C203.077 359.362 193.208 358.396 183.517 356.419C170.307 360.265 156.603 362.145 142.845 361.999C122.676 361.999 104.569 358.375 92.2101 352.643C89.435 352.855 86.584 352.961 83.6724 352.961C62.9876 352.961 45.1387 347.381 36.8436 339.313C35.3769 340.579 34.1825 342.13 33.3328 343.871C32.483 345.612 31.9955 347.508 31.8999 349.443C31.8999 362.606 55.0868 373.267 83.6724 373.267C86.584 373.267 89.435 373.161 92.2101 372.948C104.569 378.681 122.676 382.305 142.845 382.305C156.602 382.456 170.306 380.58 183.517 376.74C193.207 378.722 203.077 379.693 212.967 379.636Z" fill="#BDD7EF"/>
<path fill-rule="evenodd" clip-rule="evenodd" d="M101.704 271.345C101.936 269.95 102.26 268.572 102.674 267.22C104.131 262.314 106.862 257.882 110.59 254.376C113.897 251.212 117.935 248.915 122.343 247.688C124.193 247.218 133.959 245.55 134.809 248.401C134.536 249.386 126.498 252.525 124.785 253.466C121.772 255.21 119.108 257.499 116.929 260.214C114.696 263.08 113.084 266.38 112.198 269.904C111.94 270.92 111.743 271.906 111.576 272.937C110.59 280.641 112.592 283.553 107.027 284.038C99.8841 285.63 101.082 277.38 101.704 271.345Z" fill="white"/>
<path fill-rule="evenodd" clip-rule="evenodd" d="M225.023 304.843C225.023 304.313 225.023 303.827 225.023 303.327C225.25 300.366 226.192 297.504 227.768 294.986C229.173 292.606 231.203 290.656 233.637 289.345C235.017 288.693 240.415 286.919 241.037 289.497C240.961 290.391 238.186 292.787 237.306 293.94C236.333 295.335 235.576 296.868 235.062 298.489C234.53 300.205 234.245 301.987 234.213 303.782V304.692C234.395 309.332 234.956 309.15 231.089 310.576C226.388 312.684 225.539 310.925 225.023 304.843Z" fill="white"/>
<path fill-rule="evenodd" clip-rule="evenodd" d="M161.877 308.317C162.909 306.441 164.271 304.766 165.896 303.373C168.154 301.425 170.794 299.969 173.645 299.096C176.519 298.181 179.564 297.937 182.547 298.384C184.064 298.672 190.129 300.037 190.129 302.19C189.568 303.161 183.609 303.98 182.547 304.162C180.484 304.564 178.498 305.291 176.663 306.315C174.969 307.244 173.433 308.436 172.114 309.848C171.309 310.697 170.616 311.645 170.051 312.669C169.876 312.988 169.719 313.317 169.581 313.655C168.216 317.37 169.035 317.006 165.32 317.961C159.648 319.978 159.709 315.869 160.952 310.531C161.201 309.769 161.511 309.029 161.877 308.317Z" fill="white"/>
<path fill-rule="evenodd" clip-rule="evenodd" d="M155.114 317.4C154.462 317.097 153.825 316.809 153.158 316.536C150.579 315.485 147.734 315.277 145.03 315.944C143.457 316.225 142.005 316.97 140.859 318.082C139.843 318.992 136.917 322.253 135.521 321.692C134.111 320.539 136.067 316.187 136.644 315.004C137.855 312.361 139.975 310.24 142.618 309.029C146.756 307.031 151.481 306.616 155.903 307.861C156.979 308.172 158.028 308.568 159.042 309.044C164.35 311.834 166.776 312.729 163.895 316.824C161.408 321.221 160.558 320.039 155.114 317.4Z" fill="white"/>
<path fill-rule="evenodd" clip-rule="evenodd" d="M184.366 361.286C181.989 360.56 179.727 359.498 177.648 358.132C176.132 357.086 167.989 350.914 169.035 348.578C169.99 348.154 178.376 353.128 179.954 353.871C181.863 354.762 183.834 355.512 185.853 356.115C189.477 357.086 190.402 356.479 190.19 359.315C190.357 362.879 187.9 362.136 184.366 361.286Z" fill="#BDD7EF"/>
<path fill-rule="evenodd" clip-rule="evenodd" d="M261.995 348.275C264.785 346.471 272.352 339.95 272.853 339.859C273.08 342.452 268.303 350.474 264.982 352.749C261.949 354.736 259.235 357.48 257.688 354.645C255.413 352.006 258.977 350.368 261.995 348.275Z" fill="#BDD7EF"/>
<path fill-rule="evenodd" clip-rule="evenodd" d="M75.6652 352.673C79.042 353.254 82.46 353.564 85.8863 353.598C89.1484 353.627 92.3877 353.051 95.4401 351.9C96.6987 351.369 104.812 345.728 104.857 345.728C106.04 347.987 99.0189 354.068 97.1233 355.266C93.7556 357.168 90.0032 358.287 86.144 358.542C82.3703 358.806 78.5787 358.628 74.8463 358.011C70.9793 357.344 65.7475 357.48 66.7483 353.977C67.1578 350.14 71.3887 352.006 75.6652 352.673Z" fill="#BDD7EF"/>
<path fill-rule="evenodd" clip-rule="evenodd" d="M107.36 287.268C108.034 287.37 108.666 287.663 109.179 288.113C109.692 288.563 110.065 289.151 110.254 289.807C110.442 290.463 110.439 291.159 110.243 291.813C110.048 292.467 109.669 293.05 109.151 293.495C108.634 293.94 107.999 294.227 107.324 294.322C106.648 294.416 105.959 294.315 105.339 294.03C104.719 293.744 104.194 293.287 103.827 292.712C103.459 292.137 103.264 291.469 103.265 290.787C103.347 289.779 103.822 288.844 104.589 288.185C105.356 287.527 106.351 287.197 107.36 287.268Z" fill="white"/>
<path fill-rule="evenodd" clip-rule="evenodd" d="M231.907 315.399C232.582 315.5 233.213 315.793 233.725 316.242C234.238 316.692 234.611 317.279 234.8 317.934C234.99 318.588 234.987 319.284 234.793 319.938C234.599 320.591 234.221 321.175 233.705 321.621C233.189 322.066 232.556 322.354 231.881 322.45C231.206 322.547 230.518 322.448 229.897 322.165C229.277 321.882 228.751 321.427 228.382 320.854C228.012 320.281 227.815 319.614 227.813 318.932C227.891 317.922 228.365 316.983 229.132 316.321C229.899 315.659 230.897 315.328 231.907 315.399Z" fill="white"/>
<path fill-rule="evenodd" clip-rule="evenodd" d="M251.577 362C244.571 372.964 213.665 374.025 202.125 369.476C199.641 368.261 197.258 366.851 194.997 365.26C195.343 365.057 195.733 364.939 196.133 364.916C196.534 364.892 196.934 364.963 197.302 365.123C204.581 367.019 205.173 367.52 213.271 367.474C226.221 367.383 239.369 366.519 251.577 362Z" fill="#E2EEF7"/>
<path fill-rule="evenodd" clip-rule="evenodd" d="M307.756 169.716C309.934 169.718 312.109 169.9 314.257 170.26C314.257 169.927 314.257 169.595 314.257 169.262C314.257 157.243 324.612 147.523 337.387 147.523C339.255 147.518 341.117 147.731 342.935 148.158V147.976C342.935 130.863 359.293 117 379.475 117C397.616 117 412.734 128.217 415.515 142.927C419.175 139.59 423.884 137.634 428.83 137.395C433.777 137.156 438.652 138.649 442.616 141.618C446.58 144.587 449.385 148.845 450.548 153.659C451.711 158.473 451.158 163.541 448.986 167.992C474.52 172.059 491.86 180.011 491.86 189.157C491.86 198.303 473.794 206.573 447.384 210.564C448.022 211.645 448.366 212.876 448.381 214.131C448.381 223.323 429.121 230.761 405.371 230.761C392.416 230.761 380.805 228.554 372.914 225.046C365.239 227.048 357.336 228.039 349.406 227.994C325.126 227.994 305.065 219.347 301.785 208.115C289.343 206.195 280.03 198.424 280.03 189.142C280.03 178.408 292.457 169.716 307.786 169.716H307.756ZM330.78 128.988C327.046 128.988 324.023 131.528 324.023 134.658C324.023 137.787 327.046 140.327 330.78 140.327C334.515 140.327 337.508 137.847 337.508 134.658C337.508 131.468 334.484 128.988 330.75 128.988H330.78ZM466.553 219.211C460.052 219.211 454.776 222.431 454.776 226.407C454.776 230.383 460.052 233.588 466.553 233.588C473.054 233.588 478.315 230.368 478.315 226.407C478.315 222.446 473.038 219.211 466.553 219.211Z" fill="#E2EEF7"/>
<path fill-rule="evenodd" clip-rule="evenodd" d="M349.375 207.707C325.096 207.707 305.035 199.059 301.754 187.827C294.301 186.663 287.967 183.412 284.082 178.998C281.521 181.763 280.067 185.374 280 189.142C280 198.424 289.313 206.195 301.754 208.115C305.035 219.347 325.096 227.995 349.375 227.995C357.306 228.039 365.209 227.048 372.883 225.047C380.775 228.554 392.385 230.761 405.341 230.761C429.091 230.761 448.351 223.308 448.351 214.132C448.336 212.876 447.992 211.646 447.353 210.564C450.286 210.11 453.113 209.627 455.819 209.052C463.095 207.685 470.219 205.609 477.09 202.854C486.372 198.953 491.83 194.206 491.83 189.082C491.83 185.453 489.093 182.022 484.271 178.938C476.576 183.79 463.56 187.751 447.414 190.2C448.052 191.282 448.396 192.512 448.412 193.768C448.412 202.96 429.152 210.398 405.402 210.398C392.446 210.398 380.835 208.19 372.944 204.683C365.253 206.715 357.33 207.731 349.375 207.707Z" fill="#BDD7EF"/>
<path fill-rule="evenodd" clip-rule="evenodd" d="M349.602 141.325C350.705 136.78 352.801 132.536 355.74 128.898C358.355 125.572 361.863 123.06 365.854 121.657C368.545 120.916 378.13 119.767 378.976 123.38C378.628 124.741 372.219 127.689 370.011 129.533C368.088 131.157 366.519 133.159 365.401 135.414C364.022 138.314 362.962 141.355 362.241 144.485C360.291 152.406 361.077 153.721 354.682 152.83C347.35 152.512 347.773 149.942 349.602 141.325Z" fill="white"/>
<path fill-rule="evenodd" clip-rule="evenodd" d="M318.913 166.103C318.94 165.955 318.975 165.808 319.019 165.664C319.715 163.022 321.091 160.609 323.01 158.665C324.745 156.794 326.894 155.354 329.284 154.462C330.351 154.032 331.49 153.806 332.64 153.797C333.623 153.797 335.437 153.993 335.497 155.309C335.497 156.019 334.469 157.017 333.986 157.501C333.502 157.985 332.988 158.65 332.474 159.239C331.391 160.605 330.42 162.056 329.571 163.578C328.836 164.872 328.296 166.268 327.969 167.72C327.969 167.72 327.969 167.856 327.969 167.887C327.969 168.249 327.863 168.658 327.772 169.005C327.304 170.517 325.641 171.122 324.401 171.802C321.77 173.465 320.38 174.826 318.928 169.973C318.666 168.697 318.661 167.381 318.913 166.103Z" fill="white"/>
<path fill-rule="evenodd" clip-rule="evenodd" d="M397.39 165.952C398.418 164.082 399.775 162.412 401.396 161.023C403.651 159.087 406.281 157.636 409.121 156.76C411.987 155.853 415.023 155.615 417.995 156.065C419.507 156.337 425.63 157.697 425.63 159.859C425.07 160.827 419.129 161.643 417.995 161.809C415.939 162.211 413.959 162.935 412.129 163.956C410.443 164.893 408.913 166.086 407.594 167.494C406.785 168.334 406.093 169.28 405.538 170.306C405.364 170.624 405.207 170.952 405.069 171.288C403.709 174.992 404.525 174.614 400.821 175.567C395.167 177.592 395.228 173.495 396.467 168.174C396.719 167.411 397.027 166.668 397.39 165.952Z" fill="white"/>
<path fill-rule="evenodd" clip-rule="evenodd" d="M390.602 175.007C389.952 174.705 389.317 174.418 388.652 174.161C386.081 173.113 383.244 172.906 380.549 173.571C378.979 173.844 377.529 174.587 376.392 175.703C375.379 176.61 372.461 179.845 371.07 179.301C369.664 178.137 371.614 173.813 372.189 172.619C373.399 169.989 375.513 167.881 378.145 166.677C382.266 164.674 386.979 164.254 391.388 165.498C392.46 165.812 393.506 166.206 394.518 166.677C399.809 169.474 402.228 170.366 399.355 174.448C396.921 178.817 396.075 177.638 390.602 175.007Z" fill="white"/>
<path fill-rule="evenodd" clip-rule="evenodd" d="M296.827 186.859C297.446 187.01 298.051 187.146 298.671 187.267C301.549 187.929 304.553 187.798 307.364 186.889C308.649 186.542 309.964 186.285 311.234 185.937C312.483 185.358 313.765 184.854 315.074 184.425C315.905 185.393 313.214 187.948 312.594 188.431C311.394 189.239 310.13 189.947 308.815 190.548C305.432 192.308 301.589 192.984 297.809 192.483C297.084 192.377 296.388 192.241 295.662 192.075C291.913 191.198 290.265 191.652 290.492 188.749C290.265 185.136 293.365 186.224 296.827 186.859Z" fill="#BDD7EF"/>
<path fill-rule="evenodd" clip-rule="evenodd" d="M356.088 207.54C359.505 207.298 362.71 206.981 366.096 206.437C367.94 206.089 383.36 201.403 383.527 201.463C383.678 204.97 370.027 210.262 367.154 211.108C363.655 212.039 360.077 212.641 356.466 212.907C352.883 213.073 347.547 214.207 347.955 210.594C347.698 206.951 351.825 207.843 356.088 207.54Z" fill="#BDD7EF"/>
<path fill-rule="evenodd" clip-rule="evenodd" d="M457.845 193.904C450.014 194.812 440.687 194.343 433.43 191.032C433.082 190.851 431.918 190.216 432.085 189.687C432.311 189.399 433.445 189.445 433.778 189.43C442.576 189.43 448.049 189.777 457.104 188.583C461.216 187.993 463.922 186.512 464.497 189.687C465.721 193.285 461.564 193.285 457.845 193.904Z" fill="#BDD7EF"/>
<path fill-rule="evenodd" clip-rule="evenodd" d="M379.278 217.458C399.339 221.056 408.924 223.142 429.166 217.458L423.936 221.69C416.105 226.226 404.857 226.664 396.24 224.85C388.046 223.127 385.794 222.129 379.278 217.458Z" fill="#E2EEF7"/>
<path fill-rule="evenodd" clip-rule="evenodd" d="M464.22 332C452.22 332 442.22 340 440.22 350.48C437.413 348.928 434.257 348.115 431.05 348.12C428.603 348.103 426.176 348.569 423.909 349.491C421.642 350.413 419.579 351.773 417.838 353.493C416.098 355.213 414.713 357.26 413.765 359.516C412.816 361.772 412.322 364.193 412.31 366.64C411.233 366.318 410.114 366.156 408.99 366.16C406.232 366.178 403.565 367.154 401.446 368.919C399.327 370.684 397.886 373.131 397.37 375.84C395.392 376.131 393.432 376.535 391.5 377.05C388.324 375.173 384.698 374.195 381.01 374.22C371.01 374.22 363.01 381.01 363.01 389.39C363.01 397.77 371.07 404.56 381.01 404.56C383.805 404.57 386.574 404.015 389.15 402.93C394.194 404.509 399.436 405.368 404.72 405.48C404.72 408.34 408.72 410.98 415.57 413.11C411.41 414.11 408.96 415.38 408.96 416.74C408.96 419.11 416.48 421.17 427.57 422.22C435.46 424.04 447.05 425.22 459.96 425.22C483.73 425.22 503.01 421.32 503.01 416.51C503.01 415.61 502.34 414.75 501.1 413.94C509.58 411.69 514.72 408.74 514.72 405.51C514.673 404.88 514.492 404.267 514.191 403.712C513.889 403.157 513.473 402.672 512.97 402.29C515.73 402.54 518.62 402.66 521.59 402.66C541.1 402.66 556.91 397.14 556.91 390.34C556.91 387.34 553.91 384.63 548.86 382.5C549.174 381.105 549.332 379.68 549.33 378.25C549.322 373.331 547.471 368.593 544.144 364.97C540.816 361.347 536.252 359.102 531.351 358.677C526.451 358.251 521.568 359.677 517.666 362.672C513.764 365.668 511.125 370.016 510.27 374.86C508.418 373.012 506.12 371.672 503.6 370.97C504.457 369.199 504.851 367.24 504.743 365.275C504.635 363.311 504.03 361.406 502.985 359.739C501.939 358.073 500.487 356.699 498.765 355.748C497.043 354.796 495.107 354.298 493.14 354.3C491.591 354.301 490.058 354.611 488.63 355.21C488.63 354.99 488.63 354.76 488.63 354.54C488.63 342.1 477.7 332.02 464.21 332.02L464.22 332ZM524.07 409.43C529.33 409.43 533.6 411.29 533.6 413.59C533.6 415.89 529.33 417.75 524.07 417.75C518.81 417.75 514.54 415.88 514.54 413.59C514.54 411.3 518.81 409.43 524.07 409.43ZM398.07 412.43C401.61 412.43 404.47 414.43 404.47 416.96C404.47 419.49 401.61 421.48 398.07 421.48C394.53 421.48 391.66 419.48 391.66 416.96C391.66 414.44 394.57 412.39 398.11 412.39L398.07 412.43Z" fill="#E2EEF7"/>
<path fill-rule="evenodd" clip-rule="evenodd" d="M416.91 399.7C410.1 397.57 404.57 394.92 404.72 392.07C399.436 391.957 394.194 391.099 389.15 389.52C386.574 390.605 383.805 391.159 381.01 391.15C373.92 391.12 367.8 387.64 364.85 382.64C363.641 384.669 363.002 386.987 363 389.35C363 397.73 371.06 404.52 381 404.52C383.795 404.529 386.564 403.975 389.14 402.89C389.967 403.156 390.817 403.406 391.69 403.64C395.682 404.665 399.772 405.258 403.89 405.41H404.71C404.71 408.27 408.71 410.91 415.56 413.04C411.4 414.04 408.95 415.31 408.95 416.67C408.95 419.04 416.47 421.1 427.56 422.15C435.45 423.97 447.04 425.15 459.95 425.15C483.72 425.15 503 421.25 503 416.44C503 415.54 502.33 414.68 501.09 413.87C509.57 411.62 514.71 408.67 514.71 405.44C514.663 404.81 514.483 404.197 514.181 403.642C513.879 403.086 513.463 402.602 512.96 402.22C514.01 402.32 515.08 402.39 516.17 402.45C517.94 402.54 519.74 402.59 521.58 402.59C525.255 402.596 528.928 402.393 532.58 401.98C546.7 400.37 556.9 395.73 556.9 390.27C556.9 387.79 554.81 385.49 551.22 383.56C544.92 386.94 534 389.17 521.58 389.17C518.58 389.17 515.72 389.04 512.96 388.8C513.463 389.182 513.879 389.666 514.181 390.222C514.483 390.777 514.663 391.39 514.71 392.02C514.71 395.25 509.57 398.2 501.09 400.45C502.33 401.26 503 402.12 503 403.02C503 407.83 483.72 411.73 459.95 411.73C458.29 411.78 397.8 409.52 416.91 399.7Z" fill="#BDD7EF"/>
<path fill-rule="evenodd" clip-rule="evenodd" d="M446.27 343.55C447.272 342.007 448.488 340.613 449.88 339.41C451.64 337.867 453.648 336.633 455.82 335.76C457.804 334.893 459.971 334.528 462.13 334.7C463.34 334.87 469.4 335.36 469.8 336.7C469.8 337.81 463.04 339 462.21 339.09C460.822 339.418 459.498 339.972 458.29 340.73C456.827 341.662 455.483 342.771 454.29 344.03C453.377 344.977 452.557 346.008 451.84 347.11C451.64 347.42 451.46 347.73 451.28 348.05C449.52 351.47 450.38 351.77 447.22 351.67C442.78 351.98 443.9 348.75 445.47 344.99C445.711 344.496 445.978 344.016 446.27 343.55Z" fill="white"/>
<path fill-rule="evenodd" clip-rule="evenodd" d="M514.08 369.8C515.298 367.932 516.892 366.338 518.76 365.12C520.82 363.85 529.9 359.88 531 363.27C530.83 364.01 524.18 368.27 522.54 369.79C521.449 370.837 520.489 372.013 519.68 373.29C518.06 376.12 518.68 376.15 515.68 376.08C511.24 376.31 512.19 373.47 514.08 369.83V369.8Z" fill="white"/>
<path fill-rule="evenodd" clip-rule="evenodd" d="M416.86 363.28C416.957 361.609 417.385 359.974 418.12 358.47C418.819 357.031 419.847 355.777 421.12 354.81C422.04 354.2 425.4 352.37 426.4 353.49C426.66 354.29 424.8 356.69 424.29 357.67C423.813 358.492 423.475 359.387 423.29 360.32C423.111 361.436 422.998 362.561 422.95 363.69C422.69 367.24 422.83 367.58 420.02 367.47C416.98 367.64 416.8 367.09 416.86 363.28Z" fill="white"/>
<path fill-rule="evenodd" clip-rule="evenodd" d="M487.8 356.06C489.056 355.567 490.39 355.3 491.74 355.27C493.135 355.182 494.533 355.408 495.83 355.93C496.444 356.143 497.006 356.484 497.48 356.93C497.96 357.39 498.55 358.18 498 358.81C497.559 359.097 497.067 359.294 496.55 359.39C496.18 359.51 495.81 359.61 495.44 359.71C494.53 360.01 493.64 360.29 492.74 360.62C491.84 360.95 491 361.3 490.13 361.62H490.07C488.23 362.38 488.29 361.88 486.77 360.32C484.77 358.45 484.27 357.73 487.7 356.01L487.8 356.06Z" fill="white"/>
<path fill-rule="evenodd" clip-rule="evenodd" d="M462.63 379.18C462.672 379.113 462.718 379.049 462.77 378.99C464.051 377.327 465.738 376.022 467.67 375.2C470.95 373.86 475.26 372.99 478.67 374.42C479.06 374.59 479.76 374.9 479.81 375.42C479.86 375.94 479.06 376.2 478.67 376.37C475.58 377.79 473.54 378.09 470.37 380.12C469.331 380.789 468.42 381.639 467.68 382.63C467.652 382.656 467.628 382.686 467.61 382.72C465.94 385.33 466.78 385.49 463.91 385.33C459.61 385.46 460.85 382.25 462.63 379.18Z" fill="white"/>
<path fill-rule="evenodd" clip-rule="evenodd" d="M458.18 382.76L457.97 382.68C456.538 382.141 455.004 381.929 453.48 382.06C451.623 382.216 449.813 382.728 448.15 383.57C446.92 384.18 442.42 387.34 441.78 387.17C440.52 385.7 444.78 380.95 445.7 380.07C447.651 378.36 449.993 377.158 452.52 376.57C455.011 375.974 457.621 376.106 460.04 376.95L460.43 377.1C463.18 378.45 467.66 380.85 464.05 383.3C461.51 385.52 461.8 384.38 458.18 382.76Z" fill="white"/>
<path fill-rule="evenodd" clip-rule="evenodd" d="M410.41 397.31C411.809 397.709 413.242 397.981 414.69 398.12C417.04 398.3 426.69 396.49 426.69 396.5C426.34 399.26 417.3 401.36 414.53 401.5C412.802 401.478 411.085 401.233 409.42 400.77C407.22 400.06 404.42 399.59 405.57 397.51C406.46 395.38 407.65 396.49 410.41 397.31Z" fill="#BDD7EF"/>
<path fill-rule="evenodd" clip-rule="evenodd" d="M505.7 402.76C504.009 402.97 502.296 402.95 500.61 402.7C497.61 402.21 494.37 401.22 492.31 398.87C492.1 398.67 491.57 398.12 491.84 397.81C492.217 397.772 492.598 397.809 492.96 397.92C495.502 398.849 498.175 399.369 500.88 399.46C502.334 399.502 503.788 399.428 505.23 399.24C507.88 398.84 508.61 398.06 509.23 399.94C510.27 402.18 508.08 402.34 505.7 402.76Z" fill="#BDD7EF"/>
<path fill-rule="evenodd" clip-rule="evenodd" d="M513.96 378.46C514.405 378.527 514.821 378.72 515.159 379.017C515.498 379.314 515.744 379.701 515.868 380.134C515.993 380.566 515.99 381.025 515.861 381.456C515.733 381.888 515.483 382.273 515.141 382.566C514.8 382.859 514.382 383.048 513.936 383.111C513.49 383.173 513.036 383.106 512.627 382.918C512.219 382.73 511.872 382.429 511.63 382.05C511.388 381.67 511.259 381.23 511.26 380.78C511.316 380.116 511.63 379.502 512.135 379.068C512.64 378.634 513.295 378.415 513.96 378.46Z" fill="white"/>
<path fill-rule="evenodd" clip-rule="evenodd" d="M419.08 369.2C419.525 369.267 419.941 369.46 420.28 369.757C420.618 370.054 420.864 370.441 420.988 370.874C421.113 371.306 421.11 371.765 420.981 372.196C420.853 372.627 420.603 373.013 420.261 373.306C419.92 373.599 419.502 373.788 419.056 373.851C418.61 373.913 418.156 373.846 417.748 373.658C417.339 373.47 416.993 373.169 416.75 372.789C416.508 372.41 416.379 371.97 416.38 371.52C416.434 370.855 416.747 370.239 417.253 369.804C417.758 369.37 418.415 369.153 419.08 369.2Z" fill="white"/>
<path fill-rule="evenodd" clip-rule="evenodd" d="M446.46 353.09C446.904 353.157 447.32 353.35 447.658 353.646C447.997 353.942 448.243 354.329 448.367 354.761C448.492 355.193 448.49 355.652 448.362 356.083C448.234 356.514 447.985 356.899 447.645 357.193C447.305 357.486 446.887 357.676 446.442 357.74C445.997 357.803 445.543 357.738 445.134 357.551C444.725 357.365 444.378 357.065 444.135 356.687C443.891 356.309 443.761 355.869 443.76 355.42C443.811 354.754 444.124 354.135 444.629 353.698C445.135 353.262 445.793 353.043 446.46 353.09Z" fill="white"/>
<path fill-rule="evenodd" clip-rule="evenodd" d="M493.65 414.83C487.08 418.34 483.92 419.04 476.84 419.99C469.56 420.99 461.05 420.16 453.92 418.85C460.571 417.793 467.274 417.099 474 416.77C481.57 416.3 485.9 415.86 493.65 414.83Z" fill="#E2EEF7"/>
<path fill-rule="evenodd" clip-rule="evenodd" d="M160.53 56C171.2 56 180.25 61.46 183.46 69C184.742 68.6376 186.068 68.4559 187.4 68.46C193.4 68.46 198.22 71.94 198.22 76.24C198.212 77.2498 197.947 78.2411 197.45 79.12C207.39 80.98 214.45 85.64 214.45 91.12C214.442 92.0769 214.231 93.0212 213.83 93.89C218.77 94.33 222.56 96.78 222.56 99.74C222.557 100.318 222.416 100.887 222.15 101.4C229.23 102.64 234.76 105.2 237.15 108.4C247.31 108.71 255.34 112.67 255.34 117.51C255.34 122.51 246.64 126.63 235.91 126.63C229.34 126.63 223.54 125.1 220.02 122.76C217.593 123.08 215.148 123.244 212.7 123.25C212.74 123.474 212.76 123.702 212.76 123.93C212.76 127.48 208.22 130.35 202.62 130.35C199.967 130.411 197.355 129.68 195.12 128.25C191.006 129.908 186.605 130.737 182.17 130.69C179.698 130.693 177.233 130.449 174.81 129.96C168.71 134.57 158.25 137.61 146.37 137.61C132.11 137.61 119.89 133.23 114.81 127.01C111.48 129.85 105.96 131.7 99.7097 131.7C91.2597 131.7 84.1298 128.31 81.9698 123.7C80.3085 124.093 78.6069 124.291 76.8997 124.29C68.1198 124.29 61.0098 119.22 61.0098 112.97C61.0098 106.72 68.1198 101.65 76.8997 101.65C84.5497 101.65 90.8998 105.51 92.4498 110.65C94.1348 110.224 95.8553 109.952 97.5898 109.84C97.5379 109.536 97.5111 109.228 97.5098 108.92C97.5098 104.92 101.98 101.66 107.51 101.66C108.135 101.659 108.76 101.699 109.38 101.78C109.49 97.22 113.22 93.37 118.38 92.03C112.75 91.09 108.57 87.65 108.57 83.55C108.57 78.74 114.34 74.83 121.46 74.83C123.784 74.8131 126.089 75.2584 128.24 76.14C130.798 74.9012 133.573 74.1742 136.41 74C137.15 64 147.67 56 160.53 56ZM99.6497 87.94C94.7597 87.94 90.7997 90.29 90.7997 93.18C90.7997 96.07 94.7997 98.41 99.6497 98.41C104.5 98.41 108.53 96.07 108.53 93.18C108.53 90.29 104.53 87.94 99.6497 87.94Z" fill="#E2EEF7"/>
<path fill-rule="evenodd" clip-rule="evenodd" d="M226.53 82.0004C232.53 82.0004 237.4 79.1004 237.4 75.5504C237.4 72.0004 232.52 69.1104 226.53 69.1104C220.54 69.1104 215.66 72.0104 215.66 75.5504C215.66 79.0904 220.53 82.0004 226.53 82.0004Z" fill="#EEF6FD"/>
<path fill-rule="evenodd" clip-rule="evenodd" d="M184.34 147C189.59 147 193.87 144.47 193.87 141.36C193.87 138.25 189.59 135.71 184.34 135.71C179.09 135.71 174.81 138.25 174.81 141.36C174.81 144.47 179.09 147 184.34 147Z" fill="#EEF6FD"/>
<path fill-rule="evenodd" clip-rule="evenodd" d="M114.8 127C119.88 133.22 132.1 137.6 146.36 137.6C158.24 137.6 168.7 134.6 174.8 129.95L175.52 130.09C177.711 130.484 179.934 130.682 182.16 130.68C186.11 130.707 190.036 130.061 193.77 128.77C194.23 128.6 194.68 128.43 195.11 128.24C197.346 129.67 199.957 130.401 202.61 130.34C208.21 130.34 212.75 127.47 212.75 123.92C212.75 123.692 212.73 123.464 212.69 123.24C215.138 123.234 217.583 123.07 220.01 122.75C223.53 125.09 229.33 126.62 235.9 126.62C246.63 126.62 255.33 122.54 255.33 117.5C255.33 114.85 252.92 112.5 249.07 110.79C245.45 117.14 232.61 120.13 220.01 111.79C217.583 112.11 215.138 112.274 212.69 112.28C212.69 112.5 212.75 111.07 212.75 112.96C212.75 114.85 206.9 119.38 202.61 119.38C198.32 119.38 196.97 118.57 195.11 117.28C190.965 118.83 186.585 119.655 182.16 119.72C179.685 119.787 177.212 119.538 174.8 118.98C160.53 129.7 126.23 130 114.8 116C103.8 125.36 65.46 120.44 64.09 106.23C63.1458 107.08 62.3847 108.113 61.8534 109.267C61.3221 110.42 61.0317 111.67 61 112.94C61 119.19 68.11 124.26 76.89 124.26C78.5972 124.261 80.2987 124.063 81.96 123.67C84.12 128.3 91.25 131.67 99.7 131.67C105.95 131.69 111.47 129.84 114.8 127Z" fill="#BDD7EF"/>
<path fill-rule="evenodd" clip-rule="evenodd" d="M140.89 66.6903C141.847 65.0612 143.052 63.5904 144.46 62.3303C146.063 60.8516 147.933 59.691 149.97 58.9103C151.884 58.0824 154.018 57.9101 156.04 58.4203C156.6 58.6303 157.91 59.0603 157.99 59.7603C157.91 60.4703 156.6 60.8503 156.04 61.0403C154.704 61.5716 153.451 62.2923 152.32 63.1803C151.073 64.1906 149.936 65.3303 148.93 66.5803C148.07 67.6569 147.297 68.8006 146.62 70.0003C146.54 70.1403 146.45 70.2903 146.38 70.4303C144.86 73.3403 145.38 73.3103 142.38 73.0703C138.52 73.0703 138.8 71.4403 140.56 67.3703C140.53 67.2503 140.84 66.7903 140.89 66.6903Z" fill="white"/>
<path fill-rule="evenodd" clip-rule="evenodd" d="M113.24 98.0001C113.32 97.8601 113.41 97.7201 113.5 97.5901C114.499 96.0987 115.88 94.9035 117.5 94.1301C119.5 93.2801 126.06 91.6901 126.57 95.2601C126.35 96.9301 123.29 98.9901 121.95 100.47C121.501 100.999 121.105 101.572 120.77 102.18C120.77 102.18 120.72 102.27 120.7 102.29C119.84 103.7 117.78 103.29 116.39 103.24C112.74 103.29 110.96 103 113.24 98.0001Z" fill="white"/>
<path fill-rule="evenodd" clip-rule="evenodd" d="M171.7 86.1803L172.12 85.7403C173.606 84.3589 175.414 83.3721 177.38 82.8704C179.07 82.4604 186.67 81.2003 187.62 83.4303C187.53 85.0003 181.03 87.1303 179.37 88.0003C178.29 88.5064 177.297 89.1815 176.43 90.0003L176.25 90.1904C174.51 92.3304 175.15 92.3903 172.5 92.0003C168.39 91.7703 169.53 89.1003 171.7 86.1803Z" fill="white"/>
<path fill-rule="evenodd" clip-rule="evenodd" d="M170.47 121.45C171.6 120.76 172.65 120.05 173.72 119.27C176.095 117.485 178.338 115.53 180.43 113.42C180.74 113.09 181.14 112.73 181.48 112.42C181.67 112.25 181.874 112.096 182.09 111.96C182.25 111.85 182.41 111.7 182.61 111.74C182.81 111.78 182.72 112.2 182.67 112.35C182.61 112.613 182.519 112.868 182.4 113.11C182.199 113.477 182.025 113.858 181.88 114.25C180.77 117.12 178.09 119.84 175.83 121.85C174.735 122.82 173.561 123.696 172.32 124.47C172.07 124.63 171.81 124.77 171.55 124.91C169.71 125.8 167.29 127.21 167.27 124.72C167.03 122.72 167.57 123.08 169.83 121.82C170.05 121.71 170.26 121.58 170.47 121.45Z" fill="#BDD7EF"/>
<path fill-rule="evenodd" clip-rule="evenodd" d="M215.53 115.13C213.883 115.11 212.242 114.929 210.63 114.59C209.15 114.292 207.728 113.755 206.42 113C205.83 112.63 203.08 110.58 203.65 109.64C203.97 109.48 206.65 110.64 207.34 110.85C208.56 111.16 209.805 111.361 211.06 111.45C212.57 111.55 214.06 111.56 215.55 111.58C218.06 111.58 219.19 111.21 219.08 113.23C219.19 115.39 218.08 115.1 215.53 115.13Z" fill="#BDD7EF"/>
<path fill-rule="evenodd" clip-rule="evenodd" d="M115.88 121.2C114.03 119.73 105.73 111.61 107.55 109.26C107.75 109.26 116.82 117.45 118.02 118.36C120.14 119.95 121.28 120.1 120.2 121.8C119.17 123.9 117.98 122.68 115.88 121.2Z" fill="#BDD7EF"/>
<path fill-rule="evenodd" clip-rule="evenodd" d="M115.42 105.26C115.972 105.345 116.489 105.585 116.908 105.954C117.328 106.323 117.633 106.804 117.787 107.341C117.941 107.878 117.938 108.448 117.778 108.983C117.618 109.518 117.308 109.997 116.884 110.361C116.461 110.725 115.942 110.96 115.389 111.038C114.835 111.116 114.272 111.034 113.764 110.802C113.256 110.569 112.825 110.195 112.523 109.726C112.222 109.256 112.061 108.709 112.06 108.15C112.124 107.322 112.513 106.553 113.143 106.011C113.773 105.47 114.592 105.2 115.42 105.26Z" fill="white"/>
<path fill-rule="evenodd" clip-rule="evenodd" d="M171.25 92.9102C171.802 92.9944 172.319 93.2352 172.738 93.6041C173.158 93.9729 173.463 94.4543 173.617 94.9912C173.771 95.5281 173.768 96.098 173.608 96.6332C173.448 97.1684 173.138 97.6464 172.714 98.0107C172.291 98.3749 171.772 98.6101 171.219 98.6882C170.666 98.7663 170.102 98.6842 169.594 98.4515C169.086 98.2188 168.656 97.8454 168.354 97.3754C168.052 96.9055 167.891 96.3588 167.89 95.8002C167.954 94.9721 168.344 94.203 168.973 93.6613C169.603 93.1196 170.422 92.8496 171.25 92.9102Z" fill="white"/>
<path fill-rule="evenodd" clip-rule="evenodd" d="M167.08 126.35C163.36 129.99 162.69 130.56 157.36 132.04C151.46 133.68 145.01 132.96 139.16 131.45C143.83 130.3 141.36 130.75 146.16 130.24C154.82 129.32 158.65 128.93 167.08 126.35Z" fill="#E2EEF7"/>
<path fill-rule="evenodd" clip-rule="evenodd" d="M226.94 119C228.78 119.18 228.82 119.56 231.49 119.55C234.835 119.473 238.176 119.829 241.43 120.61C238.09 122.33 237.51 123.11 233.43 122.9C232.09 122.81 226.27 121.34 226.94 119Z" fill="#E2EEF7"/>
<path fill-rule="evenodd" clip-rule="evenodd" d="M174.81 141.37C174.81 144.49 179.08 147.01 184.34 147.01C189.6 147.01 193.87 144.49 193.87 141.37C193.858 140.427 193.502 139.52 192.87 138.82C191.3 140.65 188.08 141.91 184.37 141.91C180.66 141.91 177.44 140.65 175.87 138.82C175.216 139.512 174.839 140.419 174.81 141.37Z" fill="#BDD7EF"/>
<path fill-rule="evenodd" clip-rule="evenodd" d="M99.35 465.795C90.6762 469.282 80.9792 469.221 72.35 465.625C69.7544 466.235 67.0964 466.541 64.43 466.535C51.49 466.535 41 459.535 41 450.915C41 442.915 50 436.335 61.63 435.405C61.0523 434.444 60.7417 433.346 60.73 432.225C60.73 426.675 68.6 422.225 78.31 422.225C81.053 422.208 83.7841 422.586 86.42 423.345C87.483 420.87 89.2607 418.77 91.5251 417.313C93.7896 415.855 96.4377 415.107 99.13 415.165C102.479 415.143 105.728 416.309 108.3 418.455C108.257 413.113 110.322 407.969 114.047 404.14C117.773 400.311 122.858 398.106 128.199 398.004C133.541 397.901 138.707 399.909 142.577 403.592C146.447 407.275 148.708 412.335 148.87 417.675C150.575 417.045 152.401 416.81 154.209 416.989C156.018 417.168 157.763 417.755 159.311 418.707C160.86 419.658 162.172 420.949 163.149 422.482C164.126 424.015 164.742 425.749 164.95 427.555C167.292 428.763 169.453 430.295 171.37 432.105C172.681 429.793 174.572 427.864 176.856 426.506C179.14 425.148 181.739 424.409 184.396 424.362C187.053 424.314 189.676 424.96 192.007 426.236C194.339 427.511 196.297 429.372 197.69 431.635C199.293 430.252 201.256 429.355 203.351 429.048C205.445 428.742 207.583 429.039 209.515 429.905C211.446 430.771 213.091 432.17 214.256 433.938C215.42 435.705 216.056 437.768 216.09 439.885C225.59 442.565 231.8 447.025 231.8 452.065C231.8 460.255 215.39 466.895 195.14 466.895C191.008 466.904 186.881 466.616 182.79 466.035C181.275 468.273 179.259 470.127 176.902 471.448C174.544 472.77 171.911 473.523 169.211 473.647C166.511 473.771 163.82 473.264 161.351 472.164C158.882 471.065 156.704 469.404 154.99 467.315C152.543 467.768 150.059 467.995 147.57 467.995C141.232 468.058 134.982 466.506 129.41 463.485C125.605 467.574 120.401 470.083 114.831 470.511C109.262 470.939 103.735 469.255 99.35 465.795ZM157.03 481.345C160.73 481.345 163.73 482.775 163.73 484.545C163.73 486.315 160.73 487.755 157.03 487.755C153.33 487.755 150.33 486.325 150.33 484.545C150.33 482.765 153.33 481.345 157.03 481.345ZM124.37 475.485C136.55 475.485 146.42 478.235 146.42 481.625C146.42 485.015 136.55 487.765 124.37 487.765C112.19 487.765 102.32 485.015 102.32 481.625C102.32 478.235 112.2 475.435 124.37 475.435V475.485Z" fill="#E2EEF7"/>
<path fill-rule="evenodd" clip-rule="evenodd" d="M168.42 460.135C165.853 460.137 163.318 459.57 160.997 458.473C158.677 457.377 156.628 455.779 155 453.795C152.554 454.256 150.069 454.487 147.58 454.485C141.242 454.548 134.992 452.996 129.42 449.975C125.619 454.07 120.417 456.587 114.847 457.026C109.277 457.465 103.746 455.794 99.35 452.345C90.6762 455.832 80.9792 455.771 72.35 452.175C69.7544 452.785 67.0964 453.091 64.43 453.085C55.1 453.085 47.03 449.445 43.27 444.175C41.8255 446.117 41.0311 448.465 41 450.885C41 459.515 51.49 466.505 64.43 466.505C67.0964 466.511 69.7544 466.205 72.35 465.595C80.9792 469.191 90.6762 469.253 99.35 465.765C100.297 466.507 101.3 467.176 102.35 467.765C106.699 470.161 111.726 471.032 116.628 470.24C121.53 469.448 126.026 467.039 129.4 463.395C134.625 466.233 140.455 467.773 146.4 467.885H147.59C150.079 467.885 152.563 467.658 155.01 467.205C155.22 467.455 155.44 467.695 155.65 467.935C157.421 469.867 159.606 471.372 162.042 472.339C164.478 473.305 167.101 473.707 169.715 473.515C172.328 473.322 174.864 472.541 177.132 471.228C179.4 469.915 181.341 468.105 182.81 465.935C186.901 466.516 191.028 466.804 195.16 466.795C215.41 466.795 231.82 460.155 231.82 451.965C231.82 449.545 230.4 447.265 227.87 445.255C221.81 450.075 209.44 453.375 195.16 453.375C191.028 453.384 186.901 453.096 182.81 452.515C181.217 454.865 179.073 456.788 176.564 458.117C174.055 459.445 171.259 460.138 168.42 460.135Z" fill="#BDD7EF"/>
<path fill-rule="evenodd" clip-rule="evenodd" d="M112.03 413.704C112.373 412.664 112.815 411.66 113.35 410.704C114.424 408.78 115.833 407.063 117.51 405.634C119.202 404.162 121.233 403.131 123.42 402.634C124.767 402.508 126.104 402.287 127.42 401.974C128.232 401.828 129.056 401.761 129.88 401.774C130.171 401.739 130.467 401.759 130.75 401.834C130.855 401.835 130.959 401.862 131.05 401.914C131.093 401.909 131.137 401.909 131.18 401.914H131.26C131.26 401.914 131.35 401.914 131.39 401.914C131.43 401.914 131.45 402.024 131.45 402.064C131.455 402.104 131.455 402.145 131.45 402.184C131.465 402.247 131.465 402.312 131.45 402.374C131.422 402.501 131.367 402.62 131.29 402.724C131.136 403.008 130.921 403.254 130.66 403.444C130.046 404.035 129.356 404.543 128.61 404.954C127.61 405.524 125.81 406.354 124.95 406.954C123.677 407.67 122.551 408.62 121.63 409.754C120.638 410.942 119.805 412.253 119.15 413.654C118.837 414.328 118.563 415.019 118.33 415.724C118.15 416.284 118.01 416.814 117.88 417.384C117.79 417.784 117.72 418.254 117.61 418.644C117.31 419.644 116.13 420.024 115.27 420.454C113.64 421.454 112.87 422.564 111.71 419.344C111.449 418.415 111.371 417.444 111.48 416.484C111.549 415.539 111.734 414.605 112.03 413.704Z" fill="white"/>
<path fill-rule="evenodd" clip-rule="evenodd" d="M174.12 430.045C175.018 428.846 176.134 427.829 177.41 427.045C179.07 426.105 184.66 424.155 185.41 426.665C185.3 427.495 181.88 430.135 180.87 431.265C180.19 432.045 179.61 432.825 179 433.665C177.32 435.925 177.26 435.665 175.13 434.565C172.71 433.385 172.15 433.035 174.12 430.045Z" fill="white"/>
<path fill-rule="evenodd" clip-rule="evenodd" d="M64.12 429.934L64.36 429.504C65.3077 427.988 66.6532 426.76 68.25 425.954C71.02 424.674 74.92 423.954 77.73 425.564C77.8706 425.637 77.992 425.742 78.0841 425.871C78.1762 425.999 78.2365 426.148 78.26 426.304C78.2336 426.457 78.172 426.602 78.08 426.727C77.988 426.852 77.8682 426.954 77.73 427.024C75.47 428.444 73.73 428.584 71.27 430.604C70.5979 431.166 70.0322 431.843 69.6 432.604C69.5588 432.66 69.5252 432.72 69.5 432.784C68.29 435.214 68.68 435.134 66.12 435.014C62.59 435.134 62.57 433.544 64.12 429.934Z" fill="white"/>
<path fill-rule="evenodd" clip-rule="evenodd" d="M129.31 432.595C130.771 431.163 132.554 430.103 134.51 429.505C136.443 428.87 138.489 428.659 140.51 428.885C141.411 428.917 142.297 429.128 143.116 429.505C143.935 429.883 144.671 430.42 145.28 431.085C145.561 431.481 145.702 431.959 145.68 432.445C145.27 432.673 144.795 432.761 144.33 432.695C143.11 432.709 141.894 432.843 140.7 433.095C139.31 433.454 137.967 433.978 136.7 434.655C135.595 435.224 134.583 435.959 133.7 436.835L133.65 436.895C133.34 437.225 133.11 437.525 132.83 437.895C131.89 439.035 131.26 438.735 129.9 438.665C127.72 438.665 126.64 438.885 127.53 435.465C127.896 434.447 128.476 433.52 129.23 432.745C129.25 432.691 129.277 432.64 129.31 432.595Z" fill="white"/>
<path fill-rule="evenodd" clip-rule="evenodd" d="M75.2502 456.795C73.3892 456.176 71.6597 455.217 70.1502 453.965C68.7812 452.881 67.6595 451.517 66.8602 449.965C66.5102 449.185 65.3702 445.585 66.5702 445.215C66.7702 445.275 68.2902 448.065 68.8102 448.705C69.7414 449.767 70.8228 450.686 72.0202 451.435C73.3771 452.275 74.8311 452.946 76.3502 453.435C78.8902 454.205 79.6702 453.725 79.5502 455.675C79.6702 458.165 77.5102 457.405 75.2502 456.795Z" fill="#BDD7EF"/>
<path fill-rule="evenodd" clip-rule="evenodd" d="M94.8598 453.795C96.4388 453.339 97.9668 452.723 99.4198 451.955C101.008 451.127 102.517 450.156 103.93 449.055C105.078 448.097 106.133 447.032 107.08 445.875C107.22 445.705 107.63 445.225 107.88 445.415C108.13 445.605 107.83 446.145 107.93 446.175C107.638 447.891 106.836 449.48 105.63 450.735C104.324 452.287 102.794 453.635 101.09 454.735C99.4678 455.822 97.6912 456.658 95.8198 457.215L95.5898 457.275C94.0198 457.585 89.5898 458.535 90.6498 455.805C91.1398 453.805 91.8698 454.485 94.6498 453.805L94.8598 453.795Z" fill="#BDD7EF"/>
<path fill-rule="evenodd" clip-rule="evenodd" d="M156.96 460.334C155.825 459.384 154.816 458.292 153.96 457.084C152.976 455.73 152.197 454.237 151.65 452.654C151.45 452.054 150.54 448.764 151.65 448.504C152.06 448.594 153.38 451.124 153.7 451.614C154.544 452.81 155.466 453.949 156.46 455.024C157.3 455.938 158.202 456.794 159.16 457.584L159.44 457.804C159.84 458.114 160.23 458.384 160.62 458.684C161.49 459.284 161.28 459.474 161.16 460.464C161.09 461.744 161.22 462.274 159.16 461.664C158.49 461.426 157.86 461.089 157.29 460.664L156.96 460.334Z" fill="#BDD7EF"/>
<path fill-rule="evenodd" clip-rule="evenodd" d="M178.94 456.795L179.14 456.645C180.12 455.906 181.01 455.053 181.79 454.105C183.68 451.735 184.7 449.485 186.35 447.235C186.41 447.135 186.71 446.735 186.8 446.865C186.8 446.865 187.03 446.595 187.16 446.595C187.29 446.595 187.43 446.925 187.44 447.045C187.432 447.128 187.408 447.21 187.37 447.285C187.331 447.354 187.281 447.415 187.22 447.465C187.04 447.655 187.3 447.465 187.31 447.525C186.992 450.51 185.997 453.383 184.4 455.925C183.567 457.267 182.504 458.451 181.26 459.425C181.26 459.475 181.04 459.585 180.98 459.635C179.33 460.685 176.86 462.405 176.41 459.975C175.79 458.045 176.74 458.275 178.94 456.795Z" fill="#BDD7EF"/>
<path fill-rule="evenodd" clip-rule="evenodd" d="M132.9 482.245C118.6 483.485 108.3 482.005 104.47 478.925C103.1 479.725 102.32 480.625 102.32 481.575C102.32 484.965 112.2 487.715 124.37 487.715C136.54 487.715 146.42 484.965 146.42 481.575C146.369 481.118 146.21 480.681 145.956 480.298C145.702 479.916 145.36 479.599 144.96 479.375C142.77 480.605 139.07 481.705 132.9 482.245Z" fill="#BDD7EF"/>
<path fill-rule="evenodd" clip-rule="evenodd" d="M130.28 440.104C130.725 440.171 131.141 440.365 131.48 440.662C131.818 440.958 132.064 441.346 132.188 441.778C132.313 442.211 132.311 442.67 132.182 443.101C132.053 443.532 131.803 443.917 131.462 444.211C131.12 444.504 130.702 444.693 130.256 444.755C129.811 444.818 129.356 444.751 128.948 444.563C128.539 444.375 128.193 444.073 127.95 443.694C127.708 443.315 127.579 442.874 127.58 442.424C127.634 441.76 127.947 441.144 128.453 440.709C128.959 440.275 129.615 440.057 130.28 440.104Z" fill="white"/>
<path fill-rule="evenodd" clip-rule="evenodd" d="M114.71 423.195C115.155 423.262 115.571 423.455 115.909 423.752C116.248 424.049 116.494 424.436 116.618 424.869C116.743 425.301 116.74 425.76 116.611 426.191C116.483 426.623 116.233 427.008 115.891 427.301C115.55 427.594 115.132 427.783 114.686 427.846C114.24 427.908 113.786 427.841 113.377 427.653C112.969 427.465 112.622 427.164 112.38 426.785C112.138 426.406 112.009 425.965 112.01 425.515C112.063 424.85 112.377 424.234 112.883 423.8C113.388 423.365 114.045 423.148 114.71 423.195Z" fill="white"/>
<path fill-rule="evenodd" clip-rule="evenodd" d="M65.5896 437.414C66.0342 437.481 66.4502 437.674 66.7884 437.971C67.1265 438.267 67.3725 438.654 67.4973 439.086C67.6221 439.518 67.6204 439.977 67.4923 440.407C67.3643 440.838 67.1153 441.224 66.7749 441.517C66.4346 441.811 66.0171 442.001 65.5721 442.065C65.127 442.128 64.6731 442.063 64.2641 441.876C63.8551 441.69 63.5082 441.389 63.2646 441.012C63.021 440.634 62.8908 440.194 62.8896 439.744C62.9408 439.078 63.2534 438.459 63.7593 438.023C64.2651 437.586 64.9231 437.368 65.5896 437.414Z" fill="white"/>
<path fill-rule="evenodd" clip-rule="evenodd" d="M180.29 460.905C175.88 465.955 172.62 470.035 165.13 466.905L162.3 465.235C172.57 464.245 169.51 465.245 180.29 460.905Z" fill="#E2EEF7"/>
<path fill-rule="evenodd" clip-rule="evenodd" d="M99.5098 459.794C105.51 462.514 105.13 462.214 112.44 462.674C115.25 462.854 117.8 462.674 120.71 462.744L118.51 464.294C113.24 466.874 101.4 466.794 99.5098 459.794Z" fill="#E2EEF7"/>
</g>
<defs>
<filter id="filter0_d_2343_24627" x="41" y="149" width="228.14" height="112.15" filterUnits="userSpaceOnUse" color-interpolation-filters="sRGB">
<feFlood flood-opacity="0" result="BackgroundImageFix"/>
<feColorMatrix in="SourceAlpha" type="matrix" values="0 0 0 0 0 0 0 0 0 0 0 0 0 0 0 0 0 0 127 0" result="hardAlpha"/>
<feOffset dy="4"/>
<feGaussianBlur stdDeviation="2"/>
<feComposite in2="hardAlpha" operator="out"/>
<feColorMatrix type="matrix" values="0 0 0 0 0 0 0 0 0 0 0 0 0 0 0 0 0 0 0.25 0"/>
<feBlend mode="normal" in2="BackgroundImageFix" result="effect1_dropShadow_2343_24627"/>
<feBlend mode="normal" in="SourceGraphic" in2="effect1_dropShadow_2343_24627" result="shape"/>
</filter>
<filter id="filter1_d_2343_24627" x="270" y="270" width="228.14" height="112.15" filterUnits="userSpaceOnUse" color-interpolation-filters="sRGB">
<feFlood flood-opacity="0" result="BackgroundImageFix"/>
<feColorMatrix in="SourceAlpha" type="matrix" values="0 0 0 0 0 0 0 0 0 0 0 0 0 0 0 0 0 0 127 0" result="hardAlpha"/>
<feOffset dy="4"/>
<feGaussianBlur stdDeviation="2"/>
<feComposite in2="hardAlpha" operator="out"/>
<feColorMatrix type="matrix" values="0 0 0 0 0 0 0 0 0 0 0 0 0 0 0 0 0 0 0.25 0"/>
<feBlend mode="normal" in2="BackgroundImageFix" result="effect1_dropShadow_2343_24627"/>
<feBlend mode="normal" in="SourceGraphic" in2="effect1_dropShadow_2343_24627" result="shape"/>
</filter>
<clipPath id="clip0_2343_24627">
<rect width="520" height="520" rx="260" fill="white"/>
</clipPath>
</defs>
</svg>
