<svg id="OBJECTS" xmlns="http://www.w3.org/2000/svg" xmlns:xlink="http://www.w3.org/1999/xlink"
    viewBox="0 0 768.58 502.54">
    <defs>
        <style>
            .cls-1 {
                fill: none;
            }

            .cls-2 {
                fill: #d7f2ff;
            }

            .cls-3 {
                clip-path: url(#clip-path);
            }
        </style>
        <clipPath id="clip-path" transform="translate(-6.07 11.42)">
            <rect class="cls-1" width="750" height="500" />
        </clipPath>
    </defs>
    <path class="cls-2"
        d="M717.7,421.45c.89,2.32,1.32,4.32,1,4.45s-1.35-1.64-2.23-4-1.32-4.32-1-4.45S716.82,419.12,717.7,421.45Z"
        transform="translate(-6.07 11.42)" />
    <path class="cls-2"
        d="M729.1,417.18c.18,2.49,0,4.52-.36,4.55s-.81-2-1-4.45,0-4.51.36-4.54S728.93,414.7,729.1,417.18Z"
        transform="translate(-6.07 11.42)" />
    <path class="cls-2"
        d="M740.11,421.53c-1,2.26-2.16,4-2.5,3.81s.23-2.11,1.26-4.38,2.16-4,2.5-3.81S741.14,419.27,740.11,421.53Z"
        transform="translate(-6.07 11.42)" />
    <path class="cls-2"
        d="M355.55,421.45c.88,2.32,1.32,4.32,1,4.45s-1.35-1.64-2.24-4-1.32-4.32-1-4.45S354.66,419.12,355.55,421.45Z"
        transform="translate(-6.07 11.42)" />
    <path class="cls-2" d="M367,417.18c.17,2.49,0,4.52-.36,4.55s-.82-2-1-4.45,0-4.51.35-4.54S366.77,414.7,367,417.18Z"
        transform="translate(-6.07 11.42)" />
    <path class="cls-2"
        d="M378,421.53c-1,2.26-2.15,4-2.49,3.81s.22-2.11,1.26-4.38,2.15-4,2.49-3.81S379,419.27,378,421.53Z"
        transform="translate(-6.07 11.42)" />
    <path class="cls-2"
        d="M308.74,421.45c.88,2.32,1.31,4.32,1,4.45s-1.35-1.64-2.23-4-1.32-4.32-1-4.45S307.85,419.12,308.74,421.45Z"
        transform="translate(-6.07 11.42)" />
    <path class="cls-2"
        d="M320.14,417.18c.17,2.49,0,4.52-.36,4.55s-.82-2-1-4.45,0-4.51.36-4.54S320,414.7,320.14,417.18Z"
        transform="translate(-6.07 11.42)" />
    <path class="cls-2"
        d="M331.14,421.53c-1,2.26-2.15,4-2.49,3.81s.22-2.11,1.26-4.38,2.15-4,2.49-3.81S332.18,419.27,331.14,421.53Z"
        transform="translate(-6.07 11.42)" />
    <path class="cls-2"
        d="M402.87,468.67c.89,2.32,1.32,4.32,1,4.45s-1.35-1.64-2.24-4-1.31-4.32-1-4.45S402,466.34,402.87,468.67Z"
        transform="translate(-6.07 11.42)" />
    <path class="cls-2"
        d="M414.27,464.4c.18,2.49,0,4.52-.36,4.54s-.82-2-1-4.44,0-4.51.36-4.54S414.1,461.92,414.27,464.4Z"
        transform="translate(-6.07 11.42)" />
    <path class="cls-2"
        d="M425.27,468.75c-1,2.26-2.15,4-2.49,3.81s.22-2.11,1.26-4.38,2.15-4,2.5-3.81S426.31,466.49,425.27,468.75Z"
        transform="translate(-6.07 11.42)" />
    <path class="cls-2"
        d="M240,451.2c.89,2.33,1.32,4.32,1,4.45s-1.35-1.64-2.23-4-1.32-4.31-1-4.45S239.07,448.88,240,451.2Z"
        transform="translate(-6.07 11.42)" />
    <path class="cls-2"
        d="M251.35,446.94c.18,2.48,0,4.51-.36,4.54s-.82-2-1-4.45,0-4.51.36-4.54S251.18,444.46,251.35,446.94Z"
        transform="translate(-6.07 11.42)" />
    <path class="cls-2"
        d="M262.36,451.28c-1,2.27-2.16,4-2.5,3.82s.23-2.12,1.26-4.38,2.16-4,2.5-3.81S263.39,449,262.36,451.28Z"
        transform="translate(-6.07 11.42)" />
    <path class="cls-2" d="M7.49,457.82c.17,2.48,0,4.51-.36,4.54s-.82-2-1-4.44,0-4.52.36-4.55S7.31,455.34,7.49,457.82Z"
        transform="translate(-6.07 11.42)" />
    <path class="cls-2"
        d="M18.49,462.17c-1,2.26-2.15,4-2.49,3.81s.22-2.12,1.26-4.38,2.15-4,2.49-3.81S19.53,459.9,18.49,462.17Z"
        transform="translate(-6.07 11.42)" />
    <path class="cls-2"
        d="M708.09,480.25c.88,2.32,1.32,4.32,1,4.45s-1.35-1.64-2.24-4-1.32-4.32-1-4.45S707.21,477.92,708.09,480.25Z"
        transform="translate(-6.07 11.42)" />
    <path class="cls-2" d="M719.49,476c.18,2.49,0,4.52-.36,4.55s-.82-2-1-4.45,0-4.51.36-4.54S719.31,473.5,719.49,476Z"
        transform="translate(-6.07 11.42)" />
    <path class="cls-2"
        d="M730.49,480.33c-1,2.26-2.15,4-2.49,3.81s.22-2.11,1.26-4.38,2.15-4,2.49-3.81S731.53,478.07,730.49,480.33Z"
        transform="translate(-6.07 11.42)" />
    <g class="cls-3">
        <path class="cls-2"
            d="M312.19,246.31c-3.4,4.43-10.18,13.42-13.52,17.89-2.24,3-4.55,5.94-6.84,8.89a160.63,160.63,0,0,0-12.3,18.76c-.58,1-1.14,2-1.69,3a6,6,0,0,0-.57,1.36c-.74,2.5.48,2.11,1.46,1.49a7,7,0,0,0,1.49-1.27c3.26-3.64,6.31-7.43,9.3-11.3,4.6-5.9,8.36-12.39,12.48-18.62,8-12.12,16.62-25.45,24.33-37.7l-.41-.29C321.29,234.44,316.77,240.4,312.19,246.31Z"
            transform="translate(-6.07 11.42)" />
        <path class="cls-2"
            d="M52.34,207.57C48.94,212,42.15,221,38.82,225.47c-2.24,3-4.56,5.93-6.85,8.89a163.11,163.11,0,0,0-12.3,18.75c-.57,1-1.13,2-1.68,3a6.79,6.79,0,0,0-.58,1.36c-.73,2.5.49,2.11,1.47,1.49a6.69,6.69,0,0,0,1.49-1.27c3.25-3.63,6.31-7.43,9.3-11.29,4.59-5.91,8.36-12.39,12.48-18.63,8-12.12,16.62-25.45,24.33-37.69l-.42-.3C61.43,195.7,56.92,201.66,52.34,207.57Z"
            transform="translate(-6.07 11.42)" />
        <path class="cls-2"
            d="M384.29,148.12a81.82,81.82,0,0,0-6.15,9.38c-.29.5-.57,1-.84,1.52a3.39,3.39,0,0,0-.29.68c-.37,1.25.24,1.06.74.75a4.1,4.1,0,0,0,.74-.64c1.63-1.82,3.15-3.71,4.65-5.65,2.3-2.95,4.18-6.19,6.24-9.31,4-6.06,8.31-12.72,12.17-18.85l-.21-.14c-2.32,2.94-4.58,5.92-6.87,8.87-1.69,2.22-5.09,6.71-6.76,9C386.59,145.18,385.44,146.65,384.29,148.12Z"
            transform="translate(-6.07 11.42)" />
        <path class="cls-2"
            d="M189.63,180.12c-1.66,2.1-3.27,4.22-4.91,6.34-1.21,1.58-3.63,4.79-4.83,6.39-.79,1.07-1.62,2.12-2.44,3.17a58,58,0,0,0-4.39,6.7c-.21.36-.41.72-.61,1.09a2.86,2.86,0,0,0-.2.48c-.26.9.17.76.52.54a2.34,2.34,0,0,0,.53-.46c1.17-1.29,2.26-2.65,3.33-4,1.64-2.11,3-4.43,4.45-6.65,2.87-4.33,5.94-9.09,8.7-13.47Z"
            transform="translate(-6.07 11.42)" />
        <path class="cls-2"
            d="M382.45,340.71c-1.66,2.1-3.27,4.23-4.91,6.34-1.21,1.58-3.64,4.79-4.83,6.39-.8,1.07-1.62,2.12-2.44,3.18a56.45,56.45,0,0,0-4.4,6.7l-.6,1.08a3,3,0,0,0-.2.49c-.26.89.17.75.52.53a2.3,2.3,0,0,0,.53-.45c1.17-1.3,2.26-2.66,3.32-4,1.65-2.11,3-4.42,4.46-6.65,2.86-4.33,5.94-9.09,8.69-13.46Z"
            transform="translate(-6.07 11.42)" />
        <path class="cls-2"
            d="M365.55,272.9c-1.66,2.09-3.27,4.22-4.91,6.33-1.21,1.59-3.63,4.8-4.83,6.4-.8,1.07-1.62,2.12-2.44,3.17a58,58,0,0,0-4.39,6.7c-.21.36-.41.72-.61,1.09a2.55,2.55,0,0,0-.2.48c-.26.9.17.76.52.54a2.34,2.34,0,0,0,.53-.46c1.17-1.3,2.26-2.65,3.33-4,1.64-2.11,3-4.43,4.45-6.66,2.87-4.32,5.94-9.09,8.7-13.46Z"
            transform="translate(-6.07 11.42)" />
        <path class="cls-2"
            d="M480.34,404.85c-1.66,2.1-3.27,4.22-4.91,6.34-1.21,1.58-3.63,4.79-4.83,6.39-.8,1.07-1.62,2.12-2.44,3.17a56.76,56.76,0,0,0-4.39,6.7c-.21.36-.41.72-.61,1.09a2.86,2.86,0,0,0-.2.48c-.26.9.17.76.52.54a2.34,2.34,0,0,0,.53-.46c1.17-1.29,2.26-2.65,3.32-4,1.65-2.11,3-4.43,4.46-6.66,2.87-4.32,5.94-9.09,8.7-13.46Z"
            transform="translate(-6.07 11.42)" />
        <path class="cls-2"
            d="M612.24,466.24c-1.65,2.1-3.27,4.23-4.9,6.34-1.21,1.59-3.64,4.79-4.83,6.39-.8,1.07-1.63,2.12-2.45,3.18a58.5,58.5,0,0,0-4.39,6.7l-.6,1.08a2.33,2.33,0,0,0-.21.49c-.26.89.18.75.53.53a2.53,2.53,0,0,0,.53-.45c1.16-1.3,2.25-2.66,3.32-4,1.64-2.11,3-4.42,4.46-6.65,2.86-4.33,5.94-9.09,8.69-13.46Z"
            transform="translate(-6.07 11.42)" />
        <path class="cls-2"
            d="M703.32,366.51c-1.66,2.1-3.27,4.23-4.91,6.34-1.21,1.58-3.64,4.79-4.83,6.39-.8,1.07-1.62,2.12-2.44,3.18a57.15,57.15,0,0,0-4.4,6.69l-.6,1.09a3,3,0,0,0-.2.49c-.27.89.17.75.52.53a2.3,2.3,0,0,0,.53-.45c1.17-1.3,2.26-2.66,3.32-4,1.65-2.11,3-4.43,4.46-6.65,2.86-4.33,5.94-9.09,8.69-13.47Z"
            transform="translate(-6.07 11.42)" />
        <path class="cls-2"
            d="M691.45,161.12c-1.22,1.59-3.64,4.8-4.83,6.4-.8,1.07-1.63,2.12-2.45,3.17a59.39,59.39,0,0,0-4.39,6.7c-.2.36-.41.72-.6,1.09a2.06,2.06,0,0,0-.21.48c-.26.9.18.76.53.54A2.87,2.87,0,0,0,680,179c1.16-1.3,2.25-2.65,3.32-4,1.64-2.11,3-4.43,4.46-6.66,2.86-4.32,5.94-9.09,8.69-13.46l-.15-.1C694.7,156.88,693.08,159,691.45,161.12Z"
            transform="translate(-6.07 11.42)" />
        <path class="cls-2"
            d="M598.54,59.35c2.87-4.32,5.94-9.09,8.7-13.46l-.15-.1c-1.66,2.1-3.27,4.22-4.91,6.34-1.21,1.58-3.63,4.79-4.83,6.39-.8,1.07-1.62,2.12-2.44,3.17a58,58,0,0,0-4.39,6.7c-.21.36-.41.72-.61,1.09a2.86,2.86,0,0,0-.2.48c-.26.9.17.76.52.54a2.34,2.34,0,0,0,.53-.46c1.17-1.3,2.26-2.65,3.33-4C595.73,63.9,597.07,61.58,598.54,59.35Z"
            transform="translate(-6.07 11.42)" />
        <path class="cls-2"
            d="M515.66,164.58c2.86-4.33,5.94-9.09,8.7-13.47l-.15-.1c-1.66,2.1-3.27,4.22-4.91,6.34-1.21,1.58-3.63,4.79-4.83,6.39-.8,1.07-1.62,2.12-2.44,3.17a56.76,56.76,0,0,0-4.39,6.7c-.21.36-.41.73-.61,1.09a2.65,2.65,0,0,0-.2.49c-.26.89.17.75.52.53a2.12,2.12,0,0,0,.53-.46c1.17-1.29,2.26-2.65,3.32-4C512.85,169.12,514.19,166.8,515.66,164.58Z"
            transform="translate(-6.07 11.42)" />
        <path class="cls-2"
            d="M520.6,236c2.86-4.33,5.94-9.09,8.69-13.47l-.15-.1c-1.65,2.1-3.27,4.23-4.9,6.34-1.21,1.58-3.64,4.79-4.83,6.39-.8,1.07-1.63,2.12-2.45,3.18a57.64,57.64,0,0,0-4.39,6.7l-.6,1.08a2.33,2.33,0,0,0-.21.49c-.26.89.18.75.53.53a2.53,2.53,0,0,0,.53-.45c1.16-1.3,2.25-2.66,3.32-4C517.78,240.55,519.13,238.24,520.6,236Z"
            transform="translate(-6.07 11.42)" />
        <path class="cls-2"
            d="M438.91,419.17c2.86-4.33,5.94-9.09,8.69-13.47l-.14-.1c-1.66,2.1-3.27,4.23-4.91,6.34-1.21,1.58-3.64,4.79-4.83,6.39-.8,1.07-1.62,2.12-2.44,3.18a56.45,56.45,0,0,0-4.4,6.7l-.6,1.08a3,3,0,0,0-.2.49c-.27.89.17.75.52.53a2.53,2.53,0,0,0,.53-.45c1.16-1.3,2.26-2.66,3.32-4C436.1,423.71,437.44,421.4,438.91,419.17Z"
            transform="translate(-6.07 11.42)" />
        <path class="cls-2"
            d="M129.65,251.62c2.86-4.33,5.94-9.09,8.69-13.46l-.15-.11c-1.65,2.1-3.26,4.23-4.9,6.34-1.21,1.59-3.64,4.8-4.83,6.4-.8,1.06-1.63,2.11-2.44,3.17a58.12,58.12,0,0,0-4.4,6.7l-.6,1.09a2,2,0,0,0-.2.48c-.27.9.17.76.52.54a2.92,2.92,0,0,0,.53-.46c1.16-1.3,2.26-2.65,3.32-4C126.83,256.17,128.18,253.85,129.65,251.62Z"
            transform="translate(-6.07 11.42)" />
        <path class="cls-2"
            d="M58.84,390.59c2.86-4.32,5.94-9.09,8.69-13.46l-.14-.1c-1.66,2.09-3.27,4.22-4.91,6.34-1.21,1.58-3.64,4.79-4.83,6.39-.8,1.07-1.62,2.12-2.44,3.17a58.12,58.12,0,0,0-4.4,6.7l-.6,1.09a2.55,2.55,0,0,0-.2.48c-.27.9.17.76.52.54a2.34,2.34,0,0,0,.53-.46c1.16-1.3,2.26-2.65,3.32-4C56,395.14,57.37,392.82,58.84,390.59Z"
            transform="translate(-6.07 11.42)" />
        <path class="cls-2"
            d="M131.65,52.39c2.86-4.33,5.94-9.09,8.69-13.46l-.15-.11c-1.65,2.1-3.27,4.23-4.9,6.34-1.22,1.58-3.64,4.79-4.83,6.39-.8,1.07-1.63,2.12-2.45,3.18a57.64,57.64,0,0,0-4.39,6.7c-.2.36-.41.72-.6,1.08a2.33,2.33,0,0,0-.21.49c-.26.89.18.75.53.53a2.81,2.81,0,0,0,.53-.45c1.16-1.3,2.25-2.66,3.32-4C128.83,56.93,130.18,54.62,131.65,52.39Z"
            transform="translate(-6.07 11.42)" />
        <path class="cls-2"
            d="M533.77,35.87c2.86-4.33,5.93-9.09,8.69-13.47l-.15-.1c-1.66,2.1-3.27,4.22-4.9,6.34-1.22,1.58-3.64,4.79-4.83,6.39-.8,1.07-1.63,2.12-2.45,3.17a58,58,0,0,0-4.39,6.7c-.21.36-.41.72-.61,1.09a2.86,2.86,0,0,0-.2.48c-.26.9.17.76.52.54a2.12,2.12,0,0,0,.53-.46c1.17-1.29,2.26-2.65,3.33-4C531,40.41,532.3,38.09,533.77,35.87Z"
            transform="translate(-6.07 11.42)" />
        <path class="cls-2"
            d="M624.83,250.43c2.86-4.32,5.93-9.09,8.69-13.46l-.15-.1c-1.66,2.09-3.27,4.22-4.9,6.34-1.22,1.58-3.64,4.79-4.83,6.39-.8,1.07-1.63,2.12-2.45,3.17a58,58,0,0,0-4.39,6.7c-.21.36-.41.72-.61,1.09a2.55,2.55,0,0,0-.2.48c-.26.9.17.76.52.54a2.34,2.34,0,0,0,.53-.46c1.17-1.3,2.26-2.65,3.33-4C622,255,623.36,252.66,624.83,250.43Z"
            transform="translate(-6.07 11.42)" />
        <path class="cls-2"
            d="M521.68,99.21c-1.21,1.58-3.64,4.79-4.83,6.39-.8,1.07-1.63,2.12-2.45,3.17a59.39,59.39,0,0,0-4.39,6.7l-.6,1.09a2.26,2.26,0,0,0-.21.48c-.26.9.18.76.53.54a2.58,2.58,0,0,0,.53-.46c1.16-1.29,2.25-2.65,3.32-4,1.64-2.11,3-4.43,4.46-6.65,2.86-4.33,5.94-9.09,8.69-13.47l-.15-.1C524.93,95,523.31,97.09,521.68,99.21Z"
            transform="translate(-6.07 11.42)" />
        <path class="cls-2"
            d="M275.24,45.62a2.3,2.3,0,0,0,.53-.45c1.17-1.3,2.26-2.66,3.33-4,1.64-2.11,3-4.42,4.46-6.65,2.86-4.33,5.93-9.09,8.69-13.47l-.15-.1c-1.65,2.1-3.27,4.23-4.9,6.34-1.22,1.58-3.64,4.79-4.83,6.39-.8,1.07-1.63,2.12-2.45,3.18a56.37,56.37,0,0,0-4.39,6.7c-.21.35-.41.72-.61,1.08a3,3,0,0,0-.2.49C274.46,46,274.89,45.84,275.24,45.62Z"
            transform="translate(-6.07 11.42)" />
        <path class="cls-2"
            d="M221.63,93.12c-1.21,1.59-3.63,4.8-4.83,6.39-.8,1.07-1.62,2.12-2.44,3.18a58,58,0,0,0-4.39,6.7c-.21.36-.41.72-.61,1.08a3,3,0,0,0-.2.49c-.26.89.17.75.52.53a2.3,2.3,0,0,0,.53-.45c1.17-1.3,2.26-2.66,3.33-4,1.64-2.11,3-4.42,4.45-6.65,2.87-4.33,5.94-9.09,8.7-13.46l-.15-.11C224.88,88.88,223.27,91,221.63,93.12Z"
            transform="translate(-6.07 11.42)" />
        <path class="cls-2"
            d="M217.73,224c-1.65,2.1-3.26,4.23-4.9,6.34-1.21,1.59-3.64,4.79-4.83,6.39-.8,1.07-1.63,2.12-2.44,3.18a58.12,58.12,0,0,0-4.4,6.7l-.6,1.08a3,3,0,0,0-.21.49c-.26.89.18.75.53.53a2.53,2.53,0,0,0,.53-.45c1.16-1.3,2.25-2.66,3.32-4,1.64-2.11,3-4.42,4.46-6.65,2.86-4.33,5.94-9.09,8.69-13.46Z"
            transform="translate(-6.07 11.42)" />
        <path class="cls-2"
            d="M59.29,134c-1.65,2.1-3.26,4.23-4.9,6.34-1.21,1.58-3.64,4.79-4.83,6.39-.8,1.07-1.63,2.12-2.44,3.18a57.27,57.27,0,0,0-4.4,6.7l-.6,1.08a3,3,0,0,0-.2.49c-.27.89.17.75.52.53a2.53,2.53,0,0,0,.53-.45c1.16-1.3,2.26-2.66,3.32-4,1.64-2.11,3-4.42,4.46-6.65,2.86-4.33,5.94-9.09,8.69-13.46Z"
            transform="translate(-6.07 11.42)" />
        <path class="cls-2"
            d="M641,412.4a3.3,3.3,0,0,0,.53-.46c1.16-1.3,2.25-2.65,3.32-4,1.64-2.12,3-4.43,4.46-6.66,2.86-4.33,5.93-9.09,8.69-13.46l-.15-.11c-1.65,2.1-3.27,4.23-4.9,6.34-1.22,1.59-3.64,4.8-4.83,6.39-.8,1.07-1.63,2.12-2.45,3.18a58,58,0,0,0-4.39,6.7c-.21.36-.41.72-.6,1.09a2.06,2.06,0,0,0-.21.48C640.24,412.76,640.67,412.62,641,412.4Z"
            transform="translate(-6.07 11.42)" />
        <path class="cls-2"
            d="M255.51,181.07a3.27,3.27,0,0,0,.75-.64c1.63-1.81,3.15-3.71,4.65-5.64,2.3-3,4.18-6.2,6.24-9.32,4-6.06,8.31-12.72,12.17-18.84l-.21-.15c-2.32,2.94-4.58,5.92-6.87,8.87-1.69,2.22-5.09,6.71-6.76,9-1.12,1.5-2.27,3-3.42,4.45a80.84,80.84,0,0,0-6.15,9.37c-.29.51-.57,1-.84,1.52a3.66,3.66,0,0,0-.29.68C254.41,181.57,255,181.38,255.51,181.07Z"
            transform="translate(-6.07 11.42)" />
        <path class="cls-2"
            d="M224.32,23.17a3.49,3.49,0,0,0,.75-.63c1.63-1.82,3.15-3.72,4.65-5.65,2.3-3,4.18-6.2,6.24-9.31,4-6.06,8.31-12.73,12.16-18.85l-.2-.15c-2.32,2.94-4.58,5.92-6.87,8.88-1.7,2.21-5.09,6.71-6.76,8.94-1.12,1.5-2.27,3-3.42,4.45a80.84,80.84,0,0,0-6.15,9.37q-.43.77-.84,1.53a3.31,3.31,0,0,0-.29.67C223.22,23.68,223.83,23.48,224.32,23.17Z"
            transform="translate(-6.07 11.42)" />
        <path class="cls-2"
            d="M116.75,173.67a3.79,3.79,0,0,0,.74-.64c1.63-1.82,3.16-3.72,4.65-5.65,2.3-2.95,4.18-6.19,6.24-9.31,4-6.06,8.31-12.73,12.17-18.85l-.21-.14C138,142,135.77,145,133.48,148c-1.7,2.22-5.09,6.71-6.76,9-1.12,1.49-2.28,3-3.42,4.44a79.68,79.68,0,0,0-6.15,9.38c-.29.5-.57,1-.85,1.52a2.71,2.71,0,0,0-.28.68C115.65,174.17,116.26,174,116.75,173.67Z"
            transform="translate(-6.07 11.42)" />
        <path class="cls-2"
            d="M219.61,347.38c-1.69,2.21-5.09,6.71-6.76,8.95-1.12,1.49-2.27,3-3.42,4.44a80.11,80.11,0,0,0-6.15,9.38c-.28.5-.57,1-.84,1.52a3.16,3.16,0,0,0-.29.68c-.36,1.25.24,1,.74.74a3.69,3.69,0,0,0,.74-.63c1.63-1.82,3.15-3.72,4.65-5.65,2.3-2.95,4.18-6.2,6.24-9.31,4-6.06,8.31-12.73,12.17-18.85l-.21-.15C224.16,341.44,221.9,344.42,219.61,347.38Z"
            transform="translate(-6.07 11.42)" />
        <path class="cls-2"
            d="M460.12,263.15c-1.7,2.22-5.09,6.71-6.76,9-1.12,1.49-2.28,3-3.42,4.44a79.68,79.68,0,0,0-6.15,9.38c-.29.5-.57,1-.85,1.52a3.73,3.73,0,0,0-.28.68c-.37,1.25.24,1.05.73.75a3.79,3.79,0,0,0,.74-.64c1.63-1.82,3.16-3.72,4.65-5.65,2.3-2.95,4.19-6.19,6.24-9.31,4-6.06,8.31-12.73,12.17-18.85l-.21-.14C464.67,257.21,462.41,260.19,460.12,263.15Z"
            transform="translate(-6.07 11.42)" />
        <path class="cls-2"
            d="M685,306a3.85,3.85,0,0,0,.75-.64c1.62-1.82,3.15-3.72,4.65-5.65,2.29-3,4.18-6.19,6.24-9.31,4-6.06,8.31-12.73,12.16-18.85l-.21-.14c-2.31,2.93-4.57,5.91-6.86,8.87-1.7,2.22-5.09,6.71-6.76,8.95-1.12,1.49-2.28,3-3.42,4.44a81,81,0,0,0-6.15,9.38c-.29.5-.57,1-.84,1.52a3.16,3.16,0,0,0-.29.68C683.92,306.45,684.53,306.25,685,306Z"
            transform="translate(-6.07 11.42)" />
        <path class="cls-2"
            d="M608.84,114.18c-1.7,2.22-5.09,6.71-6.76,8.95-1.12,1.49-2.28,3-3.42,4.44a79.68,79.68,0,0,0-6.15,9.38c-.29.5-.57,1-.85,1.52a3.73,3.73,0,0,0-.28.68c-.37,1.25.24,1,.73.75a3.79,3.79,0,0,0,.74-.64c1.63-1.82,3.16-3.72,4.65-5.65,2.3-3,4.19-6.19,6.24-9.31,4-6.06,8.31-12.73,12.17-18.85l-.21-.15C613.39,108.24,611.13,111.22,608.84,114.18Z"
            transform="translate(-6.07 11.42)" />
        <path class="cls-2"
            d="M452.85,49.69c-1.69,2.21-5.09,6.71-6.76,9-1.11,1.49-2.27,3-3.42,4.44a80.11,80.11,0,0,0-6.15,9.38L435.68,74a3.16,3.16,0,0,0-.29.68c-.36,1.25.25,1,.74.74a3.69,3.69,0,0,0,.74-.63c1.63-1.82,3.16-3.72,4.65-5.65,2.3-3,4.18-6.2,6.24-9.31,4-6.06,8.31-12.73,12.17-18.85l-.21-.15C457.4,43.75,455.14,46.73,452.85,49.69Z"
            transform="translate(-6.07 11.42)" />
        <path class="cls-2"
            d="M733.79,146.25a3.27,3.27,0,0,0,.75-.64c1.62-1.81,3.15-3.71,4.65-5.65,2.29-3,4.18-6.19,6.24-9.31,4-6.06,8.31-12.72,12.16-18.84l-.21-.15c-2.31,2.94-4.57,5.92-6.86,8.87-1.7,2.22-5.09,6.71-6.76,8.95-1.12,1.5-2.28,3-3.42,4.44a81.82,81.82,0,0,0-6.15,9.38c-.29.5-.57,1-.85,1.52a4.43,4.43,0,0,0-.28.68C732.69,146.75,733.3,146.56,733.79,146.25Z"
            transform="translate(-6.07 11.42)" />
        <path class="cls-2"
            d="M755.25,333.92c-1.7,2.22-5.09,6.71-6.76,8.95-1.12,1.49-2.28,3-3.42,4.44a81,81,0,0,0-6.15,9.38c-.29.5-.57,1-.85,1.52a3.73,3.73,0,0,0-.28.68c-.37,1.25.24,1.05.73.75a3.85,3.85,0,0,0,.75-.64c1.62-1.82,3.15-3.72,4.65-5.65,2.29-3,4.18-6.19,6.24-9.31,4-6.06,8.31-12.73,12.16-18.85l-.21-.14C759.8,328,757.54,331,755.25,333.92Z"
            transform="translate(-6.07 11.42)" />
        <path class="cls-2"
            d="M174.58,406.75c-1.7,2.22-5.09,6.71-6.76,8.95-1.12,1.5-2.28,3-3.42,4.45a80.84,80.84,0,0,0-6.15,9.37L157.4,431a4.43,4.43,0,0,0-.28.68c-.37,1.25.24,1.06.73.75a3,3,0,0,0,.74-.64c1.63-1.81,3.16-3.71,4.65-5.64,2.3-3,4.19-6.2,6.24-9.32,4-6.06,8.32-12.72,12.17-18.84l-.21-.15C179.13,400.82,176.87,403.8,174.58,406.75Z"
            transform="translate(-6.07 11.42)" />
        <path class="cls-2"
            d="M581.71,200.53c-3.39,4.43-10.18,13.42-13.52,17.89-2.23,3-4.55,5.94-6.84,8.89a161.92,161.92,0,0,0-12.3,18.76c-.57,1-1.14,2-1.69,3a7.29,7.29,0,0,0-.57,1.35c-.73,2.51.48,2.12,1.47,1.5a7.48,7.48,0,0,0,1.48-1.27c3.26-3.64,6.32-7.43,9.3-11.3,4.6-5.91,8.37-12.39,12.48-18.62,8-12.12,16.63-25.45,24.34-37.7l-.42-.29C590.81,188.66,586.29,194.61,581.71,200.53Z"
            transform="translate(-6.07 11.42)" />
        <path class="cls-2"
            d="M750.31,187.8c8-12.12,16.62-25.45,24.34-37.7l-.42-.29c-4.63,5.88-9.15,11.84-13.73,17.75C757.11,172,750.32,181,747,185.45c-2.24,3-4.55,5.94-6.84,8.89a160.63,160.63,0,0,0-12.3,18.76c-.58,1-1.14,2-1.69,3a7.1,7.1,0,0,0-.57,1.36c-.74,2.5.48,2.11,1.47,1.49a7.48,7.48,0,0,0,1.48-1.27c3.26-3.64,6.31-7.43,9.3-11.3C742.43,200.52,746.2,194,750.31,187.8Z"
            transform="translate(-6.07 11.42)" />
    </g>
</svg>