<svg width="24" height="25" viewBox="0 0 24 25" fill="none" xmlns="http://www.w3.org/2000/svg">
<path fill-rule="evenodd" clip-rule="evenodd" d="M6.72727 21.0529C6.72026 21.0597 6.71083 21.0636 6.70102 21.0636C6.6912 21.0636 6.68178 21.0597 6.67477 21.0529C6.29977 20.6366 2.29102 16.0916 2.29102 13.0804C2.29102 9.35285 4.72852 8.49035 6.70102 8.49035C8.51602 8.49035 10.8485 9.46535 10.8485 13.0804C10.8485 16.1891 7.07602 20.6441 6.72727 21.0529ZM6.56977 14.0479C7.55352 14.0479 8.35102 13.2504 8.35102 12.2666C8.35102 11.2828 7.55352 10.4854 6.56977 10.4854C5.58601 10.4854 4.78852 11.2828 4.78852 12.2666C4.78852 13.2504 5.58601 14.0479 6.56977 14.0479Z" fill="#00CFFF"/>
<path fill-rule="evenodd" clip-rule="evenodd" d="M18.5923 13.5379C18.5846 13.545 18.5746 13.5489 18.5641 13.5489C18.5537 13.5489 18.5437 13.545 18.536 13.5379C18.2098 13.1629 15.0898 9.6191 15.0898 7.26035C15.0898 4.32035 17.0098 3.6416 18.566 3.6416C19.9948 3.6416 21.8323 4.3916 21.8323 7.26035C21.8323 9.6941 18.8998 13.1779 18.5923 13.5379ZM18.461 8.40035C19.2377 8.40035 19.8673 7.77075 19.8673 6.9941C19.8673 6.21745 19.2377 5.58785 18.461 5.58785C17.6844 5.58785 17.0548 6.21745 17.0548 6.9941C17.0548 7.77075 17.6844 8.40035 18.461 8.40035Z" fill="#E91E63"/>
<path fill-rule="evenodd" clip-rule="evenodd" d="M2.77152 13.0799C2.77152 11.3295 3.33771 10.3344 4.05584 9.76257C4.79431 9.17454 5.77342 8.96988 6.70152 8.96988C7.53248 8.96988 8.44537 9.19414 9.14317 9.7934C9.8266 10.3803 10.369 11.383 10.369 13.0799C10.369 13.7677 10.1583 14.5622 9.8111 15.3949C9.46595 16.2226 8.99845 17.0586 8.51401 17.8213C7.82183 18.911 7.1069 19.8327 6.69337 20.3425C6.25523 19.8274 5.48582 18.8822 4.74146 17.772C4.22589 17.003 3.72885 16.1644 3.36215 15.342C2.99261 14.5131 2.77152 13.7359 2.77152 13.0799ZM6.33927 21.3952C6.40339 21.458 6.48213 21.5025 6.56737 21.5254L6.56241 21.5418C7.06291 21.6933 7.57337 21.8098 8.09007 21.8904L8.23798 20.9419C8.00691 20.9058 7.77721 20.8619 7.54927 20.8103C7.98803 20.2622 8.66536 19.3735 9.32435 18.336C9.82662 17.5452 10.324 16.6591 10.6971 15.7643C11.0682 14.8746 11.329 13.9464 11.329 13.0799C11.329 11.1617 10.7052 9.86944 9.76862 9.06511C8.84642 8.27313 7.68556 8.00988 6.70152 8.00988C5.65713 8.00988 4.43123 8.23648 3.45784 9.01157C2.46408 9.80287 1.81152 11.1028 1.81152 13.0799C1.81152 13.9295 2.09153 14.8496 2.48535 15.7329C2.88201 16.6225 3.41059 17.5108 3.94409 18.3066C5.01107 19.898 6.12374 21.1573 6.31865 21.3737L6.32863 21.3847L6.33927 21.3952ZM16.7728 14.5506C16.1486 14.795 15.5716 15.1459 15.0675 15.5878C14.5497 16.0532 14.4397 16.6671 14.2798 17.5596L14.2797 17.5599L14.2796 17.5608C14.2632 17.6523 14.2462 17.7468 14.2283 17.8444C14.042 18.8567 13.7449 20.0433 12.5345 21.1056C11.6214 21.9073 10.3129 22.0508 9.23465 22.0044L9.2759 21.0453C10.2901 21.0889 11.2767 20.9324 11.9012 20.3841C12.8657 19.5377 13.1104 18.6149 13.2841 17.6707C13.3019 17.5742 13.3189 17.4755 13.3362 17.3751C13.4816 16.5321 13.6471 15.5717 14.4286 14.8712L14.4306 14.8695L14.4325 14.8678C15.0207 14.3518 15.6941 13.942 16.4228 13.6567L16.7728 14.5506Z" fill="#00CFFF"/>
<path fill-rule="evenodd" clip-rule="evenodd" d="M16.292 11.4093C16.7905 12.1549 17.303 12.8101 17.6715 13.2589C17.4308 13.3192 17.1925 13.3893 16.9573 13.4691L17.2657 14.3782C17.7131 14.2264 18.1729 14.1138 18.6398 14.0418L18.6369 14.0234C18.7423 14.0087 18.8413 13.9619 18.92 13.8885L18.94 13.8699L18.9578 13.8491C19.1177 13.6619 19.9445 12.681 20.7338 11.4328C21.1285 10.8087 21.5195 10.1087 21.8131 9.40074C22.1047 8.69764 22.3128 7.95711 22.3128 7.25988C22.3128 5.71595 21.8134 4.66558 21.0476 4.01008C20.2964 3.36707 19.3553 3.16113 18.5665 3.16113C17.7304 3.16113 16.7379 3.34171 15.9458 3.97253C15.1333 4.61956 14.6103 5.67675 14.6103 7.25988C14.6103 7.94592 14.8344 8.6808 15.1442 9.37801C15.4568 10.0814 15.8727 10.7821 16.292 11.4093ZM16.5438 4.72349C16.0072 5.15083 15.5703 5.90301 15.5703 7.25988C15.5703 7.75322 15.7361 8.34584 16.0215 8.98821C16.3042 9.62436 16.6886 10.2753 17.0901 10.8758C17.6363 11.6927 18.2018 12.3985 18.5583 12.8245C18.8926 12.407 19.4164 11.7199 19.9224 10.9198C20.2993 10.3238 20.6605 9.67395 20.9264 9.03297C21.1942 8.38713 21.3528 7.77953 21.3528 7.25988C21.3528 5.93506 20.9334 5.17606 20.4233 4.73938C19.8985 4.29019 19.2065 4.12113 18.5665 4.12113C17.8463 4.12113 17.1008 4.27993 16.5438 4.72349Z" fill="#E91E63"/>
</svg>
