<svg width="41" height="50" viewBox="0 0 41 50" fill="none" xmlns="http://www.w3.org/2000/svg">
<path d="M33.9097 26.7644C33.9343 24.8983 34.4407 23.0686 35.382 21.4455C36.3232 19.8225 37.6686 18.4588 39.293 17.4814C38.261 16.0389 36.8997 14.8519 35.317 14.0145C33.7343 13.177 31.974 12.7124 30.1757 12.6573C26.3397 12.2632 22.6209 14.9039 20.6661 14.9039C18.6736 14.9039 15.6639 12.6964 12.423 12.7617C10.3267 12.828 8.28374 13.4246 6.49309 14.4934C4.70243 15.5622 3.22519 17.0668 2.2053 18.8606C-2.21253 26.3469 1.08278 37.3493 5.31477 43.4007C7.43214 46.3639 9.90672 49.6738 13.1447 49.5564C16.3132 49.4278 17.4966 47.5789 21.3213 47.5789C25.1105 47.5789 26.2208 49.5564 29.5244 49.4818C32.9245 49.4278 35.0666 46.5055 37.1097 43.5142C38.631 41.4028 39.8017 39.0693 40.5783 36.6001C38.603 35.7824 36.9173 34.4137 35.7315 32.6646C34.5456 30.9156 33.912 28.8636 33.9097 26.7644Z" fill="#333333"/>
<path d="M27.6702 8.67646C29.524 6.49835 30.4373 3.69874 30.2162 0.872192C27.3839 1.16333 24.7678 2.48816 22.8889 4.58271C21.9703 5.60594 21.2667 6.79636 20.8184 8.08589C20.3701 9.37541 20.1859 10.7388 20.2763 12.098C21.6929 12.1123 23.0943 11.8118 24.3751 11.2191C25.6558 10.6264 26.7825 9.75706 27.6702 8.67646Z" fill="#333333"/>
</svg>
