<svg width="16" height="16" viewBox="0 0 16 16" fill="none" xmlns="http://www.w3.org/2000/svg">
<path d="M12.9995 6.00033C12.4842 6.0138 11.9846 5.8227 11.6098 5.46881C11.235 5.11492 11.0156 4.62704 10.9995 4.11183C11.0088 3.74391 11.122 3.38613 11.326 3.07983L12.5845 1.20733C12.6329 1.14295 12.6955 1.0907 12.7676 1.05472C12.8396 1.01873 12.919 1 12.9995 1C13.08 1 13.1594 1.01873 13.2315 1.05472C13.3035 1.0907 13.3662 1.14295 13.4145 1.20733L14.657 3.05533C14.8694 3.36774 14.9882 3.73425 14.9995 4.11183C14.9834 4.62704 14.764 5.11492 14.3892 5.46881C14.0145 5.8227 13.5148 6.0138 12.9995 6.00033ZM12.9995 2.38183L12.1715 3.61333C12.0683 3.75994 12.0087 3.93276 11.9995 4.11183C12.0285 4.35667 12.1464 4.58235 12.3307 4.7461C12.515 4.90986 12.753 5.0003 12.9995 5.0003C13.2461 5.0003 13.4841 4.90986 13.6684 4.7461C13.8527 4.58235 13.9705 4.35667 13.9995 4.11183C13.9878 3.92312 13.9228 3.7416 13.812 3.58833L12.9995 2.38183ZM11.7495 15.0003H4.24952C3.44405 15.0012 2.66699 14.7027 2.06919 14.1629C1.4714 13.6231 1.09552 12.8803 1.01452 12.079C0.93352 11.2776 1.15318 10.4747 1.63087 9.82612C2.10855 9.17758 2.81017 8.72967 3.59952 8.56933C3.81258 7.56023 4.36602 6.65502 5.16709 6.00542C5.96816 5.35582 6.96817 5.00132 7.99952 5.00132C9.03088 5.00132 10.0309 5.35582 10.832 6.00542C11.633 6.65502 12.1865 7.56023 12.3995 8.56933C13.1889 8.72967 13.8905 9.17758 14.3682 9.82612C14.8459 10.4747 15.0655 11.2776 14.9845 12.079C14.9035 12.8803 14.5276 13.6231 13.9298 14.1629C13.3321 14.7027 12.555 15.0012 11.7495 15.0003ZM7.99952 6.00033C7.14587 6.00114 6.32194 6.3139 5.68277 6.87976C5.04361 7.44562 4.63329 8.22557 4.52902 9.07283L4.47902 9.47883L4.07152 9.51083C3.49115 9.55502 2.95054 9.8226 2.56343 10.2573C2.17632 10.6919 1.9729 11.2598 1.99596 11.8414C2.01902 12.423 2.26676 12.973 2.68707 13.3756C3.10737 13.7783 3.66747 14.0022 4.24952 14.0003H11.7495C12.3316 14.0022 12.8917 13.7783 13.312 13.3756C13.7323 12.973 13.98 12.423 14.0031 11.8414C14.0261 11.2598 13.8227 10.6919 13.4356 10.2573C13.0485 9.8226 12.5079 9.55502 11.9275 9.51083L11.52 9.47883L11.4705 9.07283C11.3662 8.22548 10.9559 7.44547 10.3166 6.87959C9.67732 6.31372 8.85326 6.00101 7.99952 6.00033Z" fill="white"/>
</svg>
