<svg width="11" height="10" viewBox="0 0 11 10" fill="none" xmlns="http://www.w3.org/2000/svg">
<g clip-path="url(#clip0_3004_9967)">
<path d="M5.14225 5.00004V8.33337C5.14225 8.55439 5.23005 8.76635 5.38633 8.92263C5.54261 9.07891 5.75457 9.16671 5.97559 9.16671C6.1966 9.16671 6.40856 9.07891 6.56484 8.92263C6.72112 8.76635 6.80892 8.55439 6.80892 8.33337M5.14225 0.833374V1.25004M9.30892 5.00005C9.19632 3.97366 8.70883 3.02494 7.93993 2.33578C7.17102 1.64662 6.1748 1.2655 5.14225 1.2655C4.1097 1.2655 3.11348 1.64662 2.34458 2.33578C1.57567 3.02494 1.08819 3.97366 0.975586 5.00005H9.30892Z" stroke="#00E3F5" stroke-linecap="round" stroke-linejoin="round"/>
</g>
<defs>
<clipPath id="clip0_3004_9967">
<rect width="10" height="10" fill="white" transform="translate(0.142578)"/>
</clipPath>
</defs>
</svg>
