<svg width="32" height="33" viewBox="0 0 32 33" fill="none" xmlns="http://www.w3.org/2000/svg">
<path d="M5.33313 20.032C4.34252 19.0199 3.59523 17.7956 3.14785 16.4519C2.70047 15.1082 2.56474 13.6803 2.75095 12.2764C2.93715 10.8725 3.44041 9.52934 4.22259 8.34872C5.00478 7.1681 6.04538 6.18096 7.26558 5.46208C8.48578 4.74319 9.85357 4.31141 11.2654 4.19944C12.6771 4.08748 14.0959 4.29826 15.4142 4.81582C16.7324 5.33338 17.9156 6.14415 18.8741 7.18672C19.8326 8.22929 20.5413 9.47632 20.9465 10.8333H23.3331C24.6205 10.8332 25.8737 11.2471 26.9078 12.0139C27.9418 12.7808 28.7018 13.8598 29.0755 15.0917C29.4492 16.3237 29.4167 17.6431 28.9829 18.8552C28.5491 20.0672 27.737 21.1076 26.6665 21.8227M21.3333 18.8333V26.8333M10.6667 18.8333V26.8333M16 21.5V29.5" stroke="#F9F9F9" stroke-width="3" stroke-linecap="round" stroke-linejoin="round"/>
</svg>
