<svg width="268" height="93" viewBox="0 0 268 93" fill="none" xmlns="http://www.w3.org/2000/svg">
<g filter="url(#filter0_bdii_831_4986)">
<g clip-path="url(#clip0_831_4986)">
<path d="M21.5511 84.1189C20.8818 84.1189 20.2287 84.1105 19.5646 84.0959C18.189 84.0783 16.8166 83.9611 15.4587 83.7452C14.1925 83.5318 12.9658 83.1347 11.8193 82.5672C10.6832 82.0044 9.64706 81.2664 8.75047 80.3815C7.8409 79.5071 7.08364 78.4928 6.5087 77.379C5.92742 76.258 5.52515 75.0564 5.31588 73.8161C5.08989 72.4833 4.96762 71.1357 4.95013 69.7848C4.9362 69.3314 4.91797 67.8216 4.91797 67.8216V18.1554C4.91797 18.1554 4.93739 16.6689 4.95024 16.2322C4.96699 14.8834 5.08855 13.5379 5.31386 12.2072C5.52351 10.9635 5.9261 9.75841 6.50769 8.6337C7.08051 7.52068 7.83357 6.5057 8.73766 5.62811C9.64074 4.74218 10.6802 4.0004 11.8182 3.4298C12.9621 2.8641 14.1864 2.46987 15.4501 2.26033C16.8125 2.04225 18.1897 1.92434 19.57 1.9076L21.5522 1.88135H247.306L249.311 1.90865C250.679 1.92456 252.044 2.04142 253.394 2.25822C254.67 2.47039 255.907 2.86737 257.064 3.4361C259.344 4.58602 261.199 6.4053 262.369 8.63895C262.942 9.75589 263.338 10.9511 263.545 12.1841C263.773 13.5257 263.901 14.8818 263.927 16.2416C263.933 16.8505 263.933 17.5045 263.933 18.1554C263.95 18.9617 263.95 19.7291 263.95 20.5028V65.4994C263.95 66.2805 263.95 67.0427 263.933 67.8111C263.933 68.5103 263.933 69.1508 263.925 69.81C263.899 71.1455 263.773 72.4774 263.549 73.795C263.344 75.0443 262.944 76.2553 262.363 77.3855C261.784 78.4872 261.031 79.4926 260.132 80.3647C259.235 81.2544 258.197 81.9967 257.058 82.5631C255.904 83.135 254.669 83.5335 253.394 83.7452C252.036 83.9623 250.663 84.0795 249.288 84.0959C248.644 84.1105 247.97 84.1189 247.316 84.1189L244.935 84.1232L21.5511 84.1189Z" fill="white" fill-opacity="0.8"/>
<path d="M57.9097 42.7644C57.9343 40.8983 58.4407 39.0686 59.382 37.4455C60.3232 35.8225 61.6686 34.4588 63.293 33.4814C62.261 32.0389 60.8997 30.8519 59.317 30.0145C57.7343 29.177 55.974 28.7124 54.1757 28.6573C50.3397 28.2632 46.6209 30.9039 44.6661 30.9039C42.6736 30.9039 39.6639 28.6964 36.423 28.7617C34.3267 28.828 32.2837 29.4246 30.4931 30.4934C28.7024 31.5622 27.2252 33.0668 26.2053 34.8606C21.7875 42.3469 25.0828 53.3493 29.3148 59.4007C31.4321 62.3639 33.9067 65.6738 37.1447 65.5564C40.3132 65.4278 41.4966 63.5789 45.3213 63.5789C49.1105 63.5789 50.2208 65.5564 53.5244 65.4818C56.9245 65.4278 59.0666 62.5055 61.1097 59.5142C62.631 57.4028 63.8017 55.0693 64.5783 52.6001C62.603 51.7824 60.9173 50.4137 59.7315 48.6646C58.5456 46.9156 57.912 44.8636 57.9097 42.7644Z" fill="#333333"/>
<path d="M51.6702 24.6763C53.524 22.4982 54.4373 19.6986 54.2162 16.8721C51.3839 17.1632 48.7678 18.488 46.8889 20.5826C45.9703 21.6058 45.2667 22.7962 44.8184 24.0858C44.3701 25.3753 44.1859 26.7387 44.2763 28.0979C45.6929 28.1122 47.0943 27.8117 48.3751 27.219C49.6558 26.6263 50.7825 25.7569 51.6702 24.6763V24.6763Z" fill="#333333"/>
<path d="M95.9241 58.3505H85.5262L83.0291 65.5668H78.625L88.4738 38.8682H93.0495L102.898 65.5668H98.419L95.9241 58.3505ZM86.6031 55.0205H94.8452L90.7821 43.3089H90.6683L86.6031 55.0205Z" fill="#333333"/>
<path d="M124.168 55.8346C124.168 61.8836 120.86 65.7699 115.868 65.7699C114.604 65.8347 113.346 65.5496 112.239 64.9473C111.133 64.345 110.221 63.4499 109.61 62.3644H109.516V72.0058H105.434V46.1008H109.385V49.3384H109.46C110.099 48.2581 111.026 47.3676 112.141 46.7616C113.256 46.1557 114.518 45.8569 115.793 45.8971C120.841 45.8972 124.168 49.8024 124.168 55.8346ZM119.972 55.8346C119.972 51.8937 117.891 49.3027 114.716 49.3027C111.597 49.3027 109.499 51.9482 109.499 55.8346C109.499 59.7567 111.597 62.3833 114.716 62.3833C117.891 62.3833 119.972 59.8113 119.972 55.8346H119.972Z" fill="#333333"/>
<path d="M146.06 55.8346C146.06 61.8836 142.751 65.7699 137.759 65.7699C136.494 65.8347 135.237 65.5496 134.13 64.9473C133.023 64.345 132.112 63.4499 131.501 62.3644H131.407V72.0058H127.324V46.1008H131.276V49.3384H131.351C131.99 48.2581 132.916 47.3676 134.031 46.7616C135.147 46.1557 136.409 45.8569 137.684 45.8971C142.731 45.8972 146.06 49.8024 146.06 55.8346ZM141.863 55.8346C141.863 51.8937 139.782 49.3027 136.607 49.3027C133.488 49.3027 131.389 51.9482 131.389 55.8346C131.389 59.7567 133.488 62.3833 136.607 62.3833C139.782 62.3833 141.863 59.8113 141.863 55.8346V55.8346Z" fill="#333333"/>
<path d="M160.525 58.1278C160.827 60.7754 163.455 62.5138 167.046 62.5138C170.487 62.5138 172.963 60.7753 172.963 58.388C172.963 56.3157 171.47 55.0749 167.934 54.2245L164.399 53.391C159.39 52.2068 157.064 49.914 157.064 46.1935C157.064 41.587 161.166 38.4229 166.988 38.4229C172.755 38.4229 176.706 41.587 176.839 46.1935H172.718C172.471 43.5291 170.221 41.9208 166.932 41.9208C163.644 41.9208 161.394 43.548 161.394 45.9164C161.394 47.8039 162.831 48.9146 166.347 49.7649L169.352 50.4871C174.949 51.7826 177.273 53.983 177.273 57.8883C177.273 62.8832 173.209 66.0116 166.744 66.0116C160.694 66.0116 156.61 62.9567 156.346 58.1276L160.525 58.1278Z" fill="#333333"/>
<path d="M186.087 41.4961V46.1026H189.869V49.2668H186.087V59.9979C186.087 61.6649 186.844 62.4418 188.507 62.4418C188.956 62.4341 189.404 62.4033 189.85 62.3493V65.4946C189.102 65.6313 188.343 65.6932 187.582 65.6793C183.556 65.6793 181.986 64.1991 181.986 60.424V49.2668H179.094V46.1026H181.985V41.4961H186.087Z" fill="#333333"/>
<path d="M192.057 55.8364C192.057 49.7119 195.742 45.8633 201.489 45.8633C207.256 45.8633 210.924 49.7118 210.924 55.8364C210.924 61.9778 207.275 65.8096 201.489 65.8096C195.706 65.8096 192.057 61.9778 192.057 55.8364ZM206.764 55.8364C206.764 51.6351 204.797 49.1555 201.489 49.1555C198.181 49.1555 196.214 51.654 196.214 55.8364C196.214 60.0545 198.181 62.5153 201.489 62.5153C204.797 62.5153 206.764 60.0545 206.764 55.8364H206.764Z" fill="#333333"/>
<path d="M214.291 46.1006H218.185V49.4138H218.279C218.543 48.379 219.162 47.4646 220.033 46.8241C220.904 46.1836 221.974 45.8562 223.063 45.8969C223.533 45.8953 224.003 45.9453 224.462 46.046V49.7833C223.868 49.6057 223.248 49.5241 222.627 49.5419C222.034 49.5183 221.443 49.6207 220.894 49.8419C220.345 50.0631 219.852 50.3979 219.448 50.8234C219.044 51.2488 218.738 51.7549 218.553 52.3067C218.367 52.8585 218.306 53.4431 218.373 54.0203V65.5661H214.291L214.291 46.1006Z" fill="#333333"/>
<path d="M243.282 59.8509C242.733 63.3845 239.217 65.8096 234.719 65.8096C228.933 65.8096 225.342 62.0156 225.342 55.9288C225.342 49.8231 228.952 45.8633 234.547 45.8633C240.049 45.8633 243.51 49.5628 243.51 55.4648V56.8337H229.463V57.0752C229.398 57.7916 229.49 58.5133 229.732 59.1923C229.974 59.8714 230.361 60.4923 230.867 61.0137C231.373 61.5352 231.986 61.9453 232.667 62.2169C233.347 62.4885 234.079 62.6152 234.813 62.5888C235.778 62.6772 236.746 62.4585 237.573 61.9653C238.401 61.472 239.044 60.7304 239.406 59.8509L243.282 59.8509ZM229.482 54.0413H239.425C239.462 53.3971 239.362 52.7525 239.132 52.1479C238.902 51.5433 238.547 50.9918 238.089 50.5279C237.631 50.064 237.08 49.6978 236.47 49.4522C235.861 49.2066 235.206 49.087 234.547 49.1009C233.882 49.097 233.223 49.222 232.608 49.4687C231.993 49.7154 231.434 50.0789 230.963 50.5382C230.492 50.9975 230.119 51.5436 229.864 52.1448C229.61 52.7461 229.48 53.3906 229.482 54.0413V54.0413Z" fill="#333333"/>
<path d="M86.0939 18.7724C86.9498 18.7123 87.8086 18.8388 88.6084 19.1429C89.4083 19.447 90.1292 19.921 90.7192 20.5308C91.3092 21.1406 91.7536 21.8709 92.0203 22.6692C92.287 23.4674 92.3693 24.3136 92.2614 25.1468C92.2614 29.2452 89.9982 31.6011 86.0939 31.6011H81.3594V18.7724H86.0939ZM83.3952 29.7868H85.8665C86.4781 29.8226 87.0901 29.7245 87.658 29.4995C88.226 29.2746 88.7355 28.9286 89.1496 28.4866C89.5637 28.0446 89.8718 27.5179 90.0516 26.9446C90.2315 26.3714 90.2784 25.7662 90.1891 25.1729C90.272 24.582 90.2202 23.9805 90.0376 23.4115C89.8551 22.8425 89.5461 22.32 89.133 21.8816C88.7199 21.4431 88.2128 21.0995 87.6481 20.8754C87.0833 20.6513 86.4749 20.5522 85.8665 20.5853H83.3952V29.7868Z" fill="#333333"/>
<path d="M94.5611 26.7581C94.4989 26.1219 94.5733 25.4799 94.7794 24.8735C94.9856 24.267 95.319 23.7094 95.7582 23.2365C96.1974 22.7635 96.7328 22.3856 97.3299 22.127C97.9271 21.8684 98.5729 21.7349 99.2259 21.7349C99.879 21.7349 100.525 21.8684 101.122 22.127C101.719 22.3856 102.254 22.7635 102.694 23.2365C103.133 23.7094 103.466 24.267 103.672 24.8735C103.879 25.4799 103.953 26.1219 103.891 26.7581C103.954 27.395 103.881 28.0378 103.675 28.6452C103.469 29.2526 103.136 29.8112 102.697 30.2851C102.258 30.759 101.722 31.1377 101.124 31.3969C100.526 31.656 99.8797 31.7899 99.2259 31.7899C98.5721 31.7899 97.9256 31.656 97.3278 31.3969C96.73 31.1377 96.1943 30.759 95.7549 30.2851C95.3156 29.8112 94.9824 29.2526 94.7768 28.6452C94.5712 28.0378 94.4978 27.395 94.5611 26.7581V26.7581ZM101.883 26.7581C101.883 24.6595 100.92 23.4323 99.2292 23.4323C97.5323 23.4323 96.5777 24.6595 96.5777 26.7581C96.5777 28.8735 97.5323 30.0912 99.2292 30.0912C100.92 30.0912 101.883 28.865 101.883 26.7581H101.883Z" fill="#333333"/>
<path d="M116.293 31.6012H114.268L112.223 24.4709H112.069L110.033 31.6012H108.027L105.301 21.9199H107.281L109.053 29.3073H109.199L111.232 21.9199H113.105L115.139 29.3073H115.293L117.057 21.9199H119.009L116.293 31.6012Z" fill="#333333"/>
<path d="M121.301 21.9191H123.18V23.457H123.326C123.573 22.9046 123.991 22.4416 124.52 22.1324C125.049 21.8232 125.663 21.6833 126.278 21.7322C126.759 21.6968 127.242 21.7678 127.692 21.94C128.141 22.1122 128.545 22.3812 128.874 22.727C129.203 23.0728 129.448 23.4866 129.591 23.9377C129.734 24.3888 129.772 24.8657 129.702 25.333V31.6003H127.749V25.8128C127.749 24.257 127.059 23.4833 125.615 23.4833C125.288 23.4684 124.962 23.5228 124.659 23.6428C124.355 23.7629 124.082 23.9457 123.858 24.1787C123.633 24.4117 123.463 24.6895 123.359 24.9929C123.254 25.2963 123.218 25.6183 123.253 25.9367V31.6004H121.301L121.301 21.9191Z" fill="#333333"/>
<path d="M132.812 18.1406H134.765V31.6012H132.812V18.1406Z" fill="#333333"/>
<path d="M137.479 26.7548C137.417 26.1186 137.491 25.4766 137.698 24.8701C137.904 24.2637 138.237 23.7061 138.676 23.2331C139.116 22.7601 139.651 22.3822 140.248 22.1236C140.845 21.865 141.491 21.7314 142.144 21.7314C142.797 21.7314 143.443 21.865 144.04 22.1236C144.638 22.3822 145.173 22.7601 145.612 23.2331C146.052 23.7061 146.385 24.2637 146.591 24.8701C146.797 25.4766 146.872 26.1186 146.81 26.7548C146.873 27.3917 146.799 28.0346 146.594 28.642C146.388 29.2494 146.055 29.808 145.616 30.2819C145.176 30.7558 144.64 31.1344 144.043 31.3936C143.445 31.6527 142.798 31.7866 142.144 31.7866C141.491 31.7866 140.844 31.6527 140.246 31.3936C139.648 31.1344 139.113 30.7558 138.673 30.2819C138.234 29.808 137.901 29.2494 137.695 28.642C137.489 28.0346 137.416 27.3917 137.479 26.7548V26.7548ZM144.801 26.7548C144.801 24.6563 143.837 23.4291 142.147 23.4291C140.45 23.4291 139.496 24.6563 139.496 26.7549C139.496 28.8702 140.45 30.088 142.147 30.088C143.837 30.088 144.801 28.8618 144.801 26.7548H144.801Z" fill="#333333"/>
<path d="M148.865 28.8651C148.865 27.1224 150.191 26.1178 152.544 25.975L155.224 25.8238V24.9882C155.224 23.9657 154.533 23.3883 153.199 23.3883C152.109 23.3883 151.354 23.7799 151.137 24.4644H149.247C149.447 22.8015 151.045 21.7349 153.289 21.7349C155.769 21.7349 157.167 22.9432 157.167 24.9882V31.603H155.288V30.2425H155.134C154.82 30.7305 154.38 31.1284 153.858 31.3954C153.336 31.6625 152.751 31.7892 152.162 31.7625C151.747 31.8048 151.327 31.7614 150.93 31.6352C150.533 31.509 150.168 31.3028 149.857 31.0298C149.546 30.7568 149.298 30.4232 149.127 30.0503C148.956 29.6775 148.867 29.2737 148.865 28.8651V28.8651ZM155.224 28.0379V27.2285L152.808 27.3796C151.446 27.4689 150.828 27.9224 150.828 28.7759C150.828 29.6472 151.6 30.1543 152.662 30.1543C152.974 30.1851 153.288 30.1543 153.587 30.0638C153.885 29.9734 154.162 29.825 154.401 29.6275C154.64 29.43 154.836 29.1876 154.978 28.9145C155.119 28.6414 155.203 28.3433 155.224 28.0379V28.0379Z" fill="#333333"/>
<path d="M159.732 26.7564C159.732 23.6973 161.339 21.7593 163.838 21.7593C164.457 21.7315 165.07 21.8764 165.607 22.1771C166.144 22.4779 166.583 22.9221 166.872 23.4578H167.018V18.1406H168.97V31.6012H167.099V30.0716H166.945C166.634 30.6038 166.18 31.0424 165.632 31.3402C165.085 31.6379 164.464 31.7834 163.838 31.7608C161.322 31.7609 159.732 29.8229 159.732 26.7564ZM161.749 26.7564C161.749 28.8098 162.738 30.0455 164.392 30.0455C166.037 30.0455 167.054 28.792 167.054 26.7648C167.054 24.7471 166.027 23.4758 164.392 23.4758C162.749 23.4758 161.749 24.7198 161.749 26.7564H161.749Z" fill="#333333"/>
<path d="M177.046 26.7581C176.983 26.1219 177.058 25.4799 177.264 24.8735C177.47 24.267 177.803 23.7094 178.243 23.2365C178.682 22.7635 179.217 22.3856 179.814 22.127C180.411 21.8684 181.057 21.7349 181.71 21.7349C182.363 21.7349 183.009 21.8684 183.606 22.127C184.203 22.3856 184.739 22.7635 185.178 23.2365C185.617 23.7094 185.951 24.267 186.157 24.8735C186.363 25.4799 186.437 26.1219 186.375 26.7581C186.438 27.395 186.365 28.0378 186.159 28.6452C185.954 29.2526 185.621 29.8112 185.181 30.2851C184.742 30.759 184.206 31.1377 183.608 31.3969C183.011 31.656 182.364 31.7899 181.71 31.7899C181.057 31.7899 180.41 31.656 179.812 31.3969C179.214 31.1377 178.679 30.759 178.239 30.2851C177.8 29.8112 177.467 29.2526 177.261 28.6452C177.056 28.0378 176.982 27.395 177.046 26.7581V26.7581ZM184.367 26.7581C184.367 24.6595 183.404 23.4323 181.714 23.4323C180.017 23.4323 179.062 24.6595 179.062 26.7581C179.062 28.8735 180.017 30.0912 181.714 30.0912C183.404 30.0912 184.367 28.865 184.367 26.7581Z" fill="#333333"/>
<path d="M188.996 21.9191H190.875V23.457H191.021C191.269 22.9046 191.686 22.4416 192.215 22.1324C192.744 21.8232 193.359 21.6833 193.973 21.7322C194.454 21.6968 194.938 21.7678 195.387 21.94C195.837 22.1122 196.241 22.3812 196.569 22.727C196.898 23.0728 197.143 23.4866 197.287 23.9377C197.43 24.3888 197.467 24.8657 197.397 25.333V31.6003H195.445V25.8128C195.445 24.257 194.754 23.4833 193.31 23.4833C192.983 23.4684 192.657 23.5228 192.354 23.6428C192.051 23.7629 191.777 23.9457 191.553 24.1787C191.329 24.4117 191.159 24.6895 191.054 24.9929C190.95 25.2963 190.914 25.6183 190.948 25.9367V31.6004H188.996V21.9191Z" fill="#333333"/>
<path d="M208.427 19.5098V21.9642H210.57V23.5736H208.427V28.5517C208.427 29.5658 208.854 30.0099 209.826 30.0099C210.074 30.0091 210.323 29.9944 210.57 29.9658V31.5573C210.219 31.6187 209.864 31.6513 209.508 31.6549C207.337 31.6549 206.473 30.9075 206.473 29.0409V23.5735H204.902V21.9641H206.473V19.5098H208.427Z" fill="#333333"/>
<path d="M213.236 18.1406H215.171V23.4757H215.326C215.585 22.9182 216.014 22.4525 216.554 22.1422C217.094 21.8318 217.718 21.6919 218.342 21.7415C218.821 21.716 219.299 21.7942 219.744 21.9706C220.188 22.147 220.587 22.4172 220.912 22.7619C221.238 23.1066 221.482 23.5174 221.626 23.9649C221.771 24.4124 221.812 24.8856 221.749 25.3507V31.6012H219.794V25.822C219.794 24.2757 219.058 23.4925 217.679 23.4925C217.344 23.4656 217.006 23.5107 216.69 23.6248C216.375 23.7389 216.088 23.9191 215.851 24.1529C215.613 24.3867 215.431 24.6683 215.317 24.9782C215.203 25.2881 215.159 25.6188 215.189 25.9469V31.6012H213.236L213.236 18.1406Z" fill="#333333"/>
<path d="M233.132 28.9857C232.867 29.8706 232.292 30.6359 231.509 31.1479C230.725 31.66 229.783 31.886 228.846 31.7866C228.194 31.8035 227.547 31.6813 226.948 31.4286C226.349 31.1759 225.814 30.7988 225.379 30.3233C224.945 29.8479 224.621 29.2855 224.43 28.6753C224.24 28.0651 224.187 27.4216 224.277 26.7896C224.19 26.1556 224.243 25.5107 224.433 24.8987C224.623 24.2866 224.945 23.7217 225.378 23.2421C225.81 22.7625 226.343 22.3794 226.94 22.1188C227.537 21.8582 228.184 21.7262 228.837 21.7316C231.59 21.7316 233.25 23.572 233.25 26.6121V27.2788H226.265V27.3859C226.235 27.7411 226.28 28.0988 226.399 28.4358C226.518 28.7728 226.708 29.0818 226.956 29.3429C227.204 29.604 227.505 29.8115 227.839 29.9521C228.174 30.0927 228.535 30.1633 228.9 30.1594C229.366 30.2142 229.84 30.1319 230.259 29.9229C230.678 29.714 231.024 29.3877 231.253 28.9857L233.132 28.9857ZM226.265 25.8657H231.261C231.286 25.5408 231.241 25.2144 231.129 24.9076C231.017 24.6008 230.841 24.3202 230.611 24.084C230.382 23.8478 230.105 23.6612 229.797 23.5361C229.49 23.411 229.159 23.3503 228.827 23.3578C228.489 23.3536 228.154 23.4157 227.841 23.5402C227.528 23.6648 227.244 23.8494 227.006 24.0831C226.767 24.3169 226.578 24.595 226.451 24.9012C226.324 25.2073 226.261 25.5353 226.265 25.8657H226.265Z" fill="#333333"/>
</g>
</g>
<defs>
<filter id="filter0_bdii_831_4986" x="-53" y="-56" width="374.867" height="198" filterUnits="userSpaceOnUse" color-interpolation-filters="sRGB">
<feFlood flood-opacity="0" result="BackgroundImageFix"/>
<feGaussianBlur in="BackgroundImageFix" stdDeviation="28"/>
<feComposite in2="SourceAlpha" operator="in" result="effect1_backgroundBlur_831_4986"/>
<feColorMatrix in="SourceAlpha" type="matrix" values="0 0 0 0 0 0 0 0 0 0 0 0 0 0 0 0 0 0 127 0" result="hardAlpha"/>
<feOffset dy="4"/>
<feGaussianBlur stdDeviation="2"/>
<feComposite in2="hardAlpha" operator="out"/>
<feColorMatrix type="matrix" values="0 0 0 0 0 0 0 0 0 0 0 0 0 0 0 0 0 0 0.25 0"/>
<feBlend mode="normal" in2="effect1_backgroundBlur_831_4986" result="effect2_dropShadow_831_4986"/>
<feBlend mode="normal" in="SourceGraphic" in2="effect2_dropShadow_831_4986" result="shape"/>
<feColorMatrix in="SourceAlpha" type="matrix" values="0 0 0 0 0 0 0 0 0 0 0 0 0 0 0 0 0 0 127 0" result="hardAlpha"/>
<feOffset dx="-50" dy="-50"/>
<feGaussianBlur stdDeviation="50"/>
<feComposite in2="hardAlpha" operator="arithmetic" k2="-1" k3="1"/>
<feColorMatrix type="matrix" values="0 0 0 0 0.952941 0 0 0 0 0.952941 0 0 0 0 0.952941 0 0 0 0.15 0"/>
<feBlend mode="normal" in2="shape" result="effect3_innerShadow_831_4986"/>
<feColorMatrix in="SourceAlpha" type="matrix" values="0 0 0 0 0 0 0 0 0 0 0 0 0 0 0 0 0 0 127 0" result="hardAlpha"/>
<feOffset dx="500" dy="500"/>
<feGaussianBlur stdDeviation="50"/>
<feComposite in2="hardAlpha" operator="arithmetic" k2="-1" k3="1"/>
<feColorMatrix type="matrix" values="0 0 0 0 0.952941 0 0 0 0 0.952941 0 0 0 0 0.952941 0 0 0 0.15 0"/>
<feBlend mode="normal" in2="effect3_innerShadow_831_4986" result="effect4_innerShadow_831_4986"/>
</filter>
<clipPath id="clip0_831_4986">
<rect x="3" width="262.868" height="86" rx="16" fill="white"/>
</clipPath>
</defs>
</svg>
