<svg width="263" height="86" viewBox="0 0 263 86" fill="none" xmlns="http://www.w3.org/2000/svg">
<path d="M18.5511 84.1187C17.8818 84.1187 17.2287 84.1104 16.5646 84.0957C15.189 84.0782 13.8166 83.961 12.4587 83.7451C11.1925 83.5316 9.96585 83.1346 8.81928 82.5671C7.68323 82.0043 6.64706 81.2663 5.75047 80.3814C4.8409 79.5069 4.08364 78.4927 3.5087 77.3789C2.92742 76.2579 2.52515 75.0563 2.31588 73.8159C2.08989 72.4832 1.96762 71.1356 1.95013 69.7847C1.9362 69.3313 1.91797 67.8215 1.91797 67.8215V18.1553C1.91797 18.1553 1.93739 16.6688 1.95024 16.232C1.96699 14.8833 2.08855 13.5378 2.31386 12.2071C2.52351 10.9634 2.9261 9.75829 3.50769 8.63358C4.08051 7.52056 4.83357 6.50558 5.73766 5.62799C6.64074 4.74206 7.68022 4.00027 8.81821 3.42968C9.96213 2.86398 11.1864 2.46975 12.4501 2.26021C13.8125 2.04212 15.1897 1.92422 16.57 1.90748L18.5522 1.88123H244.306L246.311 1.90853C247.679 1.92444 249.044 2.04129 250.394 2.2581C251.67 2.47027 252.907 2.86725 254.064 3.43598C256.344 4.5859 258.199 6.40518 259.369 8.63883C259.942 9.75577 260.338 10.951 260.545 12.184C260.773 13.5256 260.901 14.8817 260.927 16.2415C260.933 16.8504 260.933 17.5044 260.933 18.1553C260.951 18.9616 260.95 19.729 260.95 20.5027V65.4993C260.95 66.2804 260.951 67.0426 260.933 67.811C260.933 68.5102 260.933 69.1507 260.925 69.8098C260.899 71.1454 260.773 72.4773 260.549 73.7949C260.344 75.0442 259.944 76.2551 259.363 77.3854C258.784 78.4871 258.031 79.4925 257.132 80.3646C256.235 81.2543 255.197 81.9966 254.058 82.563C252.904 83.1349 251.669 83.5334 250.394 83.7451C249.036 83.9621 247.663 84.0794 246.288 84.0957C245.644 84.1104 244.97 84.1187 244.316 84.1187L241.935 84.123L18.5511 84.1187Z" fill="white" fill-opacity="0.8"/>
<path d="M54.9097 42.7644C54.9343 40.8983 55.4407 39.0686 56.382 37.4455C57.3232 35.8225 58.6686 34.4588 60.293 33.4814C59.261 32.0389 57.8997 30.8519 56.317 30.0145C54.7343 29.177 52.974 28.7124 51.1757 28.6573C47.3397 28.2632 43.6209 30.9039 41.6661 30.9039C39.6736 30.9039 36.6639 28.6964 33.423 28.7617C31.3267 28.828 29.2837 29.4246 27.4931 30.4934C25.7024 31.5622 24.2252 33.0668 23.2053 34.8606C18.7875 42.3469 22.0828 53.3493 26.3148 59.4007C28.4321 62.3639 30.9067 65.6738 34.1447 65.5564C37.3132 65.4278 38.4966 63.5789 42.3213 63.5789C46.1105 63.5789 47.2208 65.5564 50.5244 65.4818C53.9245 65.4278 56.0666 62.5055 58.1097 59.5142C59.631 57.4028 60.8017 55.0693 61.5783 52.6001C59.603 51.7824 57.9173 50.4137 56.7315 48.6646C55.5456 46.9156 54.912 44.8636 54.9097 42.7644Z" fill="#333333"/>
<path d="M48.6702 24.6765C50.524 22.4983 51.4373 19.6987 51.2162 16.8722C48.3839 17.1633 45.7678 18.4882 43.8889 20.5827C42.9703 21.6059 42.2667 22.7964 41.8184 24.0859C41.3701 25.3754 41.1859 26.7388 41.2763 28.098C42.6929 28.1123 44.0943 27.8118 45.3751 27.2191C46.6558 26.6264 47.7825 25.7571 48.6702 24.6765Z" fill="#333333"/>
<path d="M92.9241 58.3504H82.5262L80.0291 65.5667H75.625L85.4738 38.868H90.0495L99.8983 65.5667H95.419L92.9241 58.3504ZM83.6031 55.0204H91.8452L87.7821 43.3088H87.6683L83.6031 55.0204Z" fill="#333333"/>
<path d="M121.168 55.8345C121.168 61.8835 117.86 65.7698 112.868 65.7698C111.604 65.8346 110.346 65.5495 109.239 64.9472C108.133 64.3449 107.221 63.4497 106.61 62.3642H106.516V72.0056H102.434V46.1007H106.385V49.3383H106.46C107.099 48.258 108.026 47.3675 109.141 46.7615C110.256 46.1555 111.518 45.8568 112.793 45.897C117.841 45.897 121.168 49.8023 121.168 55.8345ZM116.972 55.8345C116.972 51.8935 114.891 49.3026 111.716 49.3026C108.597 49.3026 106.499 51.9481 106.499 55.8345C106.499 59.7566 108.597 62.3832 111.716 62.3832C114.891 62.3832 116.972 59.8111 116.972 55.8345H116.972Z" fill="#333333"/>
<path d="M143.06 55.8345C143.06 61.8835 139.751 65.7698 134.759 65.7698C133.494 65.8346 132.237 65.5495 131.13 64.9472C130.023 64.3449 129.112 63.4497 128.501 62.3642H128.407V72.0056H124.324V46.1007H128.276V49.3383H128.351C128.99 48.258 129.916 47.3675 131.031 46.7615C132.147 46.1555 133.409 45.8568 134.684 45.897C139.731 45.897 143.06 49.8023 143.06 55.8345ZM138.863 55.8345C138.863 51.8935 136.782 49.3026 133.607 49.3026C130.488 49.3026 128.389 51.9481 128.389 55.8345C128.389 59.7566 130.488 62.3832 133.607 62.3832C136.782 62.3832 138.863 59.8111 138.863 55.8345Z" fill="#333333"/>
<path d="M157.525 58.1278C157.827 60.7754 160.455 62.5138 164.046 62.5138C167.487 62.5138 169.963 60.7753 169.963 58.3881C169.963 56.3157 168.47 55.0749 164.934 54.2245L161.399 53.391C156.39 52.2068 154.064 49.914 154.064 46.1935C154.064 41.587 158.166 38.4229 163.988 38.4229C169.755 38.4229 173.706 41.587 173.839 46.1935H169.718C169.471 43.5291 167.221 41.9208 163.932 41.9208C160.644 41.9208 158.394 43.548 158.394 45.9164C158.394 47.8039 159.831 48.9146 163.347 49.7649L166.352 50.4871C171.949 51.7826 174.273 53.983 174.273 57.8883C174.273 62.8832 170.209 66.0116 163.744 66.0116C157.694 66.0116 153.61 62.9567 153.346 58.1276L157.525 58.1278Z" fill="#333333"/>
<path d="M183.087 41.4963V46.1029H186.869V49.267H183.087V59.9981C183.087 61.6652 183.844 62.442 185.507 62.442C185.956 62.4344 186.404 62.4035 186.85 62.3496V65.4948C186.102 65.6315 185.343 65.6934 184.582 65.6796C180.556 65.6796 178.986 64.1993 178.986 60.4242V49.267H176.094V46.1029H178.985V41.4963H183.087Z" fill="#333333"/>
<path d="M189.057 55.8367C189.057 49.7121 192.742 45.8635 198.489 45.8635C204.256 45.8635 207.924 49.712 207.924 55.8367C207.924 61.978 204.275 65.8098 198.489 65.8098C192.706 65.8098 189.057 61.978 189.057 55.8367ZM203.764 55.8367C203.764 51.6354 201.797 49.1557 198.489 49.1557C195.181 49.1557 193.214 51.6543 193.214 55.8367C193.214 60.0548 195.181 62.5155 198.489 62.5155C201.797 62.5155 203.764 60.0548 203.764 55.8367H203.764Z" fill="#333333"/>
<path d="M211.291 46.1005H215.185V49.4137H215.279C215.543 48.3789 216.162 47.4644 217.033 46.824C217.904 46.1835 218.974 45.8561 220.063 45.8968C220.533 45.8952 221.003 45.9452 221.462 46.0459V49.7832C220.868 49.6056 220.248 49.524 219.627 49.5418C219.034 49.5182 218.443 49.6206 217.894 49.8418C217.345 50.063 216.852 50.3978 216.448 50.8233C216.044 51.2487 215.738 51.7547 215.553 52.3066C215.367 52.8584 215.306 53.443 215.373 54.0202V65.566H211.291L211.291 46.1005Z" fill="#333333"/>
<path d="M240.282 59.8511C239.733 63.3848 236.217 65.8098 231.719 65.8098C225.933 65.8098 222.342 62.0158 222.342 55.9291C222.342 49.8234 225.952 45.8635 231.547 45.8635C237.049 45.8635 240.51 49.563 240.51 55.465V56.834H226.463V57.0754C226.398 57.7918 226.49 58.5135 226.732 59.1926C226.974 59.8716 227.361 60.4925 227.867 61.014C228.373 61.5355 228.986 61.9456 229.667 62.2171C230.347 62.4887 231.079 62.6155 231.813 62.589C232.778 62.6775 233.746 62.4588 234.573 61.9655C235.401 61.4722 236.044 60.7306 236.406 59.8511L240.282 59.8511ZM226.482 54.0415H236.425C236.462 53.3974 236.362 52.7528 236.132 52.1482C235.902 51.5436 235.547 50.992 235.089 50.5281C234.631 50.0642 234.08 49.698 233.47 49.4524C232.861 49.2069 232.206 49.0873 231.547 49.1011C230.882 49.0972 230.223 49.2223 229.608 49.4689C228.993 49.7156 228.434 50.0791 227.963 50.5385C227.492 50.9978 227.119 51.5438 226.864 52.1451C226.61 52.7463 226.48 53.3909 226.482 54.0415V54.0415Z" fill="#333333"/>
</svg>
