<svg width="24" height="25" viewBox="0 0 24 25" fill="none" xmlns="http://www.w3.org/2000/svg">
<path fill-rule="evenodd" clip-rule="evenodd" d="M6.72727 20.5909C6.72026 20.5977 6.71083 20.6016 6.70102 20.6016C6.6912 20.6016 6.68178 20.5977 6.67477 20.5909C6.29977 20.1746 2.29102 15.6296 2.29102 12.6184C2.29102 8.89088 4.72852 8.02838 6.70102 8.02838C8.51602 8.02838 10.8485 9.00338 10.8485 12.6184C10.8485 15.7271 7.07602 20.1821 6.72727 20.5909ZM6.56977 13.5859C7.55352 13.5859 8.35102 12.7884 8.35102 11.8046C8.35102 10.8209 7.55352 10.0234 6.56977 10.0234C5.58601 10.0234 4.78852 10.8209 4.78852 11.8046C4.78852 12.7884 5.58601 13.5859 6.56977 13.5859Z" fill="#00CFFF"/>
<path fill-rule="evenodd" clip-rule="evenodd" d="M18.5923 13.0759C18.5846 13.083 18.5746 13.087 18.5641 13.087C18.5537 13.087 18.5437 13.083 18.536 13.0759C18.2098 12.7009 15.0898 9.15713 15.0898 6.79838C15.0898 3.85838 17.0098 3.17963 18.566 3.17963C19.9948 3.17963 21.8323 3.92963 21.8323 6.79838C21.8323 9.23213 18.8998 12.7159 18.5923 13.0759ZM18.461 7.93838C19.2377 7.93838 19.8673 7.30878 19.8673 6.53213C19.8673 5.75548 19.2377 5.12588 18.461 5.12588C17.6844 5.12588 17.0548 5.75548 17.0548 6.53213C17.0548 7.30878 17.6844 7.93838 18.461 7.93838Z" fill="#E91E63"/>
<path fill-rule="evenodd" clip-rule="evenodd" d="M2.77152 12.6183C2.77152 10.8679 3.33771 9.87284 4.05584 9.30102C4.79431 8.71299 5.77342 8.50834 6.70152 8.50834C7.53248 8.50834 8.44537 8.73259 9.14317 9.33186C9.8266 9.91878 10.369 10.9215 10.369 12.6183C10.369 13.3062 10.1583 14.1007 9.8111 14.9333C9.46595 15.761 8.99845 16.597 8.51401 17.3597C7.82183 18.4494 7.1069 19.3711 6.69337 19.8809C6.25523 19.3658 5.48582 18.4206 4.74146 17.3104C4.22589 16.5414 3.72885 15.7029 3.36215 14.8804C2.99261 14.0516 2.77152 13.2743 2.77152 12.6183ZM6.33927 20.9336C6.40339 20.9965 6.48213 21.041 6.56737 21.0639L6.56241 21.0802C7.06291 21.2318 7.57337 21.3483 8.09007 21.4289L8.23798 20.4803C8.00691 20.4443 7.77721 20.4004 7.54927 20.3488C7.98803 19.8006 8.66536 18.9119 9.32435 17.8744C9.82662 17.0837 10.324 16.1975 10.6971 15.3028C11.0682 14.413 11.329 13.4849 11.329 12.6183C11.329 10.7002 10.7052 9.40789 9.76862 8.60356C8.84642 7.81158 7.68556 7.54834 6.70152 7.54834C5.65713 7.54834 4.43123 7.77493 3.45784 8.55002C2.46408 9.34133 1.81152 10.6412 1.81152 12.6183C1.81152 13.468 2.09153 14.388 2.48535 15.2713C2.88201 16.161 3.41059 17.0493 3.94409 17.845C5.01107 19.4364 6.12374 20.6958 6.31865 20.9121L6.32863 20.9232L6.33927 20.9336ZM16.7728 14.089C16.1486 14.3334 15.5716 14.6844 15.0675 15.1262C14.5497 15.5917 14.4397 16.2055 14.2798 17.0981L14.2797 17.0984L14.2796 17.0992C14.2632 17.1908 14.2462 17.2853 14.2283 17.3829C14.042 18.3952 13.7449 19.5818 12.5345 20.644C11.6214 21.4458 10.3129 21.5893 9.23465 21.5429L9.2759 20.5838C10.2901 20.6274 11.2767 20.4708 11.9012 19.9226C12.8657 19.0761 13.1104 18.1534 13.2841 17.2091C13.3019 17.1127 13.3189 17.0139 13.3362 16.9135C13.4816 16.0706 13.6471 15.1102 14.4286 14.4097L14.4306 14.4079L14.4325 14.4063C15.0207 13.8902 15.6941 13.4804 16.4228 13.1951L16.7728 14.089Z" fill="#00CFFF"/>
<path fill-rule="evenodd" clip-rule="evenodd" d="M16.292 10.9478C16.7905 11.6933 17.303 12.3486 17.6715 12.7974C17.4308 12.8576 17.1925 12.9277 16.9573 13.0075L17.2657 13.9166C17.7131 13.7649 18.1729 13.6523 18.6398 13.5802L18.6369 13.5619C18.7423 13.5471 18.8413 13.5003 18.92 13.427L18.94 13.4083L18.9578 13.3876C19.1177 13.2003 19.9445 12.2195 20.7338 10.9713C21.1285 10.3471 21.5195 9.64716 21.8131 8.93919C22.1047 8.23609 22.3128 7.49556 22.3128 6.79834C22.3128 5.2544 21.8134 4.20404 21.0476 3.54853C20.2964 2.90553 19.3553 2.69958 18.5665 2.69958C17.7304 2.69958 16.7379 2.88016 15.9458 3.51098C15.1333 4.15802 14.6103 5.21521 14.6103 6.79834C14.6103 7.48437 14.8344 8.21925 15.1442 8.91646C15.4568 9.61988 15.8727 10.3206 16.292 10.9478ZM16.5438 4.26194C16.0072 4.68928 15.5703 5.44146 15.5703 6.79834C15.5703 7.29167 15.7361 7.88429 16.0215 8.52666C16.3042 9.16281 16.6886 9.81373 17.0901 10.4142C17.6363 11.2312 18.2018 11.9369 18.5583 12.363C18.8926 11.9455 19.4164 11.2584 19.9224 10.4582C20.2993 9.86221 20.6605 9.21241 20.9264 8.57142C21.1942 7.92558 21.3528 7.31798 21.3528 6.79834C21.3528 5.47352 20.9334 4.71451 20.4233 4.27783C19.8985 3.82864 19.2065 3.65958 18.5665 3.65958C17.8463 3.65958 17.1008 3.81839 16.5438 4.26194Z" fill="#E91E63"/>
</svg>
