<svg width="271" height="94" viewBox="0 0 271 94" fill="none" xmlns="http://www.w3.org/2000/svg">
<g filter="url(#filter0_bdii_831_5021)">
<g clip-path="url(#clip0_831_5021)">
<g clip-path="url(#clip1_831_5021)">
<path d="M256.799 85.7861H13.9428C8.59993 85.7861 4.22852 80.9727 4.22852 75.0896V10.9105C4.22852 5.02743 8.59993 0.213997 13.9428 0.213997H256.799C262.142 0.213997 266.514 5.02743 266.514 10.9105V75.0896C266.514 80.9727 262.142 85.7861 256.799 85.7861Z" fill="white" fill-opacity="0.8"/>
<path d="M44.2837 41.553L23.5996 65.7265C23.6004 65.7315 23.6019 65.7357 23.6027 65.7407C24.237 68.3655 26.4143 70.2983 28.9985 70.2983C30.0315 70.2983 31.0013 69.9908 31.833 69.451L31.8991 69.4084L55.1816 54.615L44.2837 41.553" fill="#EB3131"/>
<path d="M65.2084 37.4365L65.1886 37.4215L55.1369 31.0053L43.8125 42.1011L55.1763 54.6123L65.175 48.2598C66.928 47.2178 68.1179 45.1829 68.1179 42.8364C68.1179 40.5067 66.9439 38.4819 65.2084 37.4365" fill="#F6B60B"/>
<path d="M23.5979 19.8462C23.4736 20.3511 23.4082 20.8799 23.4082 21.4291V64.1448C23.4082 64.6929 23.4728 65.2235 23.5987 65.7266L44.9946 42.1714L23.5979 19.8462Z" fill="#5778C5"/>
<path d="M44.435 42.7866L55.141 31.0015L31.8849 16.1547C31.0396 15.5972 30.053 15.2754 28.9973 15.2754C26.4132 15.2754 24.233 17.2117 23.5984 19.8397C23.5977 19.8423 23.5977 19.844 23.5977 19.8464L44.435 42.7866Z" fill="#3BAD49"/>
</g>
<path d="M96.3213 22.1276C96.3213 23.92 95.8393 25.3473 94.8738 26.412C93.7773 27.6781 92.3481 28.3115 90.5912 28.3115C88.9087 28.3115 87.4782 27.6697 86.3018 26.3844C85.1232 25.1 84.5352 23.5073 84.5352 21.6069C84.5352 19.7057 85.1232 18.1139 86.3018 16.8286C87.4782 15.5442 88.9087 14.9015 90.5912 14.9015C91.4261 14.9015 92.2254 15.0812 92.9842 15.4398C93.7431 15.7992 94.3518 16.2762 94.8072 16.8737L93.7825 18.0026C93.0108 16.9873 91.9483 16.4801 90.5912 16.4801C89.3641 16.4801 88.3031 16.9548 87.4077 17.9049C86.512 18.856 86.0644 20.0893 86.0644 21.6069C86.0644 23.1246 86.512 24.3579 87.4077 25.309C88.3031 26.2591 89.3641 26.7338 90.5912 26.7338C91.8929 26.7338 92.9782 26.2565 93.847 25.3007C94.4111 24.6779 94.7373 23.8124 94.8245 22.7008H90.5912V21.159H96.2401C96.2947 21.4942 96.3213 21.8159 96.3213 22.1276" fill="#333333"/>
<path d="M96.3203 22.1276H96.126C96.1244 23.879 95.6599 25.2394 94.7355 26.2607L94.7333 26.2624L94.7326 26.2641C93.6708 27.4865 92.3061 28.095 90.5902 28.0975C88.9526 28.095 87.5819 27.4799 86.4373 26.2331C85.2953 24.9838 84.7306 23.4587 84.7284 21.6069C84.7306 19.7542 85.2953 18.23 86.4373 16.9815C87.5819 15.7339 88.9526 15.1179 90.5902 15.1154C91.4 15.1154 92.1711 15.2893 92.9065 15.6361C93.6426 15.9854 94.2241 16.4432 94.6574 17.0117L94.8062 16.8737L94.6688 16.7224L93.6442 17.8522L93.7815 18.0026L93.9311 17.8657C93.1235 16.8001 91.9898 16.2629 90.5902 16.2661C89.3176 16.2644 88.1981 16.765 87.2722 17.7512C86.3373 18.7406 85.8675 20.0433 85.8691 21.6069C85.8675 23.1705 86.3373 24.4731 87.2722 25.4626C88.1981 26.4488 89.3176 26.9494 90.5902 26.9477C91.935 26.9502 93.0811 26.4479 93.9834 25.4518C94.5861 24.7865 94.9276 23.8649 95.0172 22.7191L95.0352 22.4868H90.7845V21.3728H96.239V21.1589L96.0477 21.1966C96.1009 21.5209 96.126 21.8292 96.126 22.1276H96.3203H96.5145C96.5145 21.8024 96.4871 21.4683 96.4302 21.1206L96.4015 20.945H90.3959V22.7007V22.9146H94.8235V22.7007L94.63 22.6823C94.5443 23.7588 94.233 24.5694 93.7087 25.1494C92.8738 26.0652 91.8494 26.5172 90.5902 26.5198C89.4085 26.5181 88.406 26.0701 87.5417 25.1551C86.6856 24.2434 86.2598 23.0794 86.2576 21.6069C86.2598 20.1344 86.6856 18.9704 87.5417 18.0586C88.406 17.1437 89.4085 16.6957 90.5902 16.694C91.9039 16.6974 92.896 17.1753 93.6329 18.1406L93.7695 18.3194L94.9435 17.0249L95.0694 16.8863L94.9548 16.7365C94.4775 16.1099 93.8416 15.6126 93.0598 15.2433C92.2766 14.873 91.4501 14.6875 90.5902 14.6875C88.863 14.6858 87.3724 15.3543 86.1634 16.6773C84.9499 17.9977 84.3383 19.6573 84.3398 21.6069C84.3383 23.5556 84.9499 25.2161 86.1642 26.5373C87.3724 27.8594 88.863 28.5271 90.5902 28.5254C92.3889 28.5271 93.881 27.8693 95.0133 26.5598L94.8728 26.412L95.0102 26.5632C96.0166 25.4559 96.5159 23.9601 96.5145 22.1276H96.3203Z" fill="#333333"/>
<path d="M105.276 16.766H99.9673V20.8358H104.755V22.3782H99.9673V26.448H105.276V28.0249H98.4707V15.1891H105.276V16.766Z" fill="#333333"/>
<path d="M105.275 16.7659V16.552H99.772V21.0496H104.559V22.1636L99.772 22.1642V26.6619H105.081V27.8109H98.664V15.4029H105.081V16.7659H105.275V16.552V16.7659H105.469V15.189V14.9751H98.2754V28.2388H105.469V26.448V26.234H100.161V22.5921H104.948V20.8357V20.6218H100.161V16.9798H105.469V16.7659H105.275" fill="#333333"/>
<path d="M111.593 28.0249H110.094V16.766H106.838V15.1891H114.848V16.766H111.593V28.0249Z" fill="#333333"/>
<path d="M111.592 28.0248V27.8109H110.287V16.552H107.031V15.4029H114.653V16.552H111.397V28.0248H111.592V27.8109V28.0248H111.786V16.9798H115.042V15.189V14.9751H106.643V16.7659V16.9798H109.898V28.2388H111.592H111.786V28.0248H111.592" fill="#333333"/>
<path d="M120.645 28.0249V15.1891H122.142V28.0249H120.645Z" fill="#333333"/>
<path d="M120.644 28.0248H120.838V15.4029H121.947V27.8109H120.644V28.0248H120.838H120.644V28.2388H122.141H122.335V14.9751H120.644H120.449V28.2388H120.644V28.0248Z" fill="#333333"/>
<path d="M128.786 28.0249H127.287V16.766H124.031V15.1891H132.042V16.766H128.786V28.0249Z" fill="#333333"/>
<path d="M128.785 28.0248V27.8109H127.48V16.552H124.225V15.4029H131.846V16.552H128.59V28.0248H128.785H128.979V16.9798H132.235V15.189V14.9751H123.836V16.7659V16.9798H127.092V28.2388H128.785H128.979V28.0248H128.785Z" fill="#333333"/>
<path d="M139.765 25.2915C140.627 26.2533 141.683 26.7338 142.932 26.7338C144.18 26.7338 145.236 26.2533 146.098 25.2915C146.961 24.3296 147.394 23.1002 147.394 21.6069C147.394 20.1137 146.961 18.8842 146.098 17.9224C145.236 16.9606 144.18 16.4801 142.932 16.4801C141.683 16.4801 140.627 16.9606 139.765 17.9224C138.903 18.8842 138.471 20.1137 138.471 21.6069C138.471 23.1002 138.903 24.3296 139.765 25.2915ZM147.206 26.366C146.06 27.6637 144.634 28.3115 142.932 28.3115C141.227 28.3115 139.802 27.6637 138.659 26.366C137.512 25.0698 136.941 23.4831 136.941 21.6069C136.941 19.7308 137.512 18.1438 138.659 16.8478C139.802 15.5499 141.227 14.9015 142.932 14.9015C144.626 14.9015 146.047 15.5533 147.198 16.8562C148.348 18.159 148.923 19.7425 148.923 21.6069C148.923 23.4831 148.349 25.0698 147.206 26.366Z" fill="#333333"/>
<path d="M139.764 25.2914L139.625 25.4418C140.52 26.4421 141.637 26.9502 142.931 26.9477C144.224 26.9502 145.342 26.4421 146.235 25.4418C147.136 24.4406 147.589 23.1453 147.587 21.6069C147.589 20.0685 147.136 18.7732 146.235 17.772C145.342 16.7716 144.224 16.2635 142.931 16.2661C141.637 16.2635 140.52 16.7716 139.625 17.772C138.727 18.7732 138.273 20.0685 138.275 21.6069C138.273 23.1453 138.727 24.4406 139.625 25.4418L139.764 25.2914L139.902 25.141C139.078 24.2175 138.665 23.0558 138.664 21.6069C138.665 20.1579 139.078 18.9963 139.902 18.0728C140.733 17.1494 141.727 16.6965 142.931 16.694C144.133 16.6965 145.129 17.1494 145.959 18.0728C146.784 18.9963 147.197 20.1579 147.198 21.6069C147.197 23.0558 146.784 24.2175 145.959 25.141C145.129 26.0643 144.133 26.5172 142.931 26.5198C141.727 26.5172 140.733 26.0643 139.902 25.141L139.764 25.2914ZM147.205 26.366L147.066 26.2173C145.952 27.4741 144.59 28.095 142.931 28.0975C141.271 28.095 139.908 27.4741 138.797 26.2173L138.791 26.2107L138.797 26.2173C137.685 24.9562 137.136 23.4353 137.135 21.6069C137.136 19.7784 137.685 18.2576 138.797 16.9965C139.908 15.7396 141.271 15.1179 142.931 15.1154C144.579 15.1179 145.938 15.7422 147.058 17.0057C148.174 18.2726 148.726 19.791 148.728 21.6069C148.726 23.4353 148.176 24.9562 147.066 26.2173L147.205 26.366L147.345 26.5147C148.522 25.1827 149.118 23.5305 149.117 21.6069C149.118 19.6941 148.52 18.0454 147.337 16.7074C146.153 15.3644 144.67 14.6852 142.931 14.6875C141.182 14.6852 139.695 15.3612 138.518 16.6991V16.6982C137.338 18.031 136.745 19.6832 136.746 21.6069C136.745 23.5305 137.338 25.1827 138.518 26.5155L138.523 26.5215L138.518 26.5147C139.695 27.8526 141.182 28.5271 142.931 28.5254C144.678 28.5271 146.166 27.8526 147.345 26.5147L147.205 26.366" fill="#333333"/>
<path d="M151.025 28.0249V15.1891H152.848L158.514 25.1745H158.578L158.514 22.7008V15.1891H160.013V28.0249H158.449L152.522 17.5556H152.457L152.522 20.0301V28.0249H151.025Z" fill="#333333"/>
<path d="M151.024 28.0248H151.219V15.4029H152.74L158.405 25.3884H158.577H158.777L158.707 22.6975V15.4029H159.817V27.8109H158.556L152.629 17.3416H152.456H152.257L152.327 20.0335V27.8109H151.024V28.0248H151.219H151.024V28.2388H152.521H152.715V20.0266L152.651 17.5497L152.456 17.5555V17.7694H152.521V17.5555L152.356 17.6693L158.34 28.2388H160.012H160.206V14.9751H158.513H158.318V22.7033L158.383 25.1802L158.577 25.1744V24.9605H158.513V25.1744L158.677 25.0608L152.955 14.9751H151.024H150.83V28.2388H151.024V28.0248Z" fill="#333333"/>
<path d="M211.954 64.3931H215.58V37.6492H211.954V64.3931ZM244.608 47.2829L240.452 58.8777H240.328L236.015 47.2829H232.11L238.577 63.4888L234.89 72.5032H238.672L248.639 47.2829H244.608ZM224.049 61.3555C222.86 61.3555 221.204 60.7019 221.204 59.0842C221.204 57.0199 223.268 56.2286 225.047 56.2286C226.642 56.2286 227.39 56.6071 228.36 57.1237C228.078 59.6006 226.141 61.3555 224.049 61.3555V61.3555ZM224.486 46.6978C221.861 46.6978 219.143 47.9713 218.018 50.7926L221.235 52.2718C221.923 50.7926 223.204 50.3104 224.548 50.3104C226.423 50.3104 228.329 51.5497 228.36 53.7517V54.0266C227.703 53.6137 226.298 52.9946 224.579 52.9946C221.111 52.9946 217.579 55.0929 217.579 59.0155C217.579 62.5939 220.423 64.8994 223.61 64.8994C226.048 64.8994 227.39 63.6952 228.235 62.2848H228.36V64.3488H231.859V54.0951C231.859 49.3478 228.642 46.6978 224.486 46.6978V46.6978ZM202.081 50.5385H196.924V41.3714H202.081C204.791 41.3714 206.33 43.8423 206.33 45.9548C206.33 48.0274 204.791 50.5385 202.081 50.5385ZM201.988 37.6492H193.301V64.3931H196.924V54.2607H201.988C206.005 54.2607 209.955 51.0575 209.955 45.9548C209.955 40.8524 206.005 37.6492 201.988 37.6492ZM154.619 61.3604C152.114 61.3604 150.017 59.0514 150.017 55.8801C150.017 52.6754 152.114 50.3314 154.619 50.3314C157.092 50.3314 159.032 52.6754 159.032 55.8801C159.032 59.0514 157.092 61.3604 154.619 61.3604V61.3604ZM158.782 48.7804H158.656C157.843 47.7123 156.277 46.7472 154.305 46.7472C150.174 46.7472 146.387 50.7449 146.387 55.8801C146.387 60.9811 150.174 64.9446 154.305 64.9446C156.277 64.9446 157.843 63.9793 158.656 62.8771H158.782V64.1866C158.782 67.6681 157.092 69.5291 154.368 69.5291C152.146 69.5291 150.769 67.7708 150.205 66.2891L147.044 67.7366C147.952 70.1491 150.362 73.1133 154.368 73.1133C158.625 73.1133 162.225 70.3555 162.225 63.6351V47.2987H158.782V48.7804ZM164.728 64.3931H168.359V37.6483H164.728V64.3931ZM173.712 55.5701C173.618 52.0544 176.185 50.2627 178.031 50.2627C179.472 50.2627 180.692 51.0549 181.098 52.1932L173.712 55.5701ZM184.98 52.5375C184.292 50.5034 182.194 46.7472 177.906 46.7472C173.649 46.7472 170.112 50.435 170.112 55.8459C170.112 60.9468 173.618 64.9446 178.313 64.9446C182.101 64.9446 184.292 62.3941 185.199 60.9124L182.382 58.8441C181.444 60.3609 180.16 61.3604 178.313 61.3604C176.466 61.3604 175.152 60.4296 174.306 58.6035L185.355 53.5712L184.98 52.5375ZM96.9526 49.539V53.399H105.341C105.09 55.5701 104.433 57.1554 103.431 58.2584C102.211 59.6029 100.302 61.0846 96.9526 61.0846C91.788 61.0846 87.7505 56.501 87.7505 50.8143C87.7505 45.1276 91.788 40.5432 96.9526 40.5432C99.7385 40.5432 101.772 41.7498 103.275 43.3008L105.748 40.5783C103.651 38.3721 100.865 36.6833 96.9526 36.6833C89.8785 36.6833 83.9316 43.025 83.9316 50.8143C83.9316 58.6035 89.8785 64.9446 96.9526 64.9446C100.772 64.9446 103.651 63.5666 105.904 60.9811C108.22 58.4306 108.941 54.8464 108.941 51.9517C108.941 51.0549 108.878 50.2285 108.752 49.539H96.9526ZM118.477 61.3604C115.973 61.3604 113.813 59.0857 113.813 55.8459C113.813 52.5717 115.973 50.3314 118.477 50.3314C120.981 50.3314 123.141 52.5717 123.141 55.8459C123.141 59.0857 120.981 61.3604 118.477 61.3604V61.3604ZM118.477 46.7472C113.907 46.7472 110.182 50.5727 110.182 55.8459C110.182 61.0846 113.907 64.9446 118.477 64.9446C123.047 64.9446 126.772 61.0846 126.772 55.8459C126.772 50.5727 123.047 46.7472 118.477 46.7472ZM136.571 61.3604C134.068 61.3604 131.908 59.0857 131.908 55.8459C131.908 52.5717 134.068 50.3314 136.571 50.3314C139.075 50.3314 141.235 52.5717 141.235 55.8459C141.235 59.0857 139.075 61.3604 136.571 61.3604ZM136.571 46.7472C132.001 46.7472 128.277 50.5727 128.277 55.8459C128.277 61.0846 132.001 64.9446 136.571 64.9446C141.141 64.9446 144.866 61.0846 144.866 55.8459C144.866 50.5727 141.141 46.7472 136.571 46.7472Z" fill="#333333"/>
</g>
</g>
<defs>
<filter id="filter0_bdii_831_5021" x="-52" y="-56" width="374.867" height="198" filterUnits="userSpaceOnUse" color-interpolation-filters="sRGB">
<feFlood flood-opacity="0" result="BackgroundImageFix"/>
<feGaussianBlur in="BackgroundImageFix" stdDeviation="28"/>
<feComposite in2="SourceAlpha" operator="in" result="effect1_backgroundBlur_831_5021"/>
<feColorMatrix in="SourceAlpha" type="matrix" values="0 0 0 0 0 0 0 0 0 0 0 0 0 0 0 0 0 0 127 0" result="hardAlpha"/>
<feOffset dy="4"/>
<feGaussianBlur stdDeviation="2"/>
<feComposite in2="hardAlpha" operator="out"/>
<feColorMatrix type="matrix" values="0 0 0 0 0 0 0 0 0 0 0 0 0 0 0 0 0 0 0.25 0"/>
<feBlend mode="normal" in2="effect1_backgroundBlur_831_5021" result="effect2_dropShadow_831_5021"/>
<feBlend mode="normal" in="SourceGraphic" in2="effect2_dropShadow_831_5021" result="shape"/>
<feColorMatrix in="SourceAlpha" type="matrix" values="0 0 0 0 0 0 0 0 0 0 0 0 0 0 0 0 0 0 127 0" result="hardAlpha"/>
<feOffset dx="-50" dy="-50"/>
<feGaussianBlur stdDeviation="50"/>
<feComposite in2="hardAlpha" operator="arithmetic" k2="-1" k3="1"/>
<feColorMatrix type="matrix" values="0 0 0 0 0.952941 0 0 0 0 0.952941 0 0 0 0 0.952941 0 0 0 0.15 0"/>
<feBlend mode="normal" in2="shape" result="effect3_innerShadow_831_5021"/>
<feColorMatrix in="SourceAlpha" type="matrix" values="0 0 0 0 0 0 0 0 0 0 0 0 0 0 0 0 0 0 127 0" result="hardAlpha"/>
<feOffset dx="500" dy="500"/>
<feGaussianBlur stdDeviation="50"/>
<feComposite in2="hardAlpha" operator="arithmetic" k2="-1" k3="1"/>
<feColorMatrix type="matrix" values="0 0 0 0 0.952941 0 0 0 0 0.952941 0 0 0 0 0.952941 0 0 0 0.15 0"/>
<feBlend mode="normal" in2="effect3_innerShadow_831_5021" result="effect4_innerShadow_831_5021"/>
</filter>
<clipPath id="clip0_831_5021">
<rect x="4" width="262.868" height="86" rx="16" fill="white"/>
</clipPath>
<clipPath id="clip1_831_5021">
<rect width="262.868" height="86" fill="white" transform="translate(4.03516)"/>
</clipPath>
</defs>
</svg>
