<svg width="263" height="86" viewBox="0 0 263 86" fill="none" xmlns="http://www.w3.org/2000/svg">
<g filter="url(#filter0_bii_3253_63132)">
<g clip-path="url(#clip0_3253_63132)">
<g clip-path="url(#clip1_3253_63132)">
<path d="M252.799 85.7861H9.94278C4.59993 85.7861 0.228516 80.9727 0.228516 75.0896V10.9105C0.228516 5.02743 4.59993 0.213997 9.94278 0.213997H252.799C258.142 0.213997 262.514 5.02743 262.514 10.9105V75.0896C262.514 80.9727 258.142 85.7861 252.799 85.7861Z" fill="white" fill-opacity="0.8"/>
<path d="M40.2837 41.5532L19.5996 65.7268C19.6004 65.7318 19.6019 65.736 19.6027 65.741C20.237 68.3657 22.4143 70.2986 24.9985 70.2986C26.0315 70.2986 27.0013 69.9911 27.833 69.4512L27.8991 69.4086L51.1816 54.6152L40.2837 41.5532Z" fill="#EB3131"/>
<path d="M61.2084 37.4368L61.1886 37.4219L51.1369 31.0056L39.8125 42.1015L51.1763 54.6127L61.175 48.2602C62.928 47.2181 64.118 45.1833 64.118 42.8367C64.118 40.5071 62.9439 38.4823 61.2084 37.4368Z" fill="#F6B60B"/>
<path d="M19.5979 19.8465C19.4736 20.3513 19.4082 20.8802 19.4082 21.4293V64.145C19.4082 64.6931 19.4728 65.2237 19.5987 65.7268L40.9946 42.1717L19.5979 19.8465Z" fill="#5778C5"/>
<path d="M40.435 42.7866L51.141 31.0015L27.8849 16.1547C27.0396 15.5972 26.053 15.2754 24.9973 15.2754C22.4132 15.2754 20.233 17.2117 19.5984 19.8397C19.5977 19.8423 19.5977 19.844 19.5977 19.8464L40.435 42.7866Z" fill="#3BAD49"/>
</g>
<path d="M92.3213 22.1275C92.3213 23.9198 91.8393 25.3472 90.8738 26.4119C89.7773 27.678 88.3481 28.3114 86.5912 28.3114C84.9087 28.3114 83.4782 27.6696 82.3018 26.3843C81.1232 25.0999 80.5352 23.5072 80.5352 21.6068C80.5352 19.7056 81.1232 18.1138 82.3018 16.8285C83.4782 15.544 84.9087 14.9014 86.5912 14.9014C87.4261 14.9014 88.2253 15.0811 88.9842 15.4396C89.7431 15.799 90.3518 16.2761 90.8072 16.8736L89.7825 18.0025C89.0108 16.9872 87.9483 16.48 86.5912 16.48C85.3641 16.48 84.3031 16.9547 83.4077 17.9048C82.512 18.8559 82.0644 20.0892 82.0644 21.6068C82.0644 23.1244 82.512 24.3578 83.4077 25.3089C84.3031 26.259 85.3641 26.7337 86.5912 26.7337C87.8929 26.7337 88.9782 26.2564 89.847 25.3005C90.4111 24.6778 90.7373 23.8122 90.8245 22.7006H86.5912V21.1589H92.2401C92.2947 21.4941 92.3213 21.8158 92.3213 22.1275Z" fill="#333333"/>
<path d="M92.3203 22.1277H92.126C92.1244 23.8792 91.6599 25.2395 90.7355 26.2608L90.7333 26.2626L90.7326 26.2643C89.6708 27.4867 88.3061 28.0951 86.5902 28.0976C84.9526 28.0951 83.5819 27.48 82.4373 26.2332C81.2953 24.9839 80.7306 23.4588 80.7284 21.607C80.7306 19.7544 81.2953 18.2301 82.4373 16.9816C83.5819 15.734 84.9526 15.1181 86.5902 15.1155C87.4 15.1155 88.1711 15.2894 88.9065 15.6362C89.6426 15.9856 90.2241 16.4434 90.6574 17.0118L90.8062 16.8738L90.6688 16.7225L89.6442 17.8523L89.7815 18.0027L89.9311 17.8658C89.1235 16.8002 87.9898 16.263 86.5902 16.2662C85.3176 16.2645 84.1981 16.7651 83.2722 17.7513C82.3373 18.7408 81.8675 20.0434 81.8691 21.607C81.8675 23.1706 82.3373 24.4732 83.2722 25.4627C84.1981 26.4489 85.3176 26.9495 86.5902 26.9478C87.935 26.9503 89.0811 26.448 89.9834 25.452C90.5861 24.7866 90.9276 23.865 91.0172 22.7192L91.0352 22.4869H86.7845V21.373H92.239V21.159L92.0477 21.1967C92.1009 21.521 92.126 21.8293 92.126 22.1277H92.3203H92.5145C92.5145 21.8025 92.4871 21.4684 92.4302 21.1207L92.4015 20.9451H86.3959V22.7008V22.9148H90.8235V22.7008L90.63 22.6824C90.5443 23.7589 90.233 24.5695 89.7087 25.1495C88.8738 26.0653 87.8494 26.5173 86.5902 26.5199C85.4085 26.5182 84.406 26.0702 83.5417 25.1553C82.6856 24.2435 82.2598 23.0795 82.2576 21.607C82.2598 20.1345 82.6856 18.9705 83.5417 18.0588C84.406 17.1438 85.4085 16.6958 86.5902 16.6941C87.9039 16.6975 88.896 17.1754 89.6329 18.1407L89.7695 18.3195L90.9436 17.025L91.0694 16.8864L90.9548 16.7367C90.4775 16.1101 89.8416 15.6127 89.0598 15.2434C88.2766 14.8731 87.4501 14.6876 86.5902 14.6876C84.863 14.6859 83.3724 15.3545 82.1634 16.6774C80.9499 17.9978 80.3383 19.6575 80.3398 21.607C80.3383 23.5557 80.9499 25.2162 82.1642 26.5375C83.3724 27.8595 84.863 28.5272 86.5902 28.5255C88.3889 28.5272 89.881 27.8694 91.0133 26.5599L90.8728 26.4121L91.0102 26.5633C92.0166 25.456 92.5159 23.9602 92.5145 22.1277H92.3203Z" fill="#333333"/>
<path d="M101.276 16.766H95.9673V20.8358H100.755V22.3782H95.9673V26.448H101.276V28.0249H94.4707V15.1891H101.276V16.766Z" fill="#333333"/>
<path d="M101.275 16.7659V16.552H95.772V21.0496H100.559V22.1636L95.772 22.1642V26.6619H101.081V27.8109H94.664V15.4029H101.081V16.7659H101.275V16.552V16.7659H101.469V15.189V14.9751H94.2754V28.2388H101.469V26.448V26.234H96.1605V22.5921H100.948V20.8357V20.6218H96.1605V16.9798H101.469V16.7659H101.275Z" fill="#333333"/>
<path d="M107.593 28.0249H106.094V16.766H102.838V15.1891H110.848V16.766H107.593V28.0249Z" fill="#333333"/>
<path d="M107.592 28.0248V27.8109H106.287V16.552H103.031V15.4029H110.653V16.552H107.397V28.0248H107.592V27.8109V28.0248H107.786V16.9798H111.042V15.189V14.9751H102.643V16.7659V16.9798H105.898V28.2388H107.592H107.786V28.0248H107.592Z" fill="#333333"/>
<path d="M116.645 28.0249V15.1891H118.142V28.0249H116.645Z" fill="#333333"/>
<path d="M116.644 28.0248H116.838V15.4029H117.947V27.8109H116.644V28.0248H116.838H116.644V28.2388H118.141H118.335V14.9751H116.644H116.449V28.2388H116.644V28.0248Z" fill="#333333"/>
<path d="M124.786 28.0249H123.287V16.766H120.031V15.1891H128.042V16.766H124.786V28.0249Z" fill="#333333"/>
<path d="M124.785 28.0248V27.8109H123.48V16.552H120.225V15.4029H127.846V16.552H124.59V28.0248H124.785H124.979V16.9798H128.235V15.189V14.9751H119.836V16.7659V16.9798H123.092V28.2388H124.785H124.979V28.0248H124.785Z" fill="#333333"/>
<path d="M135.765 25.2913C136.627 26.2532 137.683 26.7337 138.932 26.7337C140.18 26.7337 141.236 26.2532 142.098 25.2913C142.961 24.3295 143.394 23.1001 143.394 21.6068C143.394 20.1136 142.961 18.8841 142.098 17.9223C141.236 16.9605 140.18 16.48 138.932 16.48C137.683 16.48 136.627 16.9605 135.765 17.9223C134.903 18.8841 134.471 20.1136 134.471 21.6068C134.471 23.1001 134.903 24.3295 135.765 25.2913ZM143.206 26.3659C142.06 27.6636 140.634 28.3114 138.932 28.3114C137.227 28.3114 135.802 27.6636 134.659 26.3659C133.512 25.0697 132.941 23.483 132.941 21.6068C132.941 19.7306 133.512 18.1437 134.659 16.8477C135.802 15.5498 137.227 14.9014 138.932 14.9014C140.626 14.9014 142.047 15.5532 143.198 16.8561C144.348 18.1589 144.923 19.7424 144.923 21.6068C144.923 23.483 144.349 25.0697 143.206 26.3659Z" fill="#333333"/>
<path d="M135.764 25.2915L135.625 25.4419C136.52 26.4423 137.637 26.9503 138.931 26.9478C140.224 26.9503 141.342 26.4423 142.235 25.4419C143.136 24.4407 143.589 23.1454 143.587 21.607C143.589 20.0686 143.136 18.7733 142.235 17.7721C141.342 16.7717 140.224 16.2637 138.931 16.2662C137.637 16.2637 136.52 16.7717 135.625 17.7721C134.727 18.7733 134.273 20.0686 134.275 21.607C134.273 23.1454 134.727 24.4407 135.625 25.4419L135.764 25.2915L135.902 25.1411C135.078 24.2176 134.665 23.056 134.664 21.607C134.665 20.1581 135.078 18.9964 135.902 18.0729C136.733 17.1496 137.727 16.6967 138.931 16.6941C140.133 16.6967 141.129 17.1496 141.959 18.0729C142.784 18.9964 143.197 20.1581 143.198 21.607C143.197 23.056 142.784 24.2176 141.959 25.1411C141.129 26.0645 140.133 26.5173 138.931 26.5199C137.727 26.5173 136.733 26.0645 135.902 25.1411L135.764 25.2915ZM143.205 26.3661L143.066 26.2174C141.952 27.4743 140.59 28.0951 138.931 28.0976C137.271 28.0951 135.908 27.4743 134.797 26.2174L134.791 26.2108L134.797 26.2174C133.685 24.9563 133.136 23.4355 133.135 21.607C133.136 19.7785 133.685 18.2577 134.797 16.9966C135.908 15.7397 137.271 15.1181 138.931 15.1155C140.579 15.1181 141.938 15.7423 143.058 17.0058C144.174 18.2727 144.726 19.7912 144.728 21.607C144.726 23.4355 144.176 24.9563 143.066 26.2174L143.205 26.3661L143.345 26.5148C144.522 25.1829 145.118 23.5307 145.117 21.607C145.118 19.6943 144.52 18.0455 143.337 16.7076C142.153 15.3645 140.67 14.6853 138.931 14.6876C137.182 14.6853 135.695 15.3613 134.518 16.6992V16.6984C133.338 18.0312 132.745 19.6833 132.746 21.607C132.745 23.5307 133.338 25.1828 134.518 26.5156L134.523 26.5216L134.518 26.5148C135.695 27.8527 137.182 28.5272 138.931 28.5255C140.678 28.5272 142.166 27.8527 143.345 26.5148L143.205 26.3661Z" fill="#333333"/>
<path d="M147.025 28.0249V15.1891H148.848L154.514 25.1745H154.578L154.514 22.7008V15.1891H156.013V28.0249H154.449L148.522 17.5556H148.457L148.522 20.0301V28.0249H147.025Z" fill="#333333"/>
<path d="M147.024 28.0248H147.219V15.4029H148.74L154.405 25.3884H154.577H154.777L154.707 22.6975V15.4029H155.817V27.8109H154.556L148.629 17.3416H148.456H148.257L148.327 20.0335V27.8109H147.024V28.0248H147.219H147.024V28.2388H148.521H148.715V20.0266L148.651 17.5497L148.456 17.5555V17.7694H148.521V17.5555L148.356 17.6693L154.34 28.2388H156.012H156.206V14.9751H154.513H154.318V22.7033L154.383 25.1802L154.577 25.1744V24.9605H154.513V25.1744L154.677 25.0608L148.955 14.9751H147.024H146.83V28.2388H147.024V28.0248Z" fill="#333333"/>
<path d="M207.954 64.3931H211.58V37.6492H207.954V64.3931ZM240.608 47.2829L236.452 58.8777H236.328L232.015 47.2829H228.11L234.577 63.4888L230.89 72.5032H234.673L244.639 47.2829H240.608ZM220.049 61.3555C218.86 61.3555 217.204 60.7019 217.204 59.0842C217.204 57.0199 219.268 56.2286 221.047 56.2286C222.642 56.2286 223.39 56.6071 224.36 57.1237C224.078 59.6006 222.141 61.3555 220.049 61.3555ZM220.486 46.6978C217.861 46.6978 215.143 47.9713 214.018 50.7926L217.235 52.2718C217.923 50.7926 219.204 50.3104 220.548 50.3104C222.423 50.3104 224.329 51.5497 224.36 53.7517V54.0266C223.703 53.6137 222.298 52.9946 220.579 52.9946C217.111 52.9946 213.579 55.0929 213.579 59.0155C213.579 62.5939 216.423 64.8994 219.61 64.8994C222.048 64.8994 223.39 63.6952 224.236 62.2848H224.36V64.3488H227.859V54.0951C227.859 49.3478 224.642 46.6978 220.486 46.6978ZM198.081 50.5385H192.924V41.3714H198.081C200.791 41.3714 202.33 43.8423 202.33 45.9548C202.33 48.0274 200.791 50.5385 198.081 50.5385ZM197.988 37.6492H189.301V64.3931H192.924V54.2607H197.988C202.005 54.2607 205.955 51.0575 205.955 45.9548C205.955 40.8524 202.005 37.6492 197.988 37.6492ZM150.619 61.3604C148.114 61.3604 146.017 59.0514 146.017 55.8801C146.017 52.6754 148.114 50.3314 150.619 50.3314C153.092 50.3314 155.032 52.6754 155.032 55.8801C155.032 59.0514 153.092 61.3604 150.619 61.3604ZM154.782 48.7804H154.656C153.843 47.7123 152.277 46.7472 150.305 46.7472C146.174 46.7472 142.387 50.7449 142.387 55.8801C142.387 60.9811 146.174 64.9446 150.305 64.9446C152.277 64.9446 153.843 63.9793 154.656 62.8771H154.782V64.1866C154.782 67.6681 153.092 69.5291 150.368 69.5291C148.146 69.5291 146.769 67.7708 146.205 66.2891L143.044 67.7366C143.952 70.1491 146.362 73.1133 150.368 73.1133C154.625 73.1133 158.225 70.3555 158.225 63.6351V47.2987H154.782V48.7804ZM160.728 64.3931H164.359V37.6483H160.728V64.3931ZM169.712 55.5701C169.618 52.0544 172.185 50.2627 174.031 50.2627C175.472 50.2627 176.692 51.0549 177.098 52.1932L169.712 55.5701ZM180.98 52.5375C180.292 50.5034 178.194 46.7472 173.906 46.7472C169.649 46.7472 166.112 50.435 166.112 55.8459C166.112 60.9468 169.618 64.9446 174.313 64.9446C178.101 64.9446 180.292 62.3941 181.199 60.9124L178.382 58.8441C177.444 60.3609 176.16 61.3604 174.313 61.3604C172.466 61.3604 171.152 60.4296 170.306 58.6035L181.355 53.5712L180.98 52.5375ZM92.9526 49.539V53.399H101.341C101.09 55.5701 100.433 57.1554 99.4315 58.2584C98.2112 59.6029 96.3017 61.0846 92.9526 61.0846C87.788 61.0846 83.7505 56.5009 83.7505 50.8143C83.7505 45.1276 87.788 40.5432 92.9526 40.5432C95.7385 40.5432 97.7725 41.7498 99.2751 43.3008L101.748 40.5783C99.6508 38.3721 96.8648 36.6833 92.9526 36.6833C85.8785 36.6833 79.9316 43.025 79.9316 50.8143C79.9316 58.6035 85.8785 64.9446 92.9526 64.9446C96.7715 64.9446 99.6508 63.5666 101.904 60.9811C104.22 58.4306 104.941 54.8464 104.941 51.9517C104.941 51.0549 104.878 50.2285 104.752 49.539H92.9526ZM114.477 61.3604C111.973 61.3604 109.813 59.0857 109.813 55.8459C109.813 52.5717 111.973 50.3314 114.477 50.3314C116.981 50.3314 119.141 52.5717 119.141 55.8459C119.141 59.0857 116.981 61.3604 114.477 61.3604ZM114.477 46.7472C109.907 46.7472 106.182 50.5727 106.182 55.8459C106.182 61.0846 109.907 64.9446 114.477 64.9446C119.047 64.9446 122.772 61.0846 122.772 55.8459C122.772 50.5727 119.047 46.7472 114.477 46.7472ZM132.571 61.3604C130.068 61.3604 127.908 59.0857 127.908 55.8459C127.908 52.5717 130.068 50.3314 132.571 50.3314C135.075 50.3314 137.235 52.5717 137.235 55.8459C137.235 59.0857 135.075 61.3604 132.571 61.3604ZM132.571 46.7472C128.001 46.7472 124.277 50.5727 124.277 55.8459C124.277 61.0846 128.001 64.9446 132.571 64.9446C137.141 64.9446 140.866 61.0846 140.866 55.8459C140.866 50.5727 137.141 46.7472 132.571 46.7472Z" fill="#333333"/>
</g>
<rect x="1" y="1" width="260.868" height="84" rx="15" stroke="#333333" stroke-width="2"/>
</g>
<defs>
<filter id="filter0_bii_3253_63132" x="-56" y="-56" width="374.867" height="198" filterUnits="userSpaceOnUse" color-interpolation-filters="sRGB">
<feFlood flood-opacity="0" result="BackgroundImageFix"/>
<feGaussianBlur in="BackgroundImageFix" stdDeviation="28"/>
<feComposite in2="SourceAlpha" operator="in" result="effect1_backgroundBlur_3253_63132"/>
<feBlend mode="normal" in="SourceGraphic" in2="effect1_backgroundBlur_3253_63132" result="shape"/>
<feColorMatrix in="SourceAlpha" type="matrix" values="0 0 0 0 0 0 0 0 0 0 0 0 0 0 0 0 0 0 127 0" result="hardAlpha"/>
<feOffset dx="-50" dy="-50"/>
<feGaussianBlur stdDeviation="50"/>
<feComposite in2="hardAlpha" operator="arithmetic" k2="-1" k3="1"/>
<feColorMatrix type="matrix" values="0 0 0 0 0.952941 0 0 0 0 0.952941 0 0 0 0 0.952941 0 0 0 0.15 0"/>
<feBlend mode="normal" in2="shape" result="effect2_innerShadow_3253_63132"/>
<feColorMatrix in="SourceAlpha" type="matrix" values="0 0 0 0 0 0 0 0 0 0 0 0 0 0 0 0 0 0 127 0" result="hardAlpha"/>
<feOffset dx="500" dy="500"/>
<feGaussianBlur stdDeviation="50"/>
<feComposite in2="hardAlpha" operator="arithmetic" k2="-1" k3="1"/>
<feColorMatrix type="matrix" values="0 0 0 0 0.952941 0 0 0 0 0.952941 0 0 0 0 0.952941 0 0 0 0.15 0"/>
<feBlend mode="normal" in2="effect2_innerShadow_3253_63132" result="effect3_innerShadow_3253_63132"/>
</filter>
<clipPath id="clip0_3253_63132">
<rect width="262.868" height="86" rx="16" fill="white"/>
</clipPath>
<clipPath id="clip1_3253_63132">
<rect width="262.868" height="86" fill="white" transform="translate(0.0351562)"/>
</clipPath>
</defs>
</svg>
