<svg width="20" height="20" viewBox="0 0 20 20" fill="none" xmlns="http://www.w3.org/2000/svg">
<path d="M10 14.999C10.2833 14.999 10.521 14.903 10.713 14.711C10.905 14.519 11.0007 14.2817 11 13.999V9.99902C11 9.71569 10.904 9.47836 10.712 9.28702C10.52 9.09569 10.2827 8.99969 10 8.99902C9.71733 8.99836 9.48 9.09436 9.288 9.28702C9.096 9.47969 9 9.71702 9 9.99902V13.999C9 14.2824 9.096 14.52 9.288 14.712C9.48 14.904 9.71733 14.9997 10 14.999ZM10 6.99902C10.2833 6.99902 10.521 6.90302 10.713 6.71102C10.905 6.51902 11.0007 6.28169 11 5.99902C10.9993 5.71636 10.9033 5.47902 10.712 5.28702C10.5207 5.09502 10.2833 4.99902 10 4.99902C9.71667 4.99902 9.47933 5.09502 9.288 5.28702C9.09667 5.47902 9.00067 5.71636 9 5.99902C8.99933 6.28169 9.09533 6.51936 9.288 6.71202C9.48067 6.90469 9.718 7.00036 10 6.99902ZM10 19.999C8.61667 19.999 7.31667 19.7364 6.1 19.211C4.88334 18.6857 3.825 17.9734 2.925 17.074C2.025 16.1747 1.31267 15.1164 0.788001 13.899C0.263335 12.6817 0.000667933 11.3817 1.26582e-06 9.99902C-0.000665401 8.61636 0.262001 7.31636 0.788001 6.09902C1.314 4.88169 2.02633 3.82336 2.925 2.92402C3.82367 2.02469 4.882 1.31236 6.1 0.787024C7.318 0.26169 8.618 -0.000976562 10 -0.000976562C11.382 -0.000976563 12.682 0.26169 13.9 0.787024C15.118 1.31236 16.1763 2.02469 17.075 2.92402C17.9737 3.82336 18.6863 4.88169 19.213 6.09902C19.7397 7.31636 20.002 8.61636 20 9.99902C19.998 11.3817 19.7353 12.6817 19.212 13.899C18.6887 15.1164 17.9763 16.1747 17.075 17.074C16.1737 17.9734 15.1153 18.686 13.9 19.212C12.6847 19.738 11.3847 20.0004 10 19.999ZM10 17.999C12.2333 17.999 14.125 17.224 15.675 15.674C17.225 14.124 18 12.2324 18 9.99902C18 7.76569 17.225 5.87402 15.675 4.32402C14.125 2.77402 12.2333 1.99902 10 1.99902C7.76667 1.99902 5.875 2.77402 4.325 4.32402C2.775 5.87402 2 7.76569 2 9.99902C2 12.2324 2.775 14.124 4.325 15.674C5.875 17.224 7.76667 17.999 10 17.999Z" fill="white"/>
</svg>
