<svg width="24" height="24" viewBox="0 0 24 24" fill="none" xmlns="http://www.w3.org/2000/svg">
<path d="M5.42428 5.28007L5.42428 5.27983C5.4262 5.01337 5.49065 4.75108 5.61246 4.51408C5.73426 4.27708 5.91001 4.07199 6.12556 3.91532C6.34111 3.75865 6.59043 3.65478 6.85345 3.61207C7.11638 3.56938 7.38565 3.58899 7.63961 3.66933C8.17713 3.83985 8.75452 3.83791 9.29089 3.6638C9.82725 3.48969 10.2957 3.15213 10.6306 2.69842C10.7888 2.48413 10.9951 2.30997 11.2329 2.18995C11.4707 2.06992 11.7334 2.00739 11.9998 2.00739C12.2662 2.00739 12.5289 2.06992 12.7667 2.18995C13.0045 2.30998 13.2108 2.48416 13.369 2.69847C13.7039 3.15199 14.1722 3.48943 14.7083 3.66353C15.2445 3.83764 15.8217 3.83968 16.3591 3.66938L16.3591 3.66937C16.6132 3.58884 16.8826 3.56911 17.1457 3.61177C17.4088 3.65442 17.6582 3.75827 17.8739 3.91495L18.1678 3.51047L17.8739 3.91495C18.0895 4.07164 18.2653 4.27677 18.3871 4.51383L18.8318 4.28527L18.3871 4.51383C18.509 4.75089 18.5734 5.01325 18.5753 5.27978L18.5753 5.28007C18.5796 5.84371 18.7601 6.39188 19.0915 6.84784C19.4228 7.3038 19.8885 7.64472 20.4233 7.82286L20.4233 7.82287C20.6761 7.90708 20.9057 8.04948 21.0934 8.23862C21.2812 8.42775 21.4219 8.65833 21.5042 8.91178C21.5865 9.16523 21.6082 9.43448 21.5675 9.69784C21.5267 9.9612 21.4247 10.2113 21.2697 10.428L21.2696 10.4281C20.9417 10.8866 20.7653 11.4363 20.7653 12C20.7653 12.5637 20.9417 13.1133 21.2696 13.5719L21.2697 13.5719C21.4247 13.7887 21.5267 14.0388 21.5675 14.3021C21.6082 14.5655 21.5865 14.8347 21.5042 15.0882C21.4219 15.3417 21.2812 15.5722 21.0934 15.7614C20.9057 15.9505 20.6761 16.0929 20.4233 16.1771L20.4233 16.1771C19.8885 16.3553 19.4228 16.6962 19.0915 17.1521C18.7601 17.6081 18.5796 18.1563 18.5753 18.7199L18.5753 18.7201C18.5734 18.9866 18.5089 19.2489 18.3871 19.4859C18.2653 19.7229 18.0896 19.928 17.874 20.0847L18.168 20.4891L17.874 20.0847C17.6585 20.2413 17.4092 20.3452 17.1461 20.3879C16.8832 20.4306 16.6139 20.411 16.36 20.3306C15.8225 20.1601 15.2451 20.1621 14.7087 20.3362C14.1723 20.5103 13.7039 20.8479 13.369 21.3016C13.2108 21.5159 13.0045 21.69 12.7667 21.81C12.5289 21.9301 12.2662 21.9926 11.9998 21.9926C11.7334 21.9926 11.4707 21.9301 11.2329 21.81C10.9951 21.69 10.7888 21.5158 10.6306 21.3015C10.2957 20.848 9.82744 20.5105 9.29126 20.3364C8.75509 20.1623 8.17789 20.1603 7.6405 20.3306L7.64048 20.3306C7.3864 20.4111 7.11696 20.4309 6.85386 20.3882C6.59076 20.3456 6.34135 20.2417 6.12573 20.085C5.91011 19.9283 5.7343 19.7232 5.61247 19.4862C5.49063 19.2491 5.42617 18.9867 5.42429 18.7202L5.42428 18.7199C5.41996 18.1563 5.23948 17.6081 4.90811 17.1521C4.57675 16.6962 4.11108 16.3553 3.57632 16.1771L3.57629 16.1771C3.32345 16.0929 3.09392 15.9505 2.90618 15.7614C2.71844 15.5722 2.57773 15.3417 2.49539 15.0882C2.41305 14.8347 2.39138 14.5655 2.43211 14.3021C2.47285 14.0388 2.57486 13.7887 2.72993 13.5719L2.72998 13.5719C3.05793 13.1133 3.23425 12.5637 3.23425 12C3.23425 11.4363 3.05793 10.8866 2.72998 10.4281L2.72993 10.428C2.57486 10.2113 2.47285 9.9612 2.43211 9.69784C2.39138 9.43448 2.41305 9.16523 2.49539 8.91178C2.57773 8.65833 2.71844 8.42775 2.90618 8.23862C3.09392 8.04948 3.32345 7.90708 3.57629 7.82287L3.57632 7.82286C4.11108 7.64472 4.57675 7.3038 4.90811 6.84784C5.23948 6.39188 5.41996 5.84371 5.42428 5.28007ZM16.1738 4.77049C12.1816 2.46487 7.07587 3.83315 4.77032 7.82593L4.7703 7.82597C2.46468 11.8182 3.83296 16.9239 7.82574 19.2295C11.8179 21.5351 16.9237 20.1668 19.2293 16.1741C21.5349 12.1818 20.1666 7.07604 16.1738 4.77049Z" fill="#F9F9F9" stroke="#F9F9F9"/>
</svg>
