<svg width="20" height="18" viewBox="0 0 20 18" fill="none" xmlns="http://www.w3.org/2000/svg">
<path d="M16.219 0.943146C16.872 1.45515 17.322 2.28215 17.506 3.14815L17.571 3.17415L19.616 4.12015C19.7302 4.17273 19.8271 4.25686 19.8951 4.36263C19.9631 4.46839 19.9995 4.59139 20 4.71715V17.0841C19.9993 17.1869 19.9747 17.288 19.9284 17.3797C19.882 17.4714 19.815 17.551 19.7326 17.6125C19.6503 17.6739 19.5548 17.7154 19.4537 17.7337C19.3526 17.7521 19.2487 17.7467 19.15 17.7181L13.481 16.1181L6.741 17.9761C6.61942 18.0098 6.49082 18.0084 6.37 17.9721L0.474 16.2171C0.337721 16.1771 0.21799 16.0942 0.132595 15.9807C0.047201 15.8672 0.00069966 15.7292 0 15.5871L0 2.99815C0 2.55815 0.428 2.24215 0.855 2.36615L6.557 4.02715L9.455 3.14015C9.495 3.12815 9.53567 3.11981 9.577 3.11515C9.689 2.45915 10.002 1.82915 10.527 1.21515C11.15 0.485146 12.243 0.0571463 13.308 0.00614635C14.413 -0.0468537 15.257 0.189146 16.218 0.942146M1.333 3.88115V15.0961L6.203 16.5451V5.29815L1.333 3.88115ZM9.542 4.49515L7.536 5.10815V16.3871L12.601 14.9931V11.6981C12.601 11.3341 12.9 11.0391 13.268 11.0391C13.636 11.0391 13.934 11.3341 13.934 11.6991V14.8761L18.667 16.2111V5.13615L17.547 4.61615C17.5283 4.72615 17.504 4.83381 17.474 4.93915C17.2574 5.70622 16.8925 6.42341 16.4 7.05015L13.923 10.1431C13.8578 10.2245 13.7745 10.2895 13.6797 10.3329C13.585 10.3764 13.4814 10.3972 13.3772 10.3936C13.273 10.39 13.1711 10.3621 13.0796 10.3122C12.9881 10.2623 12.9095 10.1918 12.85 10.1061L10.535 6.75315C10.1523 6.22048 9.88533 5.74181 9.734 5.31715C9.63885 5.05137 9.57443 4.77557 9.542 4.49515ZM13.372 1.32415C12.646 1.35915 11.9 1.65115 11.545 2.06615C11.118 2.56615 10.908 3.03415 10.866 3.50815C10.816 4.07915 10.85 4.48215 10.992 4.88115C11.097 5.17615 11.306 5.55015 11.629 6.00115L13.44 8.62315L15.35 6.23815C15.7356 5.74587 16.0213 5.18299 16.191 4.58115C16.431 3.74115 16.069 2.50715 15.391 1.97715C14.696 1.43215 14.171 1.28515 13.373 1.32415M13.511 2.02115C14.615 2.02115 15.511 2.90615 15.511 3.99815C15.5076 4.52541 15.295 5.02975 14.92 5.40043C14.545 5.7711 14.0383 5.97781 13.511 5.97515C12.407 5.97515 11.511 5.09015 11.511 3.99815C11.511 2.90615 12.407 2.02115 13.511 2.02115ZM13.511 3.33915C13.4239 3.33862 13.3376 3.35525 13.257 3.38808C13.1763 3.42091 13.1029 3.46931 13.041 3.5305C12.9791 3.5917 12.9298 3.66449 12.896 3.74473C12.8622 3.82497 12.8445 3.91108 12.844 3.99815C12.844 4.36215 13.143 4.65715 13.511 4.65715C13.5981 4.65754 13.6844 4.64078 13.7649 4.60783C13.8455 4.57487 13.9188 4.52637 13.9807 4.46508C14.0425 4.40379 14.0917 4.33093 14.1254 4.25064C14.1591 4.17035 14.1766 4.08421 14.177 3.99715C14.1757 3.82166 14.1048 3.65385 13.98 3.5305C13.8551 3.40716 13.6865 3.33835 13.511 3.33915Z" fill="#BFBFBF"/>
</svg>
