<svg width="118" height="118" viewBox="0 0 118 118" fill="none" xmlns="http://www.w3.org/2000/svg">
<path d="M58.9986 117.678C91.4402 117.678 117.739 91.3354 117.739 58.8397C117.739 26.3439 91.4402 0.000854492 58.9986 0.000854492C26.557 0.000854492 0.257812 26.3439 0.257812 58.8397C0.257812 91.3354 26.557 117.678 58.9986 117.678Z" fill="#C0B0D3"/>
<g opacity="0.2">
<path d="M58.9986 117.678C91.4402 117.678 117.739 91.3354 117.739 58.8397C117.739 26.3439 91.4402 0.000854492 58.9986 0.000854492C26.557 0.000854492 0.257812 26.3439 0.257812 58.8397C0.257812 91.3354 26.557 117.678 58.9986 117.678Z" fill="#F9F9F9"/>
</g>
<path d="M81.1957 22.4558C80.6457 22.0336 80.0945 21.6126 79.5445 21.1903C79.3641 21.0528 79.1775 20.9068 79.0786 20.703C78.9686 20.4796 78.9797 20.2194 78.9402 19.9739C78.7943 19.0656 77.8526 18.3635 76.9417 18.4875C76.5883 17.589 76.5055 16.6046 76.1854 15.6926C75.8653 14.7806 75.2065 13.8846 74.2561 13.7189C73.8854 13.6538 73.4911 13.7054 73.1438 13.5593C72.7619 13.3997 72.511 13.0339 72.181 12.7823C71.0749 11.9403 69.142 12.3994 68.44 11.1989C68.2756 10.9166 68.2126 10.5791 68.0186 10.3176C67.7751 9.98989 67.3685 9.83523 66.9854 9.69653C65.5987 9.19573 64.0563 8.69616 62.6906 9.2522C62.2049 9.44981 61.7625 9.77754 61.2446 9.86101C60.665 9.9543 60.0384 9.73457 59.502 9.97024C59.1807 10.1114 58.915 10.4084 58.564 10.4256C58.3168 10.4379 58.0894 10.3041 57.8743 10.1826C56.521 9.41667 54.9033 8.94778 53.3967 9.17977C53.5784 9.05948 53.7588 8.93674 53.964 8.86555C54.1185 8.81154 54.2829 8.78945 54.4411 8.74772C54.8291 8.64462 55.1838 8.4163 55.4396 8.10576C55.4075 8.04807 55.3754 7.98915 55.3432 7.93146C55.1356 8.07016 54.8563 7.94128 54.661 7.78539C54.4657 7.6295 54.2618 7.43558 54.0134 7.44785C53.8886 7.45399 53.7724 7.5129 53.6513 7.53991C53.1347 7.65774 52.6465 7.21341 52.1163 7.20727C51.9421 7.20482 51.7703 7.25145 51.6047 7.30423C50.8532 7.54359 50.15 7.93024 49.5469 8.43841C49.4789 8.49487 49.411 8.55624 49.3702 8.63357C49.3146 8.73913 49.3133 8.86432 49.3294 8.98216C49.3862 9.38721 49.6519 9.75668 50.0178 9.93834C50.412 10.1347 50.8792 10.1114 51.3118 10.0329C51.3538 10.0255 51.3946 10.012 51.4366 10.0034C51.1536 10.2342 50.9126 10.5115 50.7494 10.838C50.4417 11.4579 50.4639 12.2643 50.9126 12.7897C50.4021 13.1297 49.846 12.3331 49.2355 12.2754C48.7868 12.2337 48.4161 12.5994 48.1157 12.9357C47.7054 13.396 47.2951 13.8563 46.8835 14.3166C46.3991 14.1804 45.9134 14.0441 45.4289 13.9079C45.1953 13.8428 44.9432 13.7778 44.717 13.8637C44.4884 13.9496 44.3425 14.1681 44.1559 14.3252C43.6504 14.7511 42.794 14.6554 42.396 14.1276C42.3515 14.0675 42.3145 14.0036 42.2836 13.9361C42.4862 13.8207 42.6605 13.671 42.7285 13.4537C42.6642 13.2414 42.4257 13.1297 42.2007 13.1395C42.2638 12.8351 42.4281 12.5516 42.6864 12.3773C43.035 12.1404 43.5355 12.0483 43.6999 11.6654C43.9619 11.4947 44.2227 11.3254 44.4847 11.1547C44.5786 11.0946 44.675 11.0295 44.7294 10.9338C44.7813 10.843 44.7813 10.7153 44.7084 10.6429C45.1879 10.1482 44.5996 8.92078 45.1187 8.29846C45.4586 7.89095 46.1111 7.96215 46.5919 8.188C47.0726 8.41262 47.5213 8.75877 48.0502 8.79805C48.8486 8.85819 49.5024 8.21991 50.1117 7.69824C50.721 7.17781 51.486 6.80344 52.2733 7.10907C52.0545 7.02438 52.6873 6.0277 53.0606 6.05961C53.2842 6.07925 53.304 6.4303 53.4733 6.52236C54.5584 7.11153 55.9303 6.33333 57.1118 6.19954C58.6109 6.02893 60.136 6.08416 61.6179 6.37138C61.7143 5.98228 61.2768 5.68893 60.9097 5.52813C59.5885 4.94878 58.2562 4.36573 56.8461 4.06623C54.3434 3.53598 51.6912 3.94227 49.3504 4.97455C48.7707 5.22986 48.175 5.52935 47.5435 5.49253C47.2345 5.47412 46.9317 5.3747 46.6228 5.3747C46.0728 5.3747 45.6019 5.67542 45.1879 6.06207C44.7356 6.04488 44.2894 6.22778 43.8951 6.45977C43.7184 6.5641 43.5491 6.67823 43.3835 6.79852C43.4922 6.94459 43.7209 6.855 43.8816 6.76908C44.1658 6.61688 44.4773 6.51376 44.7961 6.46344C44.7318 6.5334 44.6701 6.6046 44.6095 6.67579C44.2325 7.11276 43.6912 7.00228 43.119 7.06856C42.9213 7.09188 42.7198 7.09436 42.5307 7.15818C42.3293 7.22692 42.1624 7.35948 42.0141 7.51413C42.1995 7.2981 42.3836 7.08084 42.569 6.86481C42.6976 6.71506 42.8348 6.53587 42.8014 6.3407C43.3674 6.33211 43.9199 6.03138 44.2363 5.5625C44.2894 5.48272 44.3413 5.39434 44.4278 5.35138C44.591 5.26914 44.7961 5.38574 44.9654 5.31823C45.1076 5.26177 45.1706 5.1022 45.2497 4.97086C45.4536 4.63086 45.8231 4.43324 46.1741 4.25158C46.7538 3.95208 47.3322 3.65259 47.9118 3.3531C47.6832 3.31996 47.4545 3.2868 47.2259 3.25366C47.0306 3.26103 46.8774 3.2819 46.7365 3.31258L46.6833 3.31137C44.7714 3.41938 42.8842 3.93613 41.1836 4.81498C41.0378 4.88985 40.8932 4.9684 40.7387 5.02364C40.5941 5.07519 40.4421 5.10711 40.2925 5.1427C39.3372 5.37223 38.4449 5.80552 37.56 6.23513C35.9039 7.0391 34.2478 7.84431 32.5917 8.64829C32.4137 8.73421 32.2048 8.88397 32.2555 9.07545C32.5978 9.11227 32.9414 9.14909 33.2838 9.18591C32.5262 9.3688 31.8069 9.71618 31.1914 10.1949C30.9961 10.3471 30.7984 10.5189 30.5549 10.5668C30.4152 10.595 30.2694 10.5791 30.1285 10.6073C29.9296 10.6466 29.759 10.7705 29.5946 10.8908C27.878 12.1514 26.1613 13.4108 24.4446 14.6701C23.4732 15.3833 22.4932 16.1038 21.6849 16.9986C20.7642 18.0186 19.5888 18.895 18.8448 20.0513C18.2355 20.9976 17.8536 22.0827 17.1826 22.9861C17.6621 22.6105 18.1416 22.2349 18.6186 21.8568C18.8386 21.6825 19.0599 21.507 19.2415 21.2934C19.3911 21.1191 19.511 20.9215 19.6407 20.7325C19.9719 20.2513 20.3662 19.8168 20.7592 19.3848C20.9446 19.181 21.1349 18.9736 21.371 18.8312C21.5217 18.7391 21.6899 18.6765 21.8332 18.5734C22.0137 18.4433 22.1459 18.2567 22.314 18.1107C22.482 17.9646 22.7157 17.8566 22.9258 17.9327C22.7515 18.242 22.5611 18.5427 22.3572 18.8324C22.2868 18.9318 22.2114 19.0349 22.1026 19.0914C21.9889 19.1503 21.8555 19.1515 21.7306 19.1798C21.1893 19.2988 20.8989 19.8733 20.6801 20.3839C20.8964 20.3679 21.1127 20.352 21.3302 20.336C21.3883 20.4428 21.3327 20.5741 21.2771 20.6822C20.7271 21.7537 20.1709 22.8351 19.3923 23.7532C19.899 23.1014 20.2191 22.3061 20.3056 21.4849C19.5122 21.9452 18.9524 22.7099 18.3394 23.3936C17.9451 23.833 17.4718 24.27 16.8847 24.324C16.8958 24.0674 16.9761 23.8146 17.1158 23.5986C16.5139 23.574 16.1135 24.1926 15.8416 24.7315C15.2928 25.819 14.7429 26.9065 14.1942 27.994C13.8419 28.69 13.4897 29.3872 13.1387 30.0844C12.8643 30.6269 12.5899 31.1707 12.3156 31.7132C12.2105 31.9194 12.1055 32.1674 12.2118 32.3736C13.0114 31.5929 13.7196 30.719 14.3177 29.7751C14.4228 29.6094 14.5254 29.4412 14.6601 29.3C14.8034 29.1503 14.9777 29.0361 15.1322 28.8987C15.7316 28.3635 15.9949 27.4969 16.6647 27.0538C16.6252 27.7056 16.0443 28.1659 15.6043 28.6495C15.152 29.1466 14.8121 29.7481 14.6193 30.3925C14.5563 30.6024 14.5081 30.8209 14.3956 31.0087C14.2831 31.1977 14.1126 31.3462 13.9964 31.5328C13.7492 31.9317 13.7875 32.4362 13.8333 32.9038C13.8357 32.9296 13.8394 32.9566 13.8543 32.9763C13.8963 33.0303 13.9816 32.9983 14.0384 32.9615C14.4562 32.6976 14.8727 32.4349 15.2904 32.171C15.2187 32.5479 15.351 32.9296 15.4362 33.304C15.5203 33.6784 15.545 34.1116 15.299 34.405C14.6106 35.2286 14.0977 35.6975 14.01 36.8476C13.9507 37.6295 13.8938 38.5206 13.2821 39.0091C13.1498 39.1147 12.9879 39.2092 12.9397 39.3712C12.894 39.5271 12.9731 39.6891 13.0065 39.8487C13.1325 40.4502 12.6221 40.9706 12.2587 41.4665C12.1549 41.6089 12.0585 41.7623 12.0276 41.9354C12.0004 42.09 12.0276 42.2471 12.0375 42.4043C12.0598 42.7664 11.9868 43.1346 11.8262 43.4611C12.0944 43.6194 12.3626 43.7778 12.6307 43.9361C12.7605 44.0134 12.8952 44.0932 12.983 44.2172C13.0806 44.3559 13.1078 44.5326 13.1882 44.6824C13.3105 44.9107 13.554 45.0715 13.6182 45.3219C13.6504 45.4471 13.6318 45.5797 13.6219 45.7085C13.5651 46.3898 13.7183 47.0882 14.0545 47.6823C14.1596 47.8676 14.2831 48.0468 14.3288 48.2542C14.4327 48.7195 14.1299 49.2239 14.3017 49.6683C14.1361 49.6928 14.2238 49.9739 14.3437 50.0917C14.4636 50.2096 14.6465 50.2243 14.8133 50.239C14.9802 50.2538 15.1656 50.2869 15.2657 50.4219C15.4486 50.6735 15.1928 51.0001 15.1001 51.2983C15.0086 51.5892 15.0964 51.928 15.3163 52.1391C15.4362 52.2533 15.6068 52.3674 15.587 52.5319C15.5647 52.7209 15.325 52.7737 15.1569 52.8609C14.6675 53.1113 14.6749 53.8281 14.8937 54.3338C15.1124 54.8383 15.4758 55.3145 15.4684 55.8644C15.9232 55.9086 16.3372 56.2425 16.4768 56.6782C16.5226 56.8194 16.5609 56.9937 16.7005 57.044C16.8736 57.1066 17.0342 56.9212 17.0973 56.7494C17.3222 56.1418 17.1183 55.4078 17.4581 54.8579C17.6151 54.6038 17.8672 54.4271 18.0625 54.2025C18.2578 53.9778 18.3987 53.6538 18.2701 53.3837C18.1935 53.2217 18.0341 53.1137 17.9476 52.9578C17.8598 52.8019 17.9018 52.543 18.0798 52.5258C18.3319 52.7074 18.521 52.9775 18.6038 53.2782C18.8325 53.2782 19.0611 53.277 19.2897 53.277C19.2885 53.6366 19.286 53.995 19.2848 54.3547C18.877 54.6554 18.6916 55.2261 18.8448 55.7098C18.8955 55.8693 18.9882 56.0277 19.1402 56.0976C19.2428 56.1455 19.3614 56.148 19.4677 56.1897C20.0474 56.4205 19.8274 57.5644 20.4404 57.6798C20.6888 57.7264 20.931 57.5485 21.1819 57.5681C21.3772 57.5828 21.6157 57.7019 21.7393 57.5497C21.8245 57.4441 21.7751 57.2907 21.7343 57.1618C21.607 56.7592 21.6095 56.3173 21.7405 55.916C21.5106 55.3845 21.3636 54.8162 21.3042 54.2405C21.3623 54.2098 21.4204 54.1791 21.4785 54.1472C21.7677 54.3903 22.0668 54.6456 22.22 54.9917C22.3202 55.2163 22.3535 55.4692 22.4734 55.6827C22.5933 55.8976 22.8528 56.0706 23.079 55.9749C23.2891 55.8865 23.3583 55.6189 23.3447 55.3906C23.3311 55.1623 23.2619 54.9328 23.3076 54.7094C23.3991 54.2638 23.886 54.038 24.3124 53.8796C24.3606 54.0355 24.1641 54.1398 24.0356 54.2405C23.7439 54.4663 23.734 54.8984 23.776 55.2654C23.8403 55.8313 23.9787 56.4131 24.347 56.8464C24.7153 57.2797 25.3679 57.5116 25.8721 57.2514C26.4987 56.9286 26.6013 56.089 26.6112 55.3832C26.8077 55.2826 27.0981 55.2053 27.2069 55.398C27.2835 55.533 27.1995 55.7012 27.2118 55.857C27.2353 56.1443 27.5814 56.3259 27.6061 56.6132C27.6209 56.7764 27.5257 56.9261 27.4405 57.0661C27.2081 57.4429 27.0574 58.0247 27.4331 58.2579C27.5307 58.3193 27.6481 58.3402 27.7581 58.3733C28.2895 58.539 28.685 59.0705 28.6912 59.6278C28.8864 59.6756 29.0348 59.8708 29.0286 60.0721C29.0224 60.2734 28.8617 60.4587 28.664 60.4943C28.5762 60.5103 28.4762 60.5029 28.4119 60.5643C28.2722 60.6981 28.4601 60.9865 28.313 61.1117C28.2648 61.1535 28.1968 61.1584 28.1363 61.1793C27.8211 61.2922 27.8656 61.7414 27.8977 62.0765C27.9706 62.8338 27.6234 63.617 27.0153 64.0723C26.5815 64.3964 25.9364 64.5375 25.5137 64.1988C25.3135 64.038 25.1961 63.7986 25.0305 63.6035C24.8649 63.4083 24.6004 63.2487 24.3606 63.3395C24.2593 63.3776 24.1777 63.4562 24.0998 63.531C23.6166 63.9999 23.1087 64.5118 22.9777 65.1734C22.9332 65.3943 22.9332 65.63 22.833 65.8325C22.7095 66.0841 22.4549 66.2412 22.2744 66.4548C22.0483 66.7224 21.942 67.0882 21.9889 67.4355C22.1792 67.6638 21.8975 67.9707 21.7727 68.242C21.6478 68.512 21.4526 68.7477 21.3475 69.0263C21.1275 69.6081 21.3327 70.2538 21.5391 70.8405C21.8122 71.6199 22.11 72.4374 22.7354 72.9762C22.8961 73.1149 23.0753 73.2303 23.252 73.3482C23.9614 73.8195 24.6795 74.3473 25.0638 75.1083C25.4952 75.2212 25.9957 74.8468 26.3727 75.0862C26.5148 75.1758 26.5963 75.3341 26.6717 75.4839C26.8769 75.8914 27.0821 76.2977 27.2872 76.7052C27.4504 77.0305 27.6271 77.3705 27.9311 77.5693C28.2351 77.7682 28.7072 77.7608 28.905 77.4552C29.1472 77.082 28.8481 76.5665 28.9952 76.1479C29.1929 75.5845 30.089 75.4471 30.1619 74.8542C30.1928 74.6026 30.0667 74.2957 30.2534 74.1239C30.3287 74.0539 30.4363 74.0331 30.5314 73.9926C30.8503 73.8588 31.0369 73.4709 30.9418 73.1382C31.6759 73.0805 32.5756 73.1051 32.9353 73.7483C33.0131 73.8882 33.1639 74.0785 33.2838 73.9717C33.1812 73.1702 33.0774 72.3527 33.2331 71.5598C33.2764 71.3376 33.3406 71.1105 33.2924 70.8896C33.1528 70.239 32.2147 70.1065 31.9058 69.5173C31.5436 68.8287 32.2048 67.8627 31.729 67.2477C31.4361 66.8697 30.8231 66.8132 30.6093 66.3849C30.5364 66.2376 30.5203 66.0633 30.4252 65.9295C30.3275 65.7932 30.1644 65.7245 30.0272 65.6287C29.497 65.2556 29.4092 64.5032 29.4735 63.8563C29.5365 63.2095 29.6984 62.538 29.4846 61.9243C29.4055 61.6972 29.2758 61.4837 29.2535 61.2431C29.2127 60.8233 29.5798 60.4023 30.0012 60.4047C30.4227 60.4072 30.7873 60.8577 30.6847 61.2664C30.6155 61.5426 30.3843 61.7427 30.2088 61.9673C30.0321 62.1919 29.9073 62.5184 30.0704 62.7528C30.503 62.8019 30.6748 63.4832 30.3189 63.7323C30.2151 63.8047 30.0878 63.8391 29.9889 63.9189C29.7306 64.1251 29.7726 64.5449 29.953 64.8223C30.1335 65.0997 30.4152 65.2949 30.6192 65.5551C30.7267 65.6926 30.8231 65.8558 30.9838 65.9246C31.069 65.9614 31.1642 65.9675 31.2569 65.9724C31.5053 65.9859 31.7525 66.0007 32.0009 66.0142C32.0948 66.0191 32.1912 66.0252 32.2814 65.9982C32.4285 65.9552 32.5385 65.8362 32.651 65.7331C33.044 65.3722 33.5409 65.15 34.0278 64.934C34.1996 64.8579 34.3788 64.7806 34.5654 64.7904C35.0017 64.8113 35.2637 65.2617 35.5566 65.587C35.9867 66.0645 36.5984 66.3272 37.1892 66.5751C37.4697 65.5404 37.7466 64.416 37.3412 63.423C37.0211 62.6412 36.3315 62.0839 35.7852 61.4395C35.255 60.8147 34.8323 59.9739 35.0832 59.1932C35.2229 59.1221 35.3613 59.0496 35.501 58.9785C36.0991 59.2325 36.5787 59.7505 36.79 60.3667C36.9519 60.8392 36.9568 61.3499 37.0619 61.8384C37.2176 62.5638 37.5983 63.2377 38.1322 63.752C38.1211 63.1787 38.1112 62.6055 38.1 62.0323C38.0963 61.8678 38.1025 61.6813 38.2236 61.5696C38.341 61.4616 38.5203 61.4677 38.6785 61.4861C39.1543 61.5414 39.6239 61.6518 40.0762 61.8126C40.2109 61.8605 40.3506 61.917 40.4445 62.025C40.5657 62.1624 40.5904 62.3564 40.6114 62.538C40.6917 63.2352 40.7029 64.0883 40.1109 64.4651C39.6771 64.7413 39.0257 64.6652 38.7266 65.0838C38.5239 65.3661 38.561 65.7945 38.2965 66.0203C38.1482 66.1467 37.927 66.186 37.822 66.3493C37.6576 66.6033 37.8875 66.9445 37.8208 67.2391C37.7775 67.4294 37.6106 67.6086 37.6761 67.7915C37.7157 67.902 37.8269 67.967 37.9159 68.0443C38.3299 68.4089 38.2397 69.0668 38.1149 69.6044C38.0123 70.0451 37.9097 70.4857 37.8071 70.9264C37.8924 70.034 37.6415 69.1122 37.1138 68.388C36.6392 68.4985 36.1585 68.2825 35.6901 68.1462C35.2217 68.0112 34.6358 67.9891 34.3306 68.3696C34.076 68.6875 34.1304 69.1503 34.2564 69.5369C34.3837 69.9236 34.5728 70.3078 34.5468 70.7141C34.516 71.2099 34.1773 71.7426 34.4443 72.1612C34.642 72.2459 34.8398 72.3306 35.0387 72.4153C35.3564 72.5515 35.7321 72.9087 35.4997 73.164C35.2946 73.3886 34.7433 73.3003 34.7804 73.6034C34.7903 73.6783 34.8447 73.7397 34.8966 73.7949C35.3452 74.2663 35.852 74.8788 35.6295 75.49C35.9743 75.3955 36.3303 75.576 36.6256 75.776C37.3894 76.2928 38.037 76.9814 38.5054 77.7755C38.65 78.021 38.7786 78.2763 38.9269 78.5206C39.2618 78.5537 39.3557 78.0726 39.3162 77.7387C39.2581 77.2318 39.1988 76.7248 39.1407 76.2179C39.0962 75.8325 39.0517 75.4446 38.9404 75.0739C38.7822 74.5486 38.4955 74.0711 38.3102 73.5544C38.1248 73.0376 38.0506 72.4386 38.3139 71.9575C38.9602 72.3588 39.4175 73.0548 39.5312 73.8084C39.5707 74.0773 39.5695 74.351 39.6128 74.6186C39.7463 75.4581 40.3024 76.1909 40.4038 77.0354C40.4384 77.3251 40.4223 77.6356 40.5731 77.886C40.6645 78.0394 40.8091 78.1524 40.9513 78.2616C41.4975 78.6826 42.0425 79.1049 42.5888 79.5271C42.726 79.6327 42.8224 79.8634 42.9793 79.7898C42.7668 79.0717 42.5542 78.3524 42.3416 77.6344C42.789 78.0112 43.2352 78.388 43.6826 78.7636C43.6171 78.4163 43.6641 78.0321 43.8828 77.7534C44.1003 77.4748 44.5119 77.3373 44.827 77.4969C45.1422 77.6564 45.2621 78.1389 45.0099 78.388C45.6798 77.7755 46.7612 77.6724 47.5336 78.1475C47.7326 78.269 47.9217 78.4298 48.1528 78.4568C48.5755 78.5083 49.0105 78.102 49.3924 78.2923C49.7842 78.4862 49.8559 79.2067 50.2909 79.165C50.5492 79.1404 50.7469 78.8176 50.9953 78.89C51.0262 79.0999 51.0572 79.3086 51.0881 79.5185C51.7752 79.4498 52.6304 79.2313 52.7429 78.5488C52.7627 78.4273 52.7553 78.2997 52.7973 78.1831C52.8566 78.0161 53.0074 77.902 53.1446 77.7915C53.681 77.3619 54.1617 76.8071 54.2989 76.1332C54.4361 75.4593 54.1358 74.6627 53.4943 74.4148C53.3275 74.2675 53.4894 73.9962 53.6624 73.8575C53.8355 73.7188 54.048 73.5175 53.9541 73.3162C53.8972 73.1935 53.7477 73.1431 53.6624 73.0376C53.4363 72.7565 53.7737 72.2778 53.5512 71.993C53.4511 71.8642 53.2731 71.8298 53.1322 71.7463C52.7194 71.5008 52.7231 70.8577 53.016 70.4759C53.309 70.0942 53.7835 69.9113 54.2346 69.7456C54.6758 69.5836 55.1171 69.4203 55.5583 69.2583C55.9031 69.1307 56.3109 68.9232 56.3184 68.5537C56.3233 68.2911 56.1317 67.9658 56.3394 67.8062C56.458 67.7154 56.6286 67.762 56.7744 67.7277C57.1254 67.6442 57.1785 67.1716 57.1538 66.8108C57.1365 66.5493 57.1192 66.2867 57.1019 66.0252C57.0945 65.9111 57.0871 65.7945 57.1254 65.6864C57.1996 65.4753 57.4196 65.3624 57.5951 65.2237C57.7693 65.085 57.9176 64.8346 57.7928 64.6492C57.1958 64.675 56.5989 64.7008 56.0032 64.7266C55.7387 64.7376 55.4582 64.745 55.2295 64.6099C55.0021 64.4749 54.8724 64.1411 55.0417 63.9373C54.8971 63.8882 54.7525 63.8391 54.6091 63.79C54.6178 63.4537 54.6277 63.1186 54.6363 62.7823C54.6388 62.6853 54.6425 62.5847 54.6882 62.5C54.7376 62.4079 54.8279 62.3465 54.9156 62.2889C55.1974 62.1035 55.4779 61.9182 55.7597 61.7328C55.7041 62.0397 55.8784 62.3723 56.1614 62.5024C56.4209 62.5196 56.4679 62.1207 56.3443 61.8924C56.2195 61.6641 56.0193 61.4149 56.1255 61.178C56.1639 61.0921 56.2393 61.027 56.2838 60.9436C56.5062 60.525 55.8599 60.0623 55.9909 59.6069C55.5039 59.4792 55.0157 59.3504 54.5288 59.2227C54.4175 59.0398 54.2878 58.868 54.1481 58.7059C52.7677 59.014 51.334 59.181 49.8596 59.181C49.7434 59.181 49.6297 59.1748 49.5135 59.1724C49.4789 59.5431 49.5222 59.9445 49.584 60.3065C49.8163 60.1126 50.0499 59.9174 50.2822 59.7235C50.2279 60.4489 50.3045 61.1842 50.5097 61.8826C50.5628 62.0642 50.6221 62.2729 50.5196 62.4325C50.4219 62.5847 50.2155 62.6289 50.0956 62.7639C49.7372 63.1665 50.4318 63.8281 50.1834 64.3068C49.647 64.3277 49.1971 63.5605 48.7213 63.8084C48.6088 63.8674 48.5248 63.9766 48.4037 64.0134C48.1343 64.0944 47.9081 63.7569 47.9304 63.4758C47.9526 63.1947 48.112 62.9406 48.1442 62.6608C48.1924 62.2496 47.9662 61.8629 47.8785 61.4579C47.7957 61.0737 47.8364 60.6637 47.698 60.2967C47.5583 59.9297 47.1184 59.6229 46.781 59.8242C46.7785 59.4805 46.6475 59.1454 46.4361 58.8766C43.3056 58.3267 40.4285 57.0391 37.9938 55.1942C37.953 55.2225 37.9109 55.2507 37.8751 55.2851C37.5402 55.6189 37.5748 56.1565 37.5723 56.6303C37.5698 57.1029 37.4302 57.6749 36.9766 57.8075C36.5811 57.5031 36.6528 56.8218 36.2511 56.526C36.062 56.3873 35.8062 56.3677 35.6134 56.2339C35.3045 56.0203 35.2476 55.5956 35.2179 55.2225C35.1697 54.6149 35.1562 53.9128 35.6085 53.504C35.6839 53.4353 35.7716 53.3788 35.8643 53.3248C32.3494 49.764 49.8695 51.7893 49.8695 46.3861C49.8695 42.6473 48.9981 40.7889 48.2949 39.9604C49.1477 40.2562 50.7086 40.5557 53.351 40.5557C59.963 40.5557 62.3137 23.0278 65.8817 28.0382C66.2451 27.6737 66.7925 27.4908 67.2968 27.6C68.8787 27.9462 68.9999 30.3385 70.3779 31.1915C70.9921 31.1793 71.6064 31.1658 72.2206 31.1535C72.5135 31.7206 73.2056 31.998 73.8409 31.9477C74.7171 31.8777 75.5353 31.1952 75.6712 30.3262C75.8072 29.4572 75.1657 28.512 74.2944 28.4053C74.0225 28.3721 73.7395 28.4114 73.4775 28.3291C73.2155 28.2469 72.9807 27.9683 73.0808 27.7117C73.5356 27.0919 74.5367 27.3239 75.1336 27.805C75.7318 28.2874 76.2125 28.9711 76.9491 29.1896C77.3458 28.1254 79.0069 27.8492 79.1787 26.7261C79.2219 26.4413 79.1552 26.1357 79.2664 25.8693C79.5087 25.29 80.4442 25.2127 80.595 24.6026C80.6581 24.3449 80.5505 24.0785 80.5172 23.8146C80.4504 23.2794 80.731 22.721 81.1957 22.4558Z" fill="#C0B0D3"/>
<path d="M68.4118 31.3561C68.1721 31.1708 67.8927 31.0529 67.6035 30.9535C68.1621 32.1183 68.6071 33.347 68.9296 34.626C69.094 34.5155 69.2497 34.3903 69.3931 34.2418C69.3523 33.1899 69.2423 31.9981 68.4118 31.3561Z" fill="#C0B0D3"/>
<path d="M34.3027 33.797C34.3386 33.8117 34.3769 33.8264 34.4152 33.8215C34.456 33.8166 34.4919 33.7933 34.5302 33.781C34.6661 33.738 34.8008 33.8424 34.9121 33.932C35.0233 34.0216 35.1802 34.1063 35.3001 34.0277C35.4151 33.9528 35.4077 33.7798 35.3558 33.6534C35.3038 33.5269 35.2186 33.4066 35.221 33.2692C35.2223 33.2066 35.2408 33.1452 35.2507 33.0826C35.2828 32.8604 35.1679 32.6248 34.9726 32.5131C34.7786 32.4014 34.5166 32.4222 34.3423 32.5634C34.4251 32.6714 34.5116 32.7868 34.5264 32.9218C34.5425 33.0568 34.4548 33.2139 34.3188 33.2213C34.2199 33.2274 34.1347 33.1562 34.0395 33.1329C33.8986 33.0973 33.7392 33.1771 33.6836 33.3109C33.843 33.5232 34.0593 33.6926 34.3027 33.797Z" fill="#C0B0D3"/>
<path d="M69.3516 10.3605C69.9324 11.34 71.3389 11.7155 72.3288 11.1558C72.3857 11.1239 72.4413 11.0883 72.4833 11.0392C72.6835 10.8085 72.4858 10.4574 72.2918 10.2217C71.371 9.77741 70.2266 9.8302 69.3516 10.3605Z" fill="#C0B0D3"/>
<path d="M63.7938 6.51085C64.2968 6.571 64.7998 6.63237 65.3028 6.69374C65.5562 6.72443 65.8973 6.91836 65.7626 7.13439C65.4067 7.06565 65.1138 7.50385 65.2003 7.85612C65.2856 8.2084 65.6106 8.45021 65.9406 8.60241C68.0984 9.59542 70.7086 7.92241 72.9654 8.65888C74.1679 9.05166 75.0788 10.0754 76.2677 10.5037C76.7571 10.6805 77.396 10.8805 77.422 11.401C77.4282 11.5336 77.3886 11.6649 77.3899 11.7987C77.396 12.2074 77.8039 12.5106 78.2056 12.5793C78.6085 12.6481 79.0188 12.5523 79.4266 12.5303C80.272 12.4836 81.1309 12.7635 81.7859 13.2986C81.9689 13.4594 81.6586 13.689 81.4869 13.862C81.1025 14.2474 81.5351 14.9581 82.0702 15.0526C82.6054 15.1472 83.1269 14.8771 83.6373 14.6869C84.5816 14.3358 85.6518 14.2536 86.5936 14.6095C87.5353 14.9655 88.3201 15.8014 88.4746 16.7981C88.4981 16.9527 88.5006 17.1295 88.393 17.2424C88.3028 17.3357 88.1632 17.3578 88.0346 17.3652C86.7926 17.44 85.5431 16.6766 85.0413 15.5363C84.9807 15.4 84.9226 15.249 84.7953 15.1729C84.7298 15.1349 84.6532 15.1202 84.5778 15.1165C83.8326 15.087 83.4606 16.1463 83.8252 16.7981C84.1898 17.4498 84.9474 17.7543 85.6481 18.0132C86.4786 18.3189 87.3141 18.6257 88.1879 18.7644C89.2532 18.9326 90.3396 18.8455 91.4148 18.7571C93.3762 18.5963 95.3474 18.4343 97.2544 17.947C96.959 17.5394 96.6636 17.1332 96.367 16.7257C95.89 16.0677 95.3919 15.3914 94.6887 14.9827C93.3292 14.1934 91.458 14.5555 90.2444 13.5564C89.8922 13.2667 89.6153 12.8752 89.2063 12.6763C88.9084 12.5327 88.5698 12.5057 88.2398 12.4873C86.643 12.394 85.0401 12.4124 83.4458 12.5413C82.9045 12.5855 82.3298 12.6358 81.8428 12.3928C81.0074 11.9754 80.7837 10.9039 80.2176 10.1601C79.7529 9.55002 79.0584 9.16828 78.3848 8.80495C78.0004 8.59751 77.6173 8.39007 77.2329 8.18263C76.987 8.05007 76.7386 7.91628 76.4691 7.8414C75.9216 7.69043 75.3333 7.79599 74.7747 7.69166C74.2544 7.59469 73.7848 7.32096 73.3287 7.05215C72.4401 6.52926 71.5528 6.00515 70.6642 5.48226C70.3774 5.31287 70.0796 5.14103 69.7484 5.10911C69.0476 5.0416 68.3641 5.61851 67.6893 5.42212C67.4446 5.35093 67.2407 5.18645 67.0257 5.05143C65.859 4.3211 64.1955 4.52361 63.2364 5.51294C63.1091 5.64427 62.9868 5.8063 62.9967 5.99042C63.0152 6.33779 63.4503 6.46912 63.7938 6.51085Z" fill="#C0B0D3"/>
<path d="M113.338 75.1354C113.163 74.6984 112.982 74.2516 112.667 73.903C112.381 73.5851 112.001 73.3679 111.653 73.1199C110.521 72.3147 109.67 71.1217 109.277 69.7874C109.736 69.5468 109.941 69.0055 110.048 68.4998C110.277 67.4283 110.356 65.6521 109.988 64.1939C109.585 62.6007 108.649 61.388 106.791 61.8888C106.582 61.9453 106.369 62.0128 106.153 61.998C105.308 61.9404 104.633 60.6982 103.899 61.1217C103.256 60.8234 103.848 59.7408 103.455 59.1504C103.278 58.8852 102.899 58.7146 102.912 58.3955C102.92 58.2151 103.062 58.0702 103.13 57.9021C103.308 57.4589 102.895 56.9508 102.425 56.8759C101.955 56.801 101.49 57.0367 101.109 57.3239C100.729 57.6111 100.387 57.9598 99.9599 58.1697C100.795 59.0485 101.161 60.352 100.903 61.5378C100.087 61.5844 99.1936 61.6065 98.546 61.1069C98.3977 60.9927 98.2593 60.8491 98.0776 60.8049C97.9206 60.7669 97.7563 60.8099 97.6042 60.8651C96.707 61.1941 96.0396 61.9441 95.4118 62.667C95.3636 62.7235 95.3154 62.7812 95.2696 62.8413C94.8791 61.9956 94.2352 61.2677 93.438 60.7866C92.825 60.8651 92.5494 61.6347 92.6459 62.2447C92.7422 62.8548 93.071 63.4157 93.1315 64.0307C92.867 64.7328 91.6151 64.1424 91.1121 64.6972C90.855 64.9795 90.9316 65.4386 91.1294 65.7651C91.3271 66.0916 91.6225 66.353 91.8079 66.6869C91.3284 67.4553 90.8488 68.2249 90.3693 68.9933C90.2729 68.6704 90.1221 68.296 89.7934 68.2285C89.3448 68.1377 89.0494 68.6839 88.9567 69.1332C88.8652 69.5824 88.7231 70.1421 88.272 70.2256C88.4549 70.7951 89.4004 70.4613 89.8638 70.8393C90.2161 71.1278 90.1296 71.6715 90.1604 72.1257C90.1913 72.5799 90.6486 73.1138 91.012 72.8401C91.1751 72.7173 91.2097 72.4927 91.2406 72.2902C91.468 70.7645 92.1057 69.3026 93.0697 68.0984C93.3404 67.7597 93.6543 67.3988 93.6556 66.9643C93.6568 66.5936 93.4269 66.2143 93.5653 65.8694C93.7581 65.3895 94.4193 65.4324 94.9112 65.2348C94.8074 65.4398 94.6776 65.63 94.5182 65.7957C94.2525 66.0707 93.9052 66.2978 93.7853 66.6611C93.6444 67.0883 93.8607 67.5976 93.637 67.9867C93.5221 68.1856 93.3145 68.3096 93.1464 68.4667C92.6557 68.927 92.5321 69.6475 92.4345 70.3127C92.233 71.6961 92.0415 73.158 92.5729 74.4493C92.8572 75.1415 93.3416 75.7577 93.485 76.4917C93.0982 76.7912 92.5445 76.4745 92.1947 76.1321C91.8437 75.7908 91.4161 75.3796 90.9453 75.5098C90.5794 75.6104 90.2606 76.0277 89.912 75.8792C90.1691 74.8874 89.6513 73.7496 88.7342 73.2942C88.5056 73.2034 88.3536 72.9481 88.3845 72.7038C87.8531 72.6878 87.6108 73.3482 87.5057 73.8699C87.4007 74.3916 87.0954 75.0446 86.5702 74.9599C86.3934 74.9316 86.234 74.8138 86.0561 74.8224C85.6569 74.8408 85.5382 75.4091 85.1872 75.5981C84.9017 75.7515 84.526 75.6214 84.2405 75.7736C84.0218 75.8903 83.9118 76.1443 83.7165 76.2978C83.2395 76.6758 82.5523 76.315 82.0542 75.9651C81.5562 75.6153 80.8467 75.279 80.3944 75.6877C80.0311 76.0154 80.1028 76.6206 79.8173 77.0183C79.4638 77.5093 78.6147 77.6259 78.5332 78.2261C78.1649 77.8763 77.5 77.9242 77.1848 78.3218C77.1959 79.0068 77.4184 79.6855 77.8139 80.244C77.4443 80.6417 76.9846 80.9547 76.4803 81.1535C76.6954 81.7071 76.9648 82.2386 77.2849 82.7382C76.7943 83.0524 76.9413 83.8981 76.4705 84.243C76.1961 84.4443 75.8179 84.3916 75.4867 84.4677C75.1555 84.5438 74.8255 84.9279 75.0381 85.1931C74.98 85.662 74.1729 85.9344 73.8726 85.5711C73.5723 85.2066 73.4771 84.6898 73.1224 84.378C72.6009 83.919 71.7778 84.1019 71.1388 83.8282C70.9411 83.7435 70.7606 83.6146 70.5518 83.5618C69.8844 83.3949 69.28 84.1031 69.2108 84.7892C69.1428 85.4741 69.4135 86.1419 69.5284 86.8207C69.6434 87.4994 69.5408 88.3145 68.9587 88.6803C68.6683 88.8619 68.2876 88.911 68.0664 89.1737C67.6165 89.7051 68.1937 90.4686 68.316 91.1548C68.3988 91.62 68.2555 92.0938 68.1121 92.5442C67.8723 93.3028 67.4151 94.2222 66.6216 94.1669C65.9963 94.1227 65.6107 93.4697 65.403 92.8769C65.1954 92.284 65.0063 91.6065 64.4588 91.2984C63.4639 90.7399 62.2045 91.8581 61.1231 91.4935C61.2096 91.7341 61.2962 91.9759 61.3839 92.2165C60.8871 92.3356 60.761 92.9984 60.8599 93.5004C60.9587 94.0025 61.1763 94.5302 60.9872 95.0065C60.7622 95.576 60.0775 95.7835 59.4806 95.9197C59.6746 96.5727 59.7105 97.2723 59.5832 97.9413C59.8106 98.1757 59.3076 98.7772 58.9863 98.8349C58.6649 98.8926 58.3436 98.7527 58.0186 98.7269C57.3438 98.6729 56.6677 99.1786 56.5293 99.8426C57.1967 100.032 57.8628 100.222 58.5302 100.411C58.7651 100.477 59.0134 100.545 59.252 100.49C59.4992 100.432 59.6956 100.251 59.8897 100.087C61.4358 98.776 63.8359 98.1819 65.4809 99.3664C65.8133 99.6057 66.152 99.9236 66.5598 99.8856C66.8243 99.861 67.0468 99.688 67.2544 99.521C67.9428 98.9675 68.6967 98.2764 68.6584 97.3926C68.6485 97.1594 68.5817 96.9225 68.6373 96.6955C68.7609 96.1873 69.3863 96.0191 69.7707 95.6656C70.6791 94.8297 70.0364 93.3335 69.3529 92.3049C70.2057 91.7783 71.0572 91.2517 71.91 90.7252C72.1325 90.5877 72.371 90.4453 72.633 90.449C72.9024 90.4527 73.1422 90.6086 73.3894 90.7166C74.8613 91.3585 76.4927 90.2747 77.6273 89.1356C78.5307 90.2993 80.2696 90.7178 81.6031 90.0942C82.1345 90.4588 82.116 91.3033 81.7354 91.8237C81.3547 92.3442 80.7331 92.6203 80.1411 92.8744C80.5192 93.3985 80.9098 93.9521 80.9938 94.5928C81.0779 95.2336 80.738 95.9799 80.1077 96.1186C80.23 96.3407 80.3536 96.5629 80.476 96.7851C80.9889 96.7004 81.5339 96.6685 82.0097 96.8796C82.4843 97.0907 82.8563 97.6087 82.7488 98.1181C81.8935 98.5906 80.8443 98.2371 79.8988 97.9892C78.9546 97.74 77.7508 97.6995 77.212 98.5158C76.8561 99.3553 76.2356 100.08 75.4595 100.558C75.8031 99.9912 75.7005 99.1921 75.2259 98.7306C74.5375 98.3365 73.7441 99.0301 73.2868 99.6781C72.8295 100.326 72.1757 101.095 71.4157 100.868C71.1487 100.788 70.9114 100.585 70.6333 100.597C70.3404 100.61 70.1179 100.853 69.9313 101.08C69.4889 101.615 69.0292 102.241 69.1157 102.931C69.2022 103.619 70.1995 104.12 70.6074 103.558C70.4183 102.876 70.3206 101.962 70.946 101.632C71.6122 101.281 72.4093 102.149 72.24 102.884C72.0707 103.619 71.3291 104.079 70.6061 104.288C69.8831 104.498 69.1082 104.544 68.4248 104.864C68.1405 104.997 67.8723 105.418 68.1479 105.569C68.4161 105.725 68.7486 105.77 69.0489 105.693C69.2714 106.274 69.0674 106.991 68.5743 107.369C68.08 107.747 67.3372 107.755 66.8354 107.387C65.7676 106.605 66.173 104.836 65.3845 103.772C65.0594 103.332 64.5317 103.05 63.9867 103.022C62.8558 102.963 61.9252 103.928 61.4074 104.937C61.2925 105.16 61.1837 105.397 60.9872 105.553C60.5472 105.901 59.9132 105.696 59.3681 105.561C58.8231 105.427 58.0754 105.497 57.932 106.04C59.0938 107.434 60.6065 108.532 62.2911 109.203C62.4517 109.267 62.6284 109.339 62.7088 109.494C62.8002 109.671 62.7298 109.883 62.7174 110.081C62.6828 110.626 63.0907 111.087 63.4713 111.48C63.8433 111.864 64.2487 112.266 64.7715 112.377C65.2943 112.489 65.9444 112.155 65.9505 111.62C65.9629 110.634 64.0979 110.474 64.1338 109.488C64.8246 109.149 65.6799 109.172 66.351 109.548C67.1432 111.09 69.4456 111.575 70.7903 110.483C71.3761 110.007 71.8099 109.288 72.5341 109.075C73.686 108.739 74.6969 109.852 75.787 110.354C77.1786 110.995 78.8026 110.624 80.2869 110.243C81.5438 109.92 82.7995 109.596 84.0564 109.273C83.3494 109.185 82.6425 109.096 81.9356 109.007C83.0924 108.675 84.1935 108.149 85.1786 107.456C85.1266 106.871 84.6249 106.357 84.0415 106.29C85.642 105.974 86.0808 103.788 87.4786 102.944C87.9235 102.676 88.4574 102.553 88.8516 102.213C89.4177 101.726 89.5647 100.906 89.5425 100.159C89.4906 98.42 88.6811 96.7163 87.3661 95.5785C88.3808 96.0179 89.5116 96.1873 90.6103 96.0633C90.6004 96.7347 91.0886 97.6872 91.646 97.3129C91.8067 97.2048 91.8845 97.0109 91.9537 96.8292C92.2701 95.9897 92.5865 95.1501 92.9041 94.3093C93.1377 93.6882 93.3874 93.0438 93.8718 92.5909C94.6789 91.836 96.0013 91.7403 96.6514 90.8467C96.5537 91.2407 97.0703 91.561 97.4572 91.4395C97.844 91.318 98.0862 90.9412 98.2753 90.5828C98.7462 89.6917 98.9217 88.296 97.9812 87.9376C97.1358 87.616 95.8097 88.3648 95.4736 87.524C95.3858 87.3043 95.4315 87.0563 95.4884 86.828C96.0767 84.4505 97.8057 82.3847 100.041 81.3905C100.79 81.0578 101.738 80.6429 101.742 79.8218C102.271 79.9016 102.66 80.4932 102.527 81.0124C103.105 81.0873 103.711 80.9277 104.177 80.5766C103.779 80.2968 103.896 79.645 104.231 79.2915C104.565 78.938 105.041 78.7514 105.403 78.4262C106.426 77.5093 106.563 75.549 107.918 75.3318C108.945 75.7368 108.81 77.2392 108.378 78.2568C107.945 79.2743 107.439 80.568 108.198 81.3708C108.505 80.6601 109.144 80.1016 109.888 79.8917C109.194 80.762 109.075 82.052 109.596 83.0352C110.102 81.8753 111.031 80.9044 112.168 80.352C112.105 80.0304 112.041 79.7088 111.978 79.3872C112.877 79.5959 113.74 78.7342 113.891 77.821C114.033 76.9066 113.682 75.9934 113.338 75.1354Z" fill="#C0B0D3"/>
<path d="M87.7759 108.91C88.5594 109.138 89.4616 108.892 90.024 108.3C90.1229 108.195 90.2168 108.071 90.2291 107.928C90.2415 107.784 90.1414 107.622 89.9968 107.618C89.3072 108.141 88.1368 107.845 87.6362 108.551C87.5905 108.616 87.5522 108.697 87.5794 108.772C87.6066 108.849 87.6956 108.886 87.7759 108.91Z" fill="#C0B0D3"/>
<path d="M83.9548 110.211C83.825 110.22 83.7076 110.287 83.5877 110.338C83.1156 110.541 82.5743 110.517 82.0923 110.694C81.7809 110.81 81.5052 111.005 81.2346 111.197C80.7254 111.561 80.2162 111.923 79.707 112.286C80.8206 112.05 81.9341 111.815 83.0464 111.58C83.3331 111.52 83.6223 111.459 83.8893 111.337C84.3367 111.134 84.6951 110.773 85.1252 110.535C84.8434 110.446 84.5628 110.358 84.2811 110.269C84.1748 110.236 84.066 110.203 83.9548 110.211Z" fill="#C0B0D3"/>
<path d="M95.9856 19.4161C95.8941 19.124 95.5926 18.9374 95.2898 18.8969C94.987 18.8564 94.6818 18.9362 94.3901 19.0283C93.5138 19.3032 92.6734 19.6899 91.8948 20.1771C91.6971 20.3011 91.5018 20.4337 91.3535 20.6129C90.9617 21.0855 90.9802 21.7642 91.0198 22.378C91.6427 22.3595 92.2668 22.3399 92.8897 22.3215C93.0627 22.3166 93.2357 22.3104 93.4063 22.3387C93.7424 22.3951 94.0416 22.5768 94.3579 22.7032C94.7646 22.8665 95.207 22.9389 95.6445 22.9143C95.8546 22.7167 95.8015 22.3657 95.6729 22.1079C95.5444 21.8502 95.3541 21.6071 95.3318 21.3199C95.2762 20.6301 96.192 20.0753 95.9856 19.4161Z" fill="#C0B0D3"/>
<path d="M93.5951 29.17C94.0339 29.1835 94.4615 29.3037 94.8965 29.3627C95.3316 29.4216 95.7987 29.4118 96.1769 29.1896C96.5563 28.9674 96.806 28.4801 96.6404 28.0726C96.5094 27.7498 96.1744 27.5657 95.8642 27.4086C95.5973 27.2735 95.3303 27.1373 95.0634 27.0023C94.8879 26.9139 94.7012 26.8133 94.6147 26.6365C94.464 26.3296 94.6864 25.9749 94.9101 25.7159C95.1338 25.4569 95.3859 25.1403 95.2932 24.8101C95.2425 24.6296 95.0967 24.4946 94.9521 24.3756C94.5109 24.0122 94.0178 23.7115 93.4925 23.4844C93.2861 23.3948 93.0711 23.3163 92.8474 23.3064C92.5508 23.2929 92.2641 23.401 91.9872 23.5077C91.546 23.6771 91.1048 23.8465 90.6624 24.0159C90.3917 24.119 90.0938 24.2491 89.9863 24.5192C89.8788 24.788 90.1643 25.1697 90.4139 25.0249C90.6314 25.5686 90.0197 26.0731 89.8751 26.6414C89.77 27.0514 89.9196 27.4798 90.0667 27.8774C90.2681 28.4212 90.5215 29.0214 91.0554 29.2448C91.2185 29.3136 91.3952 29.3393 91.572 29.3479C92.2505 29.3786 92.9178 29.1479 93.5951 29.17Z" fill="#C0B0D3"/>
<path d="M102.678 21.033C102.82 21.141 102.971 21.2527 103.149 21.2785C103.326 21.3031 103.534 21.2049 103.565 21.0293C103.589 20.9005 103.515 20.7765 103.445 20.6672C103.272 20.3947 103.098 20.121 102.925 19.8485C102.772 19.6092 102.615 19.3625 102.386 19.1931C102.159 19.0237 101.841 18.9439 101.587 19.0679C101.453 19.4484 101.574 19.8792 101.804 20.2106C102.032 20.5408 102.358 20.79 102.678 21.033Z" fill="#C0B0D3"/>
<path d="M106.211 25.6251C106.465 25.8018 106.77 25.9111 106.977 26.1406C107.116 26.294 107.197 26.488 107.294 26.6709C107.581 27.2171 108.014 27.686 108.535 28.0161C108.579 27.6491 108.554 27.2723 108.462 26.9139C108.427 26.7776 108.38 26.6402 108.289 26.5346C108.176 26.4033 108.008 26.3358 107.856 26.2535C107.511 26.067 107.22 25.7834 107.023 25.4446C106.937 25.2974 106.869 25.1378 106.767 25.0003C106.482 24.6124 105.981 24.4406 105.656 24.0846C105.513 23.9263 105.407 23.7348 105.247 23.5924C105.088 23.45 104.846 23.3641 104.66 23.4709C104.891 23.8441 105.122 24.2172 105.353 24.5891C105.592 24.9721 105.84 25.3673 106.211 25.6251Z" fill="#C0B0D3"/>
<path d="M102.883 90.0152C102.743 89.9195 102.568 89.8507 102.408 89.9047C102.249 89.9588 102.152 90.1858 102.27 90.3061C102.023 90.4301 101.731 90.4031 101.457 90.4461C101.182 90.489 100.882 90.656 100.863 90.9334C100.857 91.0254 100.884 91.1212 100.856 91.2095C100.799 91.3875 100.547 91.4587 100.52 91.644C100.498 91.7901 100.646 91.919 100.794 91.9264C100.941 91.9349 101.08 91.8588 101.203 91.7766C101.458 91.606 101.703 91.3924 102.004 91.3421C102.307 91.2906 102.679 91.5041 102.647 91.8085C103.03 91.7619 103.37 91.4599 103.461 91.0843C103.454 90.6633 103.231 90.2533 102.883 90.0152Z" fill="#C0B0D3"/>
<path d="M96.8684 44.9176C96.8042 45.411 96.9352 45.9057 97.0649 46.3856C97.1786 46.8042 97.2923 47.2227 97.406 47.6425C97.5123 48.0341 97.6681 48.4821 98.0512 48.6159C98.2625 48.6895 98.4986 48.6466 98.7173 48.6944C99.1907 48.7975 99.5169 49.3057 100 49.3462C100.558 49.3928 100.959 48.7791 101.012 48.2218C101.064 47.6634 100.907 47.0975 100.991 46.5427C101.093 45.875 101.616 45.2514 102.287 45.1753C102.524 45.1483 102.777 45.1852 102.99 45.0759C103.284 44.9249 103.383 44.5604 103.452 44.2363C103.565 43.7085 103.675 43.1464 103.485 42.6407C103.306 42.1632 102.88 41.7974 102.765 41.3003C102.369 41.1444 101.913 41.45 101.75 41.8428C101.587 42.2356 101.638 42.6812 101.69 43.1034C101.659 42.853 100.729 43.5674 100.66 43.614C99.9359 44.0976 99.4625 44.2756 98.6864 44.0854C97.8435 43.8804 97.034 43.6619 96.8684 44.9176Z" fill="#C0B0D3"/>
<path d="M91.2725 61.8701C91.5221 61.6761 91.6296 61.3533 91.6964 61.0452C91.836 60.3971 91.8447 59.7036 91.6 59.0875C91.1699 58.0012 89.908 57.3162 88.7636 57.5482C88.4546 57.6108 88.1123 57.7262 87.8453 57.5605C87.6105 57.4145 87.5326 57.1051 87.3262 56.9222C86.9653 56.6055 86.3895 56.7995 86.015 57.1002C85.6405 57.4022 85.3179 57.8072 84.8532 57.93C84.6728 57.5384 84.1994 57.3077 83.7805 57.4071C83.3615 57.5065 83.0426 57.9263 83.0575 58.3571C83.0772 58.9156 83.5642 59.3293 83.8052 59.8337C84.1043 60.4597 84.0017 61.2257 83.668 61.8332C83.3343 62.4408 82.7955 62.911 82.222 63.3013C82.0663 63.4068 81.9019 63.5136 81.8006 63.6732C81.6177 63.9629 81.6918 64.3397 81.7783 64.6711C81.9921 65.4923 82.2443 66.3024 82.531 67.1014C82.9771 66.8302 83.5086 67.3113 83.7397 67.7802C83.9696 68.2491 84.2007 68.8321 84.7148 68.923C85.2413 69.015 85.8469 68.5167 86.2683 68.8469C86.403 68.9524 86.4834 69.128 86.6416 69.1955C86.7787 69.2544 86.9369 69.2139 87.0741 69.1562C88.221 68.6824 88.6178 66.9824 87.7996 66.0495C88.1494 65.3707 88.7067 64.8012 89.3778 64.4367C89.5545 64.3409 89.7461 64.2525 89.8648 64.0905C90.196 63.6388 89.7795 62.9196 90.1082 62.4654C90.3665 62.1058 90.9227 62.1413 91.2725 61.8701Z" fill="#C0B0D3"/>
<path d="M93.3036 40.8352C92.8389 37.7764 90.4054 34.0916 86.5556 33.4534C83.8576 32.6175 80.7135 34.0143 79.3244 36.4753C77.9352 38.9376 78.28 42.2038 79.9707 44.4672C81.6614 46.7319 84.5473 47.9741 87.3688 47.8906C89.1312 47.839 90.9603 47.2499 92.1097 45.9095C93.2764 44.5507 93.573 42.6089 93.3036 40.8352Z" fill="#C0B0D3"/>
<g opacity="0.2">
<path d="M6.26462 52.874C6.26462 38.0907 11.7199 24.5924 20.7073 14.2561C8.11846 25.0478 0.130859 41.0672 0.130859 58.9658C0.130859 91.4612 26.4295 117.805 58.8717 117.805C76.5549 117.805 92.4002 109.967 103.169 97.5837C92.902 106.386 79.5778 111.713 65.0054 111.713C32.5644 111.713 6.26462 85.3694 6.26462 52.874Z" fill="black"/>
</g>
<path opacity="0.5" d="M58.9995 0.000782634C58.9995 0.000782634 59.3233 -0.00535399 59.9548 0.01674C60.6062 0.0425164 61.5417 0.0793352 62.7628 0.127206C63.382 0.154209 64.0728 0.183666 64.8329 0.216807C65.5905 0.290453 66.4136 0.437754 67.3084 0.561726C68.2032 0.69429 69.166 0.835446 70.1955 0.98765C71.2311 1.11039 72.2866 1.4774 73.4298 1.73639C78.0125 2.75149 83.4405 4.85288 89.1825 8.22344C94.9034 11.6136 100.877 16.5197 105.944 23.202C106.572 24.0403 107.207 24.8885 107.849 25.7465C108.409 26.6597 108.974 27.5839 109.546 28.518C109.831 28.9857 110.117 29.457 110.405 29.9296C110.706 30.396 110.98 30.8796 111.206 31.3927C111.693 32.4004 112.184 33.418 112.681 34.4466C112.922 34.9633 113.193 35.4715 113.413 36.0042C113.612 36.5455 113.811 37.0893 114.013 37.6355C114.413 38.7291 114.819 39.8326 115.228 40.9471C115.589 42.0764 115.842 43.2498 116.158 44.4159C116.433 45.5918 116.838 46.7517 116.968 47.9779C117.321 50.4095 117.822 52.8705 117.843 55.4187C117.89 56.6879 118.015 57.9656 117.999 59.2545C117.936 60.5433 117.871 61.8419 117.806 63.1491C117.763 63.8021 117.764 64.4625 117.685 65.1167C117.586 65.7685 117.487 66.424 117.388 67.0807C117.177 68.3916 117.017 69.7233 116.758 71.0441C116.052 73.6438 115.542 76.3417 114.476 78.9071L113.763 80.8636L113.405 81.8468L112.952 82.7932C112.346 84.0562 111.735 85.3279 111.122 86.6056C110.467 87.8625 109.671 89.0519 108.944 90.2892C108.563 90.8968 108.221 91.5326 107.805 92.1205L106.507 93.861L105.202 95.6102L104.545 96.4866L103.807 97.3016C102.821 98.3891 101.831 99.4816 100.836 100.58C98.6482 102.581 96.5027 104.681 94.0074 106.403C89.1368 109.954 83.6976 113.031 77.7159 114.917C71.7712 116.866 65.4459 117.917 59.0106 118C52.5741 117.918 46.2463 116.87 40.2979 114.922C38.8297 114.379 37.3676 113.839 35.9117 113.301C34.514 112.626 33.1211 111.955 31.7345 111.285C31.0275 110.974 30.37 110.578 29.7199 110.17L27.7598 108.977C27.1134 108.573 26.4473 108.2 25.8195 107.773L24.0002 106.409C21.5049 104.686 19.357 102.587 17.1694 100.585C16.1733 99.4865 15.1834 98.394 14.1971 97.3065L13.4593 96.4915L12.8006 95.6151L11.4955 93.8648L10.1977 92.123C9.78125 91.5351 9.4389 90.898 9.05701 90.2916C8.33154 89.0544 7.53439 87.865 6.87937 86.6081C6.26513 85.3291 5.65461 84.0587 5.04778 82.7944L4.59545 81.8481L4.23703 80.8649L3.52392 78.9083C2.45858 76.343 1.94815 73.645 1.24245 71.0453C0.98168 69.7246 0.823511 68.3928 0.612173 67.0807C0.513302 66.424 0.413169 65.7685 0.315533 65.1167C0.236436 64.4625 0.237682 63.8021 0.194425 63.1491C0.130159 61.8407 0.0658852 60.5421 0.00161875 59.2533C-0.0156838 57.9644 0.110386 56.6854 0.15735 55.4163C0.17836 52.8681 0.678907 50.4071 1.03237 47.9755C1.16214 46.7493 1.56875 45.5893 1.84188 44.4134C2.15827 43.2474 2.41038 42.0739 2.7725 40.9447C3.18158 39.8301 3.58695 38.7267 3.98738 37.633C4.1876 37.0868 4.38783 36.5431 4.58681 36.0018C4.8068 35.469 5.07868 34.9621 5.31968 34.4441C5.81651 33.4155 6.30839 32.3967 6.79409 31.389C7.02026 30.8759 7.29588 30.3923 7.59497 29.9259C7.88293 29.4533 8.16967 28.982 8.45392 28.5143C9.02614 27.5802 9.59217 26.656 10.152 25.7428C10.7947 24.8848 11.4299 24.0366 12.0578 23.1983C17.1262 16.5173 23.0993 11.6112 28.8202 8.22099C34.5622 4.85165 39.9902 2.75026 44.5717 1.73639C45.7161 1.4774 46.7703 1.11039 47.806 0.98765C48.8355 0.835446 49.797 0.693063 50.6931 0.561726C51.5878 0.437754 52.4097 0.290453 53.1685 0.216807C53.9286 0.183666 54.6195 0.154209 55.2387 0.127206C56.4585 0.0793352 57.394 0.0425164 58.0454 0.01674C58.6757 -0.00535399 58.9995 0.000782634 58.9995 0.000782634C58.9995 0.000782634 58.6757 0.0388264 58.0454 0.081787C57.3953 0.122293 56.4622 0.179991 55.2448 0.254865C54.6281 0.290461 53.9397 0.330975 53.1821 0.375163C52.427 0.458629 51.6089 0.615743 50.719 0.748307C49.8292 0.889464 48.8714 1.04043 47.848 1.20246C46.8173 1.33379 45.7692 1.7094 44.6335 1.97575C40.0804 3.02154 34.6956 5.14747 29.0056 8.5254C23.3378 11.9242 17.4277 16.8205 12.4211 23.4683C11.8007 24.3017 11.1729 25.145 10.5388 25.9993C9.98641 26.9076 9.42904 27.8257 8.86424 28.7549C8.58369 29.2201 8.30066 29.6878 8.01641 30.1579C7.71979 30.6219 7.44912 31.1018 7.22666 31.6112C6.74714 32.6116 6.26267 33.623 5.77326 34.6442C5.53473 35.1573 5.26779 35.6618 5.05027 36.1908C4.855 36.7284 4.65847 37.2685 4.46073 37.811C4.06648 38.8961 3.6673 39.9909 3.2644 41.0969C2.90846 42.2163 2.6625 43.3811 2.35105 44.5374C2.08286 45.7035 1.68247 46.8536 1.55641 48.07C1.21283 50.4819 0.720918 52.9196 0.706087 55.4457C0.662831 56.7026 0.540492 57.9706 0.559031 59.2471C0.624533 60.5237 0.691247 61.81 0.757985 63.1062C0.801241 63.753 0.801249 64.4073 0.881582 65.0541C0.980454 65.6998 1.08056 66.3491 1.17943 66.9997C1.392 68.2983 1.55022 69.6166 1.81099 70.925C2.51669 73.499 3.02338 76.1699 4.08254 78.707L4.79195 80.6427L5.14788 81.6148L5.59776 82.5514C6.19964 83.8009 6.80524 85.0591 7.41577 86.3246C8.06585 87.568 8.85681 88.7438 9.5761 89.9676C9.95428 90.5678 10.2929 91.1975 10.7057 91.7793L11.9923 93.5002L13.2863 95.2309L13.9376 96.0975L14.6692 96.9027C15.6456 97.9779 16.6269 99.0581 17.6131 100.144C19.7809 102.122 21.9054 104.199 24.3772 105.901L26.1779 107.249C26.7983 107.671 27.4582 108.039 28.0984 108.438L30.0376 109.618C30.6802 110.02 31.3303 110.413 32.0298 110.719C33.4017 111.38 34.7797 112.044 36.1626 112.712C37.6037 113.244 39.0497 113.778 40.5019 114.313C46.3847 116.237 52.6421 117.273 59.0094 117.354C65.3742 117.272 71.6303 116.234 77.5107 114.308C83.4269 112.447 88.808 109.404 93.6292 105.895C96.0998 104.194 98.2243 102.116 100.391 100.139C101.377 99.0532 102.358 97.973 103.335 96.8978L104.066 96.0926L104.718 95.226L106.01 93.4953L107.297 91.7744C107.71 91.1926 108.048 90.5629 108.427 89.9627C109.146 88.7389 109.937 87.563 110.587 86.3196C111.196 85.0554 111.802 83.7972 112.404 82.5477L112.854 81.6112L113.209 80.639L113.918 78.7033C114.977 76.1662 115.484 73.4953 116.189 70.9226C116.449 69.6153 116.608 68.2971 116.821 66.9984C116.921 66.3479 117.02 65.6998 117.119 65.0529C117.199 64.4048 117.198 63.7518 117.242 63.105C117.309 61.8088 117.376 60.5224 117.441 59.2459C117.461 57.9693 117.339 56.7014 117.295 55.4445C117.281 52.9184 116.789 50.4807 116.445 48.0688C116.319 46.8524 115.92 45.7023 115.652 44.5362C115.341 43.3799 115.094 42.2163 114.74 41.0956C114.337 39.9897 113.939 38.8948 113.543 37.8098C113.345 37.2673 113.15 36.7272 112.954 36.1895C112.737 35.6605 112.469 35.1573 112.231 34.643C111.741 33.6217 111.257 32.6103 110.777 31.6099C110.555 31.1006 110.284 30.6194 109.988 30.1567C109.703 29.6866 109.42 29.2189 109.14 28.7537C108.575 27.8245 108.017 26.9064 107.465 25.9981C106.83 25.145 106.202 24.3005 105.583 23.4671C100.577 16.8192 94.6674 11.9217 88.9983 8.52294C83.3083 5.14379 77.9235 3.01785 73.3692 1.97206C72.2322 1.70571 71.1842 1.3301 70.1535 1.19877C69.1301 1.03674 68.1723 0.885774 67.2825 0.744618C66.3914 0.612054 65.5732 0.454931 64.8181 0.370237C64.0605 0.326049 63.3721 0.286781 62.7554 0.249958C61.538 0.175083 60.6049 0.117386 59.9548 0.0768799C59.3221 0.0388291 58.9995 0.000782634 58.9995 0.000782634Z" fill="#F9F9F9"/>
</svg>
