<svg width="160" height="159" viewBox="0 0 160 159" fill="none" xmlns="http://www.w3.org/2000/svg">
<path d="M79.9994 158.567C123.713 158.567 159.15 123.071 159.15 79.284C159.15 35.4973 123.713 0.00114441 79.9994 0.00114441C36.2856 0.00114441 0.848633 35.4973 0.848633 79.284C0.848633 123.071 36.2856 158.567 79.9994 158.567Z" fill="#C0B0D3"/>
<g opacity="0.2">
<path d="M79.9994 158.567C123.713 158.567 159.15 123.071 159.15 79.284C159.15 35.4973 123.713 0.00114441 79.9994 0.00114441C36.2856 0.00114441 0.848633 35.4973 0.848633 79.284C0.848633 123.071 36.2856 158.567 79.9994 158.567Z" fill="#333333"/>
</g>
<path d="M109.909 30.2583C109.168 29.6893 108.425 29.122 107.684 28.5531C107.441 28.3678 107.19 28.171 107.056 27.8964C106.908 27.5954 106.923 27.2448 106.87 26.914C106.673 25.6901 105.404 24.7441 104.177 24.9111C103.701 23.7004 103.589 22.374 103.158 21.1451C102.726 19.9162 101.839 18.7089 100.558 18.4856C100.059 18.3979 99.5274 18.4674 99.0595 18.2706C98.5449 18.0556 98.2068 17.5627 97.7622 17.2236C96.2717 16.089 93.6672 16.7076 92.7213 15.0901C92.4998 14.7097 92.4149 14.2548 92.1534 13.9025C91.8253 13.4609 91.2775 13.2525 90.7612 13.0657C88.8927 12.3909 86.8144 11.7177 84.9742 12.4669C84.3198 12.7332 83.7235 13.1748 83.0258 13.2873C82.2448 13.413 81.4005 13.1169 80.6777 13.4345C80.2448 13.6247 79.8867 14.0249 79.4138 14.0481C79.0807 14.0646 78.7743 13.8843 78.4845 13.7206C76.661 12.6886 74.4811 12.0567 72.4511 12.3693C72.6959 12.2073 72.939 12.0419 73.2154 11.9459C73.4236 11.8732 73.6451 11.8434 73.8583 11.7872C74.3812 11.6482 74.8591 11.3406 75.2038 10.9222C75.1605 10.8444 75.1172 10.765 75.0739 10.6873C74.7941 10.8742 74.4178 10.7005 74.1547 10.4905C73.8915 10.2804 73.6168 10.0191 73.2821 10.0357C73.1139 10.0439 72.9573 10.1233 72.7941 10.1597C72.098 10.3185 71.4402 9.71975 70.7258 9.71148C70.491 9.70818 70.2595 9.77102 70.0364 9.84214C69.0238 10.1647 68.0763 10.6857 67.2636 11.3704C67.172 11.4465 67.0804 11.5292 67.0255 11.6334C66.9506 11.7756 66.9488 11.9443 66.9705 12.1031C67.0471 12.6489 67.4052 13.1467 67.8981 13.3915C68.4293 13.6561 69.0588 13.6247 69.6417 13.5188C69.6983 13.5089 69.7533 13.4907 69.8099 13.4791C69.4285 13.7901 69.1038 14.1639 68.884 14.6038C68.4693 15.439 68.4993 16.5257 69.1038 17.2336C68.416 17.6917 67.6666 16.6183 66.844 16.5406C66.2394 16.4843 65.7398 16.9772 65.3352 17.4304C64.7823 18.0506 64.2294 18.6708 63.6748 19.291C63.022 19.1074 62.3676 18.9239 61.7148 18.7403C61.4 18.6526 61.0603 18.565 60.7556 18.6808C60.4475 18.7965 60.2509 19.0909 59.9995 19.3026C59.3184 19.8765 58.1643 19.7475 57.6281 19.0363C57.5682 18.9553 57.5182 18.8693 57.4766 18.7783C57.7497 18.6229 57.9845 18.4211 58.076 18.1283C57.9895 17.8422 57.668 17.6917 57.365 17.7049C57.4499 17.2947 57.6714 16.9127 58.0194 16.6778C58.4891 16.3586 59.1635 16.2346 59.385 15.7186C59.738 15.4887 60.0894 15.2604 60.4425 15.0305C60.5691 14.9495 60.6989 14.8618 60.7722 14.7328C60.8422 14.6104 60.8422 14.4384 60.7439 14.3408C61.3901 13.6743 60.5974 12.0204 61.2968 11.1818C61.7548 10.6327 62.634 10.7286 63.2818 11.033C63.9296 11.3356 64.5341 11.8021 65.2469 11.855C66.3227 11.936 67.2036 11.076 68.0246 10.373C68.8456 9.67178 69.8765 9.16734 70.9373 9.57917C70.6426 9.46505 71.4952 8.12206 71.9981 8.16506C72.2995 8.19153 72.3261 8.66455 72.5543 8.78859C74.0164 9.58248 75.8649 8.53389 77.457 8.35361C79.477 8.12371 81.532 8.19814 83.5287 8.58516C83.6586 8.06086 83.0691 7.66558 82.5745 7.44892C80.7943 6.66826 78.9991 5.88263 77.0989 5.47907C73.7267 4.76457 70.1529 5.31203 66.9988 6.70299C66.2178 7.047 65.4151 7.45056 64.5641 7.40094C64.1478 7.37613 63.7398 7.24217 63.3235 7.24217C62.5824 7.24217 61.9479 7.64738 61.3901 8.16837C60.7806 8.14522 60.1793 8.39166 59.6481 8.70425C59.41 8.84484 59.1818 8.99863 58.9587 9.16071C59.1052 9.35753 59.4133 9.23682 59.6298 9.12104C60.0128 8.91595 60.4325 8.77701 60.8621 8.7092C60.7755 8.80347 60.6923 8.89941 60.6107 8.99534C60.1027 9.58413 59.3733 9.43527 58.6023 9.52458C58.3359 9.556 58.0644 9.55933 57.8096 9.64534C57.5381 9.73796 57.3133 9.91657 57.1135 10.125C57.3633 9.83388 57.6114 9.54112 57.8612 9.25003C58.0344 9.04825 58.2193 8.8068 58.1743 8.54382C58.937 8.53224 59.6814 8.12703 60.1077 7.49522C60.1793 7.38772 60.2493 7.26864 60.3659 7.21075C60.5857 7.09994 60.8621 7.25705 61.0903 7.16608C61.2818 7.09 61.3667 6.87498 61.4733 6.69801C61.7481 6.23988 62.246 5.9736 62.7189 5.72881C63.5 5.32525 64.2793 4.9217 65.0604 4.51815C64.7523 4.47349 64.4442 4.42882 64.1361 4.38416C63.873 4.39409 63.6665 4.42221 63.4767 4.46356L63.4051 4.46192C60.8288 4.60746 58.2859 5.30375 55.9944 6.48797C55.7979 6.58886 55.6031 6.69471 55.3949 6.76913C55.2001 6.8386 54.9953 6.8816 54.7938 6.92956C53.5065 7.23885 52.3041 7.82268 51.1117 8.40156C48.8802 9.48488 46.6487 10.5699 44.4171 11.6532C44.1773 11.769 43.8959 11.9708 43.9642 12.2288C44.4255 12.2784 44.8884 12.328 45.3497 12.3776C44.3289 12.6241 43.3597 13.0921 42.5303 13.7372C42.2672 13.9422 42.0008 14.1738 41.6727 14.2383C41.4845 14.2763 41.288 14.2548 41.0982 14.2929C40.8301 14.3458 40.6003 14.5128 40.3788 14.6749C38.0657 16.3735 35.7525 18.0704 33.4394 19.7674C32.1304 20.7283 30.8099 21.6992 29.7208 22.9049C28.4801 24.2793 26.8964 25.4602 25.8939 27.0182C25.0729 28.2934 24.5583 29.7555 23.654 30.9727C24.3002 30.4666 24.9463 29.9605 25.5891 29.4511C25.8855 29.2163 26.1836 28.9798 26.4284 28.692C26.6299 28.4571 26.7914 28.1908 26.9663 27.9361C27.4126 27.2878 27.9438 26.7023 28.4734 26.1201C28.7232 25.8456 28.9797 25.5661 29.2977 25.3742C29.5009 25.2502 29.7274 25.1658 29.9206 25.0269C30.1637 24.8516 30.3419 24.6002 30.5684 24.4033C30.7949 24.2065 31.1096 24.061 31.3927 24.1635C31.1579 24.5803 30.9014 24.9855 30.6267 25.3758C30.5317 25.5098 30.4302 25.6488 30.2836 25.7248C30.1304 25.8042 29.9506 25.8059 29.7824 25.8439C29.053 26.0043 28.6616 26.7784 28.3668 27.4664C28.6583 27.4449 28.9497 27.4234 29.2428 27.4019C29.3211 27.5458 29.2461 27.7228 29.1712 27.8683C28.4301 29.3122 27.6807 30.7693 26.6316 32.0065C27.3144 31.1282 27.7457 30.0565 27.8622 28.95C26.7931 29.5702 26.0388 30.6006 25.2128 31.5219C24.6815 32.114 24.0437 32.7028 23.2527 32.7755C23.2677 32.4299 23.3759 32.0892 23.5641 31.7981C22.7531 31.765 22.2135 32.5986 21.8471 33.3246C21.1077 34.79 20.3667 36.2554 19.6273 37.7208C19.1527 38.6586 18.6781 39.598 18.2051 40.5374C17.8354 41.2685 17.4657 42.0012 17.096 42.7322C16.9544 43.0101 16.8129 43.3442 16.9561 43.622C18.0336 42.5701 18.9878 41.3925 19.7938 40.1206C19.9353 39.8974 20.0736 39.6708 20.2551 39.4806C20.4483 39.2788 20.6831 39.125 20.8913 38.9397C21.6989 38.2186 22.0536 37.051 22.9562 36.4539C22.903 37.3321 22.1203 37.9523 21.5274 38.604C20.9179 39.2738 20.4599 40.0842 20.2002 40.9526C20.1152 41.2354 20.0503 41.5298 19.8987 41.7829C19.7472 42.0376 19.5174 42.2377 19.3608 42.4891C19.0278 43.0266 19.0794 43.7064 19.141 44.3365C19.1443 44.3712 19.1493 44.4076 19.1693 44.4341C19.2259 44.5069 19.3408 44.4639 19.4175 44.4142C19.9803 44.0586 20.5415 43.7047 21.1044 43.3491C21.0078 43.8569 21.186 44.3712 21.3009 44.8757C21.4142 45.3801 21.4475 45.964 21.1161 46.3593C20.1885 47.4691 19.4974 48.1008 19.3791 49.6506C19.2992 50.7041 19.2226 51.9049 18.3983 52.5631C18.2201 52.7054 18.0019 52.8327 17.937 53.0511C17.8754 53.2611 17.982 53.4794 18.0269 53.6944C18.1968 54.5049 17.509 55.2061 17.0194 55.8743C16.8795 56.0662 16.7496 56.2729 16.708 56.5061C16.6713 56.7145 16.708 56.9262 16.7213 57.1379C16.7513 57.6258 16.653 58.122 16.4365 58.562C16.7979 58.7753 17.1593 58.9887 17.5206 59.202C17.6955 59.3062 17.877 59.4137 17.9953 59.5808C18.1268 59.7677 18.1635 60.0059 18.2717 60.2076C18.4366 60.5153 18.7647 60.7319 18.8512 61.0693C18.8945 61.238 18.8696 61.4166 18.8562 61.5903C18.7796 62.5082 18.9861 63.4493 19.4391 64.2498C19.5807 64.4996 19.7472 64.741 19.8088 65.0205C19.9487 65.6474 19.5407 66.3272 19.7722 66.9259C19.549 66.959 19.6673 67.3377 19.8288 67.4965C19.9903 67.6553 20.2368 67.6751 20.4616 67.695C20.6864 67.7148 20.9362 67.7595 21.0711 67.9414C21.3176 68.2805 20.9729 68.7204 20.848 69.1223C20.7247 69.5143 20.843 69.9708 21.1394 70.2552C21.3009 70.4091 21.5307 70.5629 21.5041 70.7845C21.4741 71.0392 21.151 71.1103 20.9246 71.2278C20.2651 71.5652 20.2751 72.531 20.5698 73.2125C20.8646 73.8922 21.3542 74.534 21.3442 75.2749C21.9571 75.3345 22.5149 75.7843 22.7031 76.3715C22.7647 76.5617 22.8163 76.7965 23.0045 76.8643C23.2377 76.9487 23.4542 76.699 23.5391 76.4674C23.8422 75.6487 23.5674 74.6597 24.0254 73.9187C24.2369 73.5763 24.5766 73.3382 24.8397 73.0355C25.1029 72.7328 25.2927 72.2962 25.1195 71.9323C25.0163 71.714 24.8014 71.5685 24.6848 71.3584C24.5666 71.1484 24.6232 70.7994 24.863 70.7762C25.2027 71.021 25.4575 71.3849 25.5691 71.7901C25.8772 71.7901 26.1853 71.7884 26.4934 71.7884C26.4917 72.273 26.4884 72.756 26.4867 73.2406C25.9372 73.6458 25.6874 74.4149 25.8939 75.0665C25.9622 75.2815 26.087 75.4949 26.2919 75.5892C26.4301 75.6537 26.59 75.657 26.7332 75.7132C27.5142 76.0242 27.2178 77.5656 28.0438 77.7211C28.3785 77.7839 28.7049 77.5441 29.043 77.5706C29.3061 77.5904 29.6275 77.7509 29.794 77.5458C29.9089 77.4035 29.8423 77.1968 29.7873 77.0231C29.6158 76.4806 29.6192 75.8852 29.7957 75.3444C29.4859 74.6282 29.2878 73.8625 29.2078 73.0868C29.2861 73.0454 29.3644 73.0041 29.4426 72.9611C29.8323 73.2886 30.2353 73.6326 30.4418 74.099C30.5767 74.4016 30.6217 74.7423 30.7832 75.0301C30.9448 75.3196 31.2945 75.5528 31.5992 75.4238C31.8823 75.3047 31.9756 74.9441 31.9573 74.6365C31.9389 74.3289 31.8457 74.0196 31.9073 73.7186C32.0305 73.1182 32.6867 72.8139 33.2612 72.6005C33.3261 72.8106 33.0614 72.9511 32.8882 73.0868C32.4951 73.3911 32.4818 73.9733 32.5385 74.4678C32.6251 75.2303 32.8116 76.0142 33.3078 76.5981C33.8041 77.1819 34.6834 77.4945 35.3629 77.1439C36.2072 76.7089 36.3454 75.5776 36.3587 74.6266C36.6235 74.4909 37.0148 74.3868 37.1614 74.6464C37.2646 74.8284 37.1514 75.0549 37.168 75.265C37.1997 75.652 37.666 75.8968 37.6993 76.2838C37.7193 76.5038 37.591 76.7056 37.4761 76.8941C37.163 77.4019 36.9599 78.1858 37.4662 78.5001C37.5977 78.5828 37.7559 78.6109 37.9041 78.6555C38.6202 78.8788 39.1531 79.595 39.1614 80.3459C39.4245 80.4104 39.6244 80.6733 39.616 80.9446C39.6077 81.2158 39.3912 81.4656 39.1248 81.5135C39.0065 81.535 38.8717 81.5251 38.7851 81.6078C38.5969 81.7881 38.85 82.1768 38.6518 82.3455C38.5869 82.4017 38.4953 82.4083 38.4137 82.4365C37.9891 82.5886 38.049 83.1939 38.0923 83.6455C38.1905 84.6659 37.7226 85.7211 36.9033 86.3348C36.3187 86.7714 35.4494 86.9616 34.8799 86.5051C34.6101 86.2884 34.4519 85.966 34.2288 85.703C34.0056 85.44 33.6492 85.2249 33.3261 85.3473C33.1896 85.3986 33.0797 85.5045 32.9748 85.6054C32.3236 86.2372 31.6392 86.9269 31.4627 87.8183C31.4027 88.116 31.4027 88.4336 31.2678 88.7065C31.1013 89.0455 30.7582 89.2573 30.5151 89.5451C30.2104 89.9056 30.0671 90.3984 30.1304 90.8665C30.3869 91.1741 30.0072 91.5876 29.839 91.9532C29.6708 92.317 29.4077 92.6346 29.2661 93.01C28.9697 93.794 29.2461 94.664 29.5242 95.4545C29.8923 96.5048 30.2936 97.6063 31.1362 98.3324C31.3527 98.5193 31.5942 98.6747 31.8323 98.8335C32.7882 99.4686 33.7558 100.18 34.2737 101.205C34.8549 101.357 35.5294 100.853 36.0373 101.175C36.2288 101.296 36.3387 101.51 36.4403 101.711C36.7167 102.26 36.9932 102.808 37.2696 103.357C37.4894 103.795 37.7276 104.253 38.1372 104.521C38.5469 104.789 39.1831 104.779 39.4495 104.368C39.7759 103.865 39.3729 103.17 39.5711 102.606C39.8375 101.847 41.0449 101.662 41.1431 100.863C41.1848 100.524 41.0149 100.11 41.2664 99.8788C41.368 99.7845 41.5128 99.7564 41.6411 99.7018C42.0707 99.5215 42.3222 98.9989 42.194 98.5507C43.1832 98.4729 44.3955 98.506 44.8801 99.3727C44.985 99.5612 45.1882 99.8176 45.3497 99.6737C45.2115 98.5937 45.0716 97.4922 45.2815 96.4237C45.3397 96.1244 45.4264 95.8184 45.3614 95.5207C45.1732 94.6441 43.9092 94.4655 43.4929 93.6716C43.005 92.7437 43.8959 91.4421 43.2548 90.6135C42.8601 90.1041 42.0341 90.028 41.746 89.4508C41.6477 89.2523 41.6261 89.0174 41.4979 88.8372C41.3663 88.6536 41.1465 88.561 40.9616 88.4319C40.2472 87.9292 40.1289 86.9153 40.2155 86.0437C40.3005 85.1721 40.5186 84.2673 40.2305 83.4404C40.124 83.1344 39.9491 82.8466 39.9191 82.5225C39.8642 81.9568 40.3588 81.3895 40.9266 81.3928C41.4945 81.3961 41.9858 82.0031 41.8476 82.5539C41.7543 82.926 41.4429 83.1956 41.2064 83.4983C40.9683 83.8009 40.8001 84.2409 41.0199 84.5568C41.6027 84.6229 41.8343 85.5409 41.3546 85.8766C41.2148 85.9742 41.0432 86.0205 40.91 86.128C40.562 86.4059 40.6185 86.9715 40.8617 87.3453C41.1048 87.7191 41.4845 87.9821 41.7593 88.3327C41.9042 88.518 42.0341 88.7379 42.2506 88.8305C42.3655 88.8802 42.4937 88.8884 42.6186 88.8951C42.9534 88.9132 43.2864 88.9331 43.6211 88.9513C43.7477 88.9579 43.8776 88.9662 43.9991 88.9298C44.1973 88.8719 44.3455 88.7114 44.4971 88.5725C45.0267 88.0863 45.6961 87.7869 46.3523 87.4958C46.5837 87.3933 46.8252 87.2891 47.0767 87.3023C47.6645 87.3304 48.0176 87.9374 48.4123 88.3757C48.9918 89.0191 49.8161 89.373 50.6121 89.7071C50.9901 88.3129 51.3632 86.7979 50.817 85.4598C50.3857 84.4063 49.4564 83.6554 48.7203 82.7871C48.0059 81.9452 47.4363 80.8123 47.7744 79.7604C47.9626 79.6644 48.1491 79.5669 48.3373 79.471C49.1433 79.8133 49.7895 80.5112 50.0742 81.3415C50.2924 81.9783 50.299 82.6663 50.4406 83.3246C50.6504 84.3021 51.1633 85.2101 51.8828 85.9031C51.8678 85.1307 51.8544 84.3583 51.8395 83.5859C51.8345 83.3643 51.8428 83.1129 52.006 82.9624C52.1642 82.8168 52.4057 82.8251 52.6189 82.8499C53.26 82.9244 53.8928 83.0732 54.5023 83.2899C54.6838 83.3544 54.872 83.4305 54.9986 83.576C55.1618 83.7612 55.1951 84.0226 55.2234 84.2673C55.3316 85.2068 55.3466 86.3563 54.5489 86.864C53.9644 87.2362 53.0868 87.1336 52.6837 87.6976C52.4106 88.078 52.4606 88.6552 52.1042 88.9595C51.9044 89.1299 51.6063 89.1828 51.4647 89.4028C51.2433 89.7452 51.553 90.2049 51.4631 90.6019C51.4048 90.8582 51.18 91.0997 51.2683 91.3462C51.3216 91.495 51.4714 91.5827 51.5913 91.6869C52.1492 92.1781 52.0276 93.0646 51.8594 93.789C51.7212 94.3828 51.583 94.9765 51.4448 95.5703C51.5597 94.3679 51.2216 93.1258 50.5105 92.15C49.871 92.2988 49.2233 92.0077 48.5921 91.8242C47.961 91.6422 47.1716 91.6125 46.7603 92.1252C46.4172 92.5535 46.4905 93.1771 46.6603 93.698C46.8319 94.219 47.0866 94.7367 47.0517 95.2842C47.01 95.9524 46.5537 96.6702 46.9134 97.2341C47.1799 97.3483 47.4464 97.4624 47.7145 97.5765C48.1425 97.7601 48.6487 98.2414 48.3356 98.5854C48.0592 98.8881 47.3165 98.769 47.3664 99.1775C47.3797 99.2784 47.453 99.3611 47.5229 99.4355C48.1274 100.071 48.8103 100.896 48.5105 101.72C48.9751 101.592 49.4547 101.835 49.8527 102.105C50.8819 102.801 51.7545 103.729 52.3857 104.799C52.5805 105.13 52.7537 105.474 52.9536 105.803C53.4049 105.848 53.5314 105.199 53.4781 104.75C53.3999 104.067 53.3199 103.383 53.2417 102.7C53.1817 102.181 53.1217 101.658 52.9719 101.159C52.7587 100.451 52.3724 99.8077 52.1226 99.1114C51.8728 98.4151 51.7728 97.608 52.1276 96.9596C52.9985 97.5005 53.6147 98.4382 53.7679 99.4537C53.8212 99.8159 53.8195 100.185 53.8778 100.545C54.0577 101.677 54.8071 102.664 54.9436 103.802C54.9902 104.192 54.9686 104.611 55.1718 104.948C55.295 105.155 55.4898 105.307 55.6813 105.454C56.4174 106.021 57.1518 106.59 57.8879 107.159C58.0727 107.302 58.2026 107.613 58.4141 107.513C58.1277 106.546 57.8413 105.577 57.5548 104.609C58.1577 105.117 58.7588 105.625 59.3617 106.131C59.2734 105.663 59.3367 105.145 59.6315 104.769C59.9246 104.394 60.4791 104.209 60.9037 104.424C61.3284 104.639 61.49 105.289 61.1502 105.625C62.0528 104.799 63.51 104.66 64.5508 105.3C64.8189 105.464 65.0737 105.681 65.3851 105.717C65.9547 105.787 66.5408 105.239 67.0554 105.496C67.5833 105.757 67.6799 106.728 68.2661 106.671C68.6142 106.638 68.8806 106.203 69.2153 106.301C69.257 106.584 69.2986 106.865 69.3402 107.148C70.2662 107.055 71.4185 106.761 71.5701 105.841C71.5967 105.677 71.5868 105.505 71.6434 105.348C71.7233 105.123 71.9265 104.97 72.1113 104.821C72.8341 104.242 73.4819 103.494 73.6667 102.586C73.8516 101.678 73.4469 100.605 72.5826 100.271C72.3578 100.072 72.576 99.7068 72.8091 99.5199C73.0423 99.333 73.3287 99.0618 73.2021 98.7905C73.1255 98.6251 72.924 98.5573 72.8091 98.415C72.5044 98.0363 72.959 97.3913 72.6592 97.0076C72.5243 96.8339 72.2845 96.7876 72.0947 96.6751C71.5385 96.3443 71.5435 95.4777 71.9381 94.9633C72.3328 94.449 72.9723 94.2025 73.5801 93.9792C74.1746 93.7609 74.7692 93.5409 75.3637 93.3226C75.8283 93.1506 76.3779 92.8711 76.3879 92.3733C76.3945 92.0193 76.1364 91.581 76.4162 91.366C76.576 91.2436 76.8059 91.3065 77.0024 91.2602C77.4753 91.1477 77.5469 90.5109 77.5136 90.0247C77.4903 89.6724 77.467 89.3185 77.4437 88.9662C77.4337 88.8123 77.4237 88.6552 77.4753 88.5097C77.5752 88.2252 77.8717 88.073 78.1082 87.8861C78.343 87.6992 78.5428 87.3618 78.3746 87.1121C77.5702 87.1468 76.7659 87.1815 75.9632 87.2163C75.6068 87.2312 75.2288 87.2411 74.9207 87.0592C74.6143 86.8772 74.4394 86.4274 74.6676 86.1528C74.4728 86.0866 74.2779 86.0205 74.0847 85.9543C74.0964 85.5012 74.1097 85.0497 74.1214 84.5965C74.1247 84.4658 74.1297 84.3302 74.1913 84.2161C74.2579 84.092 74.3795 84.0093 74.4978 83.9316C74.8774 83.6818 75.2554 83.4321 75.6351 83.1824C75.5602 83.5958 75.795 84.0441 76.1764 84.2194C76.5261 84.2425 76.5893 83.705 76.4228 83.3974C76.2546 83.0897 75.9848 82.754 76.1281 82.4348C76.1797 82.319 76.2813 82.2313 76.3412 82.1189C76.641 81.5549 75.77 80.9314 75.9466 80.3178C75.2904 80.1458 74.6326 79.9721 73.9765 79.8001C73.8266 79.5537 73.6518 79.3221 73.4636 79.1038C71.6034 79.5189 69.6717 79.7438 67.6849 79.7438C67.5284 79.7438 67.3752 79.7356 67.2187 79.7323C67.172 80.2318 67.2303 80.7726 67.3135 81.2605C67.6266 80.9992 67.9414 80.7362 68.2545 80.4749C68.1812 81.4524 68.2845 82.4431 68.5609 83.3841C68.6325 83.6289 68.7124 83.9101 68.5742 84.1251C68.4427 84.3302 68.1645 84.3897 68.003 84.5716C67.52 85.1141 68.456 86.0056 68.1212 86.6507C67.3985 86.6788 66.7923 85.6451 66.1512 85.9792C65.9996 86.0586 65.8864 86.2057 65.7232 86.2554C65.3602 86.3645 65.0554 85.9097 65.0854 85.531C65.1154 85.1522 65.3302 84.8098 65.3735 84.4327C65.4384 83.8787 65.1337 83.3577 65.0155 82.8119C64.9039 82.2942 64.9588 81.7418 64.7723 81.2473C64.5841 80.7528 63.9913 80.3393 63.5367 80.6105C63.5333 80.1474 63.3568 79.6959 63.072 79.3337C58.8537 78.5927 54.9769 76.8577 51.6962 74.3719C51.6413 74.4099 51.5846 74.448 51.5364 74.4943C51.0851 74.9441 51.1317 75.6685 51.1284 76.3069C51.125 76.9437 50.9369 77.7145 50.3257 77.8931C49.7928 77.4829 49.8894 76.565 49.3481 76.1664C49.0933 75.9795 48.7486 75.953 48.4888 75.7728C48.0725 75.485 47.9959 74.9127 47.9559 74.4099C47.891 73.5912 47.8727 72.6452 48.4822 72.0944C48.5838 72.0018 48.702 71.9257 48.8269 71.853C44.0908 67.0549 67.6983 69.7839 67.6983 62.5033C67.6983 57.4654 66.5242 54.9614 65.5766 53.845C66.7257 54.2436 68.829 54.6471 72.3894 54.6471C81.2989 54.6471 84.4663 31.029 89.2741 37.7803C89.7637 37.2891 90.5014 37.0427 91.1808 37.1899C93.3124 37.6563 93.4757 40.8798 95.3325 42.0293C96.1601 42.0127 96.9878 41.9945 97.8155 41.978C98.2101 42.7421 99.1427 43.1159 99.9987 43.0481C101.179 42.9538 102.282 42.0342 102.465 40.8633C102.648 39.6923 101.784 38.4188 100.61 38.2749C100.244 38.2302 99.8621 38.2831 99.5091 38.1723C99.156 38.0615 98.8397 37.6861 98.9745 37.3404C99.5874 36.5052 100.936 36.8178 101.741 37.4661C102.547 38.1161 103.194 39.0373 104.187 39.3317C104.722 37.8978 106.96 37.5256 107.191 36.0123C107.249 35.6286 107.16 35.2167 107.309 34.8578C107.636 34.0772 108.896 33.973 109.1 33.151C109.185 32.8036 109.04 32.4447 108.995 32.0892C108.905 31.368 109.283 30.6155 109.909 30.2583Z" fill="#C0B0D3"/>
<path d="M92.6849 42.251C92.3618 42.0012 91.9854 41.8425 91.5957 41.7085C92.3484 43.2781 92.9479 44.9337 93.3826 46.6571C93.6041 46.5082 93.8139 46.3395 94.0071 46.1394C93.9521 44.722 93.8039 43.116 92.6849 42.251Z" fill="#C0B0D3"/>
<path d="M46.723 45.54C46.7712 45.5598 46.8229 45.5797 46.8745 45.573C46.9295 45.5664 46.9778 45.535 47.0294 45.5185C47.2126 45.4606 47.3941 45.6012 47.544 45.7219C47.6939 45.8426 47.9053 45.9568 48.0669 45.8509C48.2218 45.75 48.2118 45.5168 48.1418 45.3465C48.0719 45.1761 47.957 45.014 47.9603 44.8288C47.962 44.7444 47.9869 44.6617 48.0002 44.5774C48.0435 44.278 47.8887 43.9605 47.6256 43.81C47.3641 43.6595 47.0111 43.6876 46.7763 43.8778C46.8878 44.0233 47.0044 44.1788 47.0244 44.3607C47.046 44.5426 46.9278 44.7544 46.7446 44.7643C46.6114 44.7725 46.4965 44.6766 46.3683 44.6452C46.1784 44.5972 45.9636 44.7047 45.8887 44.885C46.1035 45.1711 46.3949 45.3994 46.723 45.54Z" fill="#C0B0D3"/>
<path d="M93.9482 13.9603C94.7309 15.2801 96.6261 15.7862 97.96 15.032C98.0366 14.989 98.1115 14.941 98.1681 14.8749C98.4379 14.5639 98.1715 14.0909 97.91 13.7734C96.6694 13.1746 95.1273 13.2458 93.9482 13.9603Z" fill="#C0B0D3"/>
<path d="M86.4626 8.77309C87.1404 8.85413 87.8181 8.93683 88.4959 9.01953C88.8373 9.06087 89.297 9.32218 89.1154 9.61328C88.6358 9.52066 88.2412 10.1111 88.3577 10.5858C88.4726 11.0605 88.9106 11.3863 89.3553 11.5914C92.2629 12.9294 95.78 10.6751 98.8209 11.6675C100.441 12.1967 101.669 13.5761 103.271 14.1533C103.93 14.3915 104.791 14.6611 104.826 15.3623C104.834 15.541 104.781 15.7179 104.783 15.8982C104.791 16.449 105.341 16.8575 105.882 16.9501C106.425 17.0427 106.978 16.9137 107.527 16.884C108.666 16.8211 109.824 17.1982 110.706 17.9193C110.953 18.136 110.535 18.4453 110.303 18.6785C109.785 19.1978 110.368 20.1554 111.089 20.2828C111.81 20.4101 112.513 20.0463 113.201 19.7899C114.473 19.3169 115.915 19.2061 117.184 19.6857C118.453 20.1654 119.511 21.2917 119.719 22.6347C119.751 22.8431 119.754 23.0812 119.609 23.2334C119.487 23.3591 119.299 23.3889 119.126 23.3988C117.452 23.4997 115.769 22.4709 115.093 20.9344C115.011 20.7508 114.933 20.5474 114.761 20.4449C114.673 20.3936 114.57 20.3738 114.468 20.3688C113.464 20.3291 112.963 21.7564 113.454 22.6347C113.945 23.5129 114.966 23.9231 115.91 24.2721C117.029 24.6839 118.155 25.0974 119.333 25.2843C120.768 25.5109 122.232 25.3934 123.681 25.2744C126.324 25.0577 128.98 24.8394 131.549 24.1828C131.151 23.6337 130.753 23.0862 130.354 22.5371C129.711 21.6506 129.04 20.7393 128.092 20.1885C126.26 19.1251 123.739 19.613 122.104 18.2667C121.629 17.8763 121.256 17.3487 120.705 17.0808C120.303 16.8873 119.847 16.8509 119.403 16.8261C117.251 16.7004 115.091 16.7252 112.943 16.8988C112.213 16.9584 111.439 17.0262 110.783 16.6987C109.657 16.1364 109.356 14.6925 108.593 13.6902C107.967 12.8682 107.031 12.3539 106.123 11.8643C105.605 11.5848 105.089 11.3053 104.571 11.0257C104.24 10.8471 103.905 10.6668 103.542 10.5659C102.804 10.3625 102.012 10.5048 101.259 10.3642C100.558 10.2335 99.925 9.86467 99.3105 9.50246C98.1131 8.79789 96.9174 8.09167 95.7201 7.3871C95.3337 7.15886 94.9324 6.9273 94.4861 6.8843C93.5419 6.79334 92.6209 7.57069 91.7116 7.30606C91.3819 7.21013 91.1072 6.9885 90.8174 6.80657C89.2453 5.82248 87.0038 6.09537 85.7115 7.42844C85.54 7.60541 85.3751 7.82374 85.3885 8.07183C85.4134 8.53989 85.9997 8.71685 86.4626 8.77309Z" fill="#C0B0D3"/>
<path d="M153.221 101.242C152.984 100.653 152.741 100.051 152.316 99.5812C151.93 99.1528 151.419 98.8601 150.949 98.526C149.424 97.441 148.278 95.8334 147.749 94.0356C148.366 93.7114 148.643 92.982 148.788 92.3006C149.096 90.8567 149.202 88.4635 148.706 86.4986C148.163 84.3518 146.902 82.7178 144.398 83.3926C144.116 83.4686 143.83 83.5596 143.539 83.5397C142.399 83.462 141.49 81.7882 140.501 82.3588C139.635 81.9569 140.433 80.4981 139.903 79.7026C139.665 79.3454 139.154 79.1155 139.172 78.6855C139.182 78.4423 139.374 78.2472 139.465 78.0206C139.705 77.4235 139.149 76.7388 138.516 76.6379C137.882 76.537 137.255 76.8545 136.742 77.2415C136.23 77.6286 135.77 78.0983 135.194 78.3811C136.319 79.5654 136.812 81.3218 136.464 82.9195C135.365 82.9824 134.161 83.0121 133.289 82.339C133.089 82.1851 132.902 81.9916 132.657 81.9321C132.446 81.8808 132.224 81.9387 132.02 82.0132C130.811 82.4564 129.911 83.467 129.065 84.4412C129 84.5172 128.935 84.595 128.874 84.676C128.348 83.5364 127.48 82.5556 126.406 81.9073C125.58 82.0132 125.208 83.0502 125.338 83.8722C125.468 84.6942 125.911 85.45 125.993 86.2787C125.636 87.2247 123.949 86.4292 123.272 87.1767C122.925 87.5571 123.029 88.1757 123.295 88.6156C123.561 89.0556 123.959 89.4079 124.209 89.8578C123.563 90.8931 122.917 91.9301 122.271 92.9655C122.141 92.5305 121.938 92.026 121.495 91.9351C120.89 91.8127 120.492 92.5487 120.367 93.154C120.244 93.7594 120.053 94.5136 119.445 94.626C119.691 95.3935 120.965 94.9436 121.59 95.453C122.064 95.8417 121.948 96.5744 121.989 97.1863C122.031 97.7983 122.647 98.5177 123.137 98.1489C123.357 97.9835 123.403 97.6809 123.445 97.408C123.751 95.3521 124.611 93.3823 125.91 91.7598C126.274 91.3033 126.697 90.817 126.699 90.2315C126.701 89.732 126.391 89.221 126.577 88.7562C126.837 88.1095 127.728 88.1674 128.391 87.9011C128.251 88.1773 128.076 88.4337 127.861 88.657C127.503 89.0275 127.035 89.3335 126.874 89.823C126.684 90.3986 126.975 91.085 126.674 91.6093C126.519 91.8772 126.239 92.0442 126.013 92.2559C125.352 92.8762 125.185 93.847 125.054 94.7434C124.782 96.6074 124.524 98.5773 125.24 100.317C125.623 101.25 126.276 102.08 126.469 103.069C125.948 103.473 125.202 103.046 124.731 102.585C124.258 102.125 123.681 101.571 123.047 101.746C122.554 101.882 122.124 102.444 121.655 102.244C122.001 100.908 121.303 99.3745 120.068 98.7609C119.76 98.6385 119.555 98.2944 119.596 97.9653C118.88 97.9438 118.554 98.8336 118.412 99.5365C118.271 100.239 117.859 101.119 117.152 101.005C116.914 100.967 116.699 100.808 116.459 100.82C115.921 100.845 115.761 101.611 115.288 101.865C114.904 102.072 114.397 101.897 114.013 102.102C113.718 102.259 113.57 102.601 113.306 102.808C112.664 103.317 111.738 102.831 111.067 102.36C110.395 101.888 109.44 101.435 108.83 101.986C108.34 102.428 108.437 103.243 108.052 103.779C107.576 104.44 106.432 104.598 106.322 105.406C105.826 104.935 104.93 105 104.505 105.535C104.52 106.458 104.82 107.373 105.353 108.125C104.855 108.661 104.235 109.083 103.556 109.351C103.846 110.097 104.209 110.813 104.64 111.486C103.979 111.91 104.177 113.049 103.543 113.514C103.173 113.785 102.663 113.714 102.217 113.817C101.771 113.919 101.326 114.437 101.613 114.794C101.534 115.426 100.447 115.793 100.042 115.303C99.6376 114.812 99.5093 114.116 99.0314 113.696C98.3286 113.077 97.2195 113.324 96.3586 112.955C96.0921 112.841 95.849 112.667 95.5675 112.596C94.6683 112.371 93.8539 113.325 93.7607 114.25C93.6691 115.173 94.0338 116.073 94.1886 116.987C94.3435 117.902 94.2053 119 93.4209 119.493C93.0296 119.738 92.5167 119.804 92.2186 120.158C91.6124 120.874 92.3901 121.903 92.555 122.827C92.6666 123.454 92.4734 124.092 92.2802 124.699C91.9571 125.722 91.341 126.96 90.2718 126.886C89.4292 126.826 88.9096 125.947 88.6298 125.148C88.3501 124.349 88.0953 123.436 87.3575 123.021C86.017 122.268 84.32 123.775 82.8628 123.284C82.9794 123.608 83.096 123.934 83.2142 124.258C82.5448 124.418 82.3749 125.311 82.5081 125.988C82.6413 126.664 82.9344 127.376 82.6796 128.017C82.3765 128.785 81.454 129.064 80.6496 129.248C80.9111 130.128 80.9594 131.07 80.7879 131.972C81.0943 132.288 80.4165 133.098 79.9835 133.176C79.5505 133.254 79.1176 133.065 78.6796 133.03C77.7703 132.958 76.8594 133.639 76.6729 134.534C77.5721 134.788 78.4698 135.045 79.369 135.3C79.6854 135.389 80.0201 135.48 80.3415 135.405C80.6746 135.328 80.9394 135.084 81.2008 134.863C83.2841 133.096 86.5182 132.296 88.7347 133.892C89.1827 134.215 89.639 134.643 90.1885 134.592C90.5449 134.559 90.8447 134.325 91.1245 134.1C92.052 133.354 93.0679 132.423 93.0162 131.232C93.0029 130.918 92.913 130.599 92.9879 130.293C93.1545 129.608 93.9972 129.382 94.5151 128.905C95.7391 127.779 94.8731 125.763 93.9522 124.377C95.1012 123.667 96.2486 122.958 97.3977 122.248C97.6975 122.063 98.0189 121.871 98.3719 121.876C98.7349 121.881 99.058 122.091 99.3911 122.237C101.374 123.102 103.573 121.641 105.101 120.106C106.319 121.674 108.662 122.238 110.459 121.398C111.175 121.889 111.15 123.027 110.637 123.729C110.124 124.43 109.286 124.802 108.489 125.144C108.998 125.851 109.525 126.596 109.638 127.46C109.751 128.323 109.293 129.329 108.444 129.516C108.609 129.815 108.775 130.114 108.94 130.414C109.631 130.3 110.366 130.257 111.007 130.541C111.646 130.826 112.147 131.524 112.002 132.21C110.85 132.847 109.436 132.37 108.162 132.036C106.89 131.701 105.268 131.646 104.542 132.746C104.062 133.877 103.226 134.853 102.181 135.498C102.643 134.734 102.505 133.657 101.866 133.035C100.938 132.504 99.8691 133.439 99.2529 134.312C98.6367 135.185 97.7558 136.221 96.7316 135.915C96.3719 135.807 96.0521 135.534 95.6775 135.551C95.2828 135.567 94.983 135.895 94.7315 136.201C94.1353 136.922 93.5159 137.765 93.6325 138.695C93.749 139.623 95.0929 140.298 95.6425 139.54C95.3877 138.621 95.2561 137.39 96.0988 136.945C96.9964 136.472 98.0705 137.641 97.8423 138.632C97.6142 139.623 96.615 140.241 95.6408 140.524C94.6666 140.807 93.6224 140.868 92.7015 141.3C92.3185 141.479 91.9571 142.046 92.3285 142.249C92.6898 142.459 93.1378 142.521 93.5425 142.416C93.8423 143.2 93.5675 144.166 92.903 144.676C92.2369 145.185 91.2361 145.195 90.5599 144.699C89.1211 143.645 89.6673 141.262 88.6048 139.828C88.1669 139.236 87.4558 138.855 86.7214 138.817C85.1976 138.738 83.9437 140.038 83.2459 141.398C83.091 141.699 82.9444 142.018 82.6796 142.228C82.0868 142.698 81.2325 142.421 80.4981 142.239C79.7637 142.059 78.7562 142.153 78.563 142.884C80.1284 144.763 82.1668 146.242 84.4366 147.147C84.6531 147.233 84.8912 147.33 84.9994 147.539C85.1227 147.777 85.0278 148.063 85.0111 148.329C84.9645 149.063 85.514 149.685 86.0269 150.215C86.5282 150.732 87.0744 151.273 87.7788 151.424C88.4833 151.574 89.3592 151.124 89.3676 150.403C89.3842 149.075 86.8713 148.858 86.9196 147.53C87.8505 147.074 89.0029 147.105 89.9071 147.611C90.9746 149.689 94.0771 150.342 95.8889 148.872C96.6783 148.23 97.2628 147.261 98.2387 146.975C99.7908 146.521 101.153 148.022 102.622 148.698C104.497 149.561 106.685 149.062 108.685 148.547C110.379 148.112 112.071 147.676 113.764 147.241C112.812 147.122 111.859 147.003 110.907 146.882C112.465 146.435 113.949 145.726 115.277 144.793C115.207 144.004 114.53 143.311 113.744 143.222C115.901 142.795 116.492 139.849 118.376 138.713C118.975 138.351 119.695 138.186 120.226 137.727C120.989 137.071 121.187 135.966 121.157 134.96C121.087 132.617 119.996 130.321 118.224 128.788C119.591 129.38 121.115 129.608 122.596 129.441C122.582 130.346 123.24 131.629 123.991 131.125C124.208 130.979 124.312 130.718 124.406 130.473C124.832 129.342 125.258 128.211 125.686 127.078C126.001 126.241 126.338 125.373 126.99 124.762C128.078 123.745 129.86 123.616 130.736 122.412C130.604 122.943 131.3 123.375 131.821 123.211C132.343 123.047 132.669 122.539 132.924 122.056C133.558 120.856 133.795 118.975 132.528 118.492C131.388 118.059 129.602 119.068 129.149 117.935C129.03 117.639 129.092 117.305 129.169 116.997C129.961 113.793 132.291 111.01 135.304 109.67C136.313 109.222 137.59 108.663 137.595 107.556C138.308 107.664 138.832 108.461 138.653 109.161C139.432 109.262 140.248 109.047 140.876 108.574C140.34 108.197 140.498 107.318 140.949 106.842C141.399 106.366 142.04 106.114 142.528 105.676C143.907 104.44 144.091 101.799 145.917 101.506C147.301 102.052 147.119 104.077 146.536 105.448C145.953 106.819 145.272 108.562 146.295 109.644C146.708 108.686 147.569 107.934 148.571 107.651C147.637 108.823 147.475 110.562 148.178 111.886C148.859 110.323 150.112 109.015 151.644 108.271C151.559 107.838 151.472 107.404 151.387 106.971C152.6 107.252 153.762 106.091 153.965 104.861C154.157 103.628 153.684 102.398 153.221 101.242Z" fill="#C0B0D3"/>
<path d="M118.777 146.751C119.833 147.059 121.048 146.728 121.806 145.929C121.939 145.788 122.066 145.621 122.083 145.428C122.099 145.234 121.964 145.016 121.77 145.011C120.84 145.716 119.263 145.317 118.589 146.268C118.527 146.356 118.476 146.465 118.512 146.566C118.549 146.67 118.669 146.72 118.777 146.751Z" fill="#C0B0D3"/>
<path d="M113.625 148.504C113.45 148.517 113.292 148.607 113.13 148.676C112.494 148.949 111.765 148.917 111.115 149.156C110.696 149.311 110.324 149.574 109.96 149.834C109.274 150.323 108.587 150.811 107.901 151.301C109.402 150.983 110.902 150.666 112.401 150.35C112.787 150.269 113.177 150.186 113.537 150.022C114.14 149.748 114.623 149.261 115.202 148.941C114.822 148.822 114.444 148.702 114.065 148.583C113.921 148.539 113.775 148.494 113.625 148.504Z" fill="#C0B0D3"/>
<path d="M129.836 26.1624C129.713 25.7688 129.306 25.5174 128.898 25.4628C128.49 25.4082 128.079 25.5157 127.686 25.6398C126.505 26.0102 125.373 26.5312 124.324 27.1878C124.057 27.3549 123.794 27.5335 123.594 27.775C123.067 28.4117 123.092 29.3264 123.145 30.1533C123.984 30.1285 124.825 30.1021 125.664 30.0773C125.898 30.0706 126.131 30.0624 126.361 30.1004C126.813 30.1765 127.217 30.4213 127.643 30.5916C128.191 30.8116 128.787 30.9092 129.376 30.8761C129.66 30.6098 129.588 30.1368 129.415 29.7895C129.242 29.4422 128.985 29.1147 128.955 28.7277C128.88 27.7981 130.114 27.0506 129.836 26.1624Z" fill="#C0B0D3"/>
<path d="M126.617 39.3053C127.208 39.3235 127.784 39.4856 128.37 39.5649C128.956 39.6443 129.586 39.6311 130.096 39.3317C130.607 39.0324 130.943 38.3757 130.72 37.8266C130.544 37.3917 130.092 37.1436 129.674 36.9319C129.315 36.7499 128.955 36.5664 128.595 36.3844C128.359 36.2653 128.107 36.1297 127.991 35.8915C127.787 35.4781 128.087 35.0001 128.389 34.6511C128.69 34.3021 129.03 33.8754 128.905 33.4305C128.837 33.1874 128.64 33.0054 128.445 32.845C127.851 32.3555 127.186 31.9502 126.478 31.6443C126.2 31.5235 125.911 31.4177 125.609 31.4044C125.21 31.3862 124.823 31.5318 124.45 31.6757C123.856 31.9039 123.261 32.1322 122.665 32.3604C122.3 32.4993 121.899 32.6747 121.754 33.0385C121.609 33.4007 121.994 33.9151 122.33 33.72C122.623 34.4526 121.799 35.1324 121.604 35.8982C121.463 36.4506 121.664 37.0278 121.862 37.5637C122.134 38.2964 122.475 39.1051 123.194 39.4061C123.414 39.4988 123.652 39.5335 123.891 39.5451C124.805 39.5864 125.704 39.2755 126.617 39.3053Z" fill="#C0B0D3"/>
<path d="M138.857 28.3411C139.048 28.4866 139.251 28.6371 139.491 28.6719C139.729 28.7049 140.011 28.5726 140.052 28.3361C140.084 28.1625 139.984 27.9954 139.891 27.8482C139.658 27.481 139.423 27.1122 139.19 26.745C138.983 26.4225 138.772 26.0901 138.464 25.8618C138.157 25.6336 137.729 25.5261 137.386 25.6931C137.206 26.2058 137.37 26.7864 137.679 27.2329C137.986 27.6778 138.425 28.0136 138.857 28.3411Z" fill="#C0B0D3"/>
<path d="M143.616 34.5287C143.958 34.7669 144.369 34.9141 144.649 35.2234C144.835 35.4301 144.945 35.6914 145.075 35.9378C145.461 36.6738 146.046 37.3057 146.747 37.7506C146.807 37.256 146.774 36.7483 146.649 36.2653C146.602 36.0817 146.539 35.8965 146.416 35.7543C146.264 35.5773 146.038 35.4863 145.833 35.3755C145.368 35.1241 144.975 34.7421 144.71 34.2856C144.594 34.0871 144.502 33.8721 144.366 33.6869C143.981 33.1642 143.307 32.9327 142.869 32.453C142.675 32.2397 142.532 31.9816 142.317 31.7898C142.103 31.5979 141.776 31.4822 141.526 31.6261C141.838 32.1288 142.149 32.6316 142.461 33.1328C142.782 33.6488 143.117 34.1814 143.616 34.5287Z" fill="#C0B0D3"/>
<path d="M139.131 121.292C138.943 121.163 138.707 121.07 138.492 121.143C138.277 121.216 138.147 121.522 138.305 121.684C137.972 121.851 137.579 121.814 137.21 121.872C136.84 121.93 136.435 122.155 136.41 122.529C136.402 122.653 136.439 122.782 136.4 122.901C136.324 123.141 135.984 123.237 135.947 123.486C135.917 123.683 136.117 123.857 136.317 123.867C136.515 123.878 136.702 123.776 136.868 123.665C137.211 123.435 137.541 123.147 137.947 123.08C138.355 123.01 138.857 123.298 138.813 123.708C139.33 123.645 139.788 123.238 139.911 122.732C139.901 122.165 139.601 121.613 139.131 121.292Z" fill="#C0B0D3"/>
<path d="M131.028 60.5245C130.941 61.1894 131.118 61.8559 131.292 62.5026C131.446 63.0666 131.599 63.6306 131.752 64.1962C131.895 64.7238 132.105 65.3275 132.621 65.5078C132.906 65.607 133.224 65.5492 133.519 65.6137C134.157 65.7526 134.596 66.4373 135.248 66.4919C135.999 66.5547 136.54 65.7278 136.611 64.9769C136.681 64.2243 136.47 63.4619 136.583 62.7143C136.72 61.8146 137.424 60.9744 138.328 60.8718C138.648 60.8355 138.989 60.8851 139.276 60.7379C139.672 60.5344 139.805 60.0432 139.899 59.6066C140.05 58.8954 140.199 58.1379 139.944 57.4565C139.702 56.8131 139.128 56.3202 138.973 55.6504C138.44 55.4403 137.825 55.8522 137.606 56.3814C137.386 56.9107 137.454 57.511 137.524 58.08C137.482 57.7426 136.23 58.7052 136.137 58.768C135.161 59.4197 134.523 59.6595 133.477 59.4031C132.342 59.1269 131.251 58.8325 131.028 60.5245Z" fill="#C0B0D3"/>
<path d="M123.486 83.3673C123.822 83.106 123.967 82.671 124.057 82.2559C124.245 81.3826 124.257 80.4481 123.927 79.6178C123.347 78.1541 121.647 77.2312 120.105 77.5438C119.689 77.6282 119.227 77.7837 118.868 77.5604C118.551 77.3636 118.446 76.9467 118.168 76.7003C117.682 76.2736 116.906 76.5349 116.401 76.9401C115.897 77.347 115.462 77.8928 114.836 78.0582C114.593 77.5306 113.955 77.2197 113.39 77.3536C112.826 77.4876 112.396 78.0532 112.416 78.6337C112.443 79.3863 113.099 79.9437 113.424 80.6234C113.827 81.4669 113.689 82.499 113.239 83.3177C112.789 84.1364 112.063 84.7699 111.291 85.2958C111.081 85.438 110.859 85.5819 110.723 85.7969C110.476 86.1872 110.576 86.695 110.693 87.1416C110.981 88.2481 111.321 89.3396 111.707 90.4163C112.308 90.0508 113.024 90.6992 113.336 91.331C113.645 91.9628 113.957 92.7484 114.649 92.8708C115.359 92.9948 116.175 92.3233 116.743 92.7682C116.924 92.9105 117.033 93.147 117.246 93.238C117.431 93.3174 117.644 93.2628 117.829 93.185C119.374 92.5466 119.909 90.2559 118.806 88.9989C119.277 88.0843 120.028 87.3169 120.933 86.8257C121.171 86.6967 121.429 86.5776 121.589 86.3592C122.035 85.7506 121.474 84.7814 121.917 84.1695C122.265 83.6849 123.014 83.7328 123.486 83.3673Z" fill="#C0B0D3"/>
<path d="M126.224 55.0237C125.598 50.9022 122.319 45.937 117.131 45.077C113.496 43.9507 109.259 45.8329 107.387 49.149C105.516 52.4668 105.98 56.8679 108.258 59.9177C110.536 62.9692 114.425 64.643 118.227 64.5305C120.602 64.4611 123.066 63.6672 124.615 61.8611C126.187 60.0302 126.587 57.4137 126.224 55.0237Z" fill="#C0B0D3"/>
</svg>
