<svg width="24" height="25" viewBox="0 0 24 25" fill="none" xmlns="http://www.w3.org/2000/svg">
    <g clip-path="url(#clip0_865_78881)">
        <path
            d="M8 19.5C8 20.6046 8.89543 21.5 10 21.5C11.1046 21.5 12 20.6046 12 19.5V11.5M12 11.5C13.1256 11.5 14.1643 11.8719 15 12.4996C15.8357 11.8719 16.8744 11.5 18 11.5C19.1258 11.5 20.1643 11.8721 21 12.5C21 11.1615 20.7078 9.89123 20.1837 8.74952M12 11.5C10.8744 11.5 9.83566 11.8719 9 12.4996C8.16434 11.8719 7.12561 11.5 6 11.5C4.87439 11.5 3.83566 11.8723 3 12.5C3 7.52944 7.02944 3.5 12 3.5C12.4557 3.5 12.9034 3.53386 13.3409 3.5992"
            stroke="#ffffff" stroke-width="2" stroke-linecap="round" stroke-linejoin="round" />
        <path
            d="M15.0253 3.26802C15.4158 3.65854 16.049 3.65854 16.4395 3.26802C16.83 2.87749 16.83 2.24433 16.4395 1.85381C16.049 1.46328 15.4158 1.46328 15.0253 1.85381C14.6348 2.24433 14.6348 2.87749 15.0253 3.26802Z"
            fill="#ffffff" />
        <path d="M15.5 6.32861L19.5 2.32861" stroke="#ffffff" stroke-width="1.5" stroke-linecap="round"
            stroke-linejoin="round" />
        <path
            d="M18.5605 6.80342C18.951 7.19394 19.5842 7.19394 19.9747 6.80342C20.3652 6.41289 20.3652 5.77973 19.9747 5.38921C19.5842 4.99868 18.951 4.99868 18.5605 5.38921C18.1699 5.77973 18.1699 6.41289 18.5605 6.80342Z"
            fill="#ffffff" />
    </g>
    <defs>
        <clipPath id="clip0_865_78881">
            <rect width="24" height="24" fill="white" transform="translate(0 0.5)" />
        </clipPath>
    </defs>
</svg>