<svg width="25" height="24" viewBox="0 0 25 24" fill="none" xmlns="http://www.w3.org/2000/svg">
<path d="M12.499 2V4M5.4292 4.92993L6.8392 6.33993M20.499 12H22.499M19.5692 4.92993L18.1592 6.33993M16.446 12.6501C16.5691 11.9046 16.4785 11.1395 16.1847 10.4433C15.8909 9.74717 15.406 9.14847 14.786 8.71654C14.166 8.28461 13.4364 8.03711 12.6816 8.00269C11.9268 7.96827 11.1777 8.14835 10.521 8.52206M13.499 22H7.49898C6.55295 21.9998 5.62639 21.7312 4.82691 21.2255C4.02742 20.7197 3.38783 19.9975 2.98241 19.1427C2.57699 18.288 2.42238 17.3358 2.53654 16.3966C2.6507 15.4575 3.02895 14.5701 3.62734 13.8373C4.22574 13.1046 5.01973 12.5567 5.9171 12.2572C6.81448 11.9577 7.7784 11.9189 8.69692 12.1454C9.61545 12.3718 10.4509 12.8542 11.1062 13.5366C11.7615 14.2189 12.2098 15.0731 12.399 16H13.499C14.2946 16 15.0577 16.3161 15.6203 16.8787C16.1829 17.4413 16.499 18.2044 16.499 19C16.499 19.7956 16.1829 20.5587 15.6203 21.1213C15.0577 21.6839 14.2946 22 13.499 22Z" stroke="#BFBFBF" stroke-width="2" stroke-linecap="round" stroke-linejoin="round"/>
</svg>
