<svg width="37" height="34" viewBox="0 0 37 34" fill="none" xmlns="http://www.w3.org/2000/svg">
<path d="M20.75 0C16.1885 0.00878906 12.0752 2.77734 10.3525 7.00488C9.71094 6.83789 9.04297 6.75 8.375 6.75C4.02441 6.75 0.5 10.2744 0.5 14.625C0.5 18.9756 4.02441 22.5 8.375 22.5H30.875C33.9775 22.5 36.5 19.9775 36.5 16.875C36.5 14.2031 34.6104 11.8916 31.9912 11.3643C31.9912 11.3291 32 11.2852 32 11.25C32 5.03613 26.9639 0 20.75 0ZM10.7832 24.75C9.69336 24.6797 8.70899 25.3916 8.43652 26.4551L7.31152 30.9551C7.01269 32.1592 7.75098 33.3809 8.95508 33.6797C10.1592 33.9873 11.3809 33.249 11.6797 32.0449L12.8047 27.5449C13.1123 26.3408 12.374 25.1191 11.1699 24.8203C11.0469 24.7852 10.915 24.7676 10.7832 24.75ZM18.6582 24.75C17.5684 24.6797 16.584 25.3916 16.3115 26.4551L15.1865 30.9551C14.8877 32.1592 15.626 33.3809 16.8301 33.6797C18.0342 33.9873 19.2559 33.249 19.5547 32.0449L20.6797 27.5449C20.9873 26.3408 20.249 25.1191 19.0449 24.8203C18.9219 24.7852 18.79 24.7676 18.6582 24.75ZM26.5332 24.75C25.4434 24.6797 24.459 25.3916 24.1865 26.4551L23.0615 30.9551C22.7627 32.1592 23.501 33.3809 24.7051 33.6797C25.9092 33.9873 27.1309 33.249 27.4297 32.0449L28.5547 27.5449C28.8623 26.3408 28.124 25.1191 26.9199 24.8203C26.7969 24.7852 26.665 24.7676 26.5332 24.75Z" fill="#0062F5"/>
</svg>
