<svg width="37" height="37" viewBox="0 0 37 37" fill="none" xmlns="http://www.w3.org/2000/svg">
<path d="M20.7407 3.61685C20.4324 3.19926 20.0304 2.85987 19.567 2.62599C19.1036 2.39211 18.5917 2.27026 18.0727 2.27026C17.5536 2.27026 17.0418 2.39211 16.5784 2.62599C16.115 2.85987 15.713 3.19926 15.4047 3.61685C14.9937 4.17373 14.4187 4.58804 13.7603 4.80174C13.102 5.01545 12.3934 5.01782 11.7336 4.80853C11.2386 4.65183 10.7137 4.61355 10.2012 4.69677C9.6887 4.77999 9.20292 4.98238 8.78287 5.28765C8.36289 5.59292 8.02044 5.99255 7.78312 6.45435C7.54578 6.91615 7.42019 7.42723 7.41646 7.94645C7.41115 8.63823 7.18964 9.31107 6.78293 9.8707C6.37621 10.4303 5.80467 10.8487 5.14831 11.0674C4.65566 11.2315 4.20841 11.5089 3.84259 11.8775C3.47677 12.246 3.20261 12.6953 3.04216 13.1891C2.88171 13.683 2.83948 14.2076 2.91886 14.7208C2.99824 15.234 3.197 15.7213 3.49916 16.1436C3.90168 16.7064 4.11809 17.381 4.11809 18.0729C4.11809 18.7648 3.90168 19.4394 3.49916 20.0021C3.197 20.4245 2.99824 20.9118 2.91886 21.425C2.83948 21.9381 2.88171 22.4628 3.04216 22.9566C3.20261 23.4505 3.47677 23.8998 3.84259 24.2683C4.20841 24.6369 4.65566 24.9143 5.14831 25.0784C5.80467 25.297 6.37621 25.7154 6.78293 26.2751C7.18964 26.8347 7.41115 27.5075 7.41646 28.1993C7.42013 28.7187 7.54574 29.2299 7.78313 29.6918C8.02052 30.1537 8.36312 30.5534 8.78326 30.8587C9.20339 31.164 9.68933 31.3664 10.202 31.4495C10.7146 31.5326 11.2397 31.4941 11.7348 31.3373C12.3943 31.1282 13.1028 31.1307 13.7609 31.3444C14.4189 31.5581 14.9937 31.9722 15.4047 32.5289C15.713 32.9465 16.115 33.2859 16.5784 33.5198C17.0418 33.7536 17.5536 33.8755 18.0727 33.8755C18.5917 33.8755 19.1036 33.7536 19.567 33.5198C20.0304 33.2859 20.4324 32.9465 20.7407 32.5289C21.1517 31.972 21.7266 31.5577 22.385 31.344C23.0433 31.1303 23.752 31.128 24.4118 31.3373C24.9068 31.4939 25.4317 31.5322 25.9441 31.449C26.4566 31.3658 26.9424 31.1634 27.3625 30.8581C27.7825 30.5529 28.1249 30.1532 28.3622 29.6914C28.5996 29.2296 28.7251 28.7185 28.7289 28.1993C28.7342 27.5075 28.9557 26.8347 29.3624 26.2751C29.7691 25.7154 30.3407 25.297 30.997 25.0784C31.4897 24.9143 31.937 24.6369 32.3028 24.2683C32.6686 23.8998 32.9428 23.4505 33.1032 22.9566C33.2636 22.4628 33.3059 21.9381 33.2265 21.425C33.1471 20.9118 32.9483 20.4245 32.6462 20.0021C32.2436 19.4394 32.0272 18.7648 32.0272 18.0729C32.0272 17.381 32.2436 16.7064 32.6462 16.1436C32.9483 15.7213 33.1471 15.234 33.2265 14.7208C33.3059 14.2076 33.2636 13.683 33.1032 13.1891C32.9428 12.6953 32.6686 12.246 32.3028 11.8775C31.937 11.5089 31.4897 11.2315 30.997 11.0674C30.3407 10.8487 29.7691 10.4303 29.3624 9.8707C28.9557 9.31107 28.7342 8.63823 28.7289 7.94645C28.7252 7.42709 28.5996 6.91588 28.3622 6.45397C28.1248 5.99205 27.7822 5.59235 27.3621 5.28706C26.942 4.98176 26.456 4.7794 25.9433 4.69628C25.4307 4.61317 24.9057 4.65162 24.4106 4.80853C23.751 5.01756 23.0426 5.01505 22.3845 4.80136C21.7264 4.58767 21.1517 4.1735 20.7407 3.61685Z" fill="#FF822D"/>
<path d="M20.7407 3.61685C20.4324 3.19926 20.0304 2.85987 19.567 2.62599C19.1036 2.39211 18.5917 2.27026 18.0727 2.27026C17.5536 2.27026 17.0418 2.39211 16.5784 2.62599C16.115 2.85987 15.713 3.19926 15.4047 3.61685C14.9937 4.17373 14.4187 4.58804 13.7603 4.80174C13.102 5.01545 12.3934 5.01782 11.7336 4.80853C11.2386 4.65183 10.7137 4.61355 10.2012 4.69677C9.6887 4.77999 9.20292 4.98238 8.78287 5.28765C8.36289 5.59292 8.02044 5.99255 7.78312 6.45435C7.54578 6.91615 7.42019 7.42723 7.41646 7.94645C7.41115 8.63823 7.18964 9.31107 6.78293 9.8707C6.37621 10.4303 5.80467 10.8487 5.14831 11.0674C4.65566 11.2315 4.20841 11.5089 3.84259 11.8775C3.47677 12.246 3.20261 12.6953 3.04216 13.1891C2.88171 13.683 2.83948 14.2076 2.91886 14.7208C2.99824 15.234 3.197 15.7213 3.49916 16.1436C3.90168 16.7064 4.11809 17.381 4.11809 18.0729C4.11809 18.7648 3.90168 19.4394 3.49916 20.0021C3.197 20.4245 2.99824 20.9118 2.91886 21.425C2.83948 21.9381 2.88171 22.4628 3.04216 22.9566C3.20261 23.4505 3.47677 23.8998 3.84259 24.2683C4.20841 24.6369 4.65566 24.9143 5.14831 25.0784C5.80467 25.297 6.37621 25.7154 6.78293 26.2751C7.18964 26.8347 7.41115 27.5075 7.41646 28.1993C7.42013 28.7187 7.54574 29.2299 7.78313 29.6918C8.02052 30.1537 8.36312 30.5534 8.78326 30.8587C9.20339 31.164 9.68933 31.3664 10.202 31.4495C10.7146 31.5326 11.2397 31.4941 11.7348 31.3373C12.3943 31.1282 13.1028 31.1307 13.7609 31.3444C14.4189 31.5581 14.9937 31.9722 15.4047 32.5289C15.713 32.9465 16.115 33.2859 16.5784 33.5198C17.0418 33.7536 17.5536 33.8755 18.0727 33.8755C18.5917 33.8755 19.1036 33.7536 19.567 33.5198C20.0304 33.2859 20.4324 32.9465 20.7407 32.5289C21.1517 31.972 21.7266 31.5577 22.385 31.344C23.0433 31.1303 23.752 31.128 24.4118 31.3373C24.9068 31.4939 25.4317 31.5322 25.9441 31.449C26.4566 31.3658 26.9424 31.1634 27.3625 30.8581C27.7825 30.5529 28.1249 30.1532 28.3622 29.6914C28.5996 29.2296 28.7251 28.7185 28.7289 28.1993C28.7342 27.5075 28.9557 26.8347 29.3624 26.2751C29.7691 25.7154 30.3407 25.297 30.997 25.0784C31.4897 24.9143 31.937 24.6369 32.3028 24.2683C32.6686 23.8998 32.9428 23.4505 33.1032 22.9566C33.2636 22.4628 33.3059 21.9381 33.2265 21.425C33.1471 20.9118 32.9483 20.4245 32.6462 20.0021C32.2436 19.4394 32.0272 18.7648 32.0272 18.0729C32.0272 17.381 32.2436 16.7064 32.6462 16.1436C32.9483 15.7213 33.1471 15.234 33.2265 14.7208C33.3059 14.2076 33.2636 13.683 33.1032 13.1891C32.9428 12.6953 32.6686 12.246 32.3028 11.8775C31.937 11.5089 31.4897 11.2315 30.997 11.0674C30.3407 10.8487 29.7691 10.4303 29.3624 9.8707C28.9557 9.31107 28.7342 8.63823 28.7289 7.94645C28.7252 7.42709 28.5996 6.91588 28.3622 6.45397C28.1248 5.99205 27.7822 5.59235 27.3621 5.28706C26.942 4.98176 26.456 4.7794 25.9433 4.69628C25.4307 4.61317 24.9057 4.65162 24.4106 4.80853C23.751 5.01756 23.0426 5.01505 22.3845 4.80136C21.7264 4.58767 21.1517 4.1735 20.7407 3.61685Z" fill="black" fill-opacity="0.2"/>
<path d="M7.83674 23.9827C11.1012 29.6362 18.3304 31.5734 23.9826 28.309C29.6361 25.0445 31.5732 17.8154 28.3088 12.1631C25.0444 6.50967 17.8152 4.57249 12.163 7.83687C6.50955 11.1013 4.57237 18.3305 7.83674 23.9827Z" fill="#FCD53F"/>
<path d="M7.83674 23.9827C11.1012 29.6362 18.3304 31.5734 23.9826 28.309C29.6361 25.0445 31.5732 17.8154 28.3088 12.1631C25.0444 6.50967 17.8152 4.57249 12.163 7.83687C6.50955 11.1013 4.57237 18.3305 7.83674 23.9827Z" fill="black" fill-opacity="0.2"/>
<path d="M20.1074 17.4861C20.1074 15.8873 21.4034 14.5913 23.0022 14.5913C24.601 14.5913 25.897 15.8873 25.897 17.4861V18.3467H20.1074V17.4861Z" fill="#FF822D"/>
<path d="M20.1074 17.4861C20.1074 15.8873 21.4034 14.5913 23.0022 14.5913C24.601 14.5913 25.897 15.8873 25.897 17.4861V18.3467H20.1074V17.4861Z" fill="black" fill-opacity="0.2"/>
<mask id="mask0_949_76790" style="mask-type:luminance" maskUnits="userSpaceOnUse" x="20" y="14" width="6" height="5">
<path d="M20.1074 17.4861C20.1074 15.8873 21.4034 14.5913 23.0022 14.5913C24.601 14.5913 25.897 15.8873 25.897 17.4861V18.3467H20.1074V17.4861Z" fill="white"/>
</mask>
<g mask="url(#mask0_949_76790)">
<path d="M25.897 18.8944H20.1074V17.7991H25.897V18.8944Z" fill="#282828"/>
</g>
<g filter="url(#filter0_i_949_76790)">
<path d="M18.0729 23.7059C19.0668 23.7059 19.8724 22.8302 19.8724 21.75C19.8724 20.6698 19.0668 19.7941 18.0729 19.7941C17.079 19.7941 16.2734 20.6698 16.2734 21.75C16.2734 22.8302 17.079 23.7059 18.0729 23.7059Z" fill="#8E4D21"/>
</g>
<path d="M10.249 17.4861C10.249 15.8873 11.545 14.5913 13.1438 14.5913C14.7426 14.5913 16.0386 15.8873 16.0386 17.4861V18.3467H10.249V17.4861Z" fill="#FF822D"/>
<path d="M10.249 17.4861C10.249 15.8873 11.545 14.5913 13.1438 14.5913C14.7426 14.5913 16.0386 15.8873 16.0386 17.4861V18.3467H10.249V17.4861Z" fill="black" fill-opacity="0.2"/>
<mask id="mask1_949_76790" style="mask-type:luminance" maskUnits="userSpaceOnUse" x="10" y="14" width="7" height="5">
<path d="M10.249 17.4861C10.249 15.8873 11.545 14.5913 13.1438 14.5913C14.7426 14.5913 16.0386 15.8873 16.0386 17.4861V18.3467H10.249V17.4861Z" fill="white"/>
</mask>
<g mask="url(#mask1_949_76790)">
<path d="M16.0386 18.8944H10.249V17.7991H16.0386V18.8944Z" fill="#282828"/>
</g>
<mask id="mask2_949_76790" style="mask-type:luminance" maskUnits="userSpaceOnUse" x="21" y="8" width="10" height="5">
<path d="M30.7245 8.37146L21.75 9.005L22.0064 12.6376L30.981 12.004L30.7245 8.37146Z" fill="white"/>
</mask>
<g mask="url(#mask2_949_76790)">
<path d="M22.9238 11.8679L24.4295 11.7615L24.4791 12.463L22.0061 12.6376L21.9601 11.9862L23.3031 9.71616L21.8073 9.82178L21.7578 9.12031L24.2307 8.94568L24.2767 9.59708L22.9238 11.8679ZM26.4819 11.6116L27.6885 11.5265L27.7384 12.2329L25.5795 12.3853L25.5314 11.7039L26.5887 10.2143L25.4419 10.2953L25.392 9.58879L27.516 9.43889L27.5641 10.1203L26.4819 11.6116ZM29.6534 11.3878L30.86 11.3026L30.9098 12.0091L28.7509 12.1615L28.7028 11.48L29.7602 9.99046L28.6134 10.0714L28.5635 9.36495L30.6875 9.21497L30.7357 9.89642L29.6534 11.3878Z" fill="black"/>
</g>
<defs>
<filter id="filter0_i_949_76790" x="16.2734" y="19.7941" width="3.59863" height="7.91187" filterUnits="userSpaceOnUse" color-interpolation-filters="sRGB">
<feFlood flood-opacity="0" result="BackgroundImageFix"/>
<feBlend mode="normal" in="SourceGraphic" in2="BackgroundImageFix" result="shape"/>
<feColorMatrix in="SourceAlpha" type="matrix" values="0 0 0 0 0 0 0 0 0 0 0 0 0 0 0 0 0 0 127 0" result="hardAlpha"/>
<feOffset dy="4"/>
<feGaussianBlur stdDeviation="2"/>
<feComposite in2="hardAlpha" operator="arithmetic" k2="-1" k3="1"/>
<feColorMatrix type="matrix" values="0 0 0 0 0 0 0 0 0 0 0 0 0 0 0 0 0 0 0.25 0"/>
<feBlend mode="normal" in2="shape" result="effect1_innerShadow_949_76790"/>
</filter>
</defs>
</svg>
