<svg width="28" height="28" viewBox="0 0 28 28" fill="none" xmlns="http://www.w3.org/2000/svg">
<path d="M16.0779 2.80069C15.8391 2.4772 15.5276 2.2143 15.1687 2.03313C14.8097 1.85195 14.4133 1.75757 14.0112 1.75757C13.609 1.75757 13.2126 1.85195 12.8536 2.03313C12.4947 2.2143 12.1832 2.4772 11.9444 2.80069C11.626 3.23207 11.1806 3.55302 10.6707 3.71856C10.1607 3.8841 9.6117 3.88594 9.10067 3.72382C8.71722 3.60243 8.31061 3.57277 7.91358 3.63724C7.51661 3.7017 7.14025 3.85848 6.81491 4.09496C6.48958 4.33144 6.22431 4.64101 6.04044 4.99873C5.85659 5.35647 5.7593 5.75237 5.75641 6.15454C5.7523 6.69048 5.5807 7.21163 5.26565 7.64515C4.95059 8.07866 4.50785 8.40284 3.99941 8.57218C3.61778 8.69933 3.27132 8.91424 2.98794 9.19969C2.70456 9.48521 2.49218 9.83321 2.3679 10.2158C2.24361 10.5984 2.21089 11.0048 2.27238 11.4023C2.33387 11.7998 2.48784 12.1773 2.72191 12.5044C3.03372 12.9404 3.20136 13.463 3.20136 13.999C3.20136 14.5349 3.03372 15.0575 2.72191 15.4935C2.48784 15.8206 2.33387 16.1981 2.27238 16.5956C2.21089 16.9931 2.24361 17.3995 2.3679 17.7821C2.49218 18.1647 2.70456 18.5127 2.98794 18.7982C3.27132 19.0836 3.61778 19.2986 3.99941 19.4257C4.50785 19.5951 4.95059 19.9192 5.26565 20.3527C5.5807 20.7862 5.7523 21.3075 5.75641 21.8433C5.75925 22.2456 5.85655 22.6416 6.04045 22.9995C6.22437 23.3573 6.4897 23.6669 6.81516 23.9034C7.14061 24.1399 7.5171 24.2967 7.91419 24.361C8.31134 24.4254 8.71801 24.3956 9.10152 24.2741C9.61249 24.1121 10.1613 24.1141 10.671 24.2796C11.1808 24.4452 11.6261 24.766 11.9444 25.1972C12.1832 25.5207 12.4947 25.7836 12.8536 25.9648C13.2126 26.1459 13.609 26.2403 14.0112 26.2403C14.4133 26.2403 14.8097 26.1459 15.1687 25.9648C15.5276 25.7836 15.8391 25.5207 16.0779 25.1972C16.3963 24.7658 16.8417 24.4448 17.3516 24.2793C17.8616 24.1138 18.4106 24.1119 18.9216 24.2741C19.3051 24.3955 19.7117 24.4251 20.1087 24.3607C20.5057 24.2962 20.8821 24.1394 21.2074 23.9029C21.5327 23.6664 21.798 23.3569 21.9819 22.9992C22.1657 22.6414 22.263 22.2455 22.2659 21.8433C22.27 21.3075 22.4416 20.7862 22.7567 20.3527C23.0717 19.9192 23.5145 19.5951 24.0229 19.4257C24.4045 19.2986 24.751 19.0836 25.0344 18.7982C25.3178 18.5127 25.5301 18.1647 25.6544 17.7821C25.7787 17.3995 25.8114 16.9931 25.7499 16.5956C25.6884 16.1981 25.5345 15.8206 25.3004 15.4935C24.9886 15.0575 24.821 14.5349 24.821 13.999C24.821 13.463 24.9886 12.9404 25.3004 12.5044C25.5345 12.1773 25.6884 11.7998 25.7499 11.4023C25.8114 11.0048 25.7787 10.5984 25.6544 10.2158C25.5301 9.83321 25.3178 9.48521 25.0344 9.19969C24.751 8.91424 24.4045 8.69933 24.0229 8.57218C23.5145 8.40284 23.0717 8.07866 22.7567 7.64515C22.4416 7.21163 22.27 6.69048 22.2659 6.15454C22.263 5.75227 22.1658 5.35626 21.9819 4.99844C21.7979 4.64062 21.5326 4.33099 21.2072 4.0945C20.8817 3.85801 20.5052 3.70125 20.1081 3.63687C19.711 3.57248 19.3043 3.60226 18.9208 3.72382C18.4098 3.88574 17.861 3.88379 17.3513 3.71826C16.8415 3.55273 16.3962 3.23189 16.0779 2.80069Z" fill="#FF822D"/>
<path d="M6.08194 18.577C8.61067 22.9563 14.2107 24.457 18.5892 21.9282C22.9686 19.3995 24.4692 13.7995 21.9404 9.42097C19.4117 5.04157 13.8117 3.54095 9.43316 6.0697C5.05381 8.59842 3.55319 14.1984 6.08194 18.577Z" fill="#FCD53F"/>
<path d="M15.5879 13.5444C15.5879 12.3059 16.5919 11.302 17.8303 11.302C19.0688 11.302 20.0727 12.3059 20.0727 13.5444V14.2111H16.0121C15.7778 14.2111 15.5879 14.0212 15.5879 13.7869V13.5444Z" fill="white"/>
<mask id="mask0_1276_7238" style="mask-type:luminance" maskUnits="userSpaceOnUse" x="15" y="10" width="6" height="5">
<path d="M20.0727 10.8778H15.5879V14.2111H20.0727V10.8778Z" fill="white"/>
<path d="M15.5879 13.5444C15.5879 12.3059 16.5919 11.302 17.8303 11.302C19.0688 11.302 20.0727 12.3059 20.0727 13.5444V14.2111H16.0121C15.7778 14.2111 15.5879 14.0212 15.5879 13.7868V13.5444Z" fill="black"/>
</mask>
<g mask="url(#mask0_1276_7238)">
<path d="M15.5879 13.1202C15.5879 11.8817 16.5919 10.8778 17.8303 10.8778C19.0688 10.8778 20.0727 11.8817 20.0727 13.1202V13.5444C20.0727 12.5403 19.0688 11.7263 17.8303 11.7263C16.5919 11.7263 15.5879 12.5403 15.5879 13.5444V13.1202Z" fill="#282828"/>
</g>
<g filter="url(#filter0_i_1276_7238)">
<path d="M17.1211 13.7576C17.6734 13.7576 18.1211 13.3099 18.1211 12.7576C18.1211 12.2053 17.6734 11.7576 17.1211 11.7576C16.5688 11.7576 16.1211 12.2053 16.1211 12.7576C16.1211 13.3099 16.5688 13.7576 17.1211 13.7576Z" fill="#8E4D21"/>
</g>
<path d="M17.6477 16.0596C17.6477 16.3167 17.2646 16.5634 16.5827 16.7452C15.9008 16.9271 14.9758 17.0293 14.0114 17.0293C13.0469 17.0293 12.122 16.9271 11.4401 16.7452C10.7582 16.5634 10.375 16.3167 10.375 16.0596" stroke="#8E4D21" stroke-linecap="round"/>
<path d="M7.95117 13.5444C7.95117 12.3059 8.95517 11.302 10.1936 11.302C11.4321 11.302 12.436 12.3059 12.436 13.5444V14.2111H8.37541C8.14111 14.2111 7.95117 14.0212 7.95117 13.7869V13.5444Z" fill="white"/>
<mask id="mask1_1276_7238" style="mask-type:luminance" maskUnits="userSpaceOnUse" x="7" y="10" width="6" height="5">
<path d="M12.436 10.8778H7.95117V14.2111H12.436V10.8778Z" fill="white"/>
<path d="M7.95117 13.5444C7.95117 12.3059 8.95517 11.302 10.1936 11.302C11.4321 11.302 12.436 12.3059 12.436 13.5444V14.2111H8.37541C8.14111 14.2111 7.95117 14.0212 7.95117 13.7868V13.5444Z" fill="black"/>
</mask>
<g mask="url(#mask1_1276_7238)">
<path d="M7.95117 13.1202C7.95117 11.8817 8.95517 10.8778 10.1936 10.8778C11.4321 10.8778 12.436 11.8817 12.436 13.1202V13.5444C12.436 12.5403 11.4321 11.7263 10.1936 11.7263C8.95517 11.7263 7.95117 12.5403 7.95117 13.5444V13.1202Z" fill="#282828"/>
</g>
<g filter="url(#filter1_i_1276_7238)">
<path d="M9.48438 13.7576C10.0367 13.7576 10.4844 13.3099 10.4844 12.7576C10.4844 12.2053 10.0367 11.7576 9.48438 11.7576C8.93209 11.7576 8.48438 12.2053 8.48438 12.7576C8.48438 13.3099 8.93209 13.7576 9.48438 13.7576Z" fill="#8E4D21"/>
</g>
<defs>
<filter id="filter0_i_1276_7238" x="16.1211" y="11.7576" width="2" height="6" filterUnits="userSpaceOnUse" color-interpolation-filters="sRGB">
<feFlood flood-opacity="0" result="BackgroundImageFix"/>
<feBlend mode="normal" in="SourceGraphic" in2="BackgroundImageFix" result="shape"/>
<feColorMatrix in="SourceAlpha" type="matrix" values="0 0 0 0 0 0 0 0 0 0 0 0 0 0 0 0 0 0 127 0" result="hardAlpha"/>
<feOffset dy="4"/>
<feGaussianBlur stdDeviation="2"/>
<feComposite in2="hardAlpha" operator="arithmetic" k2="-1" k3="1"/>
<feColorMatrix type="matrix" values="0 0 0 0 0 0 0 0 0 0 0 0 0 0 0 0 0 0 0.25 0"/>
<feBlend mode="normal" in2="shape" result="effect1_innerShadow_1276_7238"/>
</filter>
<filter id="filter1_i_1276_7238" x="8.48438" y="11.7576" width="2" height="6" filterUnits="userSpaceOnUse" color-interpolation-filters="sRGB">
<feFlood flood-opacity="0" result="BackgroundImageFix"/>
<feBlend mode="normal" in="SourceGraphic" in2="BackgroundImageFix" result="shape"/>
<feColorMatrix in="SourceAlpha" type="matrix" values="0 0 0 0 0 0 0 0 0 0 0 0 0 0 0 0 0 0 127 0" result="hardAlpha"/>
<feOffset dy="4"/>
<feGaussianBlur stdDeviation="2"/>
<feComposite in2="hardAlpha" operator="arithmetic" k2="-1" k3="1"/>
<feColorMatrix type="matrix" values="0 0 0 0 0 0 0 0 0 0 0 0 0 0 0 0 0 0 0.25 0"/>
<feBlend mode="normal" in2="shape" result="effect1_innerShadow_1276_7238"/>
</filter>
</defs>
</svg>
