<svg width="30" height="31" viewBox="0 0 30 31" fill="none" xmlns="http://www.w3.org/2000/svg">
<g filter="url(#filter0_d_170_27765)">
<path d="M13.8667 1C8.42497 1 3.99219 5.43127 3.99219 10.8712C3.99219 16.311 8.42497 20.7509 13.8667 20.7509C16.191 20.7509 18.3287 19.9366 20.0182 18.5847L24.1313 22.6942C24.3389 22.8931 24.6161 23.0029 24.9036 22.9999C25.1911 22.997 25.4661 22.8817 25.6695 22.6785C25.873 22.4754 25.9888 22.2008 25.9921 21.9134C25.9955 21.626 25.8861 21.3487 25.6874 21.1409L21.5743 17.0292C22.9278 15.3377 23.7433 13.1974 23.7433 10.8712C23.7433 5.43127 19.3084 1 13.8667 1ZM13.8667 3.1941C18.1223 3.1941 21.5464 6.61706 21.5464 10.8712C21.5464 15.1253 18.1223 18.5568 13.8667 18.5568C9.61113 18.5568 6.187 15.1253 6.187 10.8712C6.187 6.61706 9.61113 3.1941 13.8667 3.1941Z" fill="white"/>
</g>
<defs>
<filter id="filter0_d_170_27765" x="-0.0078125" y="1" width="30" height="30" filterUnits="userSpaceOnUse" color-interpolation-filters="sRGB">
<feFlood flood-opacity="0" result="BackgroundImageFix"/>
<feColorMatrix in="SourceAlpha" type="matrix" values="0 0 0 0 0 0 0 0 0 0 0 0 0 0 0 0 0 0 127 0" result="hardAlpha"/>
<feOffset dy="4"/>
<feGaussianBlur stdDeviation="2"/>
<feComposite in2="hardAlpha" operator="out"/>
<feColorMatrix type="matrix" values="0 0 0 0 0 0 0 0 0 0 0 0 0 0 0 0 0 0 0.25 0"/>
<feBlend mode="normal" in2="BackgroundImageFix" result="effect1_dropShadow_170_27765"/>
<feBlend mode="normal" in="SourceGraphic" in2="effect1_dropShadow_170_27765" result="shape"/>
</filter>
</defs>
</svg>
