<svg width="24" height="25" viewBox="0 0 24 25" fill="none" xmlns="http://www.w3.org/2000/svg">
<path d="M5.46601 2.56708C5.53969 2.49842 5.5988 2.41562 5.63979 2.32362C5.68078 2.23162 5.70282 2.13231 5.7046 2.0316C5.70638 1.9309 5.68785 1.83087 5.65013 1.73748C5.61241 1.64409 5.55626 1.55926 5.48505 1.48804C5.41383 1.41682 5.32899 1.36068 5.23561 1.32296C5.14222 1.28524 5.04219 1.26671 4.94148 1.26849C4.84078 1.27027 4.74147 1.29231 4.64947 1.3333C4.55747 1.37429 4.47467 1.43339 4.40601 1.50708C3.40444 2.50438 2.60999 3.6899 2.06835 4.99541C1.52672 6.30093 1.2486 7.70067 1.25001 9.11408C1.24833 10.5441 1.5328 11.9601 2.08666 13.2785C2.64051 14.5969 3.45257 15.7912 4.47501 16.7911C4.61768 16.927 4.80811 17.0013 5.00514 16.998C5.20217 16.9946 5.38996 16.9138 5.52791 16.7731C5.66587 16.6324 5.7429 16.4431 5.74235 16.246C5.74181 16.049 5.66374 15.86 5.52501 15.7201C4.64514 14.86 3.94633 13.8325 3.46974 12.6981C2.99315 11.5638 2.74843 10.3455 2.75001 9.11508C2.74843 7.89858 2.9876 6.6938 3.45374 5.57016C3.91988 4.44651 4.60377 3.42522 5.46601 2.56708ZM19.677 1.59008C19.6084 1.51812 19.5263 1.4605 19.4352 1.42058C19.3442 1.38066 19.2462 1.35923 19.1468 1.35754C19.0474 1.35585 18.9487 1.37392 18.8564 1.41072C18.764 1.44751 18.6799 1.50229 18.609 1.57188C18.538 1.64146 18.4815 1.72445 18.4429 1.81604C18.4043 1.90762 18.3843 2.00597 18.384 2.10536C18.3837 2.20475 18.4032 2.30321 18.4413 2.39501C18.4794 2.4868 18.5354 2.57011 18.606 2.64008C20.3035 4.3674 21.2533 6.69326 21.25 9.11508C21.2516 10.3285 21.0136 11.5303 20.5498 12.6515C20.0859 13.7727 19.4053 14.7914 18.547 15.6491C18.4774 15.7188 18.4222 15.8016 18.3846 15.8926C18.347 15.9837 18.3277 16.0813 18.3278 16.1798C18.3279 16.2783 18.3474 16.3758 18.3851 16.4668C18.4229 16.5578 18.4783 16.6405 18.548 16.7101C18.6177 16.7797 18.7005 16.8349 18.7916 16.8725C18.8826 16.9101 18.9802 16.9294 19.0787 16.9293C19.1772 16.9292 19.2748 16.9097 19.3658 16.8719C19.4568 16.8342 19.5394 16.7788 19.609 16.7091C20.6063 15.7121 21.3971 14.5281 21.9361 13.225C22.4751 11.9219 22.7517 10.5253 22.75 9.11508C22.75 6.18508 21.577 3.52808 19.677 1.59008Z" fill="#00CFFF"/>
<path d="M8.274 5.66309C8.34706 5.59614 8.40612 5.51537 8.44778 5.42545C8.48944 5.33553 8.51287 5.23825 8.51671 5.13923C8.52055 5.04021 8.50472 4.9414 8.47015 4.84853C8.43558 4.75566 8.38295 4.67056 8.31529 4.59814C8.24764 4.52573 8.16631 4.46745 8.07599 4.42666C7.98568 4.38586 7.88818 4.36337 7.78912 4.36049C7.69007 4.3576 7.59142 4.37437 7.49888 4.40983C7.40635 4.4453 7.32176 4.49874 7.25 4.56709C6.021 5.71609 5.25 7.31709 5.25 9.09709C5.25 10.8971 6.04 12.5151 7.292 13.6671C7.43853 13.8018 7.63258 13.8728 7.83147 13.8645C8.03035 13.8561 8.21777 13.7691 8.3525 13.6226C8.48723 13.4761 8.55823 13.282 8.54989 13.0831C8.54154 12.8842 8.45453 12.6968 8.308 12.5621C7.338 11.6721 6.75 10.4441 6.75 9.09609C6.75 7.76409 7.325 6.55109 8.274 5.66309ZM16.803 4.61709C16.6593 4.47958 16.4668 4.4048 16.2679 4.4092C16.069 4.41361 15.88 4.49684 15.7425 4.64059C15.605 4.78434 15.5302 4.97683 15.5346 5.17571C15.539 5.37459 15.6223 5.56358 15.766 5.70109C16.691 6.58609 17.25 7.78409 17.25 9.09709C17.25 10.4261 16.678 11.6371 15.733 12.5251C15.5919 12.6622 15.5103 12.8492 15.5058 13.0459C15.5013 13.2426 15.5743 13.4332 15.709 13.5766C15.8437 13.72 16.0294 13.8047 16.226 13.8125C16.4226 13.8202 16.6144 13.7504 16.76 13.6181C17.983 12.4701 18.75 10.8721 18.75 9.09809C18.75 7.34409 18 5.76109 16.803 4.61709Z" fill="#00CFFF"/>
<path fill-rule="evenodd" clip-rule="evenodd" d="M10.8333 10.6611C10.4897 10.414 10.2333 10.0644 10.101 9.66236C9.96876 9.26036 9.96741 8.82675 10.0972 8.42393C10.227 8.02111 10.4812 7.66984 10.8232 7.42066C11.1653 7.17148 11.5776 7.03723 12.0008 7.03723C12.424 7.03723 12.8363 7.17148 13.1784 7.42066C13.5205 7.66984 13.7747 8.02111 13.9045 8.42393C14.0343 8.82675 14.0329 9.26036 13.9006 9.66236C13.7683 10.0644 13.5119 10.414 13.1683 10.6611L16.7153 21.8101C16.7678 21.9753 16.7615 22.1536 16.6974 22.3147C16.6333 22.4757 16.5153 22.6096 16.3636 22.6936C16.2119 22.7775 16.0359 22.8062 15.8653 22.775C15.6948 22.7437 15.5404 22.6544 15.4283 22.5221L12.0003 18.4711L8.57333 22.5211C8.46145 22.6538 8.30704 22.7435 8.1364 22.7751C7.96577 22.8066 7.78947 22.778 7.63754 22.6942C7.48562 22.6103 7.36748 22.4764 7.30326 22.3152C7.23903 22.1539 7.2327 21.9755 7.28533 21.8101L10.8333 10.6611ZM12.9833 17.3101L14.1473 18.6851L13.5103 16.6851L12.9833 17.3101ZM12.9753 15.0021L12.9283 15.0521L12.0003 16.1501L11.0723 15.0541L11.0263 15.0031L12.0003 11.9401L12.9753 15.0021ZM10.4903 16.6861L11.0173 17.3101L9.85333 18.6851L10.4903 16.6861Z" fill="#00CFFF"/>
</svg>
