<svg width="24" height="24" viewBox="0 0 24 24" fill="none" xmlns="http://www.w3.org/2000/svg">
<path d="M15.0288 13.9311V4.12498C15.0288 2.45516 13.6699 1.09668 11.9998 1.09668C10.3299 1.09668 8.9713 2.45516 8.9713 4.12498V13.931C7.73066 14.8761 7 16.3358 7 17.9034C7 20.6603 9.24281 22.9032 11.9998 22.9032C14.7569 22.9032 16.9999 20.6603 16.9999 17.9034C16.9999 16.336 16.2692 14.8763 15.0288 13.9311ZM11.9998 21.5958C9.9638 21.5958 8.3074 19.9394 8.3074 17.9034C8.3074 16.6575 8.93391 15.5032 9.98332 14.8157C10.1677 14.6949 10.2788 14.4893 10.2788 14.269V4.12498C10.2788 3.17606 11.0509 2.40408 11.9999 2.40408C12.9492 2.40408 13.7215 3.17606 13.7215 4.12498V14.269C13.7215 14.4894 13.8325 14.6949 14.0169 14.8157C15.0662 15.5033 15.6927 16.6576 15.6927 17.9034C15.6925 19.9394 14.0359 21.5958 11.9998 21.5958Z" fill="#F9F9F9"/>
<path d="M12 17.2V4.19995" stroke="#EC4700" stroke-width="1.3" stroke-linecap="round"/>
<circle cx="12.0051" cy="17.9152" r="2.175" fill="#EC4700"/>
<path d="M19.2908 8.15862C19.0986 7.95237 18.7704 7.94768 18.5689 8.14456L17.1485 9.56492C16.9516 9.7618 16.9516 10.0759 17.1485 10.2728C17.3454 10.4696 17.6595 10.4696 17.8563 10.2728L18.4235 9.70555L18.4235 12.7103C18.4235 12.9869 18.6486 13.2119 18.9251 13.2119C19.2017 13.2119 19.4267 12.9869 19.4267 12.7103L19.4267 9.70555L19.9939 10.2728C20.1908 10.4696 20.5049 10.4696 20.7017 10.2728C20.8986 10.0759 20.8939 9.7618 20.7017 9.56492L19.2908 8.15862Z" fill="#EC4700"/>
</svg>
