<svg width="24" height="25" viewBox="0 0 24 25" fill="none" xmlns="http://www.w3.org/2000/svg">
    <mask id="mask0_865_78874" style="mask-type:luminance" maskUnits="userSpaceOnUse" x="0" y="2" width="24"
        height="17">
        <path d="M0.5 18V3H23.5V18H0.5Z" fill="white" stroke="white" />
    </mask>
    <g mask="url(#mask0_865_78874)">
        <path fill-rule="evenodd" clip-rule="evenodd"
            d="M13.1082 2.76419C13.4518 2.9379 13.75 3.18996 13.9786 3.5001C14.2834 3.91352 14.7096 4.22112 15.1976 4.37983C15.6856 4.53854 16.211 4.5404 16.7002 4.38515C17.0672 4.26862 17.4566 4.24006 17.8368 4.30179C18.217 4.36352 18.5774 4.51381 18.8889 4.74055C19.2005 4.96729 19.4545 5.26415 19.6305 5.60721C19.8066 5.95027 19.8998 6.32995 19.9025 6.71565C19.9065 7.22945 20.0707 7.72914 20.3723 8.14478C20.6739 8.56042 21.0978 8.87119 21.5845 9.03357C21.9498 9.15544 22.2815 9.36152 22.5528 9.63522C22.8241 9.90893 23.0274 10.2426 23.1463 10.6094C23.2654 10.9762 23.2967 11.3658 23.2378 11.747C23.1789 12.1281 23.0316 12.49 22.8075 12.8036C22.509 13.2216 22.3485 13.7227 22.3485 14.2365C22.3485 14.7504 22.509 15.2514 22.8075 15.6694C23.0316 15.983 23.1789 16.345 23.2378 16.7261C23.2967 17.1072 23.2654 17.4969 23.1463 17.8636H19.9828C21.8307 13.7983 20.3253 8.91427 16.3827 6.63428C12.1911 4.20982 6.83006 5.64855 4.40924 9.84732C2.94021 12.3948 2.89164 15.3734 4.01738 17.8636H0.85374C0.734758 17.4969 0.703438 17.1072 0.762303 16.7261C0.821167 16.345 0.96857 15.983 1.19265 15.6694C1.49114 15.2514 1.65162 14.7504 1.65162 14.2365C1.65162 13.7227 1.49114 13.2216 1.19265 12.8036C0.96857 12.49 0.821167 12.1281 0.762303 11.747C0.703438 11.3658 0.734758 10.9762 0.85374 10.6094C0.97272 10.2426 1.17604 9.90893 1.44732 9.63522C1.7186 9.36152 2.05027 9.15544 2.41562 9.03357C2.90236 8.87119 3.3262 8.56042 3.62782 8.14478C3.92942 7.72914 4.0937 7.22945 4.09763 6.71565C4.1004 6.33005 4.19353 5.95047 4.36953 5.6075C4.54553 5.26452 4.79949 4.96772 5.11095 4.74099C5.42242 4.51427 5.78268 4.36395 6.16274 4.30215C6.54281 4.24035 6.93205 4.26878 7.29914 4.38515C7.78839 4.54059 8.31394 4.53883 8.8021 4.38011C9.29037 4.2214 9.71673 3.91369 10.0216 3.5001C10.2502 3.18996 10.5483 2.9379 10.892 2.76419C11.2356 2.59049 11.6151 2.5 12.0001 2.5C12.385 2.5 12.7645 2.59049 13.1082 2.76419Z"
            fill="#ffffff" />
        <path
            d="M18.5152 10.8892C19.2174 10.8892 19.7107 11.5126 19.4818 12.111L17.7549 16.6267C17.5472 17.1699 16.9799 17.5344 16.3424 17.5344H15.8467C15.2099 17.5344 14.6431 17.1707 14.4349 16.6283L12.7028 12.1177C12.4719 11.5163 12.9675 10.8892 13.6734 10.8892C14.1221 10.8892 14.5188 11.1516 14.6533 11.5373L15.9575 15.277C16.0014 15.4029 16.199 15.4027 16.2427 15.2768L17.5392 11.536C17.6726 11.1512 18.0678 10.8892 18.5152 10.8892Z"
            fill="#ffffff" />
        <path
            d="M6.31848 10.8892C6.88163 10.8892 7.33814 11.3007 7.33814 11.8082V14.7444C7.33814 15.1026 7.42877 15.3791 7.61005 15.5739C7.79829 15.7687 8.08065 15.8661 8.45714 15.8661C8.83365 15.8661 9.11602 15.7687 9.30424 15.5739C9.4995 15.3728 9.59708 15.0963 9.59708 14.7444V11.8129C9.59708 11.3027 10.056 10.8892 10.622 10.8892C11.188 10.8892 11.6468 11.3027 11.6468 11.8129V14.7444C11.6468 15.3539 11.5039 15.8755 11.218 16.3091C10.9322 16.7364 10.5418 17.06 10.0467 17.28C9.55872 17.4937 9.01491 17.6005 8.41531 17.6005C7.81572 17.6005 7.27888 17.4937 6.80478 17.28C6.33765 17.06 5.96814 16.7364 5.69623 16.3091C5.43129 15.8818 5.29883 15.3602 5.29883 14.7444V11.8082C5.29883 11.3007 5.75534 10.8892 6.31848 10.8892Z"
            fill="#ffffff" />
    </g>
</svg>