<svg width="24" height="24" viewBox="0 0 24 24" fill="none" xmlns="http://www.w3.org/2000/svg">
<path fill-rule="evenodd" clip-rule="evenodd" d="M20.6667 9.08565C20.6667 9.62632 20.6233 9.70833 20 9.70833L18 9.90833V4.84167L20 5.04167C20.6233 5.04167 20.6667 5.12368 20.6667 5.66435V9.08565ZM16.6667 10.0417L12.6667 10.4417V4.30835L16.6667 4.70833V10.0417ZM11.3333 10.575L6.66667 11.0417C6.04333 11.0417 6 10.9157 6 10.375V4.375C6 3.835 6.04333 3.70833 6.66667 3.70833L11.3333 4.17501V10.575ZM20.6667 3.70833L6 2.375C5.264 2.375 4.66667 2.97233 4.66667 3.70833V11.0417C4.66667 11.7777 5.264 12.375 6 12.375L20.6667 11.0417C21.4027 11.0417 22 10.4443 22 9.70833V5.04167C22 4.30567 21.4027 3.70833 20.6667 3.70833ZM2.66667 2.375C2.298 2.375 2 2.67367 2 3.04167V21.7083C2 22.077 2.298 22.375 2.66667 22.375C3.03533 22.375 3.33333 22.077 3.33333 21.7083V3.04167C3.33333 2.67367 3.03533 2.375 2.66667 2.375Z" fill="#F9F9F9" stroke="#F9F9F9" stroke-width="0.4"/>
</svg>
