<svg width="24" height="24" viewBox="0 0 24 24" fill="none" xmlns="http://www.w3.org/2000/svg">
<path d="M15.7392 11.3959L12.6422 8.29991C12.5556 8.21325 12.4946 8.12325 12.4592 8.02991C12.4239 7.93725 12.4062 7.83791 12.4062 7.73191C12.4062 7.62591 12.4239 7.52725 12.4592 7.43591C12.4946 7.34458 12.5556 7.25558 12.6422 7.16891L15.7392 4.07291C15.8259 3.98625 15.9159 3.92525 16.0092 3.88991C16.1012 3.85458 16.2006 3.83691 16.3072 3.83691C16.4139 3.83691 16.5122 3.85458 16.6022 3.88991C16.6936 3.92458 16.7826 3.98558 16.8692 4.07291L19.9662 7.16891C20.0529 7.25625 20.1139 7.34625 20.1492 7.43891C20.1846 7.53225 20.2022 7.63158 20.2022 7.73691C20.2022 7.84225 20.1846 7.94091 20.1492 8.03291C20.1139 8.12358 20.0529 8.21258 19.9662 8.29991L16.8692 11.3959C16.7826 11.4832 16.6926 11.5446 16.5992 11.5799C16.5066 11.6152 16.4072 11.6329 16.3012 11.6329C16.1952 11.6329 16.0969 11.6152 16.0062 11.5799C15.9156 11.5446 15.8266 11.4832 15.7392 11.3959ZM4.61523 9.80791V5.42291C4.61523 5.19425 4.69257 5.00258 4.84723 4.84791C5.0019 4.69325 5.1939 4.61558 5.42323 4.61491H9.80823C10.0369 4.61491 10.2286 4.69258 10.3832 4.84791C10.5379 5.00325 10.6152 5.19491 10.6152 5.42291V9.80791C10.6152 10.0366 10.5379 10.2282 10.3832 10.3829C10.2286 10.5376 10.0369 10.6149 9.80823 10.6149H5.42323C5.19457 10.6149 5.0029 10.5376 4.84823 10.3829C4.69357 10.2282 4.6159 10.0366 4.61523 9.80791ZM13.3852 18.5769V14.1919C13.3852 13.9632 13.4626 13.7716 13.6172 13.6169C13.7719 13.4622 13.9636 13.3849 14.1922 13.3849H18.5772C18.8059 13.3849 18.9979 13.4622 19.1532 13.6169C19.3086 13.7716 19.3859 13.9632 19.3852 14.1919V18.5769C19.3852 18.8056 19.3079 18.9976 19.1532 19.1529C18.9986 19.3082 18.8066 19.3856 18.5772 19.3849H14.1922C13.9636 19.3849 13.7719 19.3072 13.6172 19.1519C13.4626 18.9966 13.3852 18.8049 13.3852 18.5769ZM4.61523 18.5769V14.1919C4.61523 13.9632 4.6929 13.7716 4.84823 13.6169C5.00357 13.4622 5.19523 13.3849 5.42323 13.3849H9.80823C10.0369 13.3849 10.2286 13.4622 10.3832 13.6169C10.5379 13.7716 10.6156 13.9632 10.6162 14.1919V18.5769C10.6162 18.8056 10.5386 18.9976 10.3832 19.1529C10.2279 19.3082 10.0362 19.3856 9.80823 19.3849H5.42323C5.19457 19.3849 5.0029 19.3072 4.84823 19.1519C4.69357 18.9966 4.6159 18.8049 4.61523 18.5769ZM5.61523 9.61491H9.61523V5.61491H5.61523V9.61491ZM16.3292 10.5849L19.1542 7.75891L16.3292 4.93391L13.5042 7.75891L16.3292 10.5849ZM14.3842 18.3849H18.3842V14.3849H14.3842V18.3849ZM5.61523 18.3849H9.61523V14.3849H5.61523V18.3849Z" fill="white"/>
</svg>
