<svg width="24" height="24" viewBox="0 0 24 24" fill="none" xmlns="http://www.w3.org/2000/svg">
<path d="M12.0017 5.07692C12.4263 5.07692 12.7709 4.73231 12.7709 4.30769V2.76923C12.7709 2.34462 12.4263 2 12.0017 2C11.5767 2 11.2324 2.34462 11.2324 2.76923V4.30769C11.2324 4.73231 11.5767 5.07692 12.0017 5.07692Z" fill="#F9F9F9" stroke="#F9F9F9" stroke-width="8.33333"/>
<path d="M4.30769 11.2307H2.76923C2.34423 11.2307 2 11.5753 2 11.9999C2 12.4246 2.34423 12.7692 2.76923 12.7692H4.30769C4.73231 12.7692 5.07692 12.4246 5.07692 11.9999C5.07692 11.5753 4.73231 11.2307 4.30769 11.2307Z" fill="#F9F9F9"/>
<path d="M21.2296 11.2307H19.6911C19.2661 11.2307 18.9219 11.5753 18.9219 11.9999C18.9219 12.4246 19.2661 12.7692 19.6911 12.7692H21.2296C21.6542 12.7692 21.9988 12.4246 21.9988 11.9999C21.9988 11.5753 21.6542 11.2307 21.2296 11.2307Z" fill="#F9F9F9"/>
<path d="M19.0725 4.92872C18.7722 4.62833 18.2852 4.62833 17.9849 4.92872L16.8972 6.01641C16.5968 6.3168 16.5968 6.80372 16.8972 7.1041C17.0475 7.25449 17.2441 7.32949 17.441 7.32949C17.6379 7.32949 17.8345 7.25449 17.9849 7.1041L19.0725 6.01641C19.3729 5.71603 19.3729 5.2291 19.0725 4.92872Z" fill="#F9F9F9"/>
<path d="M7.1038 6.01641L6.01611 4.92872C5.71572 4.62833 5.2288 4.62833 4.92841 4.92872C4.62803 5.2291 4.62803 5.71603 4.92841 6.01641L6.01611 7.1041C6.16649 7.25449 6.36303 7.32949 6.55995 7.32949C6.75687 7.32949 6.95341 7.25449 7.1038 7.1041C7.40457 6.80372 7.40457 6.31718 7.1038 6.01641Z" fill="#F9F9F9"/>
<path d="M11.9998 6.61536C9.03062 6.61536 6.61523 9.03074 6.61523 12C6.61523 12.9419 6.866 13.8734 7.34139 14.6934C7.4787 14.9307 7.73216 15.0769 8.00677 15.0769H15.9929C16.2675 15.0769 16.521 14.9307 16.6583 14.6934C17.1337 13.8734 17.3845 12.9419 17.3845 12C17.3845 9.03074 14.9691 6.61536 11.9998 6.61536ZM15.5218 13.5384H8.47793C8.26485 13.053 8.1537 12.5288 8.1537 12C8.1537 9.8792 9.87908 8.15382 11.9998 8.15382C14.1206 8.15382 15.846 9.8792 15.846 12C15.846 12.5288 15.7349 13.053 15.5218 13.5384Z" fill="#F9F9F9"/>
<path d="M13.7625 18.3792L12.7679 19.3738V17.3846C12.7679 16.96 12.4233 16.6154 11.9987 16.6154C11.5737 16.6154 11.2295 16.96 11.2295 17.3846V19.3738L10.2349 18.3792C9.93447 18.0788 9.44755 18.0788 9.14716 18.3792C8.84678 18.6796 8.84678 19.1665 9.14716 19.4669L11.4549 21.7746C11.6052 21.925 11.8018 22 11.9987 22C12.1956 22 12.3922 21.925 12.5425 21.7746L14.8502 19.4669C15.1506 19.1665 15.1506 18.6796 14.8502 18.3792C14.5499 18.0788 14.0629 18.0788 13.7625 18.3792Z" fill="#F9F9F9"/>
</svg>
