<svg width="24" height="24" viewBox="0 0 24 24" fill="none" xmlns="http://www.w3.org/2000/svg">
<path d="M11.9997 5.07692C12.4243 5.07692 12.7689 4.73231 12.7689 4.30769V2.76923C12.7689 2.34462 12.4243 2 11.9997 2C11.5747 2 11.2305 2.34462 11.2305 2.76923V4.30769C11.2305 4.73231 11.5747 5.07692 11.9997 5.07692Z" fill="#F9F9F9" stroke="#F9F9F9" stroke-width="8.33333"/>
<path d="M4.30769 11.2308H2.76923C2.34423 11.2308 2 11.5754 2 12C2 12.4246 2.34423 12.7692 2.76923 12.7692H4.30769C4.73231 12.7692 5.07692 12.4246 5.07692 12C5.07692 11.5754 4.73231 11.2308 4.30769 11.2308Z" fill="#F9F9F9"/>
<path d="M21.2315 11.2308H19.6931C19.2681 11.2308 18.9238 11.5754 18.9238 12C18.9238 12.4246 19.2681 12.7692 19.6931 12.7692H21.2315C21.6561 12.7692 22.0008 12.4246 22.0008 12C22.0008 11.5754 21.6561 11.2308 21.2315 11.2308Z" fill="#F9F9F9"/>
<path d="M19.0725 4.92884C18.7722 4.62846 18.2852 4.62846 17.9849 4.92884L16.8972 6.01653C16.5968 6.31692 16.5968 6.80384 16.8972 7.10423C17.0475 7.25461 17.2441 7.32961 17.441 7.32961C17.6379 7.32961 17.8345 7.25461 17.9849 7.10423L19.0725 6.01653C19.3729 5.71615 19.3729 5.22923 19.0725 4.92884Z" fill="#F9F9F9"/>
<path d="M7.1038 6.01653L6.01611 4.92884C5.71572 4.62846 5.2288 4.62846 4.92841 4.92884C4.62803 5.22923 4.62803 5.71615 4.92841 6.01653L6.01611 7.10423C6.16649 7.25461 6.36303 7.32961 6.55995 7.32961C6.75687 7.32961 6.9538 7.25461 7.1038 7.10423C7.40457 6.80384 7.40457 6.3173 7.1038 6.01653Z" fill="#F9F9F9"/>
<path d="M11.9999 6.61536C9.03062 6.61536 6.61523 9.03074 6.61523 12C6.61523 12.9419 6.866 13.8734 7.34139 14.6934C7.4787 14.9307 7.73216 15.0769 8.00677 15.0769H15.9929C16.2675 15.0769 16.521 14.9307 16.6587 14.6934C17.1337 13.8734 17.3845 12.9419 17.3845 12C17.3845 9.03074 14.9691 6.61536 11.9999 6.61536ZM15.5218 13.5384H8.47793C8.26485 13.053 8.1537 12.5288 8.1537 12C8.1537 9.8792 9.87908 8.15382 11.9999 8.15382C14.1206 8.15382 15.846 9.8792 15.846 12C15.846 12.5288 15.7349 13.053 15.5218 13.5384Z" fill="#F9F9F9"/>
<path d="M12.5445 16.8409C12.2441 16.5405 11.7572 16.5405 11.4568 16.8409L9.14912 19.1486C8.84873 19.449 8.84873 19.9359 9.14912 20.2363C9.4495 20.5367 9.93643 20.5367 10.2368 20.2363L11.2314 19.2417V21.2309C11.2314 21.6555 11.5757 22.0001 12.0007 22.0001C12.4253 22.0001 12.7699 21.6555 12.7699 21.2309V19.2417L13.7645 20.2363C13.9149 20.3867 14.1114 20.4617 14.3083 20.4617C14.5053 20.4617 14.7018 20.3867 14.8522 20.2363C15.1526 19.9359 15.1526 19.449 14.8522 19.1486L12.5445 16.8409Z" fill="#F9F9F9"/>
</svg>
