<svg width="24" height="24" viewBox="0 0 24 24" fill="none" xmlns="http://www.w3.org/2000/svg">
<path d="M12 8.49902C17.5228 8.49902 22 7.15588 22 5.49902C22 3.84217 17.5228 2.49902 12 2.49902C6.47715 2.49902 2 3.84217 2 5.49902C2 7.15588 6.47715 8.49902 12 8.49902Z" stroke="white" stroke-width="2" stroke-linecap="round" stroke-linejoin="round"/>
<path d="M5.385 7.74902C3.31 8.29902 2 9.10302 2 9.99902C2 11.656 6.477 12.999 12 12.999C17.523 12.999 22 11.656 22 9.99902C22 9.10302 20.6905 8.29902 18.615 7.74902C16.852 8.21552 14.536 8.49902 12 8.49902C9.464 8.49902 7.1485 8.21552 5.385 7.74902Z" stroke="white" stroke-width="2" stroke-linecap="round" stroke-linejoin="round"/>
<path d="M5.385 12.249C3.31 12.799 2 13.603 2 14.499C2 16.156 6.477 17.499 12 17.499C17.523 17.499 22 16.156 22 14.499C22 13.603 20.6905 12.799 18.615 12.249" stroke="white" stroke-width="2" stroke-linecap="round" stroke-linejoin="round"/>
<path d="M5.385 16.749C3.31 17.299 2 18.103 2 18.999C2 20.656 6.477 21.999 12 21.999C17.523 21.999 22 20.656 22 18.999C22 18.103 20.6905 17.299 18.615 16.749" stroke="white" stroke-width="2" stroke-linecap="round" stroke-linejoin="round"/>
</svg>
