<svg width="20" height="20" viewBox="0 0 20 20" fill="none" xmlns="http://www.w3.org/2000/svg">
<path d="M10.0003 18.3337C8.86144 18.3337 7.78505 18.1148 6.77116 17.677C5.75727 17.2392 4.87199 16.642 4.11533 15.8853C3.35866 15.1287 2.76144 14.2434 2.32366 13.2295C1.88588 12.2156 1.66699 11.1392 1.66699 10.0003C1.66699 8.84755 1.88588 7.76783 2.32366 6.76116C2.76144 5.75449 3.35866 4.87255 4.11533 4.11533C4.87199 3.3581 5.75727 2.76088 6.77116 2.32366C7.78505 1.88644 8.86144 1.66755 10.0003 1.66699C11.1531 1.66699 12.2331 1.88588 13.2403 2.32366C14.2475 2.76144 15.1292 3.35866 15.8853 4.11533C16.6414 4.87199 17.2387 5.75394 17.677 6.76116C18.1153 7.76838 18.3342 8.8481 18.3337 10.0003C18.3337 11.1392 18.1148 12.2156 17.677 13.2295C17.2392 14.2434 16.642 15.1289 15.8853 15.8862C15.1287 16.6434 14.2467 17.2406 13.2395 17.6778C12.2323 18.115 11.1525 18.3337 10.0003 18.3337ZM10.0003 16.6253C10.3614 16.1253 10.6739 15.6045 10.9378 15.0628C11.2017 14.5212 11.417 13.9448 11.5837 13.3337H8.41699C8.58366 13.9448 8.79894 14.5212 9.06283 15.0628C9.32671 15.6045 9.63921 16.1253 10.0003 16.6253ZM7.83366 16.292C7.58366 15.8337 7.36505 15.3578 7.17783 14.8645C6.9906 14.3712 6.83421 13.8609 6.70866 13.3337H4.25033C4.6531 14.0281 5.15671 14.6323 5.76116 15.1462C6.3656 15.66 7.05644 16.042 7.83366 16.292ZM12.167 16.292C12.9448 16.042 13.6359 15.66 14.2403 15.1462C14.8448 14.6323 15.3481 14.0281 15.7503 13.3337H13.292C13.167 13.8614 13.0109 14.372 12.8237 14.8653C12.6364 15.3587 12.4175 15.8342 12.167 16.292ZM3.54199 11.667H6.37533C6.33366 11.3892 6.30255 11.115 6.28199 10.8445C6.26144 10.5739 6.25088 10.2925 6.25033 10.0003C6.24977 9.7081 6.26033 9.42699 6.28199 9.15699C6.30366 8.88699 6.33477 8.61255 6.37533 8.33366H3.54199C3.47255 8.61144 3.4206 8.88588 3.38616 9.15699C3.35171 9.4281 3.33421 9.70921 3.33366 10.0003C3.3331 10.2914 3.3506 10.5728 3.38616 10.8445C3.42171 11.1162 3.47366 11.3903 3.54199 11.667ZM8.04199 11.667H11.9587C12.0003 11.3892 12.0317 11.115 12.0528 10.8445C12.0739 10.5739 12.0842 10.2925 12.0837 10.0003C12.0831 9.7081 12.0725 9.42699 12.052 9.15699C12.0314 8.88699 12.0003 8.61255 11.9587 8.33366H8.04199C8.00033 8.61144 7.96921 8.88588 7.94866 9.15699C7.9281 9.4281 7.91755 9.70921 7.91699 10.0003C7.91644 10.2914 7.92699 10.5728 7.94866 10.8445C7.97033 11.1162 8.00144 11.3903 8.04199 11.667ZM13.6253 11.667H16.4587C16.5281 11.3892 16.5803 11.115 16.6153 10.8445C16.6503 10.5739 16.6675 10.2925 16.667 10.0003C16.6664 9.7081 16.6492 9.42699 16.6153 9.15699C16.5814 8.88699 16.5292 8.61255 16.4587 8.33366H13.6253C13.667 8.61144 13.6984 8.88588 13.7195 9.15699C13.7406 9.4281 13.7509 9.70921 13.7503 10.0003C13.7498 10.2914 13.7392 10.5728 13.7187 10.8445C13.6981 11.1162 13.667 11.3903 13.6253 11.667ZM13.292 6.66699H15.7503C15.3475 5.97255 14.8442 5.36838 14.2403 4.85449C13.6364 4.3406 12.9453 3.95866 12.167 3.70866C12.417 4.16699 12.6359 4.64283 12.8237 5.13616C13.0114 5.62949 13.1675 6.13977 13.292 6.66699ZM8.41699 6.66699H11.5837C11.417 6.05588 11.2017 5.47949 10.9378 4.93783C10.6739 4.39616 10.3614 3.87533 10.0003 3.37533C9.63921 3.87533 9.32671 4.39616 9.06283 4.93783C8.79894 5.47949 8.58366 6.05588 8.41699 6.66699ZM4.25033 6.66699H6.70866C6.83366 6.13921 6.99005 5.62866 7.17783 5.13533C7.3656 4.64199 7.58421 4.16644 7.83366 3.70866C7.05588 3.95866 6.36477 4.3406 5.76033 4.85449C5.15588 5.36838 4.65255 5.97255 4.25033 6.66699Z" fill="black"/>
</svg>
