<svg width="24" height="24" viewBox="0 0 24 24" fill="none" xmlns="http://www.w3.org/2000/svg">
<path d="M2.20195 12.0952C2.55338 12.4466 2.90481 12.5572 3.59824 12.5572L11.202 12.5975C11.2722 12.5975 11.3322 12.5975 11.3627 12.6373C11.3927 12.6673 11.4025 12.7277 11.4025 12.7882L11.4325 20.4022C11.4428 21.0952 11.5534 21.4466 11.9048 21.798C12.3771 22.2802 13.0401 22.2 13.5321 21.7179C13.7935 21.4565 14.0044 21.0249 14.1951 20.6229L21.8794 4.0496C22.281 3.20617 22.2308 2.58303 21.8194 2.17117C21.417 1.7696 20.7942 1.71946 19.9508 2.12103L3.37709 9.80531C2.97509 9.99603 2.54352 10.2069 2.28209 10.4683C1.79995 10.9603 1.71981 11.6135 2.20195 12.0956" fill="#0D2952"/>
</svg>
