<svg width="16" height="17" viewBox="0 0 16 17" fill="none" xmlns="http://www.w3.org/2000/svg">
    <path
        d="M13.9991 2.5L9.66574 14.5C9.63649 14.5638 9.58953 14.6179 9.53044 14.6558C9.47135 14.6938 9.40261 14.7139 9.3324 14.7139C9.26219 14.7139 9.19346 14.6938 9.13437 14.6558C9.07528 14.6179 9.02832 14.5638 8.99907 14.5L6.66574 9.83333L1.99907 7.5C1.93524 7.47075 1.88115 7.42379 1.84323 7.3647C1.80531 7.30561 1.78516 7.23688 1.78516 7.16667C1.78516 7.09646 1.80531 7.02772 1.84323 6.96863C1.88115 6.90954 1.93524 6.86258 1.99907 6.83333L13.9991 2.5Z"
        stroke="#60A5FA" stroke-width="1.33333" stroke-linecap="round" stroke-linejoin="round" />
</svg>