<svg width="20" height="21" viewBox="0 0 20 21" fill="none" xmlns="http://www.w3.org/2000/svg">
    <g clip-path="url(#clip0_4690_15669)">
        <path
            d="M9.4452 0.881654C9.26797 0.974121 9.09074 1.15135 8.99827 1.33629C8.85186 1.62139 8.84416 1.78321 8.84416 4.58806V7.53931L7.86554 6.5607C7.31844 6.02901 6.77134 5.53585 6.63264 5.4665C6.10096 5.20451 5.41516 5.42797 5.14546 5.95966C4.95282 6.33723 4.95282 6.65316 5.13775 7.02303C5.32269 7.37749 9.1755 11.2149 9.51455 11.3844C9.83048 11.5385 10.1695 11.5385 10.4855 11.3844C10.8245 11.2149 14.6773 7.37749 14.8622 7.02303C15.0472 6.65316 15.0472 6.33723 14.8545 5.95966C14.5848 5.42797 13.899 5.20451 13.3674 5.4665C13.2287 5.53585 12.6816 6.02901 12.1422 6.5607L11.1558 7.53931V4.58806C11.1558 1.78321 11.1481 1.62139 11.0017 1.33629C10.7166 0.773775 10.0231 0.573429 9.4452 0.881654Z"
            fill="white" />
        <path
            d="M0.351562 11.9809C0.1875 12.0669 0.0390625 12.3052 0.0390625 12.4888C0.0390625 12.7778 0.5 13.4536 0.949219 13.8208C1.25 14.0708 1.79688 14.3403 2.20312 14.4458C2.625 14.5513 3.30859 14.5552 3.73438 14.4458C4.16016 14.3403 4.69141 14.0669 5.03125 13.7856L5.3125 13.5474L5.59766 13.7856C5.93359 14.0669 6.46484 14.3403 6.89062 14.4458C7.31641 14.5513 7.99609 14.5513 8.42188 14.4458C8.84766 14.3403 9.37891 14.0669 9.71875 13.7856L10 13.5474L10.2852 13.7856C10.6211 14.0669 11.1523 14.3403 11.5781 14.4458C12.0039 14.5513 12.6836 14.5513 13.1094 14.4458C13.5352 14.3403 14.0664 14.0669 14.4062 13.7856L14.6875 13.5474L14.9727 13.7856C15.125 13.9145 15.4141 14.102 15.6055 14.1958C16.1016 14.438 16.4687 14.5239 17.0312 14.5239C17.5937 14.5239 17.9648 14.438 18.457 14.1958C19.0273 13.9145 19.4258 13.5435 19.7734 12.9731C19.9766 12.6372 20.0039 12.4263 19.875 12.2036C19.7109 11.9224 19.3945 11.8364 19.1016 11.9849C18.9883 12.0434 18.9102 12.1333 18.793 12.3247C18.4102 12.9888 17.7812 13.352 17.0312 13.352C16.2812 13.352 15.6523 12.9888 15.2695 12.3247C14.9375 11.7583 14.4375 11.7583 14.1055 12.3247C13.7227 12.9888 13.0938 13.352 12.3438 13.352C11.5938 13.352 10.9648 12.9888 10.582 12.3247C10.25 11.7583 9.75 11.7583 9.41797 12.3247C9.03516 12.9888 8.40625 13.352 7.65625 13.352C6.90625 13.352 6.27734 12.9888 5.89453 12.3247C5.5625 11.7583 5.0625 11.7583 4.73047 12.3247C4.34766 12.9888 3.71875 13.352 2.96875 13.352C2.21875 13.352 1.58984 12.9888 1.20703 12.3247C0.976562 11.9341 0.671875 11.8091 0.351562 11.9809Z"
            fill="white" />
        <path
            d="M0.45341 14.9144C0.195598 14.9964 0.00809795 15.2972 0.0510667 15.5667C0.0901292 15.805 0.383098 16.2425 0.742473 16.594C1.27372 17.1175 1.85185 17.3987 2.60966 17.4964C3.47294 17.6058 4.4495 17.2972 5.09404 16.7073L5.31279 16.5081L5.53544 16.7112C6.012 17.137 6.62529 17.4105 7.29716 17.4964C8.16044 17.6058 9.137 17.2972 9.78154 16.7073L10.0003 16.5081L10.2229 16.7112C10.6995 17.137 11.3128 17.4105 11.9847 17.4964C12.8479 17.6058 13.8245 17.2972 14.469 16.7073L14.6878 16.5081L14.9104 16.7112C15.5745 17.305 16.5276 17.6058 17.3909 17.4964C18.1487 17.3987 18.7268 17.1175 19.2581 16.594C19.5862 16.2698 19.887 15.8362 19.9417 15.6058C20.012 15.3245 19.8089 14.9886 19.5237 14.9144C19.219 14.8323 19.0003 14.9573 18.7854 15.3323C18.5042 15.8206 17.9964 16.1839 17.4143 16.305C16.594 16.4808 15.719 16.0784 15.2737 15.3245C15.0745 14.9808 14.8518 14.844 14.5901 14.8909C14.4065 14.9261 14.2464 15.0706 14.0979 15.3323C13.8167 15.8206 13.3089 16.1839 12.7268 16.305C11.9065 16.4808 11.0315 16.0784 10.5862 15.3245C10.387 14.9808 10.1643 14.844 9.90263 14.8909C9.71904 14.9261 9.55888 15.0706 9.41044 15.3323C9.12919 15.8206 8.62138 16.1839 8.03935 16.305C7.21904 16.4808 6.34404 16.0784 5.89872 15.3245C5.6995 14.9808 5.47685 14.844 5.21513 14.8909C5.03154 14.9261 4.87138 15.0706 4.72294 15.3323C4.34794 15.9847 3.53935 16.4144 2.81279 16.3401C2.10575 16.2737 1.60966 15.9417 1.16044 15.2503C1.09013 15.1448 0.992473 15.0237 0.937785 14.9847C0.816692 14.8948 0.605754 14.8675 0.45341 14.9144Z"
            fill="white" />
        <path
            d="M0.324422 17.9609C0.0900473 18.1016 -0.0115152 18.375 0.0783286 18.6406C0.152547 18.8711 0.480672 19.332 0.750204 19.5859C1.53927 20.3398 2.57052 20.6406 3.61739 20.4258C4.17989 20.3086 4.73458 20.0234 5.12911 19.6445L5.3127 19.4687L5.5002 19.6445C6.03927 20.168 6.87911 20.5 7.65645 20.5C8.4338 20.5 9.27364 20.168 9.81661 19.6445L10.0002 19.4687L10.1877 19.6445C10.7268 20.168 11.5666 20.5 12.344 20.5C13.1213 20.5 13.9611 20.168 14.5041 19.6445L14.6877 19.4687L14.8752 19.6445C15.2658 20.0234 15.8205 20.3086 16.383 20.4258C17.4299 20.6406 18.4611 20.3398 19.2502 19.5859C19.5275 19.3242 19.8596 18.8555 19.926 18.625C20.0432 18.2344 19.7775 17.8828 19.3635 17.8828C19.1291 17.8828 18.969 18 18.7815 18.3125C18.3205 19.0898 17.4299 19.4727 16.5666 19.2695C16.0471 19.1445 15.5588 18.7812 15.2815 18.3125C15.094 17.9961 14.9377 17.8828 14.6877 17.8828C14.4377 17.8828 14.2815 17.9961 14.094 18.3125C13.633 19.0898 12.7424 19.4727 11.8791 19.2695C11.3596 19.1445 10.8713 18.7812 10.594 18.3125C10.4065 17.9961 10.2502 17.8828 10.0002 17.8828C9.7502 17.8828 9.59395 17.9961 9.40645 18.3125C8.94552 19.0898 8.05489 19.4727 7.19161 19.2695C6.67208 19.1445 6.1838 18.7812 5.90645 18.3125C5.71895 17.9961 5.5627 17.8828 5.3127 17.8828C5.0627 17.8828 4.90645 17.9961 4.71895 18.3125C4.25802 19.0898 3.36739 19.4727 2.50411 19.2695C1.98458 19.1445 1.4963 18.7812 1.21895 18.3125C1.13302 18.1719 1.00802 18.0195 0.937704 17.9687C0.773641 17.8594 0.500204 17.8516 0.324422 17.9609Z"
            fill="white" />
    </g>
    <defs>
        <clipPath id="clip0_4690_15669">
            <rect width="20" height="20" fill="white" transform="translate(0 0.5)" />
        </clipPath>
    </defs>
</svg>