<svg width="20" height="21" viewBox="0 0 20 21" fill="none" xmlns="http://www.w3.org/2000/svg">
<g clip-path="url(#clip0_4690_15678)">
<path d="M9.4452 11.1057C9.26797 11.0132 9.09074 10.836 8.99827 10.651C8.85186 10.3659 8.84416 10.2041 8.84416 7.39925V4.44799L7.86554 5.42661C7.31844 5.9583 6.77134 6.45146 6.63264 6.52081C6.10096 6.7828 5.41516 6.55933 5.14546 6.02765C4.95282 5.65007 4.95282 5.33414 5.13775 4.96427C5.32269 4.60981 9.1755 0.772413 9.51455 0.602889C9.83048 0.448777 10.1695 0.448777 10.4855 0.602889C10.8245 0.772413 14.6773 4.60981 14.8622 4.96427C15.0472 5.33414 15.0472 5.65007 14.8545 6.02765C14.5848 6.55933 13.899 6.7828 13.3674 6.52081C13.2287 6.45146 12.6816 5.9583 12.1422 5.42661L11.1558 4.44799V7.39925C11.1558 10.2041 11.1481 10.3659 11.0017 10.651C10.7166 11.2135 10.0231 11.4139 9.4452 11.1057Z" fill="white"/>
<path d="M0.351562 11.7309C0.1875 11.8169 0.0390625 12.0552 0.0390625 12.2388C0.0390625 12.5278 0.5 13.2036 0.949219 13.5708C1.25 13.8208 1.79688 14.0903 2.20312 14.1958C2.625 14.3013 3.30859 14.3052 3.73438 14.1958C4.16016 14.0903 4.69141 13.8169 5.03125 13.5356L5.3125 13.2974L5.59766 13.5356C5.93359 13.8169 6.46484 14.0903 6.89062 14.1958C7.31641 14.3013 7.99609 14.3013 8.42188 14.1958C8.84766 14.0903 9.37891 13.8169 9.71875 13.5356L10 13.2974L10.2852 13.5356C10.6211 13.8169 11.1523 14.0903 11.5781 14.1958C12.0039 14.3013 12.6836 14.3013 13.1094 14.1958C13.5352 14.0903 14.0664 13.8169 14.4062 13.5356L14.6875 13.2974L14.9727 13.5356C15.125 13.6645 15.4141 13.852 15.6055 13.9458C16.1016 14.188 16.4687 14.2739 17.0312 14.2739C17.5937 14.2739 17.9648 14.188 18.457 13.9458C19.0273 13.6645 19.4258 13.2935 19.7734 12.7231C19.9766 12.3872 20.0039 12.1763 19.875 11.9536C19.7109 11.6724 19.3945 11.5864 19.1016 11.7349C18.9883 11.7934 18.9102 11.8833 18.793 12.0747C18.4102 12.7388 17.7812 13.102 17.0312 13.102C16.2812 13.102 15.6523 12.7388 15.2695 12.0747C14.9375 11.5083 14.4375 11.5083 14.1055 12.0747C13.7227 12.7388 13.0938 13.102 12.3438 13.102C11.5938 13.102 10.9648 12.7388 10.582 12.0747C10.25 11.5083 9.75 11.5083 9.41797 12.0747C9.03516 12.7388 8.40625 13.102 7.65625 13.102C6.90625 13.102 6.27734 12.7388 5.89453 12.0747C5.5625 11.5083 5.0625 11.5083 4.73047 12.0747C4.34766 12.7388 3.71875 13.102 2.96875 13.102C2.21875 13.102 1.58984 12.7388 1.20703 12.0747C0.976562 11.6841 0.671875 11.5591 0.351562 11.7309Z" fill="white"/>
<path d="M0.45341 14.6644C0.195598 14.7464 0.00809795 15.0472 0.0510667 15.3167C0.0901292 15.555 0.383098 15.9925 0.742473 16.344C1.27372 16.8675 1.85185 17.1487 2.60966 17.2464C3.47294 17.3558 4.4495 17.0472 5.09404 16.4573L5.31279 16.2581L5.53544 16.4612C6.012 16.887 6.62529 17.1605 7.29716 17.2464C8.16044 17.3558 9.137 17.0472 9.78154 16.4573L10.0003 16.2581L10.2229 16.4612C10.6995 16.887 11.3128 17.1605 11.9847 17.2464C12.8479 17.3558 13.8245 17.0472 14.469 16.4573L14.6878 16.2581L14.9104 16.4612C15.5745 17.055 16.5276 17.3558 17.3909 17.2464C18.1487 17.1487 18.7268 16.8675 19.2581 16.344C19.5862 16.0198 19.887 15.5862 19.9417 15.3558C20.012 15.0745 19.8089 14.7386 19.5237 14.6644C19.219 14.5823 19.0003 14.7073 18.7854 15.0823C18.5042 15.5706 17.9964 15.9339 17.4143 16.055C16.594 16.2308 15.719 15.8284 15.2737 15.0745C15.0745 14.7308 14.8518 14.594 14.5901 14.6409C14.4065 14.6761 14.2464 14.8206 14.0979 15.0823C13.8167 15.5706 13.3089 15.9339 12.7268 16.055C11.9065 16.2308 11.0315 15.8284 10.5862 15.0745C10.387 14.7308 10.1643 14.594 9.90263 14.6409C9.71904 14.6761 9.55888 14.8206 9.41044 15.0823C9.12919 15.5706 8.62138 15.9339 8.03935 16.055C7.21904 16.2308 6.34404 15.8284 5.89872 15.0745C5.6995 14.7308 5.47685 14.594 5.21513 14.6409C5.03154 14.6761 4.87138 14.8206 4.72294 15.0823C4.34794 15.7347 3.53935 16.1644 2.81279 16.0901C2.10575 16.0237 1.60966 15.6917 1.16044 15.0003C1.09013 14.8948 0.992473 14.7737 0.937785 14.7347C0.816692 14.6448 0.605754 14.6175 0.45341 14.6644Z" fill="white"/>
<path d="M0.324422 17.7109C0.0900473 17.8516 -0.0115152 18.125 0.0783286 18.3906C0.152547 18.6211 0.480672 19.082 0.750204 19.3359C1.53927 20.0898 2.57052 20.3906 3.61739 20.1758C4.17989 20.0586 4.73458 19.7734 5.12911 19.3945L5.3127 19.2187L5.5002 19.3945C6.03927 19.918 6.87911 20.25 7.65645 20.25C8.4338 20.25 9.27364 19.918 9.81661 19.3945L10.0002 19.2187L10.1877 19.3945C10.7268 19.918 11.5666 20.25 12.344 20.25C13.1213 20.25 13.9611 19.918 14.5041 19.3945L14.6877 19.2187L14.8752 19.3945C15.2658 19.7734 15.8205 20.0586 16.383 20.1758C17.4299 20.3906 18.4611 20.0898 19.2502 19.3359C19.5275 19.0742 19.8596 18.6055 19.926 18.375C20.0432 17.9844 19.7775 17.6328 19.3635 17.6328C19.1291 17.6328 18.969 17.75 18.7815 18.0625C18.3205 18.8398 17.4299 19.2227 16.5666 19.0195C16.0471 18.8945 15.5588 18.5312 15.2815 18.0625C15.094 17.7461 14.9377 17.6328 14.6877 17.6328C14.4377 17.6328 14.2815 17.7461 14.094 18.0625C13.633 18.8398 12.7424 19.2227 11.8791 19.0195C11.3596 18.8945 10.8713 18.5312 10.594 18.0625C10.4065 17.7461 10.2502 17.6328 10.0002 17.6328C9.7502 17.6328 9.59395 17.7461 9.40645 18.0625C8.94552 18.8398 8.05489 19.2227 7.19161 19.0195C6.67208 18.8945 6.1838 18.5312 5.90645 18.0625C5.71895 17.7461 5.5627 17.6328 5.3127 17.6328C5.0627 17.6328 4.90645 17.7461 4.71895 18.0625C4.25802 18.8398 3.36739 19.2227 2.50411 19.0195C1.98458 18.8945 1.4963 18.5312 1.21895 18.0625C1.13302 17.9219 1.00802 17.7695 0.937704 17.7187C0.773641 17.6094 0.500204 17.6016 0.324422 17.7109Z" fill="white"/>
</g>
<defs>
<clipPath id="clip0_4690_15678">
<rect width="20" height="20" fill="white" transform="translate(0 0.25)"/>
</clipPath>
</defs>
</svg>
