<svg width="25" height="24" viewBox="0 0 25 24" fill="none" xmlns="http://www.w3.org/2000/svg">
<path d="M20.4651 18.9735L20.465 18.9736C20.0893 19.6514 19.3434 20.1 18.503 20.1C17.6629 20.1 16.9156 19.6517 16.5406 18.973C16.3776 18.6784 16.1012 18.5 15.7948 18.5H15.2082C14.9025 18.5 14.6262 18.6785 14.4617 18.9742L20.4651 18.9735ZM20.4651 18.9735C20.6285 18.6785 20.9045 18.5 21.2103 18.5C21.8426 18.5 22.1397 19.08 21.9275 19.4932C21.3245 20.6678 20.0244 21.5 18.5021 21.5C17.6667 21.5 16.898 21.2471 16.2734 20.8237L16.2732 20.8236C15.8098 20.5097 15.1923 20.5097 14.7289 20.8236L14.7284 20.8239C14.1042 21.2477 13.3357 21.5 12.5 21.5C11.6646 21.5 10.8959 21.2471 10.2713 20.8237L10.2711 20.8236C9.80766 20.5097 9.19024 20.5097 8.72677 20.8236L8.72627 20.8239C8.1021 21.2477 7.33356 21.5 6.4979 21.5C4.97558 21.5 3.67547 20.6678 3.07251 19.4932L3.07251 19.4932M20.4651 18.9735L3.07251 19.4932M15.9929 21.2376C15.6987 21.0384 15.3034 21.0384 15.0092 21.2376H15.9929ZM15.9929 21.2376C16.6986 21.716 17.5648 22 18.5021 22C20.2061 22 21.6811 21.068 22.3723 19.7216C22.7814 18.9248 22.1579 18 21.2103 18C20.694 18 20.2644 18.304 20.0277 18.7312L15.9929 21.2376ZM3.07251 19.4932C2.86034 19.08 3.15743 18.5 3.78971 18.5C4.09516 18.5 4.37165 18.6783 4.53474 18.9732C4.90981 19.6518 5.65704 20.1 6.49704 20.1C7.33726 20.1 8.08297 19.6517 8.45878 18.9742L3.07251 19.4932ZM9.79181 18.5C10.0983 18.5 10.3746 18.6784 10.5376 18.973L8.45894 18.9739C8.62339 18.6784 8.89968 18.5 9.20523 18.5H9.79181Z" fill="#0062F5" stroke="#0062F5"/>
<path d="M5.8505 15.9984C4.00186 15.9984 2.5 14.5219 2.5 12.7046C2.5 12.022 3.06288 11.4695 3.75644 11.4695C4.44999 11.4695 5.01288 12.022 5.01288 12.7046C5.01288 13.1592 5.38813 13.5281 5.8505 13.5281C6.31287 13.5281 6.68813 13.1592 6.68813 12.7046V11.4695C6.68813 6.24809 11.0094 2 16.3208 2C17.9492 2 19.5624 2.41089 20.9864 3.18739C21.2821 3.34796 21.4982 3.61969 21.5887 3.94001C21.6791 4.26032 21.6331 4.60205 21.463 4.88942C21.1766 5.37278 20.5735 5.6371 20.0282 5.49135C19.647 5.38925 19.2383 5.29455 18.8329 5.29455H18.827C17.1903 5.29455 15.9674 5.73262 15.1909 6.5964C13.8507 8.08764 14.1103 10.4657 14.1137 10.4896C14.1204 10.5406 14.1237 10.5917 14.1237 10.6427C14.1237 12.232 15.4388 13.5248 17.0554 13.5248C18.672 13.5248 19.9871 12.232 19.9871 10.6427C19.9871 9.96012 20.55 9.4076 21.2436 9.4076C21.9371 9.4076 22.5 9.96012 22.5 10.6427C22.5 13.5939 20.0575 15.9951 17.0554 15.9951C14.0768 15.9951 11.6494 13.631 11.6117 10.7119C11.5598 10.1808 11.3788 7.3836 13.0683 5.24515C10.7741 6.40866 9.20101 8.76203 9.20101 11.4711V12.7063C9.20101 14.5228 7.69831 16 5.8505 16V15.9984Z" fill="#0062F5"/>
</svg>
