<svg width="24" height="24" viewBox="0 0 24 24" fill="none" xmlns="http://www.w3.org/2000/svg">
<path d="M11.9997 5.07692C12.4243 5.07692 12.7689 4.73231 12.7689 4.30769V2.76923C12.7689 2.34462 12.4243 2 11.9997 2C11.5747 2 11.2305 2.34462 11.2305 2.76923V4.30769C11.2305 4.73231 11.5747 5.07692 11.9997 5.07692Z" fill="#F9F9F9"/>
<path d="M4.30769 11.2307H2.76923C2.34423 11.2307 2 11.5753 2 11.9999C2 12.4246 2.34423 12.7692 2.76923 12.7692H4.30769C4.73231 12.7692 5.07692 12.4246 5.07692 11.9999C5.07692 11.5753 4.73231 11.2307 4.30769 11.2307Z" fill="#F9F9F9"/>
<path d="M21.2315 11.2307H19.6931C19.2681 11.2307 18.9238 11.5753 18.9238 11.9999C18.9238 12.4246 19.2681 12.7692 19.6931 12.7692H21.2315C21.6561 12.7692 22.0008 12.4246 22.0008 11.9999C22.0008 11.5753 21.6561 11.2307 21.2315 11.2307Z" fill="#F9F9F9"/>
<path d="M19.0725 4.9289C18.7722 4.62852 18.2852 4.62852 17.9849 4.9289L16.8972 6.01659C16.5968 6.31698 16.5968 6.8039 16.8972 7.10429C17.0475 7.25467 17.2441 7.32967 17.441 7.32967C17.6379 7.32967 17.8345 7.25467 17.9849 7.10429L19.0725 6.01659C19.3729 5.71621 19.3729 5.22929 19.0725 4.9289Z" fill="#F9F9F9"/>
<path d="M7.1038 6.01659L6.01611 4.9289C5.71572 4.62852 5.2288 4.62852 4.92841 4.9289C4.62803 5.22929 4.62803 5.71621 4.92841 6.01659L6.01611 7.10429C6.16649 7.25467 6.36303 7.32967 6.55995 7.32967C6.75687 7.32967 6.9538 7.25467 7.1038 7.10429C7.40457 6.8039 7.40457 6.31736 7.1038 6.01659Z" fill="#F9F9F9"/>
<path d="M11.9999 6.61548C9.03062 6.61548 6.61523 9.03086 6.61523 12.0001C6.61523 12.942 6.866 13.8736 7.34139 14.6936C7.4787 14.9309 7.73216 15.077 8.00677 15.077H15.9929C16.2675 15.077 16.521 14.9309 16.6587 14.6936C17.1337 13.8736 17.3845 12.942 17.3845 12.0001C17.3845 9.03086 14.9691 6.61548 11.9999 6.61548ZM15.5218 13.5386H8.47793C8.26485 13.0532 8.1537 12.5289 8.1537 12.0001C8.1537 9.87933 9.87908 8.15394 11.9999 8.15394C14.1206 8.15394 15.846 9.87933 15.846 12.0001C15.846 12.5289 15.7349 13.0532 15.5218 13.5386Z" fill="#F9F9F9"/>
<path d="M12.5445 16.8408C12.2441 16.5404 11.7572 16.5404 11.4568 16.8408L9.14912 19.1485C8.84873 19.4488 8.84873 19.9358 9.14912 20.2362C9.4495 20.5365 9.93643 20.5365 10.2368 20.2362L11.2314 19.2415V21.2308C11.2314 21.6554 11.5757 22 12.0007 22C12.4253 22 12.7699 21.6554 12.7699 21.2308V19.2415L13.7645 20.2362C13.9149 20.3865 14.1114 20.4615 14.3083 20.4615C14.5053 20.4615 14.7018 20.3865 14.8522 20.2362C15.1526 19.9358 15.1526 19.4488 14.8522 19.1485L12.5445 16.8408Z" fill="#F9F9F9"/>
</svg>
