<svg width="96" height="97" viewBox="0 0 96 97" fill="none" xmlns="http://www.w3.org/2000/svg">
<path d="M48.155 96.571C74.4045 96.571 95.684 75.1093 95.684 48.635C95.684 22.1606 74.4045 0.698975 48.155 0.698975C21.9054 0.698975 0.625977 22.1606 0.625977 48.635C0.625977 75.1093 21.9054 96.571 48.155 96.571Z" fill="#C0B0D3"/>
<g opacity="0.2">
<path d="M48.155 96.571C74.4045 96.571 95.684 75.1093 95.684 48.635C95.684 22.1606 74.4045 0.698975 48.155 0.698975C21.9054 0.698975 0.625977 22.1606 0.625977 48.635C0.625977 75.1093 21.9054 96.571 48.155 96.571Z" fill="white"/>
</g>
<path d="M66.109 18.9929C65.664 18.6489 65.218 18.3059 64.773 17.9619C64.627 17.8499 64.476 17.7309 64.396 17.5649C64.307 17.3829 64.316 17.1709 64.284 16.9709C64.166 16.2309 63.403 15.6589 62.667 15.7599C62.381 15.0279 62.314 14.2259 62.055 13.4829C61.796 12.7399 61.263 12.0099 60.494 11.8759C60.194 11.8229 59.875 11.8649 59.594 11.7459C59.285 11.6159 59.082 11.3179 58.815 11.1129C57.92 10.4269 56.356 10.8009 55.788 9.82288C55.655 9.59288 55.604 9.31787 55.447 9.10487C55.25 8.83787 54.921 8.71188 54.611 8.59888C53.489 8.19088 52.241 7.78388 51.136 8.23688C50.743 8.39788 50.385 8.66488 49.966 8.73288C49.497 8.80888 48.99 8.62988 48.556 8.82188C48.296 8.93688 48.081 9.17887 47.797 9.19287C47.597 9.20287 47.413 9.09387 47.239 8.99487C46.144 8.37087 44.835 7.98887 43.616 8.17787C43.763 8.07987 43.909 7.97988 44.075 7.92188C44.2 7.87787 44.333 7.85988 44.461 7.82588C44.775 7.74188 45.062 7.55587 45.269 7.30287C45.243 7.25587 45.217 7.20787 45.191 7.16087C45.023 7.27387 44.797 7.16889 44.639 7.04189C44.481 6.91489 44.316 6.75688 44.115 6.76688C44.014 6.77188 43.92 6.81987 43.822 6.84187C43.404 6.93787 43.009 6.57588 42.58 6.57088C42.439 6.56888 42.3 6.60687 42.166 6.64987C41.558 6.84387 40.989 7.15988 40.501 7.57388C40.446 7.61988 40.391 7.66988 40.358 7.73288C40.313 7.81888 40.312 7.92088 40.325 8.01688C40.371 8.34688 40.586 8.64788 40.882 8.79588C41.201 8.95588 41.579 8.93688 41.929 8.87288C41.963 8.86688 41.996 8.85588 42.03 8.84888C41.801 9.03688 41.606 9.26289 41.474 9.52888C41.225 10.0339 41.243 10.6909 41.606 11.1189C41.193 11.3959 40.743 10.7469 40.249 10.6999C39.886 10.6659 39.586 10.9639 39.343 11.2379C39.011 11.6129 38.678 11.9879 38.346 12.3629C37.954 12.2519 37.561 12.1409 37.169 12.0299C36.98 11.9769 36.776 11.9239 36.593 11.9929C36.408 12.0629 36.29 12.2409 36.139 12.3689C35.73 12.7159 35.037 12.6379 34.715 12.2079C34.679 12.1589 34.65 12.1069 34.624 12.0519C34.788 11.9579 34.929 11.8359 34.983 11.6589C34.931 11.4859 34.738 11.3949 34.556 11.4029C34.607 11.1549 34.74 10.9239 34.949 10.7819C35.231 10.5889 35.636 10.5139 35.769 10.2019C35.981 10.0629 36.192 9.92487 36.404 9.78587C36.48 9.73687 36.558 9.68388 36.603 9.60588C36.645 9.53188 36.645 9.42788 36.585 9.36888C36.974 8.96588 36.497 7.96588 36.917 7.45888C37.192 7.12688 37.72 7.18488 38.109 7.36888C38.498 7.55188 38.861 7.83388 39.289 7.86588C39.935 7.91488 40.464 7.39488 40.957 6.96988C41.45 6.54588 42.068 6.24088 42.706 6.48988C42.529 6.42088 43.041 5.60887 43.343 5.63487C43.524 5.65087 43.54 5.93687 43.677 6.01187C44.555 6.49187 45.665 5.85787 46.621 5.74887C47.834 5.60987 49.068 5.65489 50.267 5.88889C50.345 5.57189 49.991 5.33287 49.694 5.20187C48.625 4.72987 47.547 4.25488 46.405 4.01088C44.38 3.57888 42.234 3.90988 40.34 4.75089C39.871 4.95888 39.389 5.20288 38.878 5.17288C38.628 5.15788 38.384 5.07687 38.133 5.07687C37.688 5.07687 37.307 5.32187 36.972 5.63687C36.606 5.62287 36.245 5.77188 35.926 5.96088C35.784 6.04588 35.646 6.13888 35.512 6.23688C35.6 6.35588 35.785 6.28288 35.915 6.21288C36.145 6.08888 36.397 6.00488 36.655 5.96388C36.604 6.02088 36.553 6.07887 36.504 6.13687C36.199 6.49287 35.761 6.40288 35.298 6.45688C35.138 6.47588 34.975 6.47788 34.822 6.52988C34.659 6.58588 34.524 6.69389 34.404 6.81989C34.554 6.64389 34.703 6.46688 34.853 6.29088C34.957 6.16888 35.068 6.02288 35.041 5.86388C35.498 5.85688 35.946 5.61187 36.202 5.22987C36.245 5.16487 36.287 5.09288 36.357 5.05788C36.489 4.99088 36.655 5.08588 36.792 5.03088C36.907 4.98488 36.958 4.85488 37.022 4.74788C37.187 4.47088 37.486 4.30988 37.77 4.16188C38.239 3.91788 38.707 3.67387 39.176 3.42987C38.991 3.40287 38.806 3.37588 38.621 3.34888C38.463 3.35488 38.339 3.37188 38.225 3.39688L38.182 3.39587C36.635 3.48387 35.108 3.90488 33.732 4.62088C33.614 4.68188 33.497 4.74588 33.372 4.79088C33.255 4.83288 33.132 4.85888 33.011 4.88788C32.238 5.07488 31.516 5.42788 30.8 5.77788C29.46 6.43288 28.12 7.08888 26.78 7.74388C26.636 7.81388 26.467 7.93687 26.508 8.09187C26.785 8.12187 27.063 8.15188 27.34 8.18188C26.726 8.33088 26.145 8.61388 25.647 9.00388C25.488 9.12788 25.329 9.26788 25.132 9.30688C25.019 9.32988 24.901 9.31687 24.788 9.33987C24.627 9.37187 24.489 9.47288 24.356 9.57088C22.967 10.5979 21.578 11.6239 20.189 12.6499C19.403 13.2309 18.61 13.8179 17.956 14.5469C17.211 15.3779 16.26 16.0919 15.658 17.0339C15.165 17.8049 14.856 18.6889 14.313 19.4249C14.701 19.1189 15.089 18.8129 15.475 18.5049C15.653 18.3629 15.832 18.2199 15.979 18.0459C16.1 17.9039 16.197 17.7429 16.302 17.5889C16.569 17.1969 16.889 16.8429 17.207 16.4909C17.357 16.3249 17.511 16.1559 17.702 16.0399C17.824 15.9649 17.96 15.9139 18.076 15.8299C18.222 15.7239 18.329 15.5719 18.465 15.4529C18.601 15.3339 18.79 15.2459 18.96 15.3079C18.819 15.5599 18.665 15.8049 18.5 16.0409C18.443 16.1219 18.382 16.2059 18.294 16.2519C18.202 16.2999 18.094 16.3009 17.993 16.3239C17.555 16.4209 17.32 16.8889 17.143 17.3049C17.318 17.2919 17.494 17.2789 17.669 17.2659C17.716 17.3529 17.671 17.4599 17.626 17.5489C17.181 18.4219 16.731 19.3029 16.101 20.0509C16.511 19.5199 16.77 18.8719 16.84 18.2029C16.198 18.5779 15.744 19.2009 15.249 19.7579C14.93 20.1159 14.547 20.4719 14.072 20.5159C14.081 20.3069 14.146 20.1009 14.259 19.9249C13.772 19.9049 13.448 20.4089 13.228 20.8479C12.784 21.7339 12.339 22.6199 11.895 23.5059C11.61 24.0739 11.325 24.6409 11.041 25.2089C10.819 25.6509 10.597 26.0939 10.375 26.5359C10.291 26.7039 10.205 26.9059 10.291 27.0739C10.938 26.4379 11.511 25.7259 11.995 24.9569C12.08 24.8219 12.163 24.6849 12.272 24.5689C12.388 24.4469 12.529 24.3539 12.654 24.2419C13.139 23.8059 13.352 23.0999 13.894 22.7389C13.862 23.2699 13.392 23.6449 13.036 24.0389C12.67 24.4439 12.395 24.9339 12.239 25.4589C12.188 25.6299 12.149 25.8079 12.058 25.9609C11.967 26.1149 11.829 26.2359 11.735 26.3879C11.535 26.7129 11.566 27.1239 11.603 27.5049C11.605 27.5259 11.607 27.5479 11.62 27.5639C11.654 27.6079 11.723 27.5819 11.769 27.5519C12.107 27.3369 12.444 27.1229 12.782 26.9079C12.724 27.2149 12.831 27.5259 12.9 27.8309C12.969 28.1359 12.988 28.4889 12.789 28.7279C12.232 29.3999 11.817 29.7809 11.746 30.7189C11.698 31.3559 11.652 32.0809 11.157 32.4799C11.05 32.5659 10.919 32.6429 10.88 32.7749C10.843 32.9019 10.907 33.0339 10.934 33.1639C11.036 33.6539 10.623 34.0789 10.329 34.4819C10.245 34.5969 10.167 34.7229 10.142 34.8639C10.12 34.9899 10.142 35.1179 10.15 35.2459C10.168 35.5409 10.109 35.8409 9.979 36.1069C10.196 36.2359 10.413 36.3649 10.63 36.4939C10.735 36.5569 10.844 36.6219 10.915 36.7229C10.994 36.8359 11.016 36.9799 11.081 37.1019C11.18 37.2879 11.377 37.4189 11.429 37.6229C11.455 37.7249 11.441 37.8329 11.432 37.9379C11.386 38.4929 11.51 39.0619 11.782 39.5469C11.867 39.6979 11.966 39.8439 12.004 40.0129C12.088 40.3919 11.843 40.8029 11.982 41.1649C11.848 41.1849 11.919 41.4139 12.016 41.5099C12.113 41.6059 12.261 41.6179 12.397 41.6299C12.532 41.6419 12.682 41.6689 12.762 41.7789C12.911 41.9839 12.703 42.2499 12.628 42.4929C12.554 42.7299 12.625 43.0059 12.803 43.1779C12.9 43.2709 13.038 43.3639 13.022 43.4979C13.004 43.6519 12.81 43.6949 12.674 43.7659C12.278 43.9699 12.284 44.5539 12.461 44.9659C12.638 45.3769 12.932 45.7649 12.926 46.2129C13.294 46.2489 13.629 46.5209 13.742 46.8759C13.779 46.9909 13.81 47.1329 13.923 47.1739C14.063 47.2249 14.193 47.0739 14.244 46.9339C14.426 46.4389 14.26 45.8409 14.536 45.3929C14.663 45.1859 14.867 45.0419 15.025 44.8589C15.183 44.6759 15.297 44.4109 15.193 44.1919C15.131 44.0599 15.002 43.9719 14.932 43.8449C14.861 43.7179 14.895 43.5069 15.039 43.4929C15.243 43.6409 15.396 43.8609 15.464 44.1059C15.649 44.1059 15.834 44.1049 16.019 44.1049C16.018 44.3979 16.016 44.6899 16.014 44.9829C15.684 45.2279 15.534 45.6929 15.658 46.0869C15.699 46.2169 15.774 46.3459 15.897 46.4029C15.98 46.4419 16.076 46.4439 16.161 46.4779C16.63 46.6659 16.452 47.5979 16.948 47.6919C17.149 47.7299 17.345 47.5849 17.549 47.6009C17.707 47.6129 17.9 47.7099 18 47.5859C18.069 47.4999 18.029 47.3749 17.996 47.2699C17.893 46.9419 17.895 46.5819 18.001 46.2549C17.816 45.8209 17.696 45.3589 17.648 44.8899C17.695 44.8649 17.742 44.8399 17.789 44.8149C18.023 45.0129 18.265 45.2209 18.389 45.5029C18.47 45.6859 18.497 45.8919 18.594 46.0659C18.691 46.2409 18.901 46.3809 19.084 46.3039C19.254 46.2319 19.31 46.0139 19.299 45.8279C19.288 45.6419 19.232 45.4549 19.269 45.2729C19.343 44.9099 19.737 44.7259 20.082 44.5969C20.121 44.7239 19.962 44.8089 19.857 44.8909C19.621 45.0749 19.613 45.4269 19.647 45.7259C19.699 46.1869 19.811 46.6609 20.109 47.0139C20.407 47.3669 20.935 47.5559 21.343 47.3439C21.85 47.0809 21.933 46.3969 21.941 45.8219C22.1 45.7399 22.335 45.6769 22.423 45.8339C22.485 45.9439 22.417 46.0809 22.427 46.2079C22.446 46.4419 22.726 46.5899 22.746 46.8239C22.758 46.9569 22.681 47.0789 22.612 47.1929C22.424 47.4999 22.302 47.9739 22.606 48.1639C22.685 48.2129 22.78 48.2299 22.869 48.2579C23.299 48.3929 23.619 48.8259 23.624 49.2799C23.782 49.3189 23.902 49.4779 23.897 49.6419C23.892 49.8059 23.762 49.9569 23.602 49.9859C23.531 49.9989 23.45 49.9929 23.398 50.0429C23.285 50.1519 23.437 50.3869 23.318 50.4889C23.279 50.5229 23.224 50.5269 23.175 50.5439C22.92 50.6359 22.956 51.0019 22.982 51.2749C23.041 51.8919 22.76 52.5299 22.268 52.9009C21.917 53.1649 21.395 53.2799 21.053 53.0039C20.891 52.8729 20.796 52.6779 20.662 52.5189C20.528 52.3599 20.314 52.2299 20.12 52.3039C20.037 52.3349 19.972 52.3989 19.908 52.4599C19.517 52.8419 19.106 53.2589 19 53.7979C18.964 53.9779 18.964 54.1699 18.883 54.3349C18.783 54.5399 18.577 54.6679 18.431 54.8419C18.248 55.0599 18.162 55.3579 18.2 55.6409C18.354 55.8269 18.126 56.0769 18.025 56.2979C17.924 56.5179 17.766 56.7099 17.681 56.9369C17.503 57.4109 17.669 57.9369 17.836 58.4149C18.057 59.0499 18.298 59.7159 18.804 60.1549C18.934 60.2679 19.079 60.3619 19.222 60.4579C19.796 60.8419 20.377 61.2719 20.688 61.8919C21.037 61.9839 21.442 61.6789 21.747 61.8739C21.862 61.9469 21.928 62.0759 21.989 62.1979C22.155 62.5299 22.321 62.8609 22.487 63.1929C22.619 63.4579 22.762 63.7349 23.008 63.8969C23.254 64.0589 23.636 64.0529 23.796 63.8039C23.992 63.4999 23.75 63.0799 23.869 62.7389C24.029 62.2799 24.754 62.1679 24.813 61.6849C24.838 61.4799 24.736 61.2299 24.887 61.0899C24.948 61.0329 25.035 61.0159 25.112 60.9829C25.37 60.8739 25.521 60.5579 25.444 60.2869C26.038 60.2399 26.766 60.2599 27.057 60.7839C27.12 60.8979 27.242 61.0529 27.339 60.9659C27.256 60.3129 27.172 59.6469 27.298 59.0009C27.333 58.8199 27.385 58.6349 27.346 58.4549C27.233 57.9249 26.474 57.8169 26.224 57.3369C25.931 56.7759 26.466 55.9889 26.081 55.4879C25.844 55.1799 25.348 55.1339 25.175 54.7849C25.116 54.6649 25.104 54.5229 25.026 54.4139C24.947 54.3029 24.815 54.2469 24.704 54.1689C24.275 53.8649 24.204 53.2519 24.256 52.7249C24.308 52.1979 24.438 51.6509 24.266 51.1509C24.202 50.9659 24.097 50.7919 24.079 50.5959C24.046 50.2539 24.343 49.9109 24.684 49.9129C25.025 49.9149 25.32 50.2819 25.237 50.6149C25.181 50.8399 24.994 51.0029 24.852 51.1859C24.71 51.3689 24.609 51.6349 24.74 51.8259C25.09 51.8659 25.229 52.4209 24.941 52.6239C24.857 52.6829 24.754 52.7109 24.674 52.7759C24.465 52.9439 24.499 53.2859 24.645 53.5119C24.791 53.7379 25.019 53.8969 25.184 54.1089C25.271 54.2209 25.349 54.3539 25.479 54.4099C25.548 54.4399 25.625 54.4449 25.7 54.4489C25.901 54.4599 26.102 54.4719 26.302 54.4829C26.378 54.4869 26.456 54.4909 26.529 54.4699C26.648 54.4349 26.737 54.3379 26.828 54.2539C27.146 53.9599 27.548 53.7789 27.942 53.6029C28.081 53.5409 28.226 53.4779 28.377 53.4859C28.73 53.5039 28.942 53.8699 29.179 54.1349C29.527 54.5239 30.022 54.7379 30.5 54.9399C30.727 54.0969 30.951 53.1809 30.623 52.3719C30.364 51.7349 29.807 51.2809 29.364 50.7559C28.935 50.2469 28.593 49.5619 28.796 48.9259C28.909 48.8679 29.021 48.8089 29.134 48.7509C29.618 48.9589 30.006 49.3799 30.177 49.8819C30.308 50.2669 30.312 50.6829 30.397 51.0809C30.523 51.6719 30.831 52.2209 31.263 52.6399C31.255 52.1729 31.246 51.7059 31.237 51.2389C31.234 51.1049 31.239 50.9529 31.337 50.8619C31.432 50.7739 31.577 50.7789 31.705 50.7939C32.09 50.8389 32.47 50.9289 32.836 51.0599C32.945 51.0989 33.058 51.1449 33.134 51.2329C33.231 51.3449 33.252 51.5029 33.269 51.6519C33.334 52.2199 33.343 52.9149 32.864 53.2219C32.513 53.4469 31.986 53.3849 31.744 53.7259C31.58 53.9559 31.61 54.3049 31.396 54.4889C31.276 54.5919 31.097 54.6239 31.012 54.7569C30.879 54.9639 31.066 55.2419 31.011 55.4819C30.976 55.6369 30.841 55.7829 30.894 55.9319C30.926 56.0219 31.016 56.0749 31.088 56.1379C31.423 56.4349 31.35 56.9709 31.249 57.4089C31.166 57.7679 31.083 58.1269 31 58.4859C31.069 57.7589 30.866 57.0079 30.439 56.4179C30.055 56.5079 29.666 56.3319 29.287 56.2209C28.908 56.1109 28.434 56.0929 28.187 56.4029C27.981 56.6619 28.025 57.0389 28.127 57.3539C28.23 57.6689 28.383 57.9819 28.362 58.3129C28.337 58.7169 28.063 59.1509 28.279 59.4919C28.439 59.5609 28.599 59.6299 28.76 59.6989C29.017 59.8099 29.321 60.1009 29.133 60.3089C28.967 60.4919 28.521 60.4199 28.551 60.6669C28.559 60.7279 28.603 60.7779 28.645 60.8229C29.008 61.2069 29.418 61.7059 29.238 62.2039C29.517 62.1269 29.805 62.2739 30.044 62.4369C30.662 62.8579 31.186 63.4189 31.565 64.0659C31.682 64.2659 31.786 64.4739 31.906 64.6729C32.177 64.6999 32.253 64.3079 32.221 64.0359C32.174 63.6229 32.127 63.2099 32.079 62.7969C32.043 62.4829 32.007 62.1669 31.917 61.8649C31.789 61.4369 31.557 61.0479 31.408 60.6269C31.258 60.2059 31.198 59.7179 31.411 59.3259C31.934 59.6529 32.304 60.2199 32.396 60.8339C32.429 61.0529 32.428 61.2759 32.462 61.4939C32.571 62.1779 33.02 62.7749 33.102 63.4629C33.13 63.6989 33.117 63.9519 33.238 64.1559C33.312 64.2809 33.429 64.3729 33.544 64.4619C33.986 64.8059 34.428 65.1489 34.869 65.4929C34.98 65.5789 35.058 65.7669 35.185 65.7069C35.013 65.1219 34.841 64.5359 34.669 63.9509C35.031 64.2579 35.392 64.5649 35.754 64.8719C35.701 64.5879 35.74 64.2759 35.916 64.0489C36.092 63.8219 36.425 63.7099 36.68 63.8399C36.935 63.9699 37.032 64.3629 36.828 64.5659C37.369 64.0669 38.245 63.9829 38.87 64.3699C39.03 64.4689 39.184 64.5999 39.371 64.6219C39.713 64.6639 40.065 64.3329 40.374 64.4879C40.691 64.6469 40.749 65.2329 41.101 65.1989C41.31 65.1789 41.47 64.9159 41.671 64.9749C41.696 65.1459 41.721 65.3159 41.746 65.4869C42.301 65.4309 42.994 65.2529 43.085 64.6969C43.101 64.5979 43.095 64.4939 43.129 64.3989C43.177 64.2629 43.299 64.1699 43.41 64.0799C43.844 63.7299 44.233 63.2779 44.344 62.7289C44.456 62.1799 44.212 61.5309 43.693 61.3289C43.558 61.2089 43.689 60.9879 43.829 60.8749C43.969 60.7619 44.141 60.5979 44.065 60.4339C44.019 60.3339 43.898 60.2939 43.829 60.2069C43.646 59.9779 43.919 59.5879 43.739 59.3559C43.658 59.2509 43.514 59.2229 43.4 59.1549C43.066 58.9549 43.069 58.4309 43.306 58.1199C43.543 57.8089 43.927 57.6599 44.292 57.5249C44.649 57.3929 45.006 57.2599 45.363 57.1279C45.643 57.0239 45.972 56.8549 45.978 56.5539C45.982 56.3399 45.827 56.0749 45.995 55.9449C46.091 55.8709 46.229 55.9089 46.347 55.8809C46.631 55.8129 46.674 55.4279 46.655 55.1339C46.641 54.9209 46.627 54.7069 46.613 54.4939C46.607 54.4009 46.601 54.3059 46.632 54.2179C46.692 54.0459 46.87 53.9539 47.012 53.8409C47.153 53.7279 47.273 53.5239 47.172 53.3729C46.689 53.3939 46.206 53.4149 45.724 53.4359C45.51 53.4449 45.283 53.4509 45.098 53.3409C44.914 53.2309 44.809 52.9589 44.946 52.7929C44.829 52.7529 44.712 52.7129 44.596 52.6729C44.603 52.3989 44.611 52.1259 44.618 51.8519C44.62 51.7729 44.623 51.6909 44.66 51.6219C44.7 51.5469 44.773 51.4969 44.844 51.4499C45.072 51.2989 45.299 51.1479 45.527 50.9969C45.482 51.2469 45.623 51.5179 45.852 51.6239C46.062 51.6379 46.1 51.3129 46 51.1269C45.899 50.9409 45.736 50.7379 45.823 50.5449C45.854 50.4749 45.915 50.4219 45.951 50.3539C46.131 50.0129 45.608 49.6359 45.714 49.2649C45.32 49.1609 44.925 49.0559 44.531 48.9519C44.441 48.8029 44.336 48.6629 44.223 48.5309C43.106 48.7819 41.946 48.9179 40.753 48.9179C40.659 48.9179 40.566 48.9129 40.473 48.9109C40.445 49.2129 40.48 49.5399 40.53 49.8349C40.718 49.6769 40.907 49.5179 41.095 49.3599C41.051 49.9509 41.113 50.5499 41.279 51.1189C41.322 51.2669 41.37 51.4369 41.287 51.5669C41.208 51.6909 41.041 51.7269 40.945 51.8369C40.655 52.1659 41.217 52.7039 41.016 53.0939C40.582 53.1109 40.218 52.4859 39.833 52.6879C39.742 52.7359 39.674 52.8249 39.576 52.8549C39.358 52.9209 39.175 52.6459 39.193 52.4169C39.211 52.1879 39.34 51.9809 39.366 51.7529C39.405 51.4179 39.222 51.1029 39.151 50.7729C39.084 50.4599 39.117 50.1259 39.005 49.8269C38.893 49.5279 38.536 49.2779 38.264 49.4419C38.262 49.1619 38.156 48.8889 37.985 48.6699C35.452 48.2219 33.124 47.1729 31.154 45.6699C31.121 45.6929 31.087 45.7159 31.058 45.7439C30.787 46.0159 30.815 46.4549 30.813 46.8399C30.811 47.2249 30.698 47.6909 30.331 47.7989C30.011 47.5509 30.07 46.9959 29.744 46.7549C29.591 46.6419 29.384 46.6259 29.228 46.5169C28.979 46.3429 28.932 45.9969 28.908 45.6929C28.869 45.1979 28.858 44.6259 29.224 44.2929C29.285 44.2369 29.357 44.1909 29.431 44.1469C26.587 41.2459 40.763 42.8959 40.763 38.4939C40.763 35.4479 40.058 33.9339 39.489 33.2589C40.179 33.4999 41.442 33.7429 43.58 33.7429C48.93 33.7429 50.832 19.4629 53.719 23.5449C54.013 23.2479 54.456 23.0989 54.864 23.1879C56.144 23.4699 56.242 25.4189 57.357 26.1139C57.854 26.1039 58.351 26.0929 58.848 26.0829C59.085 26.5449 59.645 26.7709 60.16 26.7299C60.869 26.6729 61.53 26.1169 61.641 25.4089C61.751 24.7009 61.232 23.9309 60.527 23.8439C60.307 23.8169 60.077 23.8489 59.866 23.7819C59.654 23.7149 59.464 23.4879 59.545 23.2789C59.913 22.7739 60.723 22.9629 61.206 23.3549C61.689 23.7479 62.079 24.3049 62.675 24.4829C62.996 23.6159 64.341 23.3909 64.479 22.4759C64.514 22.2439 64.46 21.9949 64.55 21.7779C64.746 21.3059 65.503 21.2419 65.625 20.7459C65.676 20.5359 65.589 20.3189 65.562 20.1039C65.506 19.6649 65.732 19.2089 66.109 18.9929Z" fill="#C0B0D3"/>
<path d="M55.7658 26.2438C55.5718 26.0938 55.3458 25.9968 55.1118 25.9158C55.5628 26.8648 55.9238 27.8658 56.1848 28.9078C56.3168 28.8178 56.4438 28.7158 56.5598 28.5948C56.5268 27.7378 56.4378 26.7668 55.7658 26.2438Z" fill="#C0B0D3"/>
<path d="M28.1729 28.2329C28.2019 28.2449 28.2329 28.2569 28.2639 28.2529C28.2969 28.2489 28.3258 28.2299 28.3568 28.2199C28.4668 28.1849 28.5759 28.2699 28.6659 28.3429C28.7559 28.4159 28.8829 28.4849 28.9799 28.4209C29.0729 28.3599 29.0669 28.2189 29.0249 28.1159C28.9829 28.0129 28.9149 27.9149 28.9159 27.8029C28.9169 27.7519 28.9318 27.7019 28.9398 27.6509C28.9658 27.4699 28.8729 27.2779 28.7149 27.1869C28.5579 27.0959 28.3459 27.1129 28.2049 27.2279C28.2719 27.3159 28.3419 27.4099 28.3539 27.5199C28.3669 27.6299 28.2959 27.758 28.1869 27.764C28.1069 27.769 28.0378 27.7109 27.9608 27.6919C27.8478 27.6629 27.7179 27.7279 27.6729 27.8369C27.7999 28.0099 27.9749 28.1479 28.1729 28.2329Z" fill="#C0B0D3"/>
<path d="M56.5288 9.13886C56.9988 9.93686 58.1368 10.2429 58.9378 9.78686C58.9838 9.76086 59.0288 9.73186 59.0628 9.69186C59.2248 9.50386 59.0648 9.21786 58.9078 9.02586C58.1638 8.66386 57.2378 8.70686 56.5288 9.13886Z" fill="#C0B0D3"/>
<path d="M52.0332 6.00293C52.4402 6.05193 52.8472 6.10192 53.2542 6.15192C53.4592 6.17692 53.7352 6.33493 53.6262 6.51093C53.3382 6.45493 53.1012 6.81192 53.1712 7.09892C53.2402 7.38592 53.5032 7.58293 53.7702 7.70693C55.5162 8.51593 57.6272 7.15293 59.4542 7.75293C60.4272 8.07293 61.1642 8.90693 62.1262 9.25693C62.5222 9.40093 63.0392 9.56393 63.0592 9.98793C63.0642 10.0959 63.0322 10.2029 63.0332 10.3119C63.0382 10.6459 63.3682 10.8919 63.6932 10.9479C64.0192 11.0039 64.3512 10.9259 64.6812 10.9079C65.3652 10.8699 66.0602 11.0979 66.5902 11.5339C66.7382 11.6649 66.4872 11.8519 66.3482 11.9929C66.0372 12.3069 66.3872 12.8859 66.8202 12.9629C67.2532 13.0399 67.6752 12.8199 68.0882 12.6649C68.8522 12.3789 69.7182 12.3119 70.4802 12.6019C71.2432 12.8919 71.8772 13.5729 72.0022 14.3849C72.0212 14.5109 72.0232 14.6549 71.9362 14.7469C71.8632 14.8229 71.7502 14.8409 71.6462 14.8469C70.6412 14.9079 69.6292 14.2859 69.2242 13.3569C69.1762 13.2459 69.1282 13.1229 69.0252 13.0609C68.9722 13.0299 68.9102 13.0179 68.8492 13.0149C68.2462 12.9909 67.9442 13.8539 68.2402 14.3849C68.5352 14.9159 69.1482 15.1639 69.7152 15.3749C70.3872 15.6239 71.0632 15.8739 71.7702 15.9869C72.6322 16.1239 73.5112 16.0529 74.3812 15.9809C75.9682 15.8499 77.5632 15.7179 79.1062 15.3209C78.8672 14.9889 78.6282 14.6579 78.3892 14.3259C78.0032 13.7899 77.6002 13.2389 77.0312 12.9059C75.9312 12.2629 74.4172 12.5579 73.4352 11.7439C73.1502 11.5079 72.9262 11.1889 72.5952 11.0269C72.3542 10.9099 72.0802 10.8879 71.8132 10.8729C70.5212 10.7969 69.2242 10.8119 67.9342 10.9169C67.4962 10.9529 67.0312 10.9939 66.6372 10.7959C65.9612 10.4559 65.7802 9.58293 65.3222 8.97693C64.9462 8.47993 64.3842 8.16893 63.8382 7.87293C63.5272 7.70393 63.2172 7.53492 62.9062 7.36592C62.7072 7.25792 62.5062 7.14892 62.2882 7.08792C61.8452 6.96492 61.3692 7.05093 60.9172 6.96593C60.4952 6.88693 60.1162 6.66393 59.7472 6.44493C59.0282 6.01893 58.3102 5.59193 57.5912 5.16593C57.3592 5.02793 57.1172 4.88793 56.8502 4.86193C56.2832 4.80693 55.7302 5.27693 55.1842 5.11693C54.9862 5.05893 54.8212 4.92493 54.6472 4.81493C53.7032 4.21993 52.3572 4.38493 51.5812 5.18993C51.4782 5.29693 51.3792 5.42892 51.3872 5.57892C51.4032 5.86192 51.7552 5.96893 52.0332 6.00293Z" fill="#C0B0D3"/>
<path d="M92.118 61.9109C91.976 61.5549 91.83 61.1909 91.575 60.9069C91.343 60.6479 91.036 60.4709 90.754 60.2689C89.838 59.6129 89.15 58.6409 88.832 57.5539C89.202 57.3579 89.369 56.9169 89.456 56.5049C89.641 55.6319 89.705 54.1849 89.407 52.9969C89.081 51.6989 88.324 50.7109 86.82 51.1189C86.651 51.1649 86.479 51.2199 86.304 51.2079C85.62 51.1609 85.074 50.1489 84.48 50.4939C83.959 50.2509 84.439 49.3689 84.121 48.8879C83.978 48.6719 83.671 48.5329 83.682 48.2729C83.689 48.1259 83.803 48.0079 83.858 47.8709C84.002 47.5099 83.668 47.0959 83.288 47.0349C82.907 46.9739 82.531 47.1659 82.223 47.3999C81.915 47.6339 81.639 47.9179 81.293 48.0889C81.969 48.8049 82.265 49.8669 82.056 50.8329C81.396 50.8709 80.673 50.8889 80.149 50.4819C80.029 50.3889 79.917 50.2719 79.77 50.2359C79.643 50.2049 79.51 50.2399 79.387 50.2849C78.661 50.5529 78.121 51.1639 77.613 51.7529C77.574 51.7989 77.535 51.8459 77.498 51.8949C77.182 51.2059 76.661 50.6129 76.016 50.2209C75.521 50.2849 75.297 50.9119 75.375 51.4089C75.453 51.9059 75.719 52.3629 75.768 52.8639C75.554 53.4359 74.541 52.9549 74.134 53.4069C73.926 53.6369 73.988 54.0109 74.148 54.2769C74.308 54.5429 74.547 54.7559 74.697 55.0279C74.309 55.6539 73.921 56.2809 73.533 56.9069C73.455 56.6439 73.333 56.3389 73.067 56.2839C72.704 56.2099 72.465 56.6549 72.39 57.0209C72.315 57.3869 72.201 57.8429 71.836 57.9109C71.984 58.3749 72.749 58.1029 73.123 58.4109C73.408 58.6459 73.338 59.0889 73.363 59.4589C73.388 59.8289 73.758 60.2639 74.052 60.0409C74.184 59.9409 74.212 59.7579 74.237 59.5929C74.421 58.3499 74.937 57.1589 75.716 56.1779C75.936 55.9019 76.189 55.6079 76.19 55.2539C76.191 54.9519 76.005 54.6429 76.117 54.3619C76.273 53.9709 76.808 54.0059 77.206 53.8449C77.122 54.0119 77.017 54.1669 76.888 54.3019C76.673 54.5259 76.392 54.7109 76.295 55.0069C76.181 55.3549 76.356 55.7699 76.175 56.0869C76.082 56.2489 75.914 56.3499 75.778 56.4779C75.381 56.8529 75.281 57.4399 75.202 57.9819C75.039 59.1089 74.883 60.2999 75.314 61.3519C75.544 61.9159 75.936 62.4179 76.052 63.0159C75.739 63.2599 75.291 63.0019 75.008 62.7229C74.724 62.4449 74.378 62.1099 73.997 62.2159C73.701 62.2979 73.443 62.6379 73.161 62.5169C73.369 61.7089 72.95 60.7819 72.208 60.4109C72.023 60.3369 71.9 60.1289 71.925 59.9299C71.495 59.9169 71.299 60.4549 71.214 60.8799C71.129 61.3049 70.882 61.8369 70.457 61.7679C70.314 61.7449 70.185 61.6489 70.04 61.6559C69.717 61.6709 69.622 62.1339 69.337 62.2879C69.106 62.4129 68.802 62.3069 68.571 62.4309C68.394 62.5259 68.305 62.7329 68.147 62.8579C67.761 63.1659 67.205 62.8729 66.802 62.5869C66.399 62.3019 65.825 62.0279 65.459 62.3609C65.165 62.6279 65.223 63.1209 64.992 63.4449C64.706 63.8449 64.019 63.9399 63.952 64.4289C63.654 64.1439 63.116 64.1829 62.861 64.5069C62.87 65.0649 63.05 65.6179 63.369 66.0729C63.07 66.3969 62.698 66.6519 62.29 66.8139C62.464 67.2649 62.682 67.6979 62.941 68.1049C62.544 68.3609 62.663 69.0499 62.282 69.3299C62.06 69.4939 61.754 69.4509 61.486 69.5129C61.218 69.5749 60.951 69.8879 61.123 70.1039C61.076 70.4859 60.423 70.7089 60.18 70.4119C59.937 70.1149 59.86 69.6939 59.573 69.4399C59.151 69.0659 58.485 69.2149 57.968 68.9919C57.808 68.9229 57.662 68.8179 57.493 68.7749C56.953 68.6389 56.463 69.2159 56.408 69.7749C56.353 70.3329 56.572 70.8769 56.665 71.4299C56.758 71.9829 56.675 72.6469 56.204 72.9449C55.969 73.0929 55.661 73.1329 55.482 73.3459C55.118 73.7789 55.585 74.4009 55.684 74.9599C55.751 75.3389 55.635 75.7249 55.519 76.0919C55.325 76.7099 54.955 77.4589 54.313 77.4129C53.807 77.3769 53.495 76.8449 53.327 76.3619C53.159 75.8789 53.006 75.3269 52.563 75.0759C51.757 74.6209 50.739 75.5319 49.864 75.2349C49.934 75.4309 50.004 75.6279 50.075 75.8239C49.672 75.9209 49.571 76.4609 49.651 76.8699C49.731 77.2789 49.907 77.7089 49.754 78.0969C49.572 78.5609 49.018 78.7299 48.535 78.8409C48.692 79.3729 48.721 79.9429 48.618 80.4879C48.802 80.6789 48.395 81.1689 48.135 81.2159C47.875 81.2629 47.615 81.1489 47.352 81.1279C46.806 81.0839 46.259 81.4959 46.147 82.0369C46.687 82.1909 47.226 82.3459 47.766 82.4999C47.956 82.5539 48.157 82.6089 48.35 82.5639C48.55 82.5169 48.709 82.3699 48.866 82.2359C50.117 81.1679 52.059 80.6839 53.39 81.6489C53.659 81.8439 53.933 82.1029 54.263 82.0719C54.477 82.0519 54.658 81.9109 54.825 81.7749C55.382 81.3239 55.992 80.7609 55.961 80.0409C55.953 79.8509 55.899 79.6579 55.944 79.4729C56.045 79.0589 56.55 78.9219 56.861 78.6339C57.596 77.9529 57.076 76.7339 56.523 75.8959C57.213 75.4669 57.902 75.0379 58.592 74.6089C58.772 74.4969 58.965 74.3809 59.177 74.3839C59.395 74.3869 59.589 74.5139 59.789 74.6019C60.98 75.1259 62.3 74.2419 63.218 73.3139C63.949 74.2619 65.356 74.6029 66.435 74.0949C66.865 74.3919 66.85 75.0799 66.542 75.5039C66.234 75.9279 65.731 76.1529 65.252 76.3599C65.558 76.7869 65.874 77.2379 65.942 77.7599C66.01 78.2819 65.735 78.8899 65.225 79.0029C65.324 79.1839 65.424 79.3649 65.523 79.5459C65.938 79.4769 66.379 79.4509 66.764 79.6229C67.148 79.7949 67.449 80.2169 67.362 80.6319C66.67 81.0169 65.821 80.7289 65.056 80.5259C64.292 80.3229 63.318 80.2899 62.882 80.9549C62.594 81.6389 62.092 82.2289 61.464 82.6189C61.742 82.1569 61.66 81.5059 61.275 81.1299C60.718 80.8089 60.076 81.3739 59.706 81.9019C59.336 82.4299 58.807 83.0559 58.192 82.8709C57.976 82.8059 57.784 82.6409 57.559 82.6509C57.322 82.6609 57.142 82.8589 56.991 83.0439C56.633 83.4799 56.261 83.9899 56.331 84.5519C56.401 85.1129 57.208 85.5209 57.538 85.0629C57.385 84.5069 57.306 83.7629 57.812 83.4939C58.351 83.2079 58.996 83.9149 58.859 84.5139C58.722 85.1129 58.122 85.4869 57.537 85.6579C56.952 85.8289 56.324 85.8659 55.772 86.1269C55.542 86.2349 55.325 86.5779 55.548 86.7009C55.765 86.8289 56.034 86.8649 56.277 86.8019C56.457 87.2759 56.292 87.8599 55.893 88.1679C55.493 88.4759 54.891 88.4819 54.486 88.1819C53.622 87.5449 53.95 86.1039 53.312 85.2369C53.049 84.8789 52.622 84.6489 52.181 84.6259C51.266 84.5779 50.513 85.3639 50.093 86.1859C50 86.3679 49.912 86.5609 49.753 86.6879C49.397 86.9719 48.884 86.8049 48.443 86.6949C48.002 86.5859 47.397 86.6429 47.281 87.0849C48.221 88.2209 49.445 89.1149 50.808 89.6619C50.939 89.7139 51.081 89.7729 51.146 89.8989C51.22 90.0429 51.163 90.2159 51.153 90.3769C51.125 90.8209 51.455 91.1969 51.763 91.5169C52.064 91.8299 52.392 92.1569 52.814 92.2479C53.237 92.3389 53.763 92.0669 53.768 91.6309C53.778 90.8279 52.269 90.6969 52.297 89.8939C52.856 89.6179 53.548 89.6369 54.091 89.9429C54.732 91.1989 56.595 91.5939 57.683 90.7049C58.157 90.3169 58.508 89.7309 59.094 89.5579C60.026 89.2839 60.843 90.1909 61.726 90.5999C62.852 91.1219 64.166 90.8199 65.367 90.5089C66.384 90.2459 67.4 89.9819 68.417 89.7189C67.845 89.6469 67.273 89.5749 66.701 89.5019C67.637 89.2319 68.528 88.8029 69.325 88.2389C69.283 87.7619 68.877 87.3429 68.405 87.2889C69.7 87.0309 70.055 85.2499 71.186 84.5629C71.546 84.3439 71.978 84.2439 72.297 83.9669C72.755 83.5699 72.874 82.9019 72.856 82.2939C72.814 80.8769 72.159 79.4889 71.095 78.5619C71.916 78.9199 72.831 79.0579 73.72 78.9569C73.712 79.5039 74.107 80.2799 74.558 79.9749C74.689 79.8869 74.751 79.7289 74.807 79.5809C75.063 78.8969 75.319 78.2129 75.576 77.5279C75.765 77.0219 75.967 76.4969 76.359 76.1279C77.012 75.5129 78.082 75.4349 78.608 74.7069C78.529 75.0279 78.947 75.2889 79.26 75.1899C79.573 75.0909 79.769 74.7839 79.922 74.4919C80.303 73.7659 80.445 72.6289 79.684 72.3369C79 72.0749 77.927 72.6849 77.655 71.9999C77.584 71.8209 77.621 71.6189 77.667 71.4329C78.143 69.4959 79.542 67.8129 81.351 67.0029C81.957 66.7319 82.724 66.3939 82.727 65.7249C83.155 65.7899 83.47 66.2719 83.362 66.6949C83.83 66.7559 84.32 66.6259 84.697 66.3399C84.375 66.1119 84.47 65.5809 84.741 65.2929C85.011 65.0049 85.396 64.8529 85.689 64.5879C86.516 63.8409 86.628 62.2439 87.724 62.0669C88.555 62.3969 88.446 63.6209 88.096 64.4499C87.746 65.2789 87.337 66.3329 87.951 66.9869C88.199 66.4079 88.716 65.9529 89.318 65.7819C88.757 66.4909 88.66 67.5419 89.082 68.3429C89.491 67.3979 90.243 66.6069 91.163 66.1569C91.112 65.8949 91.061 65.6329 91.009 65.3709C91.737 65.5409 92.435 64.8389 92.557 64.0949C92.68 63.3539 92.396 62.6099 92.118 61.9109Z" fill="#C0B0D3"/>
<path d="M71.4368 89.427C72.0708 89.613 72.8008 89.413 73.2558 88.93C73.3358 88.845 73.4118 88.744 73.4218 88.627C73.4318 88.51 73.3509 88.378 73.2339 88.375C72.6759 88.801 71.7288 88.56 71.3238 89.135C71.2868 89.188 71.2558 89.254 71.2778 89.315C71.3008 89.378 71.3718 89.408 71.4368 89.427Z" fill="#C0B0D3"/>
<path d="M68.3452 90.4869C68.2402 90.4949 68.1452 90.5489 68.0482 90.5909C67.6662 90.7559 67.2282 90.7369 66.8382 90.8809C66.5862 90.9749 66.3632 91.1339 66.1442 91.2909C65.7322 91.5869 65.3202 91.8819 64.9082 92.1779C65.8092 91.9859 66.7092 91.7939 67.6102 91.6029C67.8422 91.5539 68.0762 91.5039 68.2922 91.4049C68.6542 91.2389 68.9442 90.9449 69.2922 90.7509C69.0642 90.6789 68.8372 90.6069 68.6092 90.5349C68.5232 90.5079 68.4342 90.4809 68.3452 90.4869Z" fill="#C0B0D3"/>
<path d="M78.0799 16.5168C78.0059 16.2788 77.7619 16.1268 77.5169 16.0938C77.2719 16.0608 77.0249 16.1258 76.7889 16.2008C76.0799 16.4248 75.3999 16.7398 74.7699 17.1368C74.6099 17.2378 74.4519 17.3458 74.3319 17.4918C74.0149 17.8768 74.0299 18.4298 74.0619 18.9298C74.5659 18.9148 75.0709 18.8988 75.5749 18.8838C75.7149 18.8798 75.8549 18.8748 75.9929 18.8978C76.2649 18.9438 76.5069 19.0918 76.7629 19.1948C77.0919 19.3278 77.4499 19.3868 77.8039 19.3668C77.9739 19.2058 77.9309 18.9208 77.8269 18.7098C77.7229 18.4998 77.5689 18.3018 77.5509 18.0678C77.5059 17.5058 78.2469 17.0538 78.0799 16.5168Z" fill="#C0B0D3"/>
<path d="M76.1429 24.463C76.4979 24.474 76.8439 24.572 77.1959 24.62C77.5479 24.668 77.9259 24.66 78.2329 24.479C78.5399 24.298 78.7419 23.901 78.6079 23.569C78.5019 23.306 78.2309 23.156 77.9799 23.028C77.7639 22.918 77.5479 22.807 77.3319 22.697C77.1899 22.625 77.0389 22.543 76.9689 22.399C76.8469 22.149 77.0269 21.86 77.2079 21.649C77.3889 21.438 77.5929 21.18 77.5179 20.911C77.4769 20.764 77.3589 20.654 77.2429 20.557C76.8859 20.261 76.4869 20.016 76.0619 19.831C75.8949 19.758 75.7209 19.694 75.5399 19.686C75.2999 19.675 75.0679 19.763 74.8439 19.85C74.4869 19.988 74.1289 20.126 73.7719 20.264C73.5529 20.348 73.3119 20.454 73.2249 20.674C73.1379 20.893 73.3689 21.204 73.5709 21.086C73.7469 21.529 73.2519 21.94 73.1349 22.403C73.0499 22.737 73.1709 23.086 73.2899 23.41C73.4529 23.853 73.6579 24.342 74.0899 24.524C74.2219 24.579 74.3649 24.601 74.5069 24.608C75.0559 24.633 75.5959 24.445 76.1429 24.463Z" fill="#C0B0D3"/>
<path d="M83.4948 17.8339C83.6098 17.9219 83.7328 18.0129 83.8758 18.0339C84.0188 18.0539 84.1878 17.9739 84.2128 17.8309C84.2318 17.7259 84.1718 17.6249 84.1158 17.5359C83.9758 17.3139 83.8348 17.092 83.6948 16.869C83.5708 16.674 83.4438 16.473 83.2588 16.335C83.0748 16.197 82.8178 16.132 82.6118 16.233C82.5038 16.543 82.6018 16.8939 82.7878 17.1639C82.9718 17.4329 83.2358 17.6359 83.4948 17.8339Z" fill="#C0B0D3"/>
<path d="M86.3532 21.575C86.5582 21.719 86.8052 21.8079 86.9722 21.9949C87.0842 22.1199 87.1502 22.278 87.2282 22.427C87.4602 22.872 87.8112 23.2539 88.2322 23.5229C88.2682 23.2239 88.2482 22.917 88.1732 22.625C88.1452 22.514 88.1072 22.4019 88.0332 22.3159C87.9422 22.2089 87.8062 22.154 87.6832 22.087C87.4042 21.935 87.1682 21.7039 87.0092 21.4279C86.9392 21.3079 86.8842 21.1779 86.8022 21.0659C86.5712 20.7499 86.1662 20.61 85.9032 20.32C85.7872 20.191 85.7012 20.035 85.5722 19.919C85.4432 19.803 85.2472 19.733 85.0972 19.82C85.2842 20.124 85.4712 20.428 85.6582 20.731C85.8522 21.043 86.0532 21.365 86.3532 21.575Z" fill="#C0B0D3"/>
<path d="M83.6628 74.0339C83.5498 73.9559 83.4078 73.8999 83.2788 73.9439C83.1498 73.9879 83.0718 74.1729 83.1668 74.2709C82.9668 74.3719 82.7298 74.35 82.5088 74.385C82.2878 74.42 82.0438 74.556 82.0288 74.782C82.0238 74.857 82.0458 74.9349 82.0238 75.0069C81.9778 75.1519 81.7738 75.2099 81.7518 75.3609C81.7338 75.4799 81.8548 75.585 81.9738 75.591C82.0928 75.598 82.2048 75.5359 82.3048 75.4689C82.5108 75.3299 82.7088 75.1559 82.9528 75.1149C83.1968 75.0739 83.4988 75.2469 83.4738 75.4949C83.7838 75.4569 84.0588 75.2109 84.1328 74.9049C84.1238 74.5619 83.9438 74.2279 83.6628 74.0339Z" fill="#C0B0D3"/>
<path d="M78.7972 37.2939C78.7442 37.6959 78.8512 38.0989 78.9562 38.4899C79.0482 38.8309 79.1402 39.1719 79.2322 39.5129C79.3182 39.8319 79.4442 40.1969 79.7542 40.3059C79.9252 40.3659 80.1162 40.3308 80.2932 40.3698C80.6762 40.4538 80.9402 40.8679 81.3312 40.9009C81.7822 40.9389 82.1072 40.4388 82.1502 39.9838C82.1922 39.5288 82.0652 39.0678 82.1332 38.6158C82.2152 38.0718 82.6392 37.5638 83.1812 37.5018C83.3732 37.4798 83.5782 37.5099 83.7502 37.4209C83.9882 37.2979 84.0682 37.0009 84.1242 36.7369C84.2152 36.3069 84.3042 35.8488 84.1512 35.4368C84.0062 35.0478 83.6612 34.7499 83.5682 34.3449C83.2482 34.2179 82.8792 34.4669 82.7472 34.7869C82.6152 35.1069 82.6562 35.4698 82.6982 35.8138C82.6732 35.6098 81.9212 36.1918 81.8652 36.2298C81.2792 36.6238 80.8962 36.7688 80.2682 36.6138C79.5852 36.4478 78.9312 36.2699 78.7972 37.2939Z" fill="#C0B0D3"/>
<path d="M74.2662 51.1049C74.4682 50.9469 74.5562 50.6839 74.6092 50.4329C74.7222 49.9049 74.7292 49.3399 74.5312 48.8379C74.1832 47.9519 73.1622 47.3949 72.2362 47.5839C71.9872 47.6349 71.7092 47.7289 71.4932 47.5939C71.3032 47.4749 71.2402 47.2229 71.0732 47.0739C70.7812 46.8159 70.3152 46.9739 70.0122 47.2189C69.7092 47.4639 69.4482 47.7949 69.0722 47.8949C68.9262 47.5759 68.5432 47.3879 68.2042 47.4689C67.8652 47.5499 67.6072 47.8919 67.6192 48.2429C67.6352 48.6979 68.0292 49.0359 68.2242 49.4459C68.4662 49.9559 68.3832 50.5799 68.1132 51.0749C67.8432 51.5699 67.4072 51.9529 66.9432 52.2709C66.8172 52.3569 66.6842 52.4439 66.6022 52.5739C66.4542 52.8099 66.5142 53.1169 66.5842 53.3869C66.7572 54.0559 66.9602 54.7169 67.1932 55.3669C67.5542 55.1459 67.9842 55.5379 68.1712 55.9199C68.3572 56.3019 68.5442 56.7769 68.9602 56.8509C69.3862 56.9259 69.8762 56.5199 70.2172 56.7889C70.3262 56.8749 70.3912 57.0179 70.5192 57.0729C70.6302 57.1209 70.7582 57.0879 70.8692 57.0409C71.7972 56.6549 72.1182 55.2699 71.4562 54.5099C71.7392 53.9569 72.1902 53.4929 72.7332 53.1959C72.8762 53.1179 73.0312 53.0459 73.1272 52.9139C73.3952 52.5459 73.0582 51.9599 73.3242 51.5899C73.5342 51.2959 73.9842 51.3259 74.2662 51.1049Z" fill="#C0B0D3"/>
<path d="M75.9128 33.9668C75.5368 31.4748 73.5678 28.4729 70.4528 27.9529C68.2698 27.2719 65.7258 28.4098 64.6018 30.4148C63.4778 32.4208 63.7568 35.0818 65.1248 36.9258C66.4928 38.7708 68.8278 39.7828 71.1108 39.7148C72.5368 39.6728 74.0168 39.1928 74.9468 38.1008C75.8908 36.9938 76.1308 35.4118 75.9128 33.9668Z" fill="#C0B0D3"/>
<g opacity="0.5">
<path d="M48.155 96.571C74.4045 96.571 95.684 75.1093 95.684 48.635C95.684 22.1606 74.4045 0.698975 48.155 0.698975C21.9054 0.698975 0.625977 22.1606 0.625977 48.635C0.625977 75.1093 21.9054 96.571 48.155 96.571Z" fill="black"/>
</g>
<g opacity="0.2">
<path d="M5.48593 43.775C5.48593 31.731 9.89993 20.733 17.1729 12.313C6.98693 21.105 0.523926 34.156 0.523926 48.738C0.523926 75.212 21.8029 96.674 48.0529 96.674C62.3609 96.674 75.1819 90.289 83.8949 80.2C75.5879 87.371 64.8069 91.711 53.0159 91.711C26.7649 91.711 5.48593 70.25 5.48593 43.775Z" fill="black"/>
</g>
</svg>
