<svg width="96" height="97" viewBox="0 0 96 97" fill="none" xmlns="http://www.w3.org/2000/svg">
<path d="M48.3771 96.361C74.6267 96.361 95.9061 74.8993 95.9061 48.425C95.9061 21.9507 74.6267 0.489014 48.3771 0.489014C22.1276 0.489014 0.848145 21.9507 0.848145 48.425C0.848145 74.8993 22.1276 96.361 48.3771 96.361Z" fill="#C0B0D3"/>
<g opacity="0.2">
<path d="M48.3771 96.361C74.6267 96.361 95.9061 74.8993 95.9061 48.425C95.9061 21.9507 74.6267 0.489014 48.3771 0.489014C22.1276 0.489014 0.848145 21.9507 0.848145 48.425C0.848145 74.8993 22.1276 96.361 48.3771 96.361Z" fill="white"/>
</g>
<path d="M66.3312 18.7829C65.8862 18.4389 65.4402 18.0959 64.9952 17.7519C64.8492 17.6399 64.6992 17.5209 64.6182 17.3549C64.5292 17.1729 64.5382 16.9609 64.5062 16.7609C64.3882 16.0209 63.6262 15.4489 62.8892 15.5499C62.6032 14.8179 62.5362 14.0159 62.2772 13.2729C62.0182 12.5299 61.4852 11.7999 60.7162 11.6649C60.4162 11.6119 60.0972 11.6539 59.8162 11.5349C59.5072 11.4049 59.3042 11.1059 59.0372 10.9019C58.1422 10.2159 56.5782 10.5899 56.0102 9.61192C55.8772 9.38192 55.8262 9.10692 55.6692 8.89392C55.4722 8.62692 55.1432 8.50092 54.8332 8.38792C53.7112 7.97992 52.4632 7.57292 51.3582 8.02592C50.9652 8.18692 50.6072 8.45392 50.1882 8.52192C49.7192 8.59792 49.2122 8.41892 48.7782 8.61192C48.5182 8.72692 48.3032 8.96892 48.0192 8.98292C47.8192 8.99292 47.6352 8.88392 47.4612 8.78492C46.3662 8.16092 45.0572 7.77891 43.8382 7.96791C43.9852 7.86991 44.1312 7.76992 44.2972 7.71192C44.4222 7.66792 44.5552 7.64992 44.6832 7.61592C44.9972 7.53192 45.2842 7.34591 45.4912 7.09291C45.4652 7.04591 45.4392 6.99792 45.4132 6.95092C45.2452 7.06392 45.0192 6.95892 44.8612 6.83192C44.7032 6.70492 44.5382 6.54692 44.3372 6.55692C44.2362 6.56192 44.1422 6.60992 44.0442 6.63192C43.6262 6.72792 43.2312 6.36592 42.8022 6.36092C42.6612 6.35892 42.5222 6.39691 42.3882 6.43991C41.7802 6.63391 41.2112 6.94991 40.7232 7.36391C40.6682 7.40991 40.6132 7.45991 40.5802 7.52291C40.5352 7.60791 40.5342 7.71092 40.5472 7.80692C40.5932 8.13692 40.8082 8.43792 41.1042 8.58692C41.4232 8.74692 41.8012 8.72791 42.1512 8.66291C42.1852 8.65691 42.2182 8.64592 42.2522 8.63892C42.0232 8.82692 41.8282 9.05292 41.6962 9.31892C41.4472 9.82392 41.4652 10.4809 41.8282 10.9089C41.4152 11.1859 40.9652 10.5369 40.4712 10.4899C40.1082 10.4559 39.8082 10.7539 39.5652 11.0279C39.2332 11.4029 38.9002 11.7779 38.5682 12.1529C38.1762 12.0419 37.7832 11.9309 37.3912 11.8199C37.2022 11.7669 36.9982 11.7139 36.8152 11.7839C36.6312 11.8539 36.5122 12.0319 36.3612 12.1599C35.9522 12.5069 35.2592 12.4289 34.9372 11.9989C34.9012 11.9499 34.8722 11.8979 34.8462 11.8429C35.0102 11.7489 35.1512 11.6269 35.2062 11.4499C35.1542 11.2769 34.9612 11.1859 34.7792 11.1939C34.8302 10.9459 34.9632 10.7149 35.1722 10.5729C35.4542 10.3799 35.8592 10.3049 35.9922 9.99292C36.2042 9.85392 36.4152 9.71592 36.6272 9.57692C36.7032 9.52792 36.7812 9.47492 36.8262 9.39592C36.8682 9.32192 36.8682 9.21792 36.8082 9.15892C37.1972 8.75592 36.7202 7.75592 37.1412 7.24892C37.4162 6.91692 37.9442 6.97592 38.3332 7.15892C38.7222 7.34192 39.0852 7.62391 39.5132 7.65591C40.1592 7.70491 40.6882 7.18391 41.1812 6.75991C41.6742 6.33591 42.2922 6.03091 42.9302 6.27991C42.7532 6.21091 43.2652 5.39892 43.5672 5.42492C43.7482 5.44092 43.7642 5.72691 43.9012 5.80191C44.7792 6.28191 45.8892 5.64792 46.8452 5.53892C48.0582 5.39992 49.2922 5.44492 50.4912 5.67892C50.5692 5.36192 50.2152 5.12292 49.9182 4.99192C48.8492 4.51992 47.7712 4.04491 46.6302 3.80091C44.6052 3.36891 42.4592 3.69992 40.5652 4.54092C40.0962 4.74892 39.6142 4.99292 39.1032 4.96292C38.8532 4.94792 38.6082 4.86692 38.3582 4.86692C37.9132 4.86692 37.5322 5.11291 37.1972 5.42691C36.8322 5.41291 36.4702 5.56192 36.1512 5.75092C36.0092 5.83592 35.8712 5.92892 35.7372 6.02692C35.8252 6.14592 36.0102 6.07291 36.1402 6.00291C36.3702 5.87891 36.6222 5.79492 36.8802 5.75392C36.8292 5.81092 36.7782 5.86891 36.7292 5.92691C36.4242 6.28291 35.9862 6.19292 35.5232 6.24692C35.3632 6.26592 35.2002 6.26792 35.0472 6.31992C34.8842 6.37592 34.7492 6.48392 34.6292 6.60992C34.7792 6.43392 34.9282 6.25692 35.0782 6.08092C35.1822 5.95892 35.2932 5.81292 35.2662 5.65392C35.7242 5.64692 36.1712 5.40192 36.4272 5.01992C36.4702 4.95492 36.5122 4.88292 36.5822 4.84792C36.7132 4.78092 36.8802 4.87592 37.0172 4.82092C37.1322 4.77492 37.1832 4.64491 37.2472 4.53791C37.4122 4.26091 37.7112 4.09992 37.9952 3.95192C38.4642 3.70792 38.9322 3.46392 39.4012 3.21992C39.2162 3.19292 39.0312 3.16592 38.8462 3.13892C38.6882 3.14492 38.5642 3.16192 38.4492 3.18692L38.4062 3.18592C36.8592 3.27392 35.3322 3.69492 33.9562 4.41092C33.8382 4.47192 33.7212 4.53592 33.5962 4.58092C33.4792 4.62292 33.3562 4.64892 33.2352 4.67792C32.4622 4.86492 31.7392 5.21792 31.0242 5.56792C29.6842 6.22292 28.3442 6.87892 27.0042 7.53392C26.8602 7.60392 26.6912 7.72692 26.7322 7.88192C27.0092 7.91192 27.2872 7.94192 27.5642 7.97192C26.9512 8.12092 26.3692 8.40391 25.8712 8.79391C25.7132 8.91791 25.5532 9.05792 25.3562 9.09692C25.2432 9.11992 25.1252 9.10692 25.0112 9.12992C24.8502 9.16192 24.7122 9.26292 24.5792 9.35992C23.1902 10.3869 21.8012 11.4129 20.4122 12.4399C19.6262 13.0209 18.8332 13.6079 18.1792 14.3369C17.4342 15.1679 16.4832 15.8819 15.8812 16.8239C15.3882 17.5949 15.0792 18.4789 14.5362 19.2149C14.9242 18.9089 15.3122 18.6029 15.6982 18.2949C15.8762 18.1529 16.0552 18.0099 16.2022 17.8359C16.3222 17.6939 16.4202 17.5339 16.5252 17.3789C16.7932 16.9869 17.1122 16.6329 17.4302 16.2819C17.5802 16.1159 17.7342 15.9469 17.9252 15.8309C18.0472 15.7559 18.1832 15.7049 18.2992 15.6209C18.4452 15.5149 18.5522 15.3629 18.6882 15.2439C18.8242 15.1249 19.0132 15.0369 19.1832 15.0989C19.0422 15.3509 18.8892 15.5959 18.7232 15.8319C18.6662 15.9129 18.6052 15.9969 18.5172 16.0429C18.4252 16.0909 18.3172 16.0919 18.2162 16.1149C17.7782 16.2119 17.5432 16.6799 17.3662 17.0959C17.5412 17.0829 17.7162 17.0699 17.8922 17.0569C17.9392 17.1439 17.8942 17.2509 17.8492 17.3399C17.4042 18.2129 16.9542 19.0939 16.3242 19.8419C16.7342 19.3109 16.9932 18.6629 17.0632 17.9939C16.4212 18.3689 15.9682 18.9919 15.4722 19.5489C15.1532 19.9069 14.7702 20.2629 14.2952 20.3069C14.3042 20.0979 14.3692 19.8919 14.4822 19.7159C13.9952 19.6959 13.6712 20.1999 13.4512 20.6389C13.0072 21.5249 12.5622 22.4109 12.1182 23.2969C11.8332 23.8649 11.5482 24.4319 11.2642 24.9999C11.0422 25.4419 10.8202 25.8849 10.5982 26.3269C10.5132 26.4949 10.4282 26.6969 10.5142 26.8649C11.1612 26.2289 11.7342 25.5169 12.2172 24.7479C12.3022 24.6129 12.3852 24.4759 12.4942 24.3609C12.6102 24.2389 12.7512 24.1459 12.8762 24.0339C13.3612 23.5979 13.5742 22.8919 14.1162 22.5309C14.0842 23.0619 13.6142 23.4369 13.2582 23.8309C12.8922 24.2359 12.6172 24.7249 12.4612 25.2509C12.4102 25.4219 12.3712 25.5999 12.2802 25.7529C12.1892 25.9069 12.0512 26.0279 11.9572 26.1799C11.7572 26.5049 11.7882 26.9159 11.8252 27.2969C11.8272 27.3179 11.8302 27.3399 11.8422 27.3559C11.8762 27.3999 11.9452 27.3739 11.9912 27.3439C12.3292 27.1289 12.6662 26.9149 13.0042 26.6999C12.9462 27.0069 13.0532 27.3179 13.1222 27.6229C13.1902 27.9279 13.2102 28.2809 13.0112 28.5199C12.4542 29.1919 12.0392 29.5729 11.9682 30.5099C11.9202 31.1469 11.8742 31.8719 11.3792 32.2709C11.2722 32.3569 11.1412 32.4339 11.1022 32.5659C11.0652 32.6929 11.1292 32.8249 11.1562 32.9549C11.2582 33.4449 10.8452 33.8699 10.5512 34.2729C10.4672 34.3879 10.3892 34.5139 10.3642 34.6549C10.3422 34.7809 10.3642 34.9089 10.3722 35.0369C10.3902 35.3319 10.3312 35.6319 10.2012 35.8969C10.4182 36.0259 10.6352 36.1549 10.8522 36.2839C10.9572 36.3469 11.0662 36.4119 11.1372 36.5129C11.2162 36.6259 11.2382 36.7699 11.3032 36.8919C11.4022 37.0779 11.5992 37.2089 11.6512 37.4129C11.6772 37.5149 11.6632 37.6229 11.6542 37.7279C11.6082 38.2829 11.7322 38.8519 12.0042 39.3359C12.0892 39.4869 12.1882 39.6329 12.2262 39.8019C12.3102 40.1809 12.0652 40.5919 12.2042 40.9539C12.0702 40.9739 12.1412 41.2029 12.2382 41.2989C12.3352 41.3949 12.4832 41.4069 12.6182 41.4189C12.7532 41.4309 12.9032 41.4579 12.9842 41.5679C13.1322 41.7729 12.9252 42.0389 12.8502 42.2819C12.7762 42.5189 12.8472 42.7949 13.0252 42.9669C13.1222 43.0599 13.2602 43.1529 13.2442 43.2869C13.2262 43.4409 13.0322 43.4839 12.8962 43.5549C12.5002 43.7589 12.5062 44.3429 12.6832 44.7549C12.8602 45.1659 13.1542 45.5539 13.1482 46.0019C13.5162 46.0379 13.8512 46.3099 13.9642 46.6649C14.0012 46.7799 14.0322 46.9219 14.1452 46.9629C14.2852 47.0139 14.4152 46.8629 14.4662 46.7229C14.6482 46.2279 14.4832 45.6299 14.7582 45.1819C14.8852 44.9749 15.0892 44.8309 15.2472 44.6479C15.4052 44.4649 15.5192 44.2009 15.4152 43.9809C15.3532 43.8489 15.2242 43.7609 15.1542 43.6339C15.0832 43.5069 15.1172 43.2959 15.2612 43.2819C15.4652 43.4299 15.6182 43.6499 15.6852 43.8949C15.8702 43.8949 16.0552 43.8949 16.2402 43.8939C16.2392 44.1859 16.2372 44.4789 16.2352 44.7719C15.9052 45.0169 15.7552 45.4819 15.8792 45.8759C15.9202 46.0059 15.9952 46.1339 16.1182 46.1919C16.2012 46.2309 16.2972 46.2329 16.3832 46.2669C16.8522 46.4549 16.6742 47.3869 17.1702 47.4809C17.3712 47.5189 17.5672 47.3739 17.7712 47.3899C17.9292 47.4019 18.1222 47.4989 18.2222 47.3749C18.2912 47.2889 18.2512 47.1639 18.2182 47.0589C18.1162 46.7309 18.1172 46.3709 18.2232 46.0439C18.0372 45.6099 17.9182 45.1479 17.8702 44.6789C17.9172 44.6539 17.9642 44.6289 18.0112 44.6029C18.2452 44.8009 18.4872 45.0089 18.6112 45.2909C18.6922 45.4739 18.7192 45.6799 18.8162 45.8539C18.9132 46.0289 19.1232 46.1689 19.3062 46.0919C19.4762 46.0199 19.5322 45.8019 19.5212 45.6159C19.5102 45.4299 19.4542 45.2429 19.4912 45.0609C19.5652 44.6979 19.9592 44.5139 20.3042 44.3859C20.3432 44.5129 20.1842 44.5979 20.0792 44.6799C19.8432 44.8639 19.8352 45.2159 19.8692 45.5149C19.9212 45.9759 20.0332 46.4499 20.3312 46.8029C20.6292 47.1559 21.1572 47.3449 21.5652 47.1329C22.0722 46.8699 22.1552 46.1859 22.1632 45.6109C22.3222 45.5289 22.5572 45.4659 22.6452 45.6229C22.7072 45.7329 22.6392 45.8699 22.6492 45.9969C22.6682 46.2309 22.9472 46.3789 22.9672 46.6129C22.9782 46.7459 22.9022 46.8689 22.8332 46.9819C22.6452 47.2899 22.5232 47.7629 22.8272 47.9529C22.9062 48.0019 23.0002 48.0189 23.0892 48.0469C23.5192 48.1819 23.8392 48.6149 23.8442 49.0689C24.0022 49.1079 24.1222 49.2669 24.1172 49.4309C24.1122 49.5949 23.9822 49.7459 23.8222 49.7749C23.7512 49.7879 23.6702 49.7819 23.6182 49.8319C23.5052 49.9409 23.6572 50.1759 23.5382 50.2779C23.4992 50.3119 23.4442 50.3159 23.3952 50.3329C23.1402 50.4249 23.1762 50.7909 23.2022 51.0639C23.2612 51.6809 22.9802 52.3199 22.4882 52.6899C22.1372 52.9539 21.6142 53.0689 21.2732 52.7929C21.1112 52.6619 21.0162 52.4669 20.8822 52.3079C20.7482 52.1489 20.5342 52.0199 20.3402 52.0929C20.2572 52.1239 20.1922 52.1879 20.1282 52.2489C19.7372 52.6309 19.3262 53.0479 19.2202 53.5869C19.1842 53.7669 19.1842 53.9589 19.1032 54.1239C19.0032 54.3289 18.7972 54.4569 18.6512 54.6309C18.4682 54.8489 18.3822 55.1469 18.4202 55.4299C18.5742 55.6159 18.3462 55.8659 18.2452 56.0869C18.1442 56.3069 17.9862 56.4989 17.9012 56.7259C17.7232 57.1999 17.8892 57.7259 18.0562 58.2039C18.2772 58.8389 18.5182 59.5049 19.0242 59.9439C19.1542 60.0569 19.2992 60.1509 19.4422 60.2469C20.0162 60.6299 20.5972 61.0609 20.9082 61.6809C21.2572 61.7729 21.6622 61.4679 21.9672 61.6629C22.0822 61.7359 22.1482 61.8639 22.2092 61.9869C22.3752 62.3189 22.5412 62.6509 22.7072 62.9819C22.8392 63.2469 22.9822 63.5239 23.2282 63.6859C23.4742 63.8479 23.8562 63.8419 24.0162 63.5929C24.2122 63.2889 23.9702 62.8689 24.0892 62.5279C24.2492 62.0689 24.9742 61.9569 25.0332 61.4739C25.0582 61.2689 24.9562 61.0189 25.1062 60.8789C25.1672 60.8219 25.2542 60.8049 25.3312 60.7719C25.5892 60.6629 25.7402 60.3469 25.6632 60.0759C26.2572 60.0289 26.9852 60.0489 27.2762 60.5729C27.3392 60.6869 27.4612 60.8419 27.5582 60.7549C27.4752 60.1019 27.3912 59.4359 27.5172 58.7899C27.5522 58.6089 27.6042 58.4239 27.5652 58.2439C27.4522 57.7139 26.6932 57.6059 26.4432 57.1259C26.1502 56.5649 26.6852 55.7789 26.3002 55.2769C26.0632 54.9689 25.5672 54.9229 25.3942 54.5739C25.3352 54.4539 25.3232 54.3119 25.2452 54.2029C25.1662 54.0919 25.0342 54.0359 24.9232 53.9579C24.4942 53.6529 24.4232 53.0409 24.4752 52.5139C24.5272 51.9869 24.6572 51.4399 24.4852 50.9399C24.4212 50.7549 24.3162 50.5809 24.2982 50.3849C24.2652 50.0429 24.5622 49.6999 24.9032 49.7019C25.2442 49.7039 25.5392 50.0709 25.4562 50.4039C25.4002 50.6289 25.2132 50.7919 25.0712 50.9749C24.9292 51.1579 24.8282 51.4239 24.9592 51.6149C25.3092 51.6549 25.4482 52.2099 25.1602 52.4129C25.0762 52.4719 24.9732 52.5009 24.8932 52.5649C24.6842 52.7329 24.7182 53.0749 24.8642 53.3009C25.0102 53.5269 25.2382 53.6859 25.4032 53.8979C25.4902 54.0099 25.5682 54.1429 25.6982 54.1989C25.7672 54.2289 25.8442 54.2339 25.9192 54.2379C26.1202 54.2489 26.3212 54.2609 26.5212 54.2719C26.5972 54.2759 26.6752 54.2799 26.7482 54.2589C26.8672 54.2239 26.9562 54.1269 27.0472 54.0429C27.3652 53.7479 27.7672 53.5669 28.1612 53.3909C28.3002 53.3289 28.4452 53.2659 28.5962 53.2739C28.9492 53.2919 29.1612 53.6579 29.3982 53.9229C29.7462 54.3119 30.2402 54.5259 30.7192 54.7279C30.9462 53.8849 31.1702 52.9689 30.8422 52.1599C30.5832 51.5229 30.0252 51.0689 29.5832 50.5439C29.1542 50.0349 28.8122 49.3499 29.0152 48.7139C29.1282 48.6549 29.2402 48.5969 29.3532 48.5389C29.8372 48.7469 30.2252 49.1679 30.3962 49.6699C30.5272 50.0549 30.5312 50.4709 30.6162 50.8689C30.7422 51.4599 31.0502 52.0089 31.4822 52.4279C31.4742 51.9609 31.4652 51.4939 31.4562 51.0269C31.4532 50.8929 31.4582 50.7409 31.5562 50.6499C31.6512 50.5619 31.7962 50.5669 31.9242 50.5819C32.3092 50.6269 32.6892 50.7159 33.0552 50.8479C33.1642 50.8869 33.2772 50.9329 33.3532 51.0209C33.4512 51.1329 33.4712 51.2909 33.4882 51.4389C33.5522 52.0069 33.5622 52.7019 33.0832 53.0089C32.7322 53.2339 32.2052 53.1719 31.9632 53.5129C31.7992 53.7429 31.8292 54.0919 31.6152 54.2759C31.4952 54.3789 31.3162 54.4109 31.2312 54.5439C31.0982 54.7509 31.2842 55.0279 31.2302 55.2689C31.1952 55.4239 31.0602 55.5699 31.1132 55.7199C31.1452 55.8099 31.2352 55.8629 31.3072 55.9259C31.6422 56.2229 31.5692 56.7589 31.4682 57.1969C31.3852 57.5559 31.3022 57.9149 31.2192 58.2729C31.2882 57.5459 31.0852 56.7949 30.6582 56.2049C30.2742 56.2949 29.8852 56.1189 29.5062 56.0079C29.1272 55.8979 28.6532 55.8799 28.4062 56.1899C28.2002 56.4479 28.2442 56.8259 28.3462 57.1409C28.4482 57.4559 28.6022 57.7689 28.5812 58.0999C28.5562 58.5039 28.2822 58.9379 28.4982 59.2789C28.6582 59.3479 28.8182 59.4169 28.9792 59.4859C29.2362 59.5969 29.5402 59.8879 29.3522 60.0959C29.1862 60.2799 28.7402 60.2069 28.7702 60.4529C28.7782 60.5149 28.8222 60.5639 28.8642 60.6089C29.2272 60.9929 29.6372 61.4919 29.4572 61.9899C29.7362 61.9129 30.0242 62.0599 30.2642 62.2229C30.8822 62.6429 31.4062 63.2039 31.7852 63.8519C31.9022 64.0519 32.0062 64.2599 32.1262 64.4589C32.3972 64.4859 32.4732 64.0939 32.4412 63.8219C32.3942 63.4089 32.3462 62.9959 32.2992 62.5829C32.2632 62.2689 32.2272 61.9529 32.1372 61.6509C32.0092 61.2229 31.7772 60.8339 31.6282 60.4129C31.4782 59.9919 31.4182 59.5039 31.6312 59.1119C32.1542 59.4389 32.5242 60.0059 32.6162 60.6199C32.6492 60.8389 32.6482 61.0609 32.6822 61.2799C32.7912 61.9639 33.2402 62.5609 33.3222 63.2489C33.3502 63.4849 33.3372 63.7379 33.4592 63.9419C33.5332 64.0669 33.6502 64.1589 33.7652 64.2479C34.2072 64.5909 34.6482 64.9349 35.0902 65.2789C35.2012 65.3649 35.2792 65.5529 35.4062 65.4929C35.2342 64.9079 35.0622 64.3219 34.8902 63.7369C35.2522 64.0439 35.6132 64.3509 35.9752 64.6569C35.9222 64.3739 35.9602 64.0609 36.1372 63.8339C36.3132 63.6069 36.6462 63.4949 36.9012 63.6249C37.1562 63.7549 37.2532 64.1479 37.0492 64.3509C37.5912 63.8519 38.4662 63.7679 39.0912 64.1549C39.2522 64.2549 39.4052 64.3849 39.5922 64.4069C39.9342 64.4489 40.2862 64.1179 40.5952 64.2719C40.9122 64.4309 40.9702 65.0169 41.3222 64.9829C41.5312 64.9629 41.6912 64.6999 41.8922 64.7589C41.9172 64.9299 41.9422 65.0999 41.9672 65.2709C42.5222 65.2149 43.2152 65.0369 43.3062 64.4809C43.3222 64.3819 43.3162 64.2779 43.3502 64.1829C43.3982 64.0469 43.5202 63.9539 43.6312 63.8639C44.0652 63.5139 44.4542 63.0619 44.5652 62.5129C44.6772 61.9639 44.4332 61.3149 43.9142 61.1129C43.7792 60.9929 43.9102 60.7719 44.0502 60.6589C44.1902 60.5459 44.3622 60.3819 44.2862 60.2179C44.2402 60.1179 44.1192 60.0779 44.0502 59.9919C43.8672 59.7629 44.1402 59.3729 43.9612 59.1409C43.8802 59.0359 43.7362 59.0079 43.6222 58.9399C43.2882 58.7399 43.2912 58.2149 43.5282 57.9049C43.7652 57.5939 44.1492 57.4449 44.5142 57.3099C44.8712 57.1779 45.2282 57.0449 45.5852 56.9129C45.8642 56.8089 46.1942 56.6399 46.2002 56.3389C46.2042 56.1249 46.0492 55.8599 46.2172 55.7299C46.3132 55.6559 46.4512 55.6939 46.5692 55.6659C46.8532 55.5979 46.8962 55.2129 46.8772 54.9189C46.8632 54.7049 46.8492 54.4919 46.8352 54.2789C46.8292 54.1859 46.8232 54.0909 46.8542 54.0029C46.9142 53.8309 47.0922 53.7389 47.2342 53.6259C47.3752 53.5129 47.4952 53.3089 47.3942 53.1579C46.9112 53.1789 46.4282 53.1999 45.9452 53.2209C45.7312 53.2299 45.5042 53.2359 45.3192 53.1269C45.1352 53.0169 45.0302 52.7449 45.1672 52.5789C45.0502 52.5389 44.9332 52.4989 44.8172 52.4589C44.8242 52.1849 44.8322 51.9109 44.8392 51.6379C44.8412 51.5589 44.8442 51.4769 44.8812 51.4079C44.9212 51.3329 44.9942 51.2829 45.0652 51.2359C45.2932 51.0849 45.5202 50.9339 45.7482 50.7829C45.7032 51.0329 45.8442 51.3039 46.0732 51.4099C46.2832 51.4239 46.3222 51.0989 46.2212 50.9139C46.1202 50.7279 45.9572 50.5249 46.0442 50.3309C46.0752 50.2609 46.1362 50.2079 46.1722 50.1399C46.3522 49.7989 45.8292 49.4219 45.9352 49.0509C45.5412 48.9469 45.1462 48.8419 44.7522 48.7379C44.6622 48.5889 44.5572 48.4489 44.4442 48.3169C43.3272 48.5679 42.1672 48.7039 40.9742 48.7039C40.8802 48.7039 40.7882 48.6979 40.6942 48.6969C40.6662 48.9989 40.7012 49.3259 40.7512 49.6209C40.9392 49.4629 41.1282 49.3039 41.3162 49.1459C41.2722 49.7369 41.3342 50.3359 41.5002 50.9049C41.5432 51.0529 41.5912 51.2229 41.5082 51.3529C41.4292 51.4769 41.2622 51.5129 41.1652 51.6229C40.8762 51.9519 41.4372 52.4899 41.2362 52.8799C40.8022 52.8969 40.4392 52.2719 40.0532 52.4739C39.9622 52.5219 39.8942 52.6109 39.7962 52.6409C39.5782 52.7069 39.3952 52.4319 39.4132 52.2029C39.4312 51.9739 39.5602 51.7669 39.5862 51.5389C39.6252 51.2039 39.4422 50.8889 39.3712 50.5589C39.3042 50.2459 39.3372 49.9119 39.2252 49.6129C39.1122 49.3139 38.7562 49.0639 38.4832 49.2279C38.4812 48.9479 38.3752 48.6749 38.2042 48.4559C35.6712 48.0079 33.3432 46.9589 31.3732 45.4559C31.3402 45.4789 31.3062 45.5019 31.2772 45.5309C31.0062 45.8029 31.0342 46.2409 31.0322 46.6269C31.0302 47.0119 30.9172 47.4779 30.5502 47.5859C30.2302 47.3379 30.2882 46.7829 29.9632 46.5419C29.8102 46.4289 29.6032 46.4129 29.4472 46.3039C29.1972 46.1299 29.1512 45.7839 29.1272 45.4789C29.0882 44.9839 29.0772 44.4119 29.4432 44.0789C29.5042 44.0229 29.5752 43.9769 29.6502 43.9329C26.8062 41.0319 40.9822 42.6819 40.9822 38.2799C40.9822 35.2339 40.2772 33.7199 39.7082 33.0449C40.3982 33.2859 41.6612 33.5299 43.7992 33.5299C49.1492 33.5299 51.0512 19.2499 53.9382 23.3319C54.2322 23.0349 54.6752 22.8859 55.0832 22.9749C56.3632 23.2569 56.4612 25.2059 57.5762 25.9009C58.0732 25.8909 58.5702 25.8799 59.0672 25.8699C59.3042 26.3319 59.8642 26.5589 60.3792 26.5169C61.0872 26.4599 61.7492 25.9039 61.8602 25.1959C61.9702 24.4879 61.4512 23.7179 60.7462 23.6309C60.5262 23.6039 60.2972 23.6359 60.0852 23.5689C59.8732 23.5019 59.6832 23.2749 59.7642 23.0659C60.1322 22.5609 60.9422 22.7489 61.4252 23.1419C61.9082 23.5349 62.2982 24.0919 62.8942 24.2699C63.2152 23.4029 64.5592 23.1779 64.6982 22.2629C64.7332 22.0309 64.6792 21.7819 64.7692 21.5649C64.9652 21.0929 65.7222 21.0299 65.8442 20.5329C65.8952 20.3229 65.8082 20.1059 65.7812 19.8909C65.7282 19.4549 65.9542 18.9999 66.3312 18.7829Z" fill="#C0B0D3"/>
<path d="M55.988 26.0338C55.794 25.8828 55.568 25.7868 55.334 25.7058C55.785 26.6548 56.146 27.6558 56.407 28.6978C56.54 28.6078 56.666 28.5058 56.782 28.3848C56.749 27.5288 56.661 26.5568 55.988 26.0338Z" fill="#C0B0D3"/>
<path d="M28.3951 28.023C28.4241 28.035 28.455 28.047 28.486 28.043C28.519 28.039 28.548 28.02 28.579 28.01C28.689 27.975 28.798 28.06 28.888 28.133C28.978 28.206 29.105 28.275 29.202 28.211C29.295 28.15 29.289 28.009 29.247 27.906C29.205 27.803 29.137 27.705 29.138 27.593C29.139 27.542 29.154 27.492 29.162 27.442C29.188 27.261 29.095 27.069 28.937 26.978C28.78 26.887 28.568 26.904 28.427 27.019C28.494 27.107 28.564 27.201 28.576 27.311C28.588 27.421 28.5181 27.549 28.4081 27.555C28.3281 27.56 28.2591 27.503 28.1821 27.483C28.0691 27.454 27.939 27.519 27.894 27.628C28.022 27.801 28.1971 27.939 28.3951 28.023Z" fill="#C0B0D3"/>
<path d="M56.752 8.92881C57.222 9.72681 58.3599 10.0328 59.1609 9.57681C59.2069 9.55081 59.2519 9.52181 59.2859 9.48181C59.4479 9.29381 59.288 9.00781 59.131 8.81581C58.386 8.45381 57.46 8.49781 56.752 8.92881Z" fill="#C0B0D3"/>
<path d="M52.2563 5.79394C52.6633 5.84394 53.0703 5.89295 53.4773 5.94295C53.6823 5.96795 53.9583 6.12594 53.8493 6.30194C53.5613 6.24594 53.3243 6.60294 53.3943 6.88994C53.4633 7.17694 53.7263 7.37395 53.9933 7.49795C55.7393 8.30795 57.8503 6.94394 59.6773 7.54394C60.6503 7.86294 61.3873 8.69695 62.3493 9.04795C62.7453 9.19195 63.2623 9.35494 63.2833 9.77894C63.2883 9.88694 63.2553 9.99395 63.2573 10.1029C63.2623 10.4359 63.5923 10.6829 63.9173 10.7389C64.2433 10.7949 64.5753 10.7169 64.9053 10.6989C65.5893 10.6609 66.2843 10.8889 66.8143 11.3249C66.9623 11.4559 66.7113 11.6429 66.5723 11.7829C66.2613 12.0969 66.6113 12.6769 67.0443 12.7539C67.4773 12.8309 67.8993 12.6109 68.3123 12.4559C69.0763 12.1699 69.9423 12.1029 70.7043 12.3929C71.4673 12.6829 72.1013 13.3639 72.2263 14.1759C72.2453 14.3019 72.2473 14.4459 72.1603 14.5379C72.0883 14.6139 71.9743 14.6319 71.8703 14.6379C70.8653 14.6999 69.8533 14.0769 69.4483 13.1479C69.4003 13.0369 69.3523 12.9139 69.2493 12.8519C69.1963 12.8209 69.1343 12.8089 69.0733 12.8059C68.4703 12.7819 68.1693 13.6449 68.4643 14.1759C68.7593 14.7069 69.3723 14.9549 69.9393 15.1659C70.6103 15.4149 71.2873 15.6659 71.9943 15.7779C72.8563 15.9149 73.7353 15.8439 74.6053 15.7719C76.1923 15.6409 77.7873 15.5089 79.3303 15.1119C79.0913 14.7799 78.8523 14.4489 78.6123 14.1169C78.2263 13.5809 77.8233 13.0299 77.2543 12.6969C76.1543 12.0539 74.6403 12.3489 73.6583 11.5349C73.3733 11.2989 73.1493 10.9799 72.8183 10.8179C72.5773 10.7009 72.3033 10.6789 72.0363 10.6639C70.7443 10.5879 69.4473 10.6029 68.1573 10.7079C67.7193 10.7439 67.2543 10.7849 66.8613 10.5869C66.1853 10.2469 66.0043 9.37395 65.5463 8.76795C65.1703 8.27095 64.6083 7.95995 64.0633 7.66395C63.7523 7.49495 63.4423 7.32595 63.1313 7.15695C62.9323 7.04895 62.7313 6.93995 62.5133 6.87895C62.0703 6.75595 61.5943 6.84194 61.1423 6.75694C60.7213 6.67794 60.3413 6.45495 59.9723 6.23594C59.2533 5.80994 58.5353 5.38295 57.8163 4.95695C57.5843 4.81895 57.3433 4.67894 57.0753 4.65294C56.5083 4.59794 55.9553 5.06795 55.4093 4.90795C55.2113 4.84995 55.0463 4.71594 54.8723 4.60594C53.9283 4.01094 52.5823 4.17594 51.8063 4.98094C51.7033 5.08794 51.6043 5.21994 51.6123 5.36994C51.6263 5.65194 51.9773 5.75994 52.2563 5.79394Z" fill="#C0B0D3"/>
<path d="M92.3401 61.7009C92.1981 61.3449 92.0521 60.9809 91.7971 60.6969C91.5651 60.4379 91.2581 60.2609 90.9761 60.0589C90.0601 59.4029 89.3721 58.4309 89.0541 57.3439C89.4241 57.1479 89.5911 56.7069 89.6781 56.2949C89.8631 55.4219 89.9271 53.9749 89.6291 52.7869C89.3031 51.4889 88.5461 50.5009 87.0421 50.9089C86.8731 50.9549 86.7011 51.0099 86.5261 50.9979C85.8421 50.9509 85.2961 49.9389 84.7021 50.2829C84.1811 50.0399 84.6611 49.1589 84.3431 48.6769C84.2001 48.4609 83.8931 48.3219 83.9041 48.0619C83.9101 47.9149 84.0251 47.7969 84.0801 47.6599C84.2241 47.2999 83.8901 46.8849 83.5101 46.8239C83.1291 46.7629 82.7531 46.9549 82.4451 47.1889C82.1371 47.4229 81.8611 47.7069 81.5151 47.8779C82.1911 48.5939 82.4871 49.6559 82.2781 50.6219C81.6181 50.6589 80.8941 50.6779 80.3711 50.2709C80.2511 50.1779 80.1391 50.0609 79.9921 50.0249C79.8651 49.9939 79.7321 50.0289 79.6091 50.0739C78.8831 50.3419 78.3431 50.9529 77.8351 51.5419C77.7961 51.5879 77.7571 51.6349 77.7201 51.6839C77.4041 50.9949 76.8831 50.4019 76.2381 50.0099C75.7421 50.0739 75.5191 50.7009 75.5971 51.1979C75.6751 51.6959 75.9421 52.1519 75.9901 52.6529C75.7761 53.2249 74.7631 52.7439 74.3561 53.1959C74.1481 53.4259 74.2101 53.7999 74.3701 54.0659C74.5301 54.3319 74.7691 54.5449 74.9191 54.8169C74.5311 55.4429 74.1431 56.0699 73.7551 56.6959C73.6771 56.4329 73.5551 56.1279 73.2881 56.0729C72.9251 55.9989 72.6861 56.4439 72.6111 56.8099C72.5361 57.1759 72.4221 57.6319 72.0571 57.6999C72.2041 58.1639 72.9701 57.8919 73.3441 58.1999C73.6291 58.4349 73.5591 58.8779 73.5841 59.2479C73.6091 59.6179 73.9791 60.0529 74.2731 59.8299C74.4051 59.7299 74.4331 59.5469 74.4581 59.3819C74.6421 58.1389 75.1581 56.9479 75.9381 55.9669C76.1571 55.6909 76.4111 55.3969 76.4121 55.0429C76.4131 54.7409 76.2271 54.4319 76.3391 54.1509C76.4951 53.7599 77.0301 53.7949 77.4281 53.6339C77.3441 53.8009 77.2391 53.9559 77.1101 54.0909C76.8951 54.3139 76.6141 54.4999 76.5171 54.7959C76.4031 55.1439 76.5781 55.5579 76.3971 55.8759C76.3041 56.0379 76.1361 56.1389 76.0001 56.2669C75.6031 56.6419 75.5031 57.2289 75.4241 57.7719C75.2611 58.8989 75.1051 60.0899 75.5361 61.1419C75.7661 61.7059 76.1581 62.2079 76.2741 62.8059C75.9611 63.0499 75.5131 62.7919 75.2291 62.5129C74.9451 62.2349 74.5991 61.8999 74.2181 62.0059C73.9221 62.0879 73.6641 62.4279 73.3821 62.3069C73.5901 61.4989 73.1711 60.5719 72.4291 60.2009C72.2441 60.1269 72.1211 59.9189 72.1461 59.7199C71.7161 59.7069 71.5201 60.2449 71.4351 60.6699C71.3501 61.0949 71.1021 61.6279 70.6781 61.5579C70.5351 61.5349 70.4061 61.4389 70.2621 61.4459C69.9391 61.4609 69.8431 61.9239 69.5591 62.0779C69.3281 62.2029 69.0241 62.0969 68.7931 62.2219C68.6161 62.3169 68.5271 62.5239 68.3691 62.6499C67.9831 62.9579 67.4271 62.6639 67.0241 62.3789C66.6211 62.0939 66.0471 61.8209 65.6811 62.1529C65.3871 62.4199 65.4451 62.9129 65.2141 63.2369C64.9281 63.6369 64.2411 63.7319 64.1751 64.2209C63.8771 63.9359 63.3391 63.9749 63.0841 64.2989C63.0931 64.8569 63.2731 65.4099 63.5921 65.8649C63.2931 66.1889 62.9211 66.4449 62.5131 66.6059C62.6871 67.0569 62.9051 67.4899 63.1641 67.8969C62.7671 68.1529 62.8861 68.8419 62.5051 69.1229C62.2831 69.2869 61.9771 69.2439 61.7091 69.3059C61.4411 69.3679 61.1741 69.6809 61.3461 69.8969C61.2991 70.2789 60.6461 70.5019 60.4031 70.2049C60.1601 69.9079 60.0831 69.4869 59.7961 69.2329C59.3741 68.8589 58.7081 69.0079 58.1911 68.7849C58.0311 68.7159 57.8851 68.6109 57.7161 68.5679C57.1761 68.4319 56.6861 69.0089 56.6311 69.5679C56.5761 70.1259 56.7951 70.6699 56.8881 71.2229C56.9811 71.7759 56.8981 72.4399 56.4271 72.7379C56.1921 72.8869 55.8841 72.9259 55.7051 73.1399C55.3411 73.5739 55.8081 74.1939 55.9071 74.7539C55.9741 75.1329 55.8581 75.5189 55.7431 75.8859C55.5491 76.5039 55.1791 77.2529 54.5371 77.2069C54.0311 77.1709 53.7191 76.6389 53.5511 76.1559C53.3831 75.6729 53.2301 75.1209 52.7871 74.8699C51.9821 74.4149 50.9631 75.3249 50.0881 75.0289C50.1581 75.2249 50.2281 75.4219 50.2991 75.6179C49.8961 75.7149 49.7951 76.2539 49.8741 76.6639C49.9541 77.0739 50.1301 77.5029 49.9781 77.8909C49.7961 78.3559 49.2421 78.5239 48.7591 78.6349C48.9161 79.1669 48.9451 79.7369 48.8421 80.2819C49.0261 80.4729 48.6191 80.9629 48.3591 81.0099C48.0991 81.0569 47.8391 80.9429 47.5761 80.9219C47.0301 80.8779 46.4831 81.2899 46.3711 81.8309C46.9111 81.9849 47.4501 82.1399 47.9901 82.2939C48.1811 82.3479 48.3811 82.4029 48.5741 82.3579C48.7741 82.3109 48.9341 82.1639 49.0901 82.0299C50.3411 80.9619 52.2831 80.4779 53.6141 81.4429C53.8831 81.6379 54.1571 81.8969 54.4871 81.8659C54.7011 81.8459 54.8821 81.7049 55.0491 81.5689C55.6061 81.1179 56.2161 80.5549 56.1861 79.8349C56.1781 79.6449 56.1241 79.4519 56.1691 79.2669C56.2691 78.8529 56.7751 78.7159 57.0861 78.4279C57.8211 77.7469 57.3011 76.5279 56.7481 75.6889C57.4381 75.2599 58.1271 74.8309 58.8171 74.4019C58.9971 74.2899 59.1901 74.1739 59.4021 74.1769C59.6201 74.1799 59.8141 74.3069 60.0141 74.3949C61.2051 74.9179 62.5251 74.0349 63.4431 73.1069C64.1741 74.0549 65.5811 74.3969 66.6601 73.8879C67.0901 74.1849 67.0751 74.8729 66.7671 75.2969C66.4591 75.7209 65.9561 75.9459 65.4771 76.1529C65.7831 76.5799 66.0991 77.0309 66.1671 77.5529C66.2351 78.0749 65.9601 78.6839 65.4501 78.7959C65.5491 78.9769 65.6491 79.1579 65.7481 79.3389C66.1631 79.2699 66.6041 79.2439 66.9891 79.4159C67.3731 79.5879 67.6741 80.0099 67.5871 80.4249C66.8951 80.8099 66.0461 80.5219 65.2811 80.3199C64.5171 80.1169 63.5431 80.0839 63.1071 80.7489C62.8201 81.4329 62.3171 82.0229 61.6891 82.4129C61.9671 81.9509 61.8841 81.2999 61.5001 80.9229C60.9431 80.6019 60.3011 81.1669 59.9311 81.6949C59.5611 82.2229 59.0321 82.8489 58.4171 82.6639C58.2011 82.5989 58.0091 82.4339 57.7841 82.4439C57.5471 82.4539 57.3671 82.6529 57.2161 82.8369C56.8591 83.2729 56.4861 83.7829 56.5561 84.3449C56.6261 84.9069 57.4331 85.3139 57.7631 84.8559C57.6101 84.2999 57.5311 83.5559 58.0371 83.2869C58.5761 83.0009 59.2211 83.7079 59.0841 84.3069C58.9471 84.9059 58.3471 85.2799 57.7621 85.4509C57.1761 85.6219 56.5501 85.6589 55.9971 85.9199C55.7671 86.0279 55.5501 86.3709 55.7731 86.4939C55.9901 86.6209 56.2591 86.6579 56.5021 86.5949C56.6821 87.0689 56.5171 87.6529 56.1181 87.9599C55.7181 88.2679 55.1171 88.2739 54.7111 87.9749C53.8471 87.3379 54.1751 85.8969 53.5371 85.0299C53.2731 84.6719 52.8471 84.4419 52.4061 84.4189C51.4911 84.3709 50.7381 85.1569 50.3181 85.9789C50.2251 86.1609 50.1371 86.3549 49.9781 86.4809C49.6221 86.7649 49.1091 86.5979 48.6681 86.4879C48.2271 86.3789 47.6221 86.4349 47.5061 86.8779C48.4461 88.0139 49.6701 88.9079 51.0331 89.4549C51.1631 89.5069 51.3061 89.5659 51.3711 89.6919C51.4451 89.8359 51.3881 90.0089 51.3781 90.1699C51.3511 90.6149 51.6801 90.9909 51.9881 91.3099C52.2891 91.6229 52.6171 91.9499 53.0401 92.0409C53.4631 92.1319 53.9891 91.8599 53.9941 91.4239C54.0041 90.6209 52.4951 90.4899 52.5231 89.6869C53.0821 89.4109 53.7741 89.4299 54.3171 89.7359C54.9581 90.9919 56.8211 91.3869 57.9091 90.4979C58.3831 90.1099 58.7341 89.5229 59.3201 89.3509C60.2531 89.0769 61.0691 89.9839 61.9521 90.3929C63.0781 90.9149 64.3921 90.6129 65.5931 90.3019C66.6101 90.0389 67.6261 89.7749 68.6431 89.5119C68.0711 89.4399 67.4991 89.3679 66.9271 89.2949C67.8631 89.0249 68.7541 88.5959 69.5511 88.0319C69.5091 87.5549 69.1031 87.1359 68.6311 87.0819C69.9261 86.8239 70.2821 85.0429 71.4121 84.3559C71.7721 84.1369 72.2041 84.0369 72.5231 83.7599C72.9811 83.3629 73.1001 82.6949 73.0821 82.0869C73.0401 80.6699 72.3851 79.2819 71.3211 78.3549C72.1421 78.7129 73.0571 78.8509 73.9461 78.7499C73.9381 79.2969 74.3331 80.0729 74.7841 79.7679C74.9151 79.6799 74.9771 79.5219 75.0331 79.3729C75.2891 78.6889 75.5461 78.0049 75.8021 77.3199C75.9921 76.8139 76.1931 76.2889 76.5851 75.9199C77.2381 75.3049 78.3081 75.2269 78.8341 74.4989C78.7551 74.8199 79.1731 75.0809 79.4861 74.9819C79.7991 74.8829 79.9951 74.5759 80.1481 74.2839C80.5291 73.5579 80.6711 72.4209 79.9101 72.1289C79.2271 71.8669 78.1531 72.4769 77.8811 71.7919C77.8101 71.6129 77.8471 71.4109 77.8931 71.2249C78.3691 69.2879 79.7691 67.6049 81.5771 66.7949C82.1831 66.5239 82.9501 66.1859 82.9531 65.5169C83.3811 65.5819 83.6961 66.0639 83.5881 66.4869C84.0561 66.5479 84.5461 66.4179 84.9231 66.1319C84.6011 65.9039 84.6961 65.3729 84.9671 65.0849C85.2371 64.7969 85.6221 64.6449 85.9151 64.3799C86.7431 63.6329 86.8541 62.0359 87.9501 61.8589C88.7811 62.1889 88.6721 63.4129 88.3221 64.2419C87.9721 65.0709 87.5631 66.1249 88.1771 66.7789C88.4251 66.1999 88.9421 65.7439 89.5441 65.5739C88.9831 66.2829 88.8861 67.3339 89.3081 68.1349C89.7171 67.1899 90.4691 66.3999 91.3891 65.9489C91.3381 65.6869 91.2871 65.4249 91.2351 65.1629C91.9631 65.3329 92.6611 64.6309 92.7831 63.8869C92.9021 63.1439 92.6181 62.4009 92.3401 61.7009Z" fill="#C0B0D3"/>
<path d="M71.66 89.217C72.294 89.403 73.024 89.203 73.479 88.72C73.559 88.634 73.635 88.534 73.645 88.417C73.655 88.3 73.574 88.168 73.457 88.165C72.899 88.591 71.952 88.35 71.547 88.925C71.51 88.978 71.479 89.044 71.501 89.105C71.523 89.168 71.595 89.198 71.66 89.217Z" fill="#C0B0D3"/>
<path d="M68.5674 90.2779C68.4624 90.2859 68.3674 90.3399 68.2704 90.3819C67.8884 90.5469 67.4504 90.5279 67.0604 90.6729C66.8084 90.7669 66.5854 90.9259 66.3664 91.0829C65.9544 91.3789 65.5424 91.6739 65.1304 91.9699C66.0314 91.7779 66.9324 91.5869 67.8324 91.3949C68.0644 91.3459 68.2984 91.2949 68.5144 91.1969C68.8764 91.0309 69.1664 90.7369 69.5144 90.5429C69.2864 90.4709 69.0584 90.3989 68.8314 90.3269C68.7454 90.2989 68.6574 90.2709 68.5674 90.2779Z" fill="#C0B0D3"/>
<path d="M78.3022 16.3068C78.2282 16.0688 77.9842 15.9168 77.7392 15.8838C77.4942 15.8508 77.2471 15.9158 77.0111 15.9898C76.3021 16.2138 75.6222 16.5288 74.9922 16.9258C74.8322 17.0268 74.6742 17.1348 74.5532 17.2808C74.2362 17.6658 74.2521 18.2188 74.2831 18.7188C74.7871 18.7038 75.2921 18.6878 75.7961 18.6728C75.9361 18.6688 76.0761 18.6648 76.2141 18.6878C76.4861 18.7338 76.7282 18.8818 76.9842 18.9848C77.3132 19.1178 77.6711 19.1768 78.0252 19.1568C78.1952 18.9958 78.1512 18.7108 78.0472 18.4998C77.9432 18.2888 77.7892 18.0918 77.7712 17.8578C77.7282 17.2968 78.4692 16.8448 78.3022 16.3068Z" fill="#C0B0D3"/>
<path d="M76.3661 24.2529C76.7211 24.2649 77.0671 24.3619 77.4191 24.4099C77.7711 24.4579 78.1491 24.4499 78.4551 24.2689C78.7621 24.0879 78.9641 23.6909 78.8301 23.3589C78.7241 23.0959 78.4531 22.9459 78.2021 22.8179C77.9861 22.7079 77.7701 22.5969 77.5541 22.4869C77.4121 22.4149 77.2611 22.3329 77.1911 22.1889C77.0691 21.9389 77.2491 21.6499 77.4301 21.4389C77.6111 21.2279 77.8151 20.9699 77.7401 20.7009C77.6991 20.5539 77.5811 20.4439 77.4651 20.3469C77.1071 20.0509 76.7091 19.8059 76.2841 19.6209C76.1171 19.5479 75.9431 19.4839 75.7621 19.4759C75.5221 19.4659 75.2901 19.5529 75.0661 19.6399C74.7091 19.7779 74.3511 19.9159 73.9941 20.0539C73.7751 20.1379 73.5341 20.2449 73.4471 20.4639C73.3601 20.6829 73.5911 20.9939 73.7931 20.8759C73.9691 21.3189 73.4741 21.7299 73.3571 22.1929C73.2721 22.5269 73.3931 22.8759 73.5121 23.1999C73.6751 23.6429 73.8801 24.1319 74.3121 24.3149C74.4441 24.3709 74.5871 24.3919 74.7301 24.3989C75.2781 24.4239 75.8181 24.2359 76.3661 24.2529Z" fill="#C0B0D3"/>
<path d="M83.717 17.625C83.832 17.713 83.9549 17.804 84.0979 17.825C84.2409 17.845 84.409 17.765 84.435 17.622C84.454 17.517 84.394 17.416 84.338 17.327C84.198 17.105 84.0569 16.883 83.9169 16.66C83.7929 16.465 83.6659 16.264 83.4809 16.126C83.2969 15.988 83.04 15.923 82.833 16.024C82.725 16.334 82.823 16.686 83.009 16.955C83.195 17.223 83.458 17.426 83.717 17.625Z" fill="#C0B0D3"/>
<path d="M86.5753 21.366C86.7803 21.51 87.0273 21.599 87.1953 21.785C87.3073 21.91 87.3733 22.068 87.4513 22.217C87.6833 22.662 88.0343 23.044 88.4553 23.313C88.4913 23.013 88.4713 22.707 88.3963 22.415C88.3683 22.304 88.3303 22.192 88.2563 22.106C88.1653 21.999 88.0293 21.944 87.9063 21.877C87.6273 21.725 87.3913 21.494 87.2323 21.218C87.1623 21.098 87.1073 20.968 87.0253 20.856C86.7943 20.539 86.3893 20.4 86.1263 20.11C86.0103 19.981 85.9243 19.825 85.7953 19.708C85.6663 19.592 85.4703 19.522 85.3203 19.609C85.5073 19.913 85.6943 20.216 85.8813 20.52C86.0743 20.833 86.2753 21.155 86.5753 21.366Z" fill="#C0B0D3"/>
<path d="M83.885 73.824C83.772 73.746 83.63 73.69 83.5 73.734C83.371 73.778 83.293 73.963 83.389 74.061C83.189 74.162 82.952 74.14 82.731 74.175C82.51 74.21 82.266 74.346 82.251 74.571C82.246 74.647 82.268 74.725 82.246 74.797C82.2 74.942 81.996 75 81.974 75.151C81.956 75.27 82.076 75.375 82.196 75.381C82.315 75.388 82.427 75.326 82.527 75.259C82.733 75.12 82.931 74.946 83.175 74.905C83.42 74.863 83.721 75.037 83.696 75.285C84.006 75.248 84.281 75.001 84.355 74.695C84.347 74.353 84.166 74.018 83.885 73.824Z" fill="#C0B0D3"/>
<path d="M79.0194 37.0838C78.9664 37.4858 79.0734 37.8888 79.1784 38.2798C79.2704 38.6208 79.3624 38.9618 79.4544 39.3038C79.5404 39.6228 79.6664 39.9878 79.9764 40.0968C80.1474 40.1568 80.3384 40.1218 80.5154 40.1608C80.8984 40.2448 81.1624 40.6588 81.5534 40.6918C82.0054 40.7298 82.3294 40.2298 82.3724 39.7748C82.4144 39.3198 82.2874 38.8588 82.3554 38.4068C82.4374 37.8628 82.8604 37.3548 83.4034 37.2928C83.5954 37.2708 83.8004 37.3008 83.9724 37.2128C84.2104 37.0898 84.2904 36.7928 84.3464 36.5288C84.4374 36.0988 84.5274 35.6408 84.3734 35.2288C84.2284 34.8398 83.8834 34.5418 83.7904 34.1368C83.4704 34.0098 83.1014 34.2588 82.9694 34.5788C82.8374 34.8988 82.8784 35.2618 82.9204 35.6058C82.8954 35.4018 82.1434 35.9838 82.0874 36.0218C81.5014 36.4158 81.1184 36.5608 80.4904 36.4058C79.8074 36.2378 79.1534 36.0608 79.0194 37.0838Z" fill="#C0B0D3"/>
<path d="M74.4894 50.8949C74.6914 50.7369 74.7794 50.4749 74.8324 50.2229C74.9454 49.6949 74.9524 49.1299 74.7544 48.6279C74.4064 47.7429 73.3854 47.1849 72.4594 47.3739C72.2094 47.4249 71.9324 47.5189 71.7164 47.3839C71.5264 47.2649 71.4634 47.0129 71.2964 46.8649C71.0044 46.6069 70.5383 46.7649 70.2353 47.0099C69.9323 47.2549 69.6714 47.5859 69.2954 47.6859C69.1494 47.3669 68.7664 47.1789 68.4274 47.2599C68.0884 47.3409 67.8304 47.6829 67.8424 48.0339C67.8584 48.4889 68.2524 48.8259 68.4474 49.2369C68.6894 49.7469 68.6064 50.3709 68.3364 50.8659C68.0664 51.3609 67.6303 51.7439 67.1663 52.0619C67.0403 52.1479 66.9074 52.2349 66.8254 52.3639C66.6774 52.5999 66.7374 52.9069 66.8074 53.1769C66.9804 53.8459 67.1833 54.5059 67.4163 55.1569C67.7773 54.9359 68.2074 55.3279 68.3934 55.7099C68.5794 56.0919 68.7664 56.5669 69.1824 56.6409C69.6084 56.7159 70.0984 56.3099 70.4394 56.5779C70.5484 56.6639 70.6134 56.8069 70.7414 56.8619C70.8524 56.9099 70.9804 56.8769 71.0914 56.8299C72.0194 56.4439 72.3404 55.0589 71.6784 54.2989C71.9614 53.7459 72.4124 53.2819 72.9554 52.9849C73.0984 52.9069 73.2534 52.8349 73.3494 52.7029C73.6174 52.3349 73.2804 51.7489 73.5464 51.3789C73.7564 51.0869 74.2064 51.1159 74.4894 50.8949Z" fill="#C0B0D3"/>
<path d="M76.1359 33.7571C75.7599 31.2651 73.791 28.2631 70.676 27.7431C68.494 27.0621 65.949 28.2001 64.825 30.2051C63.701 32.2111 63.98 34.8721 65.348 36.7161C66.716 38.5611 69.051 39.5731 71.334 39.5051C72.76 39.4631 74.24 38.9831 75.17 37.8911C76.114 36.7851 76.3529 35.2021 76.1359 33.7571Z" fill="#C0B0D3"/>
<path opacity="0.5" d="M95.906 48.425C95.906 74.899 74.626 96.361 48.377 96.361C54.53 64.466 54.994 32.513 48.377 0.489014C74.627 0.489014 95.906 21.951 95.906 48.425Z" fill="black"/>
<g opacity="0.2">
<path d="M5.70811 43.566C5.70811 31.522 10.1221 20.525 17.3941 12.104C7.20812 20.896 0.745117 33.947 0.745117 48.529C0.745117 75.003 22.0241 96.465 48.2741 96.465C62.5821 96.465 75.4031 90.08 84.1161 79.991C75.8091 87.162 65.0281 91.502 53.2371 91.502C26.9871 91.502 5.70811 70.04 5.70811 43.566Z" fill="black"/>
</g>
<path d="M29.2792 92.306C29.2752 92.314 29.1852 92.281 29.0102 92.209C28.8102 92.122 28.5572 92.012 28.2412 91.876C27.8932 91.72 27.4792 91.534 26.9972 91.318C26.5022 91.102 25.9372 90.842 25.3312 90.489C22.8382 89.218 19.3732 87.035 15.6442 83.673C14.6742 82.873 13.8132 81.872 12.8392 80.909C11.9012 79.911 11.0042 78.799 10.0672 77.66C9.21917 76.453 8.24416 75.268 7.45616 73.904C7.04816 73.232 6.60117 72.569 6.20917 71.861C5.83217 71.145 5.45116 70.419 5.06416 69.684C2.08516 63.755 0.120168 56.532 0.0151677 48.853C-0.0128323 45.019 0.352173 41.273 1.11717 37.736C1.92817 34.21 3.06117 30.898 4.43417 27.871C7.28917 21.868 10.9592 17.02 14.6042 13.576C18.2382 10.111 21.6292 7.81399 24.0902 6.48199C24.3922 6.30699 24.6772 6.13999 24.9472 5.98399C25.2252 5.84799 25.4852 5.71999 25.7292 5.60099C26.2052 5.37099 26.6142 5.17299 26.9562 5.00699C27.2672 4.86099 27.5172 4.74399 27.7152 4.65199C27.8872 4.57499 27.9772 4.53899 27.9812 4.54699C27.9852 4.55499 27.9022 4.60699 27.7382 4.69999C27.5472 4.80499 27.3042 4.93699 27.0032 5.10199C26.6672 5.27999 26.2672 5.49199 25.8022 5.73899C25.5632 5.86399 25.3072 5.99899 25.0342 6.14199C24.7692 6.30499 24.4892 6.47699 24.1932 6.65899C21.7732 8.03899 18.4362 10.369 14.8632 13.841C11.2782 17.293 7.67417 22.12 4.87117 28.074C3.52417 31.076 2.41217 34.357 1.61617 37.847C0.866166 41.348 0.508164 45.055 0.536164 48.848C0.640164 56.446 2.56917 63.591 5.49417 69.473C5.87417 70.202 6.24816 70.923 6.61816 71.633C7.00216 72.336 7.44317 72.994 7.84317 73.662C8.61717 75.018 9.57617 76.196 10.4092 77.398C11.3302 78.532 12.2122 79.641 13.1342 80.638C14.0922 81.601 14.9382 82.601 15.8922 83.404C19.5602 86.775 22.9722 88.993 25.4262 90.313C26.0222 90.678 26.5782 90.952 27.0642 91.181C27.5372 91.414 27.9432 91.615 28.2842 91.783C28.5902 91.939 28.8362 92.064 29.0302 92.163C29.1992 92.248 29.2832 92.298 29.2792 92.306Z" fill="white"/>
</svg>
