<svg width="96" height="97" viewBox="0 0 96 97" fill="none" xmlns="http://www.w3.org/2000/svg">
<path d="M47.7141 96.8229C73.9636 96.8229 95.2431 75.3613 95.2431 48.8869C95.2431 22.4126 73.9636 0.950928 47.7141 0.950928C21.4645 0.950928 0.185059 22.4126 0.185059 48.8869C0.185059 75.3613 21.4645 96.8229 47.7141 96.8229Z" fill="#C0B0D3"/>
<g opacity="0.2">
<path d="M47.7141 96.8229C73.9636 96.8229 95.2431 75.3613 95.2431 48.8869C95.2431 22.4126 73.9636 0.950928 47.7141 0.950928C21.4645 0.950928 0.185059 22.4126 0.185059 48.8869C0.185059 75.3613 21.4645 96.8229 47.7141 96.8229Z" fill="white"/>
</g>
<path d="M65.6671 19.2439C65.2221 18.8999 64.7761 18.5569 64.3311 18.2129C64.1851 18.1009 64.0341 17.9819 63.9541 17.8159C63.8651 17.6339 63.8741 17.4219 63.8421 17.2219C63.7241 16.4819 62.9621 15.9099 62.2251 16.0109C61.9391 15.2789 61.8721 14.4769 61.6131 13.7339C61.3551 12.9909 60.8211 12.2609 60.0521 12.1259C59.7521 12.0729 59.4331 12.1149 59.1521 11.9959C58.8431 11.8659 58.6401 11.5679 58.3731 11.3629C57.4781 10.6769 55.9141 11.0509 55.3461 10.0729C55.2131 9.84288 55.1621 9.56789 55.0051 9.35489C54.8081 9.08789 54.4791 8.96188 54.1691 8.84888C53.0471 8.44088 51.7991 8.03388 50.6941 8.48688C50.3011 8.64788 49.9431 8.91488 49.5241 8.98288C49.0551 9.05888 48.5481 8.87988 48.1141 9.07288C47.8541 9.18788 47.6391 9.42988 47.3551 9.44388C47.1551 9.45388 46.9711 9.34488 46.7971 9.24588C45.7021 8.62188 44.3931 8.23986 43.1741 8.42886C43.3211 8.33086 43.4671 8.23088 43.6331 8.17288C43.7581 8.12888 43.8911 8.11087 44.0191 8.07687C44.3331 7.99287 44.6201 7.80686 44.8271 7.55386C44.8011 7.50686 44.7751 7.45887 44.7491 7.41187C44.5811 7.52487 44.3551 7.41988 44.1971 7.29288C44.0391 7.16588 43.8741 7.00788 43.6731 7.01788C43.5721 7.02288 43.4781 7.07086 43.3801 7.09286C42.9621 7.18886 42.5671 6.82587 42.1381 6.82187C41.9971 6.81987 41.8591 6.85788 41.7241 6.90088C41.1161 7.09488 40.5471 7.41089 40.0591 7.82489C40.0041 7.87089 39.9491 7.92089 39.9161 7.98389C39.8711 8.06989 39.8701 8.17188 39.8831 8.26788C39.9291 8.59788 40.1441 8.89888 40.4401 9.04688C40.7591 9.20687 41.1371 9.18787 41.4871 9.12387C41.5211 9.11787 41.5541 9.10688 41.5881 9.09988C41.3591 9.28788 41.1641 9.51388 41.0321 9.77988C40.7831 10.2849 40.8011 10.9419 41.1631 11.3699C40.7501 11.6469 40.3001 10.9979 39.8061 10.9509C39.4431 10.9169 39.1431 11.2149 38.9001 11.4889C38.5681 11.8639 38.2351 12.2389 37.9031 12.6139C37.5111 12.5029 37.1181 12.3919 36.7261 12.2809C36.5371 12.2279 36.3331 12.1749 36.1501 12.2449C35.9651 12.3149 35.8471 12.4929 35.6961 12.6209C35.2871 12.9679 34.5941 12.8899 34.2721 12.4599C34.2351 12.4109 34.2061 12.3589 34.1811 12.3039C34.3451 12.2099 34.4861 12.0879 34.5411 11.9109C34.4891 11.7379 34.2961 11.6469 34.1141 11.6549C34.1651 11.4069 34.2981 11.1769 34.5071 11.0339C34.7891 10.8409 35.1941 10.7659 35.3271 10.4539C35.5391 10.3149 35.7501 10.1769 35.9621 10.0379C36.0371 9.98887 36.1161 9.93587 36.1601 9.85687C36.2021 9.78287 36.2021 9.67887 36.1431 9.61987C36.5311 9.21687 36.0551 8.21687 36.4751 7.70987C36.7501 7.37787 37.2781 7.43587 37.6671 7.61987C38.0561 7.80287 38.4181 8.08488 38.8471 8.11688C39.4931 8.16588 40.0221 7.64589 40.5151 7.22089C41.0081 6.79689 41.6261 6.49188 42.2641 6.74088C42.0871 6.67188 42.5991 5.85986 42.9011 5.88586C43.0821 5.90186 43.0981 6.18788 43.2351 6.26288C44.1131 6.74288 45.2231 6.10888 46.1791 5.99988C47.3921 5.86088 48.6261 5.90589 49.8251 6.13989C49.9031 5.82289 49.5491 5.58388 49.2521 5.45288C48.1831 4.98088 47.1051 4.50587 45.9631 4.26187C43.9381 3.82987 41.7921 4.16089 39.8981 5.00189C39.4291 5.20989 38.9471 5.45389 38.4361 5.42389C38.1861 5.40889 37.9421 5.32788 37.6911 5.32788C37.2461 5.32788 36.8651 5.57388 36.5301 5.88788C36.1641 5.87388 35.8031 6.02288 35.4841 6.21188C35.3421 6.29688 35.2041 6.38988 35.0711 6.48788C35.1591 6.60688 35.3441 6.53387 35.4741 6.46387C35.7041 6.33987 35.9561 6.25587 36.2141 6.21487C36.1631 6.27187 36.1121 6.32987 36.0631 6.38687C35.7571 6.74287 35.3201 6.65288 34.8561 6.70688C34.6961 6.72588 34.5331 6.72788 34.3801 6.77988C34.2171 6.83588 34.0821 6.94389 33.9621 7.06989C34.1121 6.89389 34.2611 6.71686 34.4111 6.54086C34.5151 6.41886 34.6261 6.27289 34.5991 6.11389C35.0571 6.10689 35.5041 5.86189 35.7601 5.47989C35.8041 5.41489 35.8451 5.34289 35.9151 5.30789C36.0471 5.24089 36.2131 5.33588 36.3501 5.28088C36.4651 5.23488 36.5161 5.10486 36.5801 4.99786C36.7451 4.72086 37.0441 4.55987 37.3281 4.41187C37.7971 4.16787 38.2651 3.92387 38.7341 3.67987C38.5491 3.65287 38.3641 3.62588 38.1791 3.59888C38.0211 3.60488 37.8971 3.62188 37.7831 3.64688L37.7401 3.64587C36.1931 3.73387 34.6661 4.15488 33.2901 4.87088C33.1721 4.93188 33.0551 4.99586 32.9301 5.04086C32.8131 5.08286 32.6901 5.10888 32.5691 5.13788C31.7961 5.32488 31.0731 5.67789 30.3581 6.02789C29.0181 6.68289 27.6781 7.33887 26.3381 7.99387C26.1941 8.06387 26.0251 8.18689 26.0661 8.34189C26.3431 8.37189 26.6211 8.40188 26.8981 8.43188C26.2851 8.58088 25.7031 8.86388 25.2051 9.25388C25.0461 9.37788 24.8871 9.51788 24.6901 9.55688C24.5771 9.57988 24.4591 9.56687 24.3451 9.58987C24.1841 9.62187 24.0461 9.72289 23.9141 9.82089C22.5251 10.8469 21.1361 11.8739 19.7471 12.8999C18.9611 13.4809 18.1681 14.0679 17.5141 14.7969C16.7691 15.6279 15.8181 16.3419 15.2161 17.2839C14.7231 18.0549 14.4141 18.9389 13.8711 19.6749C14.2591 19.3689 14.6471 19.0629 15.0331 18.7549C15.2111 18.6129 15.3901 18.4699 15.5371 18.2959C15.6581 18.1539 15.7551 17.9929 15.8601 17.8389C16.1281 17.4469 16.4471 17.0929 16.7651 16.7409C16.9151 16.5749 17.0691 16.4059 17.2601 16.2899C17.3821 16.2159 17.5181 16.1639 17.6341 16.0799C17.7801 15.9739 17.8871 15.8219 18.0231 15.7029C18.1591 15.5839 18.3481 15.4959 18.5181 15.5579C18.3771 15.8099 18.2241 16.0549 18.0581 16.2909C18.0011 16.3719 17.9401 16.4559 17.8521 16.5019C17.7601 16.5499 17.6521 16.5509 17.5511 16.5739C17.1131 16.6709 16.8781 17.1389 16.7021 17.5549C16.8771 17.5419 17.0521 17.5289 17.2281 17.5159C17.2751 17.6029 17.2301 17.7099 17.1851 17.7989C16.7401 18.6719 16.2901 19.5529 15.6601 20.3009C16.0701 19.7699 16.3291 19.1219 16.3991 18.4529C15.7571 18.8279 15.3041 19.4509 14.8081 20.0069C14.4891 20.3649 14.1061 20.7209 13.6311 20.7659C13.6401 20.5569 13.7051 20.3509 13.8181 20.1749C13.3311 20.1549 13.0071 20.6589 12.7871 21.0979C12.3431 21.9839 11.8981 22.8699 11.4541 23.7559C11.1691 24.3239 10.8851 24.8909 10.6001 25.4589C10.3781 25.9009 10.1561 26.3439 9.93408 26.7859C9.85008 26.9539 9.7641 27.1559 9.8501 27.3239C10.4971 26.6879 11.0701 25.9759 11.5541 25.2069C11.6391 25.0719 11.7221 24.9349 11.8311 24.8199C11.9471 24.6979 12.0881 24.6049 12.2131 24.4929C12.6981 24.0569 12.9111 23.3509 13.4531 22.9899C13.4211 23.5209 12.9511 23.8959 12.5951 24.2899C12.2291 24.6949 11.9541 25.1849 11.7981 25.7099C11.7471 25.8809 11.7081 26.0589 11.6171 26.2119C11.5261 26.3659 11.3881 26.4869 11.2941 26.6389C11.0951 26.9639 11.1251 27.3749 11.1621 27.7549C11.1641 27.7759 11.1671 27.7979 11.1791 27.8139C11.2131 27.8579 11.2821 27.8319 11.3281 27.8019C11.6661 27.5869 12.0031 27.3729 12.3411 27.1579C12.2831 27.4649 12.3901 27.7759 12.4591 28.0809C12.5281 28.3859 12.5471 28.7389 12.3481 28.9779C11.7911 29.6499 11.3761 30.0309 11.3051 30.9679C11.2571 31.6049 11.2111 32.3309 10.7161 32.7289C10.6091 32.8149 10.4781 32.8919 10.4391 33.0239C10.4021 33.1509 10.4661 33.2829 10.4931 33.4129C10.5951 33.9039 10.1821 34.3269 9.88809 34.7309C9.80409 34.8469 9.72608 34.9719 9.70108 35.1129C9.67908 35.2389 9.70111 35.3669 9.70911 35.4949C9.72711 35.7899 9.66809 36.0899 9.53809 36.3559C9.75509 36.4849 9.97209 36.6139 10.1891 36.7429C10.2951 36.8059 10.4031 36.8709 10.4741 36.9719C10.5531 37.0849 10.5751 37.2289 10.6401 37.3509C10.7391 37.5369 10.9361 37.6679 10.9881 37.8719C11.0141 37.9739 10.9991 38.0819 10.9911 38.1869C10.9451 38.7419 11.0691 39.3109 11.3411 39.7959C11.4261 39.9469 11.5261 40.0929 11.5631 40.2619C11.6471 40.6409 11.4021 41.0519 11.5411 41.4139C11.4071 41.4339 11.4781 41.6629 11.5751 41.7589C11.6721 41.8549 11.8201 41.8669 11.9551 41.8789C12.0901 41.8909 12.2411 41.9179 12.3211 42.0279C12.4691 42.2329 12.2621 42.4989 12.1871 42.7419C12.1131 42.9789 12.1841 43.2549 12.3621 43.4269C12.4591 43.5209 12.5971 43.6129 12.5811 43.7469C12.5631 43.9009 12.3691 43.9439 12.2331 44.0149C11.8371 44.2189 11.8431 44.8029 12.0201 45.2149C12.1971 45.6259 12.4911 46.0139 12.4851 46.4619C12.8531 46.4979 13.1881 46.7699 13.3011 47.1249C13.3381 47.2399 13.3691 47.3819 13.4821 47.4229C13.6221 47.4739 13.7521 47.3229 13.8031 47.1829C13.9851 46.6879 13.8201 46.0899 14.0951 45.6419C14.2221 45.4349 14.4261 45.2909 14.5851 45.1079C14.7431 44.9249 14.8571 44.6609 14.7531 44.4409C14.6911 44.3089 14.5621 44.2209 14.4921 44.0939C14.4211 43.9669 14.4551 43.7559 14.5991 43.7419C14.8031 43.8899 14.9561 44.1099 15.0241 44.3549C15.2091 44.3549 15.3941 44.3549 15.5791 44.3539C15.5771 44.6469 15.5761 44.9389 15.5741 45.2319C15.2441 45.4769 15.0941 45.9419 15.2181 46.3359C15.2591 46.4659 15.3341 46.5949 15.4571 46.6519C15.5401 46.6909 15.6361 46.6929 15.7221 46.7269C16.1911 46.9149 16.0131 47.8469 16.5091 47.9409C16.7101 47.9789 16.9061 47.8339 17.1091 47.8499C17.2671 47.8619 17.4601 47.9589 17.5601 47.8349C17.6291 47.7489 17.5891 47.6239 17.5561 47.5189C17.4541 47.1909 17.4551 46.8309 17.5611 46.5039C17.3751 46.0709 17.2561 45.6079 17.2081 45.1389C17.2551 45.1139 17.3021 45.0889 17.3491 45.0629C17.5831 45.2609 17.8251 45.4689 17.9491 45.7509C18.0301 45.9339 18.0571 46.1399 18.1541 46.3139C18.2511 46.4889 18.4611 46.6289 18.6441 46.5519C18.8141 46.4799 18.8701 46.2619 18.8591 46.0759C18.8481 45.8899 18.7921 45.7029 18.8291 45.5209C18.9031 45.1579 19.2971 44.9739 19.6421 44.8449C19.6821 44.9719 19.5221 45.0569 19.4181 45.1389C19.1821 45.3229 19.1741 45.6749 19.2081 45.9739C19.2601 46.4349 19.3721 46.9089 19.6701 47.2619C19.9681 47.6149 20.4961 47.8039 20.9051 47.5919C21.4121 47.3289 21.4951 46.6449 21.5031 46.0699C21.6621 45.9879 21.8971 45.9249 21.9851 46.0819C22.0471 46.1919 21.9791 46.3289 21.9891 46.4559C22.0081 46.6899 22.2871 46.8379 22.3071 47.0719C22.3191 47.2049 22.2421 47.3269 22.1731 47.4409C21.9851 47.7489 21.8631 48.2219 22.1671 48.4119C22.2461 48.4609 22.3401 48.4779 22.4291 48.5059C22.8591 48.6409 23.1791 49.0739 23.1841 49.5279C23.3421 49.5669 23.4621 49.7259 23.4571 49.8899C23.4521 50.0539 23.3221 50.2049 23.1621 50.2339C23.0911 50.2469 23.0101 50.2409 22.9581 50.2909C22.8451 50.3999 22.9971 50.6349 22.8781 50.7369C22.8391 50.7709 22.7841 50.7749 22.7351 50.7919C22.4801 50.8839 22.5161 51.2499 22.5421 51.5229C22.6011 52.1399 22.3201 52.7779 21.8281 53.1489C21.4771 53.4129 20.9541 53.5279 20.6131 53.2519C20.4511 53.1209 20.3561 52.9259 20.2221 52.7669C20.0881 52.6079 19.8741 52.4779 19.6801 52.5519C19.5981 52.5829 19.5321 52.6469 19.4691 52.7079C19.0781 53.0899 18.6671 53.5069 18.5611 54.0459C18.5261 54.2259 18.5251 54.4179 18.4441 54.5829C18.3441 54.7879 18.1381 54.9159 17.9921 55.0899C17.8091 55.3079 17.7231 55.6059 17.7621 55.8889C17.9161 56.0749 17.6881 56.3249 17.5871 56.5459C17.4861 56.7659 17.3281 56.9579 17.2431 57.1849C17.0651 57.6589 17.2311 58.1849 17.3981 58.6629C17.6191 59.2979 17.8601 59.9639 18.3671 60.4029C18.4971 60.5159 18.6421 60.6099 18.7851 60.7059C19.3591 61.0899 19.9401 61.5199 20.2511 62.1399C20.6001 62.2319 21.0051 61.9269 21.3101 62.1219C21.4251 62.1949 21.4911 62.3239 21.5521 62.4459C21.7181 62.7779 21.8841 63.1089 22.0501 63.4409C22.1821 63.7059 22.3251 63.9829 22.5711 64.1449C22.8171 64.3069 23.1991 64.3009 23.3591 64.0519C23.5551 63.7479 23.3131 63.3279 23.4321 62.9869C23.5921 62.5279 24.3171 62.4159 24.3761 61.9329C24.4011 61.7279 24.2991 61.4779 24.4491 61.3379C24.5101 61.2809 24.5971 61.2639 24.6741 61.2309C24.9321 61.1219 25.0831 60.8059 25.0061 60.5349C25.6001 60.4879 26.3281 60.5079 26.6191 61.0319C26.6831 61.1459 26.8041 61.3009 26.9011 61.2139C26.8171 60.5609 26.7341 59.8949 26.8601 59.2489C26.8951 59.0679 26.9471 58.8829 26.9081 58.7029C26.7951 58.1729 26.0361 58.0649 25.7861 57.5849C25.4931 57.0239 26.0281 56.2369 25.6431 55.7359C25.4061 55.4279 24.9101 55.3819 24.7371 55.0329C24.6781 54.9129 24.6661 54.7709 24.5881 54.6619C24.5091 54.5509 24.3771 54.4949 24.2661 54.4169C23.8361 54.1119 23.7661 53.4999 23.8181 52.9729C23.8701 52.4459 24.0001 51.8989 23.8271 51.3989C23.7631 51.2139 23.6581 51.0399 23.6401 50.8439C23.6071 50.5019 23.9041 50.1589 24.2451 50.1609C24.5861 50.1629 24.8811 50.5299 24.7981 50.8629C24.7421 51.0879 24.5551 51.2509 24.4131 51.4339C24.2711 51.6169 24.1691 51.8829 24.3011 52.0739C24.6511 52.1139 24.7911 52.6689 24.5021 52.8719C24.4181 52.9309 24.3151 52.9589 24.2351 53.0239C24.0261 53.1919 24.0601 53.5339 24.2061 53.7599C24.3521 53.9859 24.5801 54.1449 24.7451 54.3569C24.8331 54.4689 24.9101 54.6019 25.0401 54.6579C25.1091 54.6879 25.1861 54.6929 25.2611 54.6969C25.4621 54.7079 25.6631 54.7199 25.8631 54.7309C25.9391 54.7349 26.0171 54.7389 26.0901 54.7179C26.2091 54.6829 26.2971 54.5859 26.3891 54.5019C26.7071 54.2079 27.1091 54.0269 27.5031 53.8509C27.6421 53.7889 27.7871 53.7259 27.9381 53.7339C28.2911 53.7509 28.5031 54.1179 28.7401 54.3829C29.0881 54.7719 29.5831 54.9859 30.0611 55.1879C30.2881 54.3449 30.5121 53.4289 30.1841 52.6199C29.9251 51.9829 29.3681 51.5289 28.9251 51.0039C28.4961 50.4949 28.1541 49.8099 28.3571 49.1739C28.4701 49.1159 28.5821 49.0569 28.6951 48.9989C29.1791 49.2059 29.5671 49.6279 29.7381 50.1289C29.8691 50.5139 29.8731 50.9299 29.9581 51.3279C30.0841 51.9189 30.3921 52.4679 30.8241 52.8869C30.8151 52.4199 30.8071 51.9529 30.7981 51.4859C30.7951 51.3519 30.8001 51.1999 30.8991 51.1089C30.9941 51.0209 31.1391 51.0259 31.2671 51.0409C31.6521 51.0859 32.0321 51.1759 32.3981 51.3069C32.5071 51.3459 32.6201 51.3919 32.6961 51.4799C32.7931 51.5919 32.8141 51.7499 32.8311 51.8979C32.8961 52.4659 32.9041 53.1609 32.4261 53.4679C32.0751 53.6929 31.5481 53.6309 31.3061 53.9719C31.1421 54.2019 31.1721 54.5509 30.9581 54.7349C30.8381 54.8379 30.6591 54.8699 30.5741 55.0029C30.4411 55.2099 30.6271 55.4879 30.5731 55.7279C30.5381 55.8829 30.4041 56.0289 30.4561 56.1779C30.4881 56.2679 30.5781 56.3209 30.6501 56.3839C30.9851 56.6809 30.9121 57.2169 30.8111 57.6549C30.7281 58.0139 30.6451 58.3729 30.5621 58.7319C30.6311 58.0049 30.4281 57.2539 30.0011 56.6639C29.6171 56.7539 29.2281 56.5779 28.8491 56.4669C28.4701 56.3569 27.9961 56.3389 27.7491 56.6489C27.5431 56.9079 27.5871 57.2849 27.6891 57.5999C27.7921 57.9149 27.9451 58.2279 27.9241 58.5589C27.8991 58.9629 27.6251 59.3969 27.8411 59.7379C28.0011 59.8069 28.1611 59.8759 28.3221 59.9449C28.5791 60.0559 28.8831 60.3469 28.6951 60.5549C28.5291 60.7379 28.0831 60.6659 28.1131 60.9129C28.1211 60.9739 28.1651 61.0239 28.2071 61.0689C28.5701 61.4529 28.9801 61.9519 28.8001 62.4499C29.0791 62.3729 29.3671 62.5199 29.6071 62.6829C30.2251 63.1039 30.7491 63.6649 31.1281 64.3119C31.2451 64.5119 31.3491 64.7199 31.4691 64.9189C31.7401 64.9459 31.8161 64.5539 31.7841 64.2819C31.7371 63.8689 31.6891 63.4559 31.6421 63.0429C31.6061 62.7289 31.5701 62.4129 31.4801 62.1109C31.3521 61.6829 31.1201 61.2939 30.9711 60.8729C30.8211 60.4519 30.7611 59.9639 30.9741 59.5719C31.4971 59.8989 31.8671 60.4659 31.9591 61.0799C31.9921 61.2989 31.9901 61.5219 32.0251 61.7399C32.1331 62.4239 32.5831 63.0209 32.6651 63.7089C32.6931 63.9449 32.6801 64.1979 32.8021 64.4019C32.8761 64.5269 32.9931 64.6189 33.1081 64.7079C33.5501 65.0519 33.9921 65.3949 34.4331 65.7389C34.5441 65.8249 34.6221 66.0129 34.7491 65.9529C34.5771 65.3679 34.4051 64.7819 34.2331 64.1969C34.5951 64.5039 34.9561 64.8109 35.3181 65.1169C35.2661 64.8339 35.3041 64.5209 35.4801 64.2939C35.6561 64.0669 35.9891 63.9549 36.2441 64.0849C36.4991 64.2149 36.5961 64.6079 36.3921 64.8109C36.9341 64.3119 37.8091 64.2279 38.4341 64.6149C38.5941 64.7139 38.7481 64.8449 38.9351 64.8669C39.2771 64.9089 39.6291 64.5779 39.9381 64.7329C40.2551 64.8919 40.3131 65.4779 40.6651 65.4439C40.8741 65.4239 41.0341 65.1609 41.2351 65.2199C41.2601 65.3909 41.2851 65.5609 41.3101 65.7319C41.8651 65.6759 42.5581 65.4979 42.6491 64.9419C42.6651 64.8429 42.6591 64.7389 42.6931 64.6439C42.7411 64.5079 42.8631 64.4149 42.9741 64.3249C43.4081 63.9749 43.7971 63.5229 43.9081 62.9739C44.0201 62.4249 43.7761 61.7759 43.2571 61.5739C43.1221 61.4539 43.2531 61.2329 43.3931 61.1199C43.5331 61.0069 43.7051 60.8429 43.6291 60.6789C43.5831 60.5789 43.4621 60.5389 43.3931 60.4519C43.2101 60.2229 43.4831 59.8329 43.3041 59.6009C43.2231 59.4959 43.0791 59.4679 42.9651 59.3999C42.6311 59.1999 42.6341 58.6749 42.8711 58.3649C43.1081 58.0539 43.4921 57.9049 43.8571 57.7699C44.2141 57.6379 44.5711 57.5049 44.9281 57.3729C45.2081 57.2689 45.5371 57.0999 45.5431 56.7989C45.5471 56.5849 45.3921 56.3199 45.5601 56.1899C45.6561 56.1159 45.7941 56.1539 45.9121 56.1259C46.1961 56.0579 46.2391 55.6729 46.2191 55.3789C46.2051 55.1659 46.1911 54.9519 46.1771 54.7389C46.1711 54.6459 46.1651 54.5509 46.1961 54.4629C46.2561 54.2909 46.4341 54.1989 46.5751 54.0859C46.7161 53.9729 46.8361 53.7689 46.7351 53.6179C46.2521 53.6389 45.7691 53.6599 45.2871 53.6809C45.0731 53.6899 44.8461 53.6959 44.6611 53.5859C44.4771 53.4759 44.3721 53.2039 44.5091 53.0379C44.3921 52.9979 44.2761 52.9579 44.1591 52.9179C44.1661 52.6439 44.1741 52.3709 44.1811 52.0969C44.1831 52.0179 44.1861 51.9359 44.2231 51.8669C44.2631 51.7919 44.3361 51.7419 44.4071 51.6949C44.6351 51.5439 44.8621 51.3929 45.0901 51.2419C45.0451 51.4919 45.1861 51.7629 45.4151 51.8679C45.6251 51.8819 45.6641 51.5569 45.5631 51.3719C45.4621 51.1859 45.3001 50.9829 45.3861 50.7899C45.4171 50.7199 45.4781 50.6669 45.5141 50.5989C45.6941 50.2579 45.1711 49.8809 45.2771 49.5099C44.8831 49.4059 44.4881 49.3009 44.0941 49.1969C44.0041 49.0479 43.8991 48.9079 43.7861 48.7759C42.6691 49.0269 41.5091 49.1629 40.3161 49.1629C40.2221 49.1629 40.1301 49.1579 40.0361 49.1559C40.0081 49.4579 40.0431 49.7849 40.0931 50.0799C40.2811 49.9219 40.4701 49.7629 40.6581 49.6049C40.6141 50.1959 40.6761 50.7949 40.8421 51.3639C40.8851 51.5119 40.9331 51.6819 40.8501 51.8119C40.7711 51.9359 40.6041 51.9719 40.5071 52.0819C40.2181 52.4099 40.7791 52.9489 40.5781 53.3389C40.1441 53.3559 39.7811 52.7309 39.3951 52.9329C39.3041 52.9809 39.2361 53.0699 39.1381 53.0999C38.9201 53.1659 38.7371 52.8909 38.7551 52.6619C38.7731 52.4329 38.9021 52.2259 38.9281 51.9979C38.9671 51.6629 38.7841 51.3479 38.7131 51.0179C38.6461 50.7049 38.6791 50.3709 38.5671 50.0719C38.4551 49.7729 38.0981 49.5229 37.8251 49.6869C37.8231 49.4069 37.7171 49.1339 37.5461 48.9149C35.0131 48.4669 32.6851 47.4179 30.7161 45.9149C30.6831 45.9379 30.6491 45.9609 30.6201 45.9889C30.3501 46.2609 30.3771 46.6999 30.3751 47.0849C30.3731 47.4699 30.2601 47.9359 29.8931 48.0439C29.5731 47.7959 29.6321 47.2409 29.3071 46.9999C29.1541 46.8869 28.9471 46.8709 28.7911 46.7619C28.5421 46.5879 28.4951 46.2419 28.4711 45.9379C28.4321 45.4429 28.4211 44.8709 28.7871 44.5379C28.8481 44.4819 28.9201 44.4359 28.9941 44.3919C26.1501 41.4909 40.3261 43.1409 40.3261 38.7389C40.3261 35.6929 39.6211 34.1789 39.0521 33.5039C39.7421 33.7449 41.0051 33.9879 43.1431 33.9879C48.4931 33.9879 50.3951 19.7079 53.2821 23.7899C53.5761 23.4929 54.0191 23.3439 54.4271 23.4329C55.7071 23.7149 55.8061 25.6639 56.9201 26.3589C57.4171 26.3489 57.9141 26.3379 58.4111 26.3279C58.6481 26.7899 59.2081 27.0169 59.7221 26.9749C60.4301 26.9179 61.0921 26.3619 61.2031 25.6539C61.3141 24.9459 60.7941 24.1759 60.0891 24.0889C59.8691 24.0619 59.6401 24.0939 59.4281 24.0269C59.2171 23.9599 59.0261 23.7329 59.1071 23.5239C59.4751 23.0199 60.2851 23.2079 60.7681 23.6009C61.2521 23.9939 61.6411 24.5509 62.2371 24.7289C62.5581 23.8619 63.9021 23.6369 64.0411 22.7209C64.0761 22.4889 64.0221 22.2399 64.1121 22.0229C64.3081 21.5509 65.0651 21.4879 65.1871 20.9909C65.2381 20.7809 65.1511 20.5639 65.1241 20.3489C65.0641 19.9159 65.2911 19.4609 65.6671 19.2439Z" fill="#C0B0D3"/>
<path d="M55.3249 26.496C55.1319 26.345 54.9049 26.249 54.6709 26.168C55.1219 27.117 55.4829 28.118 55.7439 29.16C55.8769 29.07 56.0029 28.968 56.1189 28.847C56.0859 27.99 55.9969 27.019 55.3249 26.496Z" fill="#C0B0D3"/>
<path d="M27.731 28.4839C27.76 28.4959 27.791 28.5079 27.822 28.5039C27.855 28.4999 27.884 28.4809 27.915 28.4709C28.025 28.4359 28.134 28.5209 28.224 28.5939C28.314 28.6669 28.441 28.7359 28.538 28.6719C28.631 28.6109 28.625 28.4699 28.583 28.3669C28.541 28.2639 28.472 28.1659 28.474 28.0539C28.475 28.0029 28.49 27.9529 28.498 27.9019C28.524 27.7209 28.431 27.5289 28.274 27.4379C28.117 27.3469 27.905 27.3639 27.764 27.4789C27.831 27.5669 27.901 27.6609 27.913 27.7709C27.926 27.8809 27.855 28.0089 27.745 28.0149C27.666 28.0189 27.596 27.9619 27.519 27.9429C27.406 27.9139 27.276 27.9789 27.231 28.0879C27.359 28.2619 27.534 28.3999 27.731 28.4839Z" fill="#C0B0D3"/>
<path d="M56.0879 9.39096C56.5579 10.189 57.6959 10.495 58.4969 10.039C58.5429 10.013 58.5879 9.98397 58.6219 9.94397C58.7839 9.75597 58.6239 9.46999 58.4669 9.27799C57.7219 8.91499 56.7959 8.95896 56.0879 9.39096Z" fill="#C0B0D3"/>
<path d="M51.5922 6.25493C51.9992 6.30393 52.4062 6.35392 52.8132 6.40392C53.0182 6.42892 53.2942 6.58693 53.1852 6.76293C52.8972 6.70693 52.6602 7.06394 52.7302 7.35094C52.7992 7.63794 53.0622 7.83494 53.3292 7.95894C55.0752 8.76794 57.1862 7.40493 59.0132 8.00493C59.9862 8.32393 60.7232 9.15792 61.6852 9.50792C62.0812 9.65192 62.5982 9.81494 62.6192 10.2389C62.6242 10.3469 62.5922 10.4539 62.5932 10.5629C62.5982 10.8959 62.9282 11.1429 63.2542 11.1989C63.5802 11.2549 63.9122 11.1769 64.2422 11.1589C64.9262 11.1209 65.6212 11.3489 66.1512 11.7849C66.2992 11.9159 66.0482 12.1029 65.9092 12.2439C65.5982 12.5579 65.9482 13.1369 66.3812 13.2139C66.8142 13.2909 67.2372 13.0709 67.6492 12.9159C68.4132 12.6299 69.2792 12.5629 70.0412 12.8529C70.8042 13.1429 71.4382 13.8239 71.5632 14.6359C71.5822 14.7619 71.5842 14.9059 71.4972 14.9979C71.4252 15.0739 71.3112 15.0919 71.2072 15.0979C70.2022 15.1589 69.1902 14.5369 68.7852 13.6079C68.7372 13.4969 68.6892 13.3739 68.5862 13.3119C68.5332 13.2809 68.4712 13.2689 68.4102 13.2659C67.8072 13.2419 67.5052 14.1049 67.8012 14.6359C68.0972 15.1669 68.7092 15.4149 69.2762 15.6259C69.9482 15.8749 70.6242 16.1249 71.3312 16.2379C72.1932 16.3749 73.0722 16.3039 73.9422 16.2319C75.5292 16.1009 77.1242 15.9689 78.6672 15.5719C78.4282 15.2399 78.1892 14.9089 77.9502 14.5769C77.5642 14.0409 77.1612 13.4899 76.5922 13.1569C75.4922 12.5139 73.9782 12.8089 72.9962 11.9949C72.7112 11.7589 72.4882 11.4399 72.1562 11.2779C71.9152 11.1609 71.6412 11.1389 71.3742 11.1229C70.0822 11.0469 68.7852 11.0619 67.4952 11.1669C67.0572 11.2029 66.5922 11.2449 66.1982 11.0459C65.5222 10.7059 65.3412 9.83292 64.8832 9.22692C64.5072 8.72992 63.9452 8.41891 63.4002 8.12291C63.0892 7.95391 62.7792 7.78492 62.4682 7.61592C62.2692 7.50792 62.0682 7.39894 61.8502 7.33794C61.4072 7.21494 60.9312 7.30093 60.4792 7.21593C60.0572 7.13693 59.6782 6.91393 59.3082 6.69493C58.5892 6.26893 57.8712 5.84191 57.1522 5.41591C56.9202 5.27791 56.6792 5.13793 56.4112 5.11193C55.8442 5.05693 55.2912 5.52693 54.7452 5.36693C54.5472 5.30893 54.3822 5.17493 54.2082 5.06493C53.2642 4.46993 51.9182 4.63493 51.1422 5.43993C51.0392 5.54693 50.9402 5.67893 50.9482 5.82793C50.9622 6.11293 51.3142 6.22093 51.5922 6.25493Z" fill="#C0B0D3"/>
<path d="M91.676 62.1628C91.535 61.8068 91.388 61.4428 91.133 61.1588C90.901 60.8998 90.594 60.7228 90.312 60.5208C89.396 59.8648 88.708 58.8928 88.39 57.8058C88.76 57.6098 88.927 57.1688 89.014 56.7568C89.199 55.8838 89.263 54.4368 88.965 53.2488C88.639 51.9508 87.882 50.9628 86.378 51.3708C86.209 51.4168 86.037 51.4718 85.862 51.4598C85.178 51.4128 84.632 50.4008 84.038 50.7458C83.517 50.5028 83.997 49.6208 83.679 49.1398C83.536 48.9238 83.229 48.7848 83.24 48.5248C83.246 48.3778 83.361 48.2598 83.416 48.1228C83.56 47.7618 83.226 47.3478 82.846 47.2868C82.466 47.2258 82.089 47.4178 81.781 47.6518C81.473 47.8858 81.197 48.1698 80.851 48.3408C81.527 49.0568 81.823 50.1188 81.614 51.0848C80.954 51.1228 80.231 51.1408 79.707 50.7338C79.587 50.6408 79.475 50.5238 79.328 50.4878C79.201 50.4568 79.068 50.4918 78.945 50.5368C78.219 50.8048 77.679 51.4158 77.171 52.0048C77.132 52.0508 77.093 52.0978 77.056 52.1468C76.74 51.4578 76.219 50.8648 75.574 50.4728C75.078 50.5368 74.855 51.1638 74.933 51.6608C75.011 52.1578 75.278 52.6148 75.326 53.1158C75.112 53.6878 74.099 53.2068 73.692 53.6588C73.484 53.8888 73.546 54.2628 73.706 54.5288C73.866 54.7948 74.105 55.0078 74.255 55.2798C73.867 55.9058 73.479 56.5328 73.091 57.1588C73.013 56.8958 72.891 56.5908 72.625 56.5358C72.262 56.4618 72.023 56.9068 71.948 57.2728C71.873 57.6388 71.759 58.0948 71.394 58.1628C71.542 58.6268 72.307 58.3548 72.681 58.6628C72.966 58.8978 72.896 59.3408 72.921 59.7108C72.946 60.0808 73.316 60.5158 73.61 60.2928C73.742 60.1928 73.77 60.0098 73.795 59.8448C73.979 58.6018 74.495 57.4108 75.274 56.4298C75.493 56.1538 75.747 55.8598 75.748 55.5058C75.749 55.2038 75.563 54.8948 75.675 54.6138C75.831 54.2228 76.366 54.2578 76.764 54.0968C76.68 54.2638 76.575 54.4188 76.446 54.5538C76.231 54.7778 75.95 54.9628 75.853 55.2588C75.739 55.6068 75.914 56.0218 75.733 56.3388C75.64 56.5008 75.472 56.6018 75.336 56.7298C74.939 57.1048 74.839 57.6918 74.76 58.2338C74.597 59.3608 74.441 60.5518 74.872 61.6038C75.102 62.1678 75.494 62.6698 75.61 63.2678C75.297 63.5118 74.849 63.2538 74.565 62.9748C74.282 62.6968 73.935 62.3618 73.554 62.4678C73.258 62.5498 73 62.8898 72.718 62.7688C72.926 61.9608 72.507 61.0338 71.765 60.6628C71.58 60.5888 71.458 60.3808 71.482 60.1818C71.052 60.1688 70.856 60.7068 70.771 61.1318C70.686 61.5568 70.438 62.0888 70.014 62.0198C69.871 61.9968 69.742 61.9008 69.598 61.9078C69.275 61.9228 69.179 62.3858 68.895 62.5398C68.664 62.6648 68.36 62.5588 68.129 62.6828C67.952 62.7778 67.863 62.9848 67.705 63.1098C67.319 63.4178 66.763 63.1248 66.36 62.8388C65.957 62.5538 65.383 62.2798 65.017 62.6128C64.723 62.8798 64.781 63.3728 64.55 63.6968C64.264 64.0968 63.577 64.1918 63.511 64.6808C63.214 64.3958 62.675 64.4348 62.42 64.7588C62.429 65.3168 62.609 65.8698 62.929 66.3248C62.63 66.6488 62.258 66.9038 61.85 67.0658C62.023 67.5168 62.242 67.9498 62.501 68.3568C62.104 68.6128 62.223 69.3018 61.842 69.5818C61.62 69.7458 61.314 69.7028 61.046 69.7648C60.778 69.8268 60.511 70.1398 60.683 70.3558C60.636 70.7378 59.983 70.9608 59.74 70.6638C59.497 70.3668 59.42 69.9458 59.133 69.6918C58.711 69.3178 58.045 69.4668 57.528 69.2438C57.368 69.1748 57.222 69.0698 57.053 69.0268C56.513 68.8908 56.024 69.4678 55.968 70.0268C55.912 70.5858 56.132 71.1288 56.225 71.6818C56.318 72.2348 56.235 72.8988 55.764 73.1968C55.529 73.3448 55.221 73.3848 55.042 73.5978C54.678 74.0308 55.145 74.6528 55.244 75.2118C55.311 75.5908 55.194 75.9768 55.079 76.3438C54.885 76.9618 54.515 77.7108 53.873 77.6648C53.367 77.6288 53.055 77.0968 52.887 76.6138C52.719 76.1308 52.566 75.5788 52.123 75.3278C51.317 74.8728 50.299 75.7838 49.424 75.4868C49.494 75.6828 49.564 75.8798 49.635 76.0758C49.233 76.1728 49.131 76.7128 49.211 77.1218C49.291 77.5308 49.467 77.9608 49.314 78.3488C49.132 78.8128 48.578 78.9818 48.095 79.0928C48.252 79.6248 48.281 80.1948 48.178 80.7398C48.362 80.9308 47.955 81.4208 47.695 81.4678C47.435 81.5148 47.175 81.4008 46.912 81.3798C46.366 81.3358 45.819 81.7478 45.707 82.2888C46.247 82.4428 46.786 82.5978 47.326 82.7518C47.517 82.8058 47.717 82.8608 47.91 82.8158C48.11 82.7688 48.269 82.6218 48.426 82.4878C49.677 81.4198 51.619 80.9358 52.95 81.9008C53.219 82.0958 53.493 82.3548 53.823 82.3238C54.037 82.3038 54.218 82.1628 54.385 82.0268C54.942 81.5758 55.552 81.0128 55.522 80.2928C55.514 80.1028 55.46 79.9098 55.505 79.7248C55.606 79.3108 56.111 79.1738 56.422 78.8858C57.157 78.2048 56.637 76.9858 56.084 76.1478C56.774 75.7188 57.463 75.2898 58.153 74.8608C58.333 74.7488 58.526 74.6328 58.738 74.6358C58.956 74.6388 59.15 74.7658 59.35 74.8538C60.541 75.3778 61.861 74.4938 62.779 73.5658C63.51 74.5138 64.917 74.8548 65.996 74.3468C66.426 74.6438 66.411 75.3318 66.103 75.7558C65.795 76.1798 65.292 76.4048 64.813 76.6118C65.119 77.0388 65.435 77.4898 65.503 78.0118C65.571 78.5338 65.296 79.1418 64.786 79.2548C64.885 79.4358 64.985 79.6168 65.084 79.7978C65.499 79.7288 65.94 79.7028 66.325 79.8748C66.709 80.0468 67.01 80.4688 66.922 80.8838C66.23 81.2688 65.381 80.9808 64.616 80.7788C63.852 80.5758 62.878 80.5428 62.442 81.2078C62.154 81.8918 61.652 82.4818 61.024 82.8718C61.302 82.4098 61.219 81.7588 60.835 81.3828C60.278 81.0618 59.636 81.6268 59.266 82.1548C58.896 82.6828 58.367 83.3088 57.752 83.1238C57.536 83.0588 57.344 82.8938 57.119 82.9038C56.882 82.9138 56.702 83.1118 56.551 83.2968C56.194 83.7328 55.821 84.2428 55.891 84.8048C55.961 85.3658 56.768 85.7738 57.098 85.3158C56.945 84.7598 56.866 84.0158 57.372 83.7468C57.911 83.4608 58.556 84.1678 58.419 84.7668C58.282 85.3658 57.682 85.7398 57.097 85.9108C56.512 86.0818 55.885 86.1188 55.332 86.3798C55.102 86.4878 54.885 86.8308 55.108 86.9538C55.325 87.0818 55.594 87.1178 55.837 87.0548C56.017 87.5288 55.852 88.1128 55.452 88.4208C55.052 88.7288 54.451 88.7348 54.045 88.4348C53.181 87.7978 53.509 86.3568 52.871 85.4898C52.608 85.1318 52.181 84.9018 51.74 84.8788C50.825 84.8308 50.072 85.6168 49.653 86.4388C49.56 86.6208 49.472 86.8138 49.313 86.9408C48.957 87.2248 48.444 87.0578 48.003 86.9478C47.562 86.8388 46.957 86.8958 46.841 87.3378C47.781 88.4738 49.005 89.3678 50.368 89.9148C50.498 89.9668 50.641 90.0258 50.706 90.1518C50.78 90.2958 50.724 90.4688 50.714 90.6298C50.686 91.0738 51.016 91.4498 51.324 91.7698C51.625 92.0828 51.953 92.4098 52.376 92.5008C52.799 92.5918 53.325 92.3198 53.33 91.8838C53.34 91.0808 51.831 90.9498 51.859 90.1468C52.418 89.8708 53.11 89.8898 53.653 90.1958C54.294 91.4518 56.157 91.8468 57.245 90.9578C57.719 90.5698 58.07 89.9838 58.656 89.8108C59.589 89.5368 60.406 90.4438 61.288 90.8528C62.414 91.3748 63.728 91.0728 64.929 90.7618C65.946 90.4988 66.963 90.2348 67.979 89.9718C67.407 89.8998 66.835 89.8278 66.263 89.7548C67.199 89.4848 68.09 89.0558 68.887 88.4918C68.845 88.0148 68.439 87.5958 67.967 87.5418C69.262 87.2838 69.618 85.5028 70.748 84.8158C71.108 84.5968 71.54 84.4968 71.859 84.2198C72.317 83.8228 72.436 83.1548 72.418 82.5468C72.376 81.1298 71.721 79.7418 70.657 78.8148C71.478 79.1728 72.393 79.3108 73.282 79.2098C73.274 79.7568 73.669 80.5328 74.12 80.2278C74.251 80.1398 74.313 79.9818 74.369 79.8338C74.625 79.1498 74.881 78.4658 75.138 77.7808C75.328 77.2748 75.529 76.7498 75.921 76.3808C76.574 75.7658 77.644 75.6878 78.17 74.9598C78.091 75.2808 78.509 75.5418 78.822 75.4428C79.135 75.3438 79.331 75.0368 79.484 74.7448C79.865 74.0188 80.007 72.8818 79.246 72.5898C78.563 72.3278 77.489 72.9378 77.217 72.2528C77.146 72.0738 77.183 71.8718 77.229 71.6858C77.705 69.7488 79.104 68.0658 80.912 67.2558C81.518 66.9848 82.285 66.6468 82.288 65.9778C82.716 66.0428 83.031 66.5248 82.923 66.9478C83.391 67.0088 83.881 66.8788 84.258 66.5928C83.936 66.3648 84.032 65.8338 84.302 65.5458C84.572 65.2578 84.957 65.1058 85.25 64.8408C86.078 64.0938 86.189 62.4968 87.285 62.3198C88.117 62.6498 88.007 63.8738 87.657 64.7028C87.307 65.5318 86.898 66.5858 87.512 67.2398C87.76 66.6608 88.277 66.2058 88.879 66.0348C88.318 66.7438 88.221 67.7948 88.643 68.5958C89.052 67.6508 89.804 66.8598 90.724 66.4098C90.673 66.1478 90.622 65.8858 90.57 65.6238C91.298 65.7938 91.996 65.0918 92.118 64.3478C92.238 63.6058 91.954 62.8618 91.676 62.1628Z" fill="#C0B0D3"/>
<path d="M70.9959 89.6789C71.6309 89.8649 72.3599 89.6649 72.8149 89.1819C72.8949 89.0969 72.9709 88.9959 72.9809 88.8789C72.9909 88.7619 72.9099 88.63 72.7929 88.627C72.2349 89.053 71.2879 88.8119 70.8829 89.3869C70.8459 89.4399 70.8149 89.5059 70.8369 89.5669C70.8589 89.6299 70.9309 89.6599 70.9959 89.6789Z" fill="#C0B0D3"/>
<path d="M67.9043 90.7389C67.7993 90.7469 67.7043 90.8009 67.6073 90.8429C67.2253 91.0079 66.7873 90.9879 66.3973 91.1329C66.1453 91.2269 65.9223 91.3859 65.7033 91.5429C65.2913 91.8389 64.8793 92.1339 64.4673 92.4299C65.3683 92.2379 66.2693 92.0459 67.1693 91.8549C67.4013 91.8059 67.6353 91.7559 67.8503 91.6569C68.2123 91.4909 68.5023 91.1969 68.8503 91.0029C68.6223 90.9309 68.3953 90.8589 68.1673 90.7869C68.0813 90.7599 67.9933 90.7329 67.9043 90.7389Z" fill="#C0B0D3"/>
<path d="M77.638 16.769C77.564 16.531 77.32 16.379 77.075 16.346C76.83 16.313 76.583 16.378 76.347 16.453C75.638 16.677 74.958 16.992 74.329 17.389C74.169 17.49 74.011 17.5979 73.89 17.7439C73.573 18.1289 73.588 18.682 73.62 19.182C74.124 19.166 74.629 19.1509 75.133 19.1359C75.272 19.1319 75.413 19.127 75.551 19.15C75.823 19.196 76.065 19.344 76.322 19.447C76.651 19.58 77.009 19.6389 77.363 19.6189C77.533 19.4579 77.49 19.172 77.386 18.962C77.282 18.751 77.128 18.554 77.11 18.32C77.064 17.758 77.805 17.306 77.638 16.769Z" fill="#C0B0D3"/>
<path d="M75.702 24.7149C76.057 24.7259 76.403 24.8239 76.755 24.8719C77.107 24.9199 77.485 24.9119 77.792 24.7309C78.099 24.5499 78.301 24.1529 78.167 23.8209C78.061 23.5579 77.79 23.4079 77.539 23.2799C77.323 23.1699 77.107 23.0589 76.891 22.9489C76.749 22.8769 76.598 22.7949 76.528 22.6509C76.406 22.4009 76.586 22.1119 76.767 21.9009C76.948 21.6899 77.152 21.4319 77.077 21.1639C77.036 21.0169 76.918 20.9069 76.801 20.8099C76.444 20.5139 76.045 20.2689 75.621 20.0839C75.454 20.0109 75.28 19.9469 75.099 19.9389C74.859 19.9279 74.627 20.0159 74.403 20.1029C74.046 20.2409 73.688 20.3789 73.331 20.5169C73.112 20.6009 72.871 20.7069 72.784 20.9269C72.697 21.1459 72.928 21.4569 73.13 21.3389C73.306 21.7819 72.811 22.1929 72.694 22.6559C72.609 22.9899 72.73 23.3389 72.849 23.6629C73.012 24.1059 73.217 24.5949 73.649 24.7769C73.781 24.8329 73.924 24.8539 74.066 24.8609C74.615 24.8849 75.154 24.6969 75.702 24.7149Z" fill="#C0B0D3"/>
<path d="M83.0538 18.0859C83.1688 18.1739 83.2919 18.2649 83.4349 18.2859C83.5779 18.3059 83.7469 18.2259 83.7719 18.0829C83.7909 17.9779 83.7319 17.8769 83.6749 17.7879C83.5349 17.5659 83.3939 17.3439 83.2539 17.1209C83.1299 16.9259 83.0029 16.7259 82.8179 16.5869C82.6339 16.4489 82.3769 16.3839 82.1699 16.4849C82.0619 16.7949 82.1599 17.1459 82.3459 17.4159C82.5309 17.6849 82.7948 17.8879 83.0538 18.0859Z" fill="#C0B0D3"/>
<path d="M85.9113 21.8269C86.1163 21.9709 86.3633 22.06 86.5312 22.246C86.6432 22.371 86.7092 22.529 86.7872 22.678C87.0192 23.123 87.3692 23.5049 87.7912 23.7739C87.8272 23.4749 87.8072 23.168 87.7322 22.876C87.7042 22.765 87.6663 22.6539 87.5923 22.5669C87.5013 22.4599 87.3652 22.405 87.2422 22.338C86.9632 22.186 86.7272 21.9549 86.5682 21.6789C86.4982 21.5589 86.4432 21.4289 86.3612 21.3169C86.1302 21.0009 85.7252 20.861 85.4622 20.571C85.3462 20.442 85.2593 20.286 85.1313 20.169C85.0023 20.053 84.8063 19.983 84.6562 20.07C84.8433 20.374 85.0303 20.6779 85.2173 20.9809C85.4113 21.2939 85.6113 21.6159 85.9113 21.8269Z" fill="#C0B0D3"/>
<path d="M83.2209 74.2859C83.1079 74.2079 82.9659 74.1519 82.8369 74.1959C82.7079 74.2399 82.6299 74.4249 82.7259 74.5229C82.5259 74.6239 82.2889 74.6019 82.0679 74.6369C81.8469 74.6719 81.6029 74.8079 81.5879 75.0339C81.5829 75.1089 81.6049 75.1869 81.5819 75.2589C81.5369 75.4039 81.3319 75.4619 81.3099 75.6129C81.2919 75.7319 81.4129 75.8369 81.5319 75.8429C81.6509 75.8489 81.7629 75.7879 81.8629 75.7209C82.0689 75.5819 82.2669 75.4079 82.5109 75.3669C82.7549 75.3259 83.0569 75.4989 83.0309 75.7469C83.3409 75.7089 83.6159 75.4629 83.6899 75.1569C83.6829 74.8139 83.5029 74.4789 83.2209 74.2859Z" fill="#C0B0D3"/>
<path d="M78.3553 37.5448C78.3023 37.9468 78.4093 38.3498 78.5143 38.7408C78.6063 39.0818 78.6983 39.4228 78.7903 39.7638C78.8763 40.0828 79.0023 40.4478 79.3123 40.5568C79.4833 40.6168 79.6743 40.5818 79.8513 40.6208C80.2343 40.7048 80.4983 41.1188 80.8893 41.1518C81.3403 41.1898 81.6653 40.6898 81.7083 40.2348C81.7503 39.7798 81.6233 39.3188 81.6913 38.8668C81.7733 38.3228 82.1963 37.8148 82.7393 37.7528C82.9313 37.7308 83.1363 37.7608 83.3083 37.6718C83.5463 37.5488 83.6263 37.2518 83.6823 36.9878C83.7733 36.5578 83.8623 36.0998 83.7093 35.6878C83.5643 35.2988 83.2193 35.0008 83.1263 34.5958C82.8063 34.4688 82.4373 34.7178 82.3053 35.0378C82.1733 35.3578 82.2143 35.7208 82.2563 36.0648C82.2313 35.8608 81.4793 36.4428 81.4233 36.4808C80.8373 36.8748 80.4543 37.0198 79.8263 36.8648C79.1443 36.6998 78.4893 36.5218 78.3553 37.5448Z" fill="#C0B0D3"/>
<path d="M73.8249 51.3559C74.0269 51.1979 74.1148 50.9349 74.1678 50.6839C74.2808 50.1559 74.2878 49.5909 74.0898 49.0889C73.7418 48.2039 72.7209 47.6459 71.7949 47.8349C71.5449 47.8859 71.2678 47.9799 71.0518 47.8449C70.8618 47.7259 70.7989 47.4739 70.6309 47.3249C70.3389 47.0669 69.8729 47.2249 69.5699 47.4699C69.2669 47.7159 69.0059 48.0459 68.6299 48.1459C68.4839 47.8269 68.1008 47.6389 67.7618 47.7199C67.4228 47.8009 67.1648 48.1429 67.1768 48.4939C67.1928 48.9489 67.5869 49.2859 67.7819 49.6969C68.0239 50.2069 67.9408 50.8309 67.6708 51.3259C67.4008 51.8209 66.9649 52.2039 66.5009 52.5219C66.3749 52.6079 66.2418 52.6949 66.1598 52.8239C66.0118 53.0599 66.0718 53.3669 66.1418 53.6369C66.3148 54.3059 66.5179 54.9669 66.7509 55.6169C67.1119 55.3959 67.5418 55.7879 67.7288 56.1699C67.9148 56.5519 68.1019 57.0269 68.5179 57.1009C68.9439 57.1759 69.4338 56.7699 69.7748 57.0389C69.8838 57.1249 69.9488 57.2679 70.0768 57.3229C70.1878 57.3709 70.3158 57.3379 70.4268 57.2909C71.3548 56.9049 71.6759 55.5199 71.0139 54.7599C71.2969 54.2069 71.7478 53.7429 72.2908 53.4459C72.4338 53.3679 72.5888 53.2959 72.6848 53.1639C72.9528 52.7959 72.6158 52.2099 72.8818 51.8399C73.0918 51.5479 73.5419 51.5769 73.8249 51.3559Z" fill="#C0B0D3"/>
<path d="M75.4719 34.2189C75.0959 31.7269 73.1269 28.7249 70.0119 28.2049C67.8289 27.5239 65.2849 28.6609 64.1609 30.6669C63.0369 32.6719 63.3159 35.3339 64.6839 37.1779C66.0519 39.0229 68.3869 40.0339 70.6699 39.9669C72.0959 39.9249 73.5759 39.4449 74.5059 38.3529C75.4499 37.2459 75.6899 35.6639 75.4719 34.2189Z" fill="#C0B0D3"/>
<g opacity="0.5">
<path d="M47.7141 96.8229C52.0881 96.8229 56.3191 96.2149 60.3421 95.0989C40.2241 89.5189 25.4411 70.9499 25.4411 48.8869C25.4411 26.8239 40.2251 8.25493 60.3421 2.67493C56.3191 1.55893 52.0881 0.950928 47.7141 0.950928C21.465 0.950928 0.185059 22.4129 0.185059 48.8869C0.185059 75.3609 21.4641 96.8229 47.7141 96.8229Z" fill="black"/>
</g>
<g opacity="0.2">
<path d="M5.04407 44.0269C5.04407 31.9829 9.45807 20.9849 16.7301 12.5649C6.54507 21.3569 0.0810547 34.4079 0.0810547 48.9899C0.0810547 75.4639 21.36 96.9259 47.61 96.9259C61.918 96.9259 74.7391 90.5409 83.4521 80.4519C75.1451 87.6229 64.3641 91.963 52.5731 91.963C26.3241 91.963 5.04407 70.5009 5.04407 44.0269Z" fill="black"/>
</g>
<path d="M67.6749 5.17202C67.6789 5.16402 67.7699 5.19902 67.9439 5.27602C68.1439 5.36802 68.3959 5.48502 68.7109 5.63002C69.0579 5.79502 69.4709 5.992 69.9519 6.222C70.1989 6.341 70.4619 6.46802 70.7429 6.60402C71.0149 6.76102 71.3039 6.92701 71.6089 7.10201C74.0979 8.43101 77.5279 10.732 81.2029 14.213C84.8839 17.678 88.6039 22.553 91.4759 28.608C92.8719 31.654 94.0009 34.999 94.8119 38.553C95.5939 42.116 95.9369 45.897 95.8969 49.76C95.7739 57.504 93.7469 64.782 90.6989 70.736C90.3049 71.475 89.9169 72.205 89.5329 72.925C89.1229 73.629 88.6759 74.3 88.2579 74.974C87.8449 75.652 87.4179 76.306 86.9439 76.913C86.4869 77.532 86.0379 78.141 85.5949 78.74C84.6319 79.873 83.7299 80.997 82.7679 81.987C81.7809 82.953 80.8989 83.949 79.9139 84.747C76.1209 88.1 72.6009 90.258 70.0739 91.51C69.4589 91.859 68.8849 92.112 68.3839 92.324C67.8949 92.536 67.4748 92.718 67.1228 92.871C66.8028 93.005 66.5469 93.113 66.3439 93.197C66.1669 93.268 66.0749 93.3 66.0719 93.292C66.0689 93.284 66.1539 93.235 66.3229 93.148C66.5199 93.051 66.7688 92.928 67.0798 92.775C67.4258 92.61 67.8368 92.413 68.3168 92.184C68.8088 91.958 69.3739 91.691 69.9789 91.33C72.4669 90.029 75.9349 87.835 79.6669 84.473C80.6369 83.672 81.5039 82.676 82.4749 81.711C83.4219 80.722 84.3079 79.601 85.2549 78.472C85.6899 77.876 86.1318 77.269 86.5798 76.653C87.0458 76.049 87.4649 75.398 87.8709 74.725C88.2809 74.055 88.7209 73.389 89.1239 72.69C89.5009 71.975 89.8819 71.251 90.2689 70.518C93.2629 64.611 95.2529 57.411 95.3749 49.749C95.4149 45.927 95.0789 42.187 94.3119 38.66C93.5149 35.142 92.4079 31.829 91.0379 28.808C88.2179 22.804 84.5649 17.949 80.9449 14.477C77.3309 10.989 73.9549 8.65403 71.5059 7.27803C71.2059 7.09603 70.9219 6.924 70.6549 6.761C70.3799 6.619 70.1209 6.485 69.8789 6.36C69.4079 6.114 69.0029 5.90202 68.6639 5.72502C68.3589 5.56102 68.1139 5.42903 67.9199 5.32503C67.7549 5.23203 67.6719 5.18002 67.6749 5.17202Z" fill="white"/>
</svg>
