<svg width="97" height="97" viewBox="0 0 97 97" fill="none" xmlns="http://www.w3.org/2000/svg">
<path d="M48.571 96.517C74.8205 96.517 96.1 75.0553 96.1 48.581C96.1 22.1067 74.8205 0.64502 48.571 0.64502C22.3214 0.64502 1.04199 22.1067 1.04199 48.581C1.04199 75.0553 22.3214 96.517 48.571 96.517Z" fill="#C0B0D3"/>
<g opacity="0.2">
<path d="M48.571 96.517C74.8205 96.517 96.1 75.0553 96.1 48.581C96.1 22.1067 74.8205 0.64502 48.571 0.64502C22.3214 0.64502 1.04199 22.1067 1.04199 48.581C1.04199 75.0553 22.3214 96.517 48.571 96.517Z" fill="white"/>
</g>
<path d="M66.525 18.9379C66.08 18.5949 65.634 18.2509 65.189 17.9079C65.043 17.7959 64.892 17.6769 64.812 17.5109C64.723 17.3289 64.732 17.1169 64.7 16.9169C64.582 16.1769 63.819 15.6049 63.083 15.7059C62.797 14.9739 62.73 14.1719 62.471 13.4289C62.213 12.6859 61.679 11.9559 60.91 11.8209C60.61 11.7689 60.291 11.8099 60.01 11.6919C59.701 11.5619 59.498 11.2639 59.231 11.0589C58.336 10.3729 56.772 10.7469 56.204 9.76892C56.071 9.53892 56.02 9.2639 55.863 9.0509C55.666 8.7839 55.337 8.65792 55.027 8.54492C53.905 8.13692 52.657 7.72992 51.552 8.18292C51.159 8.34392 50.801 8.61089 50.382 8.67889C49.913 8.75489 49.406 8.57592 48.972 8.76892C48.712 8.88392 48.497 9.12592 48.213 9.13992C48.013 9.14992 47.829 9.04089 47.655 8.94189C46.56 8.31789 45.251 7.93591 44.032 8.12491C44.179 8.02691 44.325 7.9269 44.491 7.8689C44.616 7.8249 44.749 7.80692 44.877 7.77292C45.191 7.68892 45.478 7.50291 45.685 7.24991C45.659 7.20291 45.633 7.15491 45.607 7.10791C45.439 7.22091 45.213 7.11592 45.055 6.98892C44.897 6.86192 44.732 6.7039 44.531 6.7139C44.43 6.7189 44.336 6.76691 44.238 6.78891C43.82 6.88491 43.425 6.52291 42.996 6.51791C42.855 6.51591 42.716 6.55389 42.582 6.59689C41.974 6.79089 41.405 7.1069 40.917 7.5209C40.862 7.5669 40.807 7.6169 40.774 7.6799C40.729 7.7659 40.728 7.8679 40.741 7.9639C40.787 8.2939 41.002 8.59492 41.298 8.74292C41.617 8.90292 41.995 8.88392 42.345 8.81992C42.379 8.81392 42.412 8.8029 42.446 8.7959C42.217 8.9839 42.022 9.20992 41.89 9.47592C41.641 9.98092 41.659 10.6379 42.022 11.0659C41.609 11.3429 41.159 10.6939 40.665 10.6469C40.302 10.6129 40.002 10.9109 39.759 11.1849C39.427 11.5599 39.095 11.9349 38.762 12.3099C38.37 12.1989 37.977 12.0879 37.585 11.9769C37.396 11.9239 37.192 11.8709 37.009 11.9409C36.825 12.0109 36.706 12.1889 36.555 12.3169C36.146 12.6639 35.453 12.5859 35.131 12.1559C35.095 12.1069 35.066 12.0549 35.04 11.9999C35.204 11.9059 35.345 11.7839 35.4 11.6069C35.348 11.4339 35.155 11.3429 34.973 11.3509C35.024 11.1029 35.157 10.8729 35.366 10.7299C35.648 10.5369 36.053 10.4619 36.186 10.1499C36.398 10.0109 36.609 9.87292 36.821 9.73392C36.897 9.68492 36.975 9.63189 37.02 9.55389C37.062 9.47989 37.062 9.37589 37.002 9.31689C37.39 8.91389 36.914 7.91392 37.334 7.40692C37.609 7.07492 38.137 7.13289 38.526 7.31689C38.915 7.49989 39.278 7.7819 39.706 7.8139C40.352 7.8629 40.881 7.34291 41.374 6.91791C41.867 6.49391 42.485 6.1889 43.123 6.4379C42.946 6.3689 43.458 5.55692 43.76 5.58292C43.941 5.59892 43.957 5.8849 44.094 5.9599C44.972 6.4399 46.082 5.8059 47.038 5.6969C48.251 5.5579 49.485 5.60291 50.684 5.83691C50.762 5.51991 50.408 5.2809 50.111 5.1499C49.042 4.6779 47.964 4.20292 46.823 3.95892C44.798 3.52692 42.652 3.85791 40.758 4.69891C40.289 4.90691 39.807 5.15091 39.296 5.12091C39.046 5.10591 38.801 5.0249 38.551 5.0249C38.106 5.0249 37.725 5.2709 37.39 5.5849C37.024 5.5709 36.663 5.71991 36.344 5.90891C36.202 5.99391 36.064 6.08691 35.931 6.18491C36.019 6.30391 36.204 6.23092 36.334 6.16092C36.564 6.03692 36.816 5.9529 37.074 5.9119C37.023 5.9689 36.972 6.02692 36.923 6.08392C36.618 6.43992 36.18 6.3499 35.717 6.4039C35.557 6.4229 35.394 6.4249 35.241 6.4769C35.078 6.5329 34.943 6.6409 34.823 6.7659C34.973 6.5899 35.122 6.41291 35.272 6.23691C35.376 6.11491 35.487 5.96891 35.46 5.80991C35.918 5.80291 36.365 5.5579 36.621 5.1759C36.664 5.1109 36.706 5.03891 36.776 5.00391C36.908 4.93691 37.074 5.0319 37.211 4.9769C37.326 4.9309 37.377 4.80091 37.441 4.69391C37.606 4.41691 37.905 4.25591 38.189 4.10791C38.658 3.86391 39.126 3.61992 39.595 3.37592C39.41 3.34892 39.225 3.32192 39.04 3.29492C38.882 3.30092 38.758 3.3179 38.644 3.3429L38.601 3.34192C37.054 3.42992 35.527 3.85089 34.151 4.56689C34.033 4.62789 33.916 4.69191 33.791 4.73691C33.674 4.77891 33.551 4.80492 33.43 4.83392C32.657 5.02092 31.935 5.37391 31.219 5.72391C29.879 6.37891 28.539 7.03491 27.199 7.68991C27.055 7.75991 26.886 7.8829 26.927 8.0379C27.204 8.0679 27.482 8.0979 27.759 8.1279C27.145 8.2769 26.564 8.55992 26.066 8.94992C25.907 9.07392 25.748 9.2139 25.551 9.2529C25.438 9.2759 25.32 9.26292 25.206 9.28592C25.045 9.31792 24.907 9.4189 24.774 9.5159C23.385 10.5429 21.996 11.5689 20.607 12.5959C19.821 13.1769 19.028 13.7639 18.374 14.4929C17.629 15.3239 16.678 16.0379 16.076 16.9799C15.583 17.7509 15.274 18.6349 14.731 19.3709C15.119 19.0649 15.507 18.7589 15.893 18.4509C16.071 18.3089 16.25 18.1659 16.398 17.9919C16.518 17.8499 16.616 17.6899 16.721 17.5349C16.989 17.1429 17.308 16.7889 17.626 16.4369C17.776 16.2709 17.93 16.1019 18.121 15.9859C18.243 15.9119 18.379 15.8599 18.495 15.7759C18.641 15.6699 18.748 15.5179 18.884 15.3989C19.02 15.2799 19.209 15.1919 19.379 15.2539C19.238 15.5059 19.084 15.7509 18.919 15.9869C18.862 16.0679 18.801 16.1519 18.713 16.1979C18.621 16.2459 18.513 16.2469 18.412 16.2699C17.974 16.3669 17.739 16.8349 17.562 17.2509C17.737 17.2379 17.913 17.2249 18.088 17.2119C18.135 17.2989 18.09 17.4059 18.045 17.4949C17.6 18.3679 17.15 19.2489 16.52 19.9969C16.93 19.4659 17.189 18.8179 17.259 18.1489C16.617 18.5239 16.164 19.1469 15.668 19.7039C15.349 20.0619 14.966 20.4179 14.491 20.4619C14.5 20.2529 14.565 20.0469 14.678 19.8709C14.191 19.8509 13.867 20.3549 13.647 20.7939C13.203 21.6799 12.758 22.5659 12.314 23.4519C12.029 24.0199 11.744 24.5869 11.46 25.1549C11.238 25.5969 11.016 26.0399 10.794 26.4819C10.71 26.6499 10.624 26.8519 10.71 27.0199C11.357 26.3839 11.93 25.6719 12.413 24.9029C12.498 24.7679 12.581 24.6309 12.69 24.5159C12.806 24.3939 12.947 24.3009 13.072 24.1889C13.557 23.7529 13.77 23.0469 14.312 22.6859C14.28 23.2169 13.81 23.5919 13.454 23.9859C13.088 24.3909 12.813 24.8799 12.657 25.4059C12.606 25.5769 12.567 25.7549 12.476 25.9079C12.385 26.0619 12.247 26.1829 12.153 26.3349C11.953 26.6599 11.984 27.0709 12.021 27.4519C12.023 27.4729 12.026 27.4949 12.038 27.5109C12.072 27.5549 12.141 27.5289 12.187 27.4989C12.525 27.2839 12.862 27.0699 13.2 26.8549C13.141 27.1619 13.249 27.4729 13.318 27.7779C13.386 28.0829 13.406 28.4359 13.207 28.6749C12.65 29.3469 12.235 29.7279 12.164 30.6649C12.116 31.3019 12.07 32.0269 11.575 32.4259C11.468 32.5119 11.337 32.5889 11.298 32.7209C11.261 32.8479 11.325 32.9799 11.352 33.1099C11.454 33.6009 11.041 34.0249 10.747 34.4279C10.663 34.5429 10.585 34.6689 10.56 34.8099C10.538 34.9359 10.56 35.0639 10.568 35.1919C10.586 35.4869 10.527 35.7869 10.397 36.0519C10.614 36.1809 10.831 36.3099 11.048 36.4389C11.153 36.5019 11.262 36.5669 11.333 36.6679C11.412 36.7809 11.434 36.9249 11.499 37.0469C11.598 37.2329 11.795 37.3639 11.847 37.5679C11.873 37.6699 11.858 37.7779 11.85 37.8829C11.804 38.4379 11.928 39.0069 12.2 39.4909C12.285 39.6419 12.385 39.7879 12.422 39.9569C12.506 40.3359 12.261 40.7469 12.4 41.1089C12.266 41.1289 12.337 41.3579 12.434 41.4539C12.531 41.5499 12.679 41.5619 12.815 41.5739C12.95 41.5859 13.1 41.6129 13.181 41.7229C13.329 41.9279 13.122 42.1939 13.047 42.4369C12.973 42.6739 13.044 42.9499 13.222 43.1219C13.319 43.2149 13.457 43.3079 13.441 43.4419C13.423 43.5959 13.229 43.6389 13.093 43.7099C12.697 43.9139 12.703 44.4979 12.88 44.9099C13.057 45.3209 13.351 45.7089 13.345 46.1569C13.713 46.1929 14.048 46.4649 14.161 46.8189C14.198 46.9339 14.229 47.0759 14.342 47.1169C14.482 47.1679 14.612 47.0169 14.663 46.8769C14.845 46.3819 14.68 45.7839 14.955 45.3359C15.082 45.1289 15.286 44.9849 15.444 44.8019C15.602 44.6189 15.716 44.3539 15.612 44.1349C15.55 44.0029 15.421 43.9149 15.351 43.7879C15.28 43.6609 15.314 43.4509 15.458 43.4359C15.662 43.5839 15.815 43.8039 15.882 44.0489C16.067 44.0489 16.252 44.0479 16.437 44.0479C16.435 44.3409 16.434 44.6329 16.432 44.9259C16.102 45.1709 15.952 45.6359 16.076 46.0299C16.117 46.1599 16.192 46.2889 16.315 46.3459C16.398 46.3849 16.494 46.3869 16.579 46.4209C17.048 46.6089 16.87 47.5409 17.366 47.6349C17.567 47.6729 17.763 47.5279 17.967 47.5439C18.125 47.5559 18.318 47.6529 18.418 47.5289C18.487 47.4439 18.447 47.3179 18.414 47.2129C18.311 46.8849 18.313 46.5249 18.419 46.1979C18.233 45.7639 18.114 45.3019 18.066 44.8329C18.113 44.8079 18.16 44.7829 18.207 44.7569C18.441 44.9549 18.683 45.1629 18.807 45.4449C18.888 45.6279 18.915 45.8339 19.012 46.0079C19.109 46.1829 19.319 46.3229 19.502 46.2459C19.672 46.1739 19.728 45.9559 19.717 45.7699C19.706 45.5839 19.65 45.3969 19.687 45.2149C19.761 44.8519 20.155 44.6679 20.5 44.5399C20.539 44.6669 20.38 44.7519 20.275 44.8339C20.039 45.0179 20.031 45.3699 20.065 45.6689C20.117 46.1299 20.229 46.6039 20.527 46.9569C20.825 47.3099 21.353 47.4989 21.761 47.2869C22.268 47.0239 22.351 46.3399 22.359 45.7649C22.518 45.6829 22.753 45.6199 22.841 45.7769C22.903 45.8869 22.835 46.0239 22.845 46.1509C22.864 46.3849 23.144 46.5329 23.163 46.7669C23.174 46.8999 23.098 47.0229 23.029 47.1359C22.841 47.4439 22.719 47.9169 23.023 48.1069C23.102 48.1559 23.197 48.1729 23.285 48.2009C23.715 48.3359 24.035 48.7689 24.04 49.2229C24.198 49.2619 24.318 49.4209 24.313 49.5849C24.308 49.7489 24.178 49.8999 24.018 49.9289C23.947 49.9419 23.866 49.9359 23.814 49.9859C23.701 50.0949 23.853 50.3299 23.734 50.4319C23.695 50.4649 23.64 50.4699 23.591 50.4869C23.336 50.5789 23.372 50.9449 23.398 51.2179C23.457 51.8349 23.176 52.4739 22.684 52.8439C22.333 53.1079 21.811 53.2229 21.469 52.9469C21.307 52.8169 21.212 52.6209 21.078 52.4619C20.944 52.3029 20.73 52.1729 20.536 52.2469C20.454 52.2779 20.388 52.3419 20.325 52.4029C19.934 52.7849 19.523 53.2019 19.417 53.7409C19.381 53.9209 19.381 54.1129 19.3 54.2779C19.2 54.4829 18.994 54.6109 18.848 54.7849C18.665 55.0029 18.579 55.3009 18.617 55.5839C18.771 55.7699 18.543 56.0199 18.442 56.2399C18.341 56.4599 18.183 56.6519 18.098 56.8789C17.92 57.3529 18.086 57.8789 18.253 58.3569C18.474 58.9919 18.715 59.6579 19.221 60.0969C19.351 60.2099 19.496 60.3039 19.639 60.3999C20.213 60.7839 20.794 61.2139 21.105 61.8339C21.454 61.9259 21.859 61.6209 22.164 61.8159C22.279 61.8889 22.345 62.0179 22.406 62.1399C22.572 62.4719 22.738 62.8039 22.904 63.1349C23.036 63.3999 23.179 63.6769 23.425 63.8389C23.671 64.0009 24.053 63.9949 24.213 63.7459C24.409 63.4419 24.167 63.0219 24.286 62.6809C24.446 62.2219 25.171 62.1099 25.23 61.6269C25.255 61.4219 25.153 61.1719 25.304 61.0319C25.365 60.9749 25.452 60.9579 25.529 60.9249C25.787 60.8169 25.938 60.4999 25.861 60.2289C26.455 60.1819 27.183 60.2019 27.475 60.7259C27.538 60.8399 27.66 60.9949 27.757 60.9079C27.674 60.2549 27.59 59.5889 27.716 58.9429C27.751 58.7619 27.803 58.5769 27.764 58.3969C27.651 57.8669 26.892 57.7589 26.642 57.2789C26.349 56.7179 26.884 55.9309 26.499 55.4299C26.262 55.1219 25.766 55.0759 25.593 54.7269C25.534 54.6069 25.521 54.4649 25.444 54.3559C25.365 54.2449 25.233 54.1889 25.122 54.1109C24.693 53.8059 24.622 53.1939 24.674 52.6669C24.725 52.1399 24.856 51.5929 24.683 51.0929C24.619 50.9079 24.514 50.7339 24.496 50.5379C24.463 50.1959 24.76 49.8529 25.101 49.8549C25.442 49.8569 25.737 50.2239 25.654 50.5579C25.598 50.7829 25.411 50.9459 25.269 51.1289C25.126 51.3119 25.026 51.5779 25.157 51.7689C25.507 51.8089 25.646 52.3639 25.358 52.5669C25.274 52.6259 25.171 52.6539 25.09 52.7189C24.881 52.8869 24.915 53.2289 25.061 53.4549C25.207 53.6809 25.435 53.8399 25.6 54.0519C25.688 54.1639 25.765 54.2969 25.895 54.3529C25.964 54.3829 26.041 54.3879 26.116 54.3919C26.317 54.4039 26.518 54.4149 26.718 54.4259C26.794 54.4299 26.872 54.4339 26.945 54.4129C27.064 54.3779 27.153 54.2809 27.244 54.1969C27.562 53.9029 27.964 53.7209 28.358 53.5459C28.496 53.4839 28.642 53.4209 28.793 53.4289C29.146 53.4469 29.358 53.8129 29.595 54.0779C29.943 54.4669 30.438 54.6809 30.916 54.8829C31.143 54.0399 31.367 53.1239 31.039 52.3149C30.78 51.6779 30.223 51.2239 29.78 50.6989C29.351 50.1899 29.009 49.5049 29.212 48.8689C29.325 48.8109 29.437 48.7519 29.55 48.6939C30.034 48.9009 30.422 49.3229 30.593 49.8239C30.724 50.2089 30.728 50.6249 30.813 51.0229C30.939 51.6139 31.247 52.1629 31.679 52.5819C31.671 52.1149 31.662 51.6479 31.653 51.1809C31.65 51.0469 31.655 50.8949 31.753 50.8039C31.848 50.7159 31.993 50.7209 32.121 50.7359C32.506 50.7809 32.886 50.8699 33.252 51.0019C33.361 51.0409 33.474 51.0869 33.55 51.1749C33.648 51.2869 33.668 51.4449 33.685 51.5939C33.75 52.1619 33.759 52.8569 33.28 53.1639C32.929 53.3889 32.402 53.3269 32.16 53.6679C31.996 53.8979 32.026 54.2469 31.812 54.4309C31.692 54.5339 31.513 54.5659 31.428 54.6989C31.295 54.9059 31.481 55.1829 31.427 55.4239C31.392 55.5789 31.257 55.7249 31.31 55.8749C31.342 55.9649 31.432 56.0179 31.504 56.0809C31.839 56.3779 31.766 56.9139 31.665 57.3519C31.582 57.7109 31.499 58.0699 31.416 58.4289C31.485 57.7019 31.282 56.9509 30.855 56.3609C30.471 56.4509 30.082 56.2749 29.703 56.1639C29.324 56.0529 28.85 56.0359 28.603 56.3459C28.397 56.6039 28.441 56.9819 28.543 57.2969C28.646 57.6119 28.798 57.9249 28.778 58.2559C28.753 58.6599 28.479 59.0939 28.695 59.4349C28.855 59.5039 29.015 59.5729 29.176 59.6419C29.433 59.7529 29.737 60.0439 29.549 60.2519C29.383 60.4359 28.937 60.3629 28.967 60.6099C28.974 60.6709 29.019 60.7209 29.061 60.7659C29.424 61.1499 29.834 61.6489 29.654 62.1469C29.933 62.0699 30.221 62.2169 30.461 62.3799C31.079 62.7999 31.603 63.3619 31.982 64.0089C32.099 64.2089 32.203 64.4169 32.323 64.6159C32.594 64.6429 32.67 64.2509 32.638 63.9789C32.591 63.5659 32.544 63.1529 32.496 62.7399C32.46 62.4259 32.424 62.1099 32.334 61.8079C32.206 61.3799 31.974 60.9909 31.825 60.5699C31.675 60.1489 31.615 59.6609 31.828 59.2689C32.351 59.5959 32.721 60.1629 32.813 60.7769C32.846 60.9959 32.845 61.2179 32.879 61.4369C32.987 62.1209 33.437 62.7179 33.519 63.4059C33.547 63.6419 33.534 63.8949 33.655 64.0989C33.729 64.2239 33.846 64.3159 33.961 64.4049C34.403 64.7489 34.844 65.0919 35.286 65.4359C35.397 65.5219 35.475 65.7099 35.602 65.6499C35.43 65.0649 35.258 64.4789 35.086 63.8939C35.448 64.2009 35.809 64.5079 36.171 64.8139C36.119 64.5309 36.157 64.2179 36.333 63.9909C36.509 63.7639 36.842 63.6519 37.097 63.7819C37.352 63.9119 37.449 64.3049 37.245 64.5079C37.786 64.0089 38.662 63.9249 39.287 64.3119C39.447 64.4109 39.601 64.5419 39.788 64.5639C40.13 64.6059 40.482 64.2749 40.79 64.4299C41.107 64.5889 41.165 65.1749 41.517 65.1409C41.726 65.1209 41.886 64.8579 42.087 64.9169C42.112 65.0879 42.137 65.2579 42.162 65.4289C42.717 65.3729 43.41 65.1949 43.501 64.6389C43.517 64.5389 43.511 64.4349 43.545 64.3409C43.593 64.2049 43.715 64.1119 43.826 64.0219C44.26 63.6719 44.649 63.2199 44.76 62.6709C44.871 62.1219 44.628 61.4729 44.109 61.2709C43.974 61.1509 44.105 60.9299 44.245 60.8169C44.385 60.7039 44.557 60.5399 44.48 60.3759C44.434 60.2759 44.313 60.2359 44.244 60.1499C44.061 59.9199 44.334 59.5309 44.154 59.2989C44.073 59.1939 43.929 59.1659 43.815 59.0979C43.481 58.8979 43.484 58.3729 43.721 58.0629C43.958 57.7519 44.342 57.6029 44.707 57.4679C45.064 57.3359 45.421 57.2029 45.778 57.0709C46.058 56.9669 46.387 56.7979 46.393 56.4969C46.397 56.2829 46.242 56.0179 46.41 55.8879C46.506 55.8139 46.644 55.8519 46.762 55.8239C47.046 55.7559 47.089 55.3709 47.07 55.0769C47.056 54.8639 47.042 54.6499 47.028 54.4369C47.022 54.3439 47.016 54.2479 47.047 54.1609C47.107 53.9889 47.285 53.8969 47.427 53.7839C47.568 53.6709 47.688 53.4669 47.587 53.3159C47.104 53.3369 46.621 53.3579 46.138 53.3789C45.924 53.3879 45.697 53.3939 45.512 53.2849C45.328 53.1749 45.223 52.9029 45.36 52.7369C45.243 52.6969 45.126 52.6569 45.01 52.6169C45.017 52.3429 45.025 52.0699 45.032 51.7959C45.034 51.7169 45.037 51.6349 45.074 51.5659C45.114 51.4909 45.187 51.4409 45.258 51.3939C45.486 51.2429 45.713 51.0919 45.941 50.9409C45.896 51.1909 46.037 51.4629 46.266 51.5679C46.476 51.5819 46.514 51.2569 46.414 51.0709C46.313 50.8849 46.15 50.6819 46.237 50.4889C46.268 50.4189 46.329 50.3659 46.365 50.2979C46.545 49.9569 46.022 49.5799 46.128 49.2089C45.734 49.1049 45.339 48.9999 44.945 48.8959C44.855 48.7469 44.75 48.6069 44.637 48.4749C43.52 48.7259 42.36 48.8619 41.167 48.8619C41.073 48.8619 40.98 48.8559 40.887 48.8549C40.859 49.1569 40.894 49.4839 40.944 49.7789C41.132 49.6209 41.321 49.4619 41.509 49.3039C41.465 49.8949 41.527 50.4939 41.693 51.0629C41.736 51.2109 41.784 51.3809 41.701 51.5109C41.622 51.6349 41.455 51.6709 41.359 51.7809C41.069 52.1099 41.631 52.6479 41.43 53.0389C40.996 53.0559 40.632 52.4309 40.247 52.6329C40.156 52.6809 40.088 52.7699 39.99 52.7999C39.772 52.8659 39.589 52.5909 39.607 52.3619C39.625 52.1329 39.754 51.9259 39.78 51.6979C39.819 51.3629 39.636 51.0479 39.565 50.7179C39.498 50.4049 39.531 50.0709 39.419 49.7719C39.307 49.4729 38.95 49.2229 38.678 49.3869C38.676 49.1069 38.57 48.8349 38.399 48.6149C35.866 48.1669 33.538 47.1179 31.568 45.6149C31.535 45.6379 31.501 45.6609 31.472 45.6899C31.201 45.9619 31.229 46.3999 31.227 46.7859C31.225 47.1719 31.112 47.6369 30.745 47.7449C30.425 47.4969 30.484 46.9419 30.158 46.7009C30.005 46.5879 29.798 46.5719 29.642 46.4629C29.392 46.2889 29.346 45.9429 29.322 45.6389C29.283 45.1439 29.272 44.5719 29.638 44.2389C29.699 44.1829 29.77 44.1369 29.845 44.0929C27.001 41.1919 41.177 42.8419 41.177 38.4399C41.177 35.3939 40.472 33.8799 39.903 33.2049C40.593 33.4459 41.856 33.6889 43.994 33.6889C49.344 33.6889 51.246 19.4089 54.133 23.4909C54.427 23.1939 54.87 23.0449 55.278 23.1339C56.558 23.4159 56.656 25.3649 57.771 26.0599C58.268 26.0499 58.765 26.0389 59.262 26.0289C59.499 26.4909 60.059 26.7179 60.573 26.6759C61.282 26.6189 61.944 26.0629 62.054 25.3549C62.164 24.6469 61.645 23.8769 60.94 23.7899C60.72 23.7629 60.49 23.7949 60.279 23.7279C60.067 23.6609 59.877 23.4339 59.958 23.2249C60.326 22.7199 61.136 22.9089 61.619 23.3009C62.103 23.6939 62.492 24.2509 63.088 24.4289C63.409 23.5619 64.753 23.3369 64.892 22.4209C64.927 22.1889 64.873 21.9399 64.963 21.7229C65.159 21.2509 65.916 21.1869 66.038 20.6909C66.089 20.4809 66.002 20.2639 65.975 20.0489C65.922 19.6109 66.148 19.1549 66.525 18.9379Z" fill="#C0B0D3"/>
<path d="M56.1818 26.1898C55.9878 26.0388 55.7618 25.9428 55.5278 25.8618C55.9788 26.8108 56.3398 27.8118 56.6008 28.8538C56.7338 28.7638 56.8598 28.6618 56.9758 28.5408C56.9428 27.6838 56.8548 26.7128 56.1818 26.1898Z" fill="#C0B0D3"/>
<path d="M28.5889 28.178C28.6179 28.19 28.6489 28.202 28.6799 28.198C28.7129 28.194 28.7419 28.175 28.7729 28.165C28.8829 28.13 28.9919 28.215 29.0819 28.288C29.1719 28.361 29.2989 28.43 29.3959 28.366C29.4889 28.305 29.4829 28.164 29.4409 28.061C29.3989 27.958 29.3309 27.86 29.3319 27.748C29.3329 27.697 29.3479 27.647 29.3559 27.597C29.3819 27.416 29.2889 27.224 29.1309 27.133C28.9739 27.042 28.7619 27.059 28.6209 27.174C28.6879 27.262 28.7579 27.356 28.7699 27.466C28.7829 27.576 28.7119 27.704 28.6029 27.71C28.5229 27.715 28.4539 27.657 28.3769 27.638C28.2639 27.609 28.1339 27.674 28.0889 27.783C28.2159 27.956 28.3909 28.094 28.5889 28.178Z" fill="#C0B0D3"/>
<path d="M56.9448 9.08483C57.4148 9.88283 58.5528 10.1888 59.3538 9.73284C59.3998 9.70684 59.4448 9.67784 59.4788 9.63784C59.6408 9.44984 59.4808 9.16382 59.3238 8.97182C58.5798 8.60882 57.6538 8.65283 56.9448 9.08483Z" fill="#C0B0D3"/>
<path d="M52.4492 5.94899C52.8562 5.99899 53.2632 6.04798 53.6702 6.09798C53.8752 6.12298 54.1512 6.28099 54.0422 6.45699C53.7542 6.40099 53.5172 6.758 53.5872 7.045C53.6562 7.332 53.9192 7.529 54.1862 7.653C55.9322 8.463 58.0432 7.09899 59.8702 7.69899C60.8432 8.01799 61.5792 8.85299 62.5422 9.20299C62.9372 9.34699 63.4552 9.50998 63.4762 9.93398C63.4812 10.042 63.4482 10.149 63.4502 10.258C63.4552 10.591 63.7852 10.838 64.1102 10.894C64.4362 10.95 64.7682 10.872 65.0982 10.854C65.7822 10.816 66.4772 11.044 67.0072 11.48C67.1552 11.611 66.9042 11.798 66.7652 11.938C66.4542 12.252 66.8042 12.831 67.2372 12.909C67.6702 12.986 68.0922 12.766 68.5052 12.611C69.2692 12.325 70.1352 12.258 70.8972 12.548C71.6602 12.838 72.2942 13.519 72.4192 14.331C72.4382 14.457 72.4402 14.601 72.3532 14.693C72.2802 14.769 72.1672 14.787 72.0632 14.793C71.0582 14.854 70.0472 14.232 69.6412 13.303C69.5932 13.192 69.5452 13.069 69.4422 13.007C69.3892 12.976 69.3272 12.964 69.2662 12.961C68.6632 12.937 68.3622 13.8 68.6572 14.331C68.9522 14.862 69.5652 15.11 70.1322 15.321C70.8042 15.57 71.4802 15.821 72.1872 15.933C73.0492 16.07 73.9282 15.999 74.7982 15.927C76.3852 15.796 77.9802 15.664 79.5232 15.267C79.2842 14.935 79.0452 14.604 78.8052 14.272C78.4192 13.736 78.0162 13.185 77.4472 12.852C76.3472 12.209 74.8332 12.504 73.8512 11.69C73.5662 11.454 73.3422 11.135 73.0112 10.973C72.7702 10.856 72.4962 10.834 72.2292 10.819C70.9372 10.743 69.6402 10.758 68.3502 10.863C67.9122 10.899 67.4472 10.94 67.0532 10.742C66.3772 10.402 66.1962 9.52899 65.7382 8.92299C65.3622 8.42599 64.8002 8.11499 64.2542 7.81899C63.9432 7.64999 63.6332 7.481 63.3222 7.312C63.1232 7.204 62.9222 7.09498 62.7042 7.03398C62.2612 6.91098 61.7852 6.99697 61.3332 6.91197C60.9122 6.83297 60.5322 6.60998 60.1632 6.39098C59.4442 5.96498 58.7262 5.53799 58.0072 5.11199C57.7752 4.97399 57.5342 4.834 57.2662 4.808C56.6992 4.753 56.1462 5.22298 55.6002 5.06298C55.4022 5.00498 55.2372 4.87097 55.0632 4.76097C54.1192 4.16597 52.7732 4.33097 51.9972 5.13597C51.8942 5.24297 51.7952 5.37498 51.8032 5.52498C51.8192 5.80698 52.1712 5.91499 52.4492 5.94899Z" fill="#C0B0D3"/>
<path d="M92.5339 61.8569C92.3919 61.5009 92.2459 61.1369 91.9909 60.8529C91.7589 60.5939 91.4519 60.4169 91.1699 60.2149C90.2539 59.5589 89.5659 58.5869 89.2479 57.4999C89.6179 57.3039 89.7849 56.8629 89.8719 56.4509C90.0569 55.5779 90.1209 54.1309 89.8229 52.9429C89.4969 51.6449 88.7399 50.6569 87.2359 51.0649C87.0669 51.1109 86.8949 51.1659 86.7199 51.1539C86.0359 51.1069 85.4899 50.0949 84.8959 50.4389C84.3759 50.1959 84.8549 49.3139 84.5369 48.8329C84.3939 48.6169 84.0869 48.4779 84.0979 48.2179C84.1039 48.0709 84.2189 47.9529 84.2739 47.8159C84.4179 47.4549 84.0839 47.0409 83.7039 46.9799C83.3229 46.9189 82.9469 47.1109 82.6389 47.3449C82.3309 47.5789 82.0549 47.8629 81.7089 48.0339C82.3849 48.7499 82.6809 49.8119 82.4719 50.7779C81.8119 50.8159 81.0889 50.8339 80.5649 50.4269C80.4449 50.3339 80.3329 50.2169 80.1859 50.1809C80.0589 50.1499 79.9259 50.1849 79.8029 50.2299C79.0769 50.4979 78.5369 51.1089 78.0289 51.6979C77.9899 51.7439 77.9509 51.7909 77.9139 51.8399C77.5979 51.1509 77.0769 50.5579 76.4319 50.1659C75.9369 50.2299 75.7129 50.8569 75.7909 51.3539C75.8689 51.8519 76.1349 52.3079 76.1839 52.8089C75.9699 53.3809 74.9569 52.8999 74.5499 53.3519C74.3419 53.5819 74.4039 53.9559 74.5639 54.2219C74.7239 54.4879 74.9629 54.7009 75.1129 54.9729C74.7249 55.5989 74.3369 56.2259 73.9489 56.8519C73.8709 56.5889 73.7489 56.2839 73.4829 56.2289C73.1199 56.1549 72.8809 56.5999 72.8059 56.9659C72.7309 57.3319 72.6169 57.7879 72.2519 57.8559C72.3999 58.3199 73.1649 58.0479 73.5399 58.3559C73.8249 58.5909 73.7549 59.0339 73.7799 59.4039C73.8049 59.7739 74.1749 60.2089 74.4689 59.9859C74.6009 59.8859 74.6289 59.7029 74.6539 59.5379C74.8379 58.2949 75.3539 57.1039 76.1339 56.1229C76.3529 55.8469 76.6069 55.5529 76.6079 55.1989C76.6089 54.8969 76.4229 54.5879 76.5349 54.3069C76.6909 53.9159 77.2259 53.9509 77.6239 53.7899C77.5399 53.9569 77.4349 54.1119 77.3059 54.2469C77.0909 54.4709 76.8099 54.6559 76.7129 54.9519C76.5989 55.2999 76.7739 55.7149 76.5929 56.0319C76.4999 56.1939 76.3319 56.2949 76.1959 56.4229C75.7989 56.7979 75.6989 57.3849 75.6199 57.9269C75.4569 59.0539 75.3019 60.2449 75.7319 61.2969C75.9619 61.8609 76.3539 62.3619 76.4699 62.9609C76.1569 63.2049 75.7089 62.9469 75.4259 62.6679C75.1419 62.3899 74.7959 62.0549 74.4149 62.1609C74.1189 62.2429 73.8609 62.5829 73.5789 62.4619C73.7869 61.6539 73.3679 60.7269 72.6259 60.3559C72.4409 60.2819 72.3179 60.0739 72.3429 59.8749C71.9129 59.8619 71.7169 60.3999 71.6319 60.8249C71.5469 61.2499 71.2999 61.7819 70.8749 61.7129C70.7319 61.6899 70.6029 61.5939 70.4589 61.6009C70.1359 61.6159 70.0399 62.0789 69.7559 62.2329C69.5249 62.3579 69.2209 62.2519 68.9899 62.3759C68.8129 62.4709 68.7239 62.6779 68.5659 62.8039C68.1799 63.1119 67.6239 62.8179 67.2209 62.5329C66.8179 62.2479 66.2439 61.9749 65.8779 62.3069C65.5839 62.5739 65.6419 63.0669 65.4109 63.3909C65.1249 63.7909 64.4379 63.8859 64.3709 64.3749C64.0729 64.0909 63.5349 64.1289 63.2799 64.4529C63.2889 65.0109 63.4689 65.5639 63.7879 66.0189C63.4889 66.3429 63.1169 66.5979 62.7089 66.7599C62.8829 67.2109 63.1009 67.6439 63.3599 68.0509C62.9629 68.3069 63.0819 68.9959 62.7009 69.2769C62.4789 69.4409 62.1729 69.3979 61.9049 69.4599C61.6369 69.5219 61.3699 69.8339 61.5419 70.0509C61.4949 70.4329 60.8419 70.6549 60.5989 70.3589C60.3559 70.0619 60.2789 69.6409 59.9919 69.3869C59.5699 69.0129 58.9039 69.1619 58.3869 68.9389C58.2269 68.8699 58.0809 68.7649 57.9119 68.7219C57.3719 68.5859 56.8829 69.1629 56.8269 69.7219C56.7719 70.2799 56.9909 70.8239 57.0839 71.3769C57.1769 71.9299 57.0939 72.5939 56.6229 72.8919C56.3879 73.0399 56.0799 73.0799 55.9009 73.2939C55.5369 73.7269 56.0039 74.3489 56.1029 74.9079C56.1699 75.2869 56.0539 75.6729 55.9379 76.0399C55.7439 76.6579 55.3739 77.4069 54.7319 77.3609C54.2259 77.3249 53.9139 76.7929 53.7459 76.3099C53.5779 75.8269 53.4249 75.2749 52.9819 75.0239C52.1769 74.5689 51.1579 75.4799 50.2829 75.1829C50.3529 75.3789 50.4229 75.5759 50.4939 75.7719C50.0919 75.8689 49.9899 76.4089 50.0699 76.8179C50.1499 77.2269 50.3259 77.6569 50.1729 78.0449C49.9909 78.5099 49.4369 78.6779 48.9539 78.7889C49.1109 79.3209 49.1399 79.8909 49.0369 80.4359C49.2209 80.6269 48.8139 81.1169 48.5539 81.1639C48.2939 81.2109 48.0339 81.0969 47.7709 81.0759C47.2249 81.0319 46.6779 81.4439 46.5659 81.9849C47.1059 82.1389 47.6449 82.2939 48.1849 82.4479C48.3759 82.5029 48.5759 82.5569 48.7689 82.5119C48.9689 82.4649 49.1279 82.3179 49.2849 82.1839C50.5359 81.1159 52.4779 80.6319 53.8089 81.5969C54.0779 81.7919 54.3519 82.0509 54.6819 82.0199C54.8959 81.9999 55.0769 81.8589 55.2439 81.7229C55.8009 81.2719 56.4109 80.7089 56.3799 79.9889C56.3719 79.7989 56.3179 79.6059 56.3629 79.4209C56.4629 79.0069 56.9689 78.8699 57.2799 78.5819C58.0149 77.9009 57.4949 76.6819 56.9419 75.8439C57.6319 75.4149 58.3209 74.9859 59.0109 74.5569C59.1909 74.4449 59.3839 74.3289 59.5959 74.3319C59.8139 74.3349 60.0079 74.4619 60.2079 74.5499C61.3989 75.0729 62.7189 74.1889 63.6369 73.2619C64.3679 74.2099 65.7749 74.5509 66.8539 74.0429C67.2839 74.3399 67.2689 75.0279 66.9609 75.4519C66.6529 75.8759 66.1499 76.1009 65.6709 76.3079C65.9769 76.7349 66.2929 77.1859 66.3609 77.7079C66.4289 78.2299 66.1539 78.8379 65.6439 78.9509C65.7429 79.1319 65.8429 79.3129 65.9419 79.4939C66.3569 79.4249 66.7979 79.3989 67.1829 79.5709C67.5669 79.7429 67.8679 80.1649 67.7809 80.5799C67.0889 80.9649 66.2399 80.6769 65.4749 80.4749C64.7109 80.2719 63.7369 80.2379 63.3009 80.9029C63.0129 81.5869 62.5109 82.1769 61.8829 82.5669C62.1609 82.1049 62.0789 81.4539 61.6939 81.0769C61.1369 80.7559 60.4949 81.3209 60.1249 81.8489C59.7549 82.3769 59.2259 83.0029 58.6109 82.8179C58.3949 82.7529 58.2029 82.5879 57.9779 82.5979C57.7409 82.6079 57.5609 82.8069 57.4099 82.9909C57.0529 83.4269 56.6799 83.9369 56.7499 84.4989C56.8199 85.0599 57.6269 85.4679 57.9569 85.0099C57.8039 84.4539 57.7249 83.7099 58.2309 83.4409C58.7699 83.1549 59.4149 83.8619 59.2779 84.4609C59.1409 85.0599 58.5409 85.4339 57.9559 85.6049C57.3699 85.7759 56.7429 85.8139 56.1909 86.0739C55.9609 86.1819 55.7439 86.5249 55.9669 86.6479C56.1839 86.7759 56.4519 86.8119 56.6959 86.7489C56.8759 87.2229 56.7109 87.8069 56.3119 88.1139C55.9119 88.4219 55.3099 88.4279 54.9049 88.1289C54.0409 87.4919 54.3689 86.0509 53.7309 85.1839C53.4679 84.8259 53.0409 84.5959 52.5999 84.5729C51.6849 84.5249 50.9319 85.3099 50.5129 86.1319C50.4199 86.3139 50.3319 86.5079 50.1729 86.6339C49.8169 86.9179 49.3039 86.7509 48.8629 86.6409C48.4219 86.5309 47.8169 86.5879 47.7009 87.0309C48.6409 88.1669 49.8649 89.0609 51.2279 89.6079C51.3579 89.6599 51.5009 89.7189 51.5659 89.8449C51.6399 89.9889 51.5829 90.1619 51.5729 90.3229C51.5449 90.7679 51.8749 91.1429 52.1829 91.4629C52.4839 91.7759 52.8119 92.1029 53.2349 92.1939C53.6579 92.2849 54.1839 92.0129 54.1889 91.5769C54.1989 90.7739 52.6899 90.6429 52.7189 89.8399C53.2779 89.5639 53.9699 89.5829 54.5129 89.8889C55.1539 91.1449 57.0169 91.5399 58.1049 90.6509C58.5789 90.2629 58.9299 89.6759 59.5159 89.5039C60.4479 89.2299 61.2649 90.1369 62.1479 90.5459C63.2739 91.0679 64.5879 90.7659 65.7889 90.4549C66.8059 90.1919 67.8219 89.9279 68.8389 89.6649C68.2669 89.5929 67.6949 89.5209 67.1229 89.4479C68.0589 89.1779 68.9499 88.7489 69.7469 88.1849C69.7049 87.7079 69.2989 87.2889 68.8269 87.2349C70.1219 86.9769 70.4769 85.1959 71.6079 84.5089C71.9679 84.2899 72.3999 84.1899 72.7189 83.9129C73.1769 83.5159 73.2959 82.8479 73.2779 82.2399C73.2359 80.8229 72.5809 79.4349 71.5169 78.5079C72.3379 78.8659 73.2529 79.0039 74.1419 78.9029C74.1339 79.4499 74.5289 80.2259 74.9799 79.9209C75.1099 79.8329 75.1729 79.6749 75.2289 79.5259C75.4849 78.8419 75.7409 78.1579 75.9979 77.4739C76.1869 76.9679 76.3889 76.4429 76.7809 76.0739C77.4339 75.4589 78.5039 75.3809 79.0299 74.6529C78.9509 74.9739 79.3689 75.2349 79.6819 75.1359C79.9949 75.0369 80.1909 74.7299 80.3439 74.4379C80.7249 73.7119 80.8669 72.5749 80.1059 72.2829C79.4219 72.0209 78.3489 72.6309 78.0769 71.9459C78.0059 71.7669 78.0429 71.5649 78.0889 71.3789C78.5649 69.4419 79.9649 67.7589 81.7729 66.9489C82.3789 66.6779 83.1459 66.3399 83.1489 65.6709C83.5769 65.7359 83.8919 66.2179 83.7839 66.6409C84.2519 66.7019 84.7419 66.5719 85.1189 66.2859C84.7969 66.0579 84.8919 65.5269 85.1629 65.2389C85.4329 64.9509 85.8179 64.7989 86.1109 64.5339C86.9379 63.7869 87.0499 62.1889 88.1459 62.0129C88.9769 62.3429 88.8679 63.5669 88.5179 64.3959C88.1679 65.2249 87.7589 66.2789 88.3729 66.9329C88.6209 66.3539 89.1379 65.8989 89.7399 65.7279C89.1789 66.4369 89.0819 67.4879 89.5039 68.2889C89.9129 67.3439 90.6649 66.5539 91.5849 66.1029C91.5339 65.8409 91.4819 65.5789 91.4309 65.3169C92.1589 65.4869 92.8569 64.7849 92.9789 64.0409C93.0959 63.2999 92.8119 62.5559 92.5339 61.8569Z" fill="#C0B0D3"/>
<path d="M71.8529 89.3728C72.4869 89.5588 73.2169 89.3588 73.6719 88.8758C73.7519 88.7908 73.8279 88.6898 73.8379 88.5728C73.8479 88.4558 73.7669 88.3238 73.6499 88.3208C73.0919 88.7468 72.1449 88.5058 71.7399 89.0808C71.7029 89.1338 71.6719 89.1998 71.6939 89.2608C71.7169 89.3238 71.7879 89.3538 71.8529 89.3728Z" fill="#C0B0D3"/>
<path d="M68.7612 90.433C68.6562 90.441 68.5612 90.4949 68.4642 90.5369C68.0822 90.7019 67.6442 90.683 67.2542 90.827C67.0022 90.921 66.7792 91.08 66.5602 91.237C66.1482 91.533 65.7362 91.828 65.3242 92.124C66.2252 91.932 67.1252 91.74 68.0262 91.549C68.2582 91.5 68.4922 91.449 68.7082 91.351C69.0702 91.185 69.3602 90.891 69.7082 90.697C69.4802 90.625 69.2532 90.5529 69.0252 90.4809C68.9392 90.4539 68.8502 90.427 68.7612 90.433Z" fill="#C0B0D3"/>
<path d="M78.4959 16.4628C78.4219 16.2248 78.1779 16.0728 77.9329 16.0398C77.6879 16.0068 77.4409 16.0718 77.2049 16.1468C76.4959 16.3708 75.8159 16.6858 75.1869 17.0828C75.0269 17.1838 74.8689 17.2918 74.7479 17.4378C74.4309 17.8228 74.4459 18.3758 74.4779 18.8758C74.9819 18.8598 75.4869 18.8448 75.9909 18.8298C76.1309 18.8258 76.2709 18.8218 76.4089 18.8448C76.6809 18.8908 76.9229 19.0388 77.1789 19.1418C77.5079 19.2748 77.8659 19.3338 78.2199 19.3138C78.3899 19.1528 78.3469 18.8678 78.2429 18.6568C78.1389 18.4458 77.9849 18.2488 77.9669 18.0148C77.9219 17.4518 78.6629 16.9998 78.4959 16.4628Z" fill="#C0B0D3"/>
<path d="M76.559 24.4089C76.914 24.4199 77.26 24.5179 77.612 24.5659C77.964 24.6139 78.342 24.6059 78.648 24.4249C78.955 24.2439 79.157 23.8469 79.023 23.5149C78.917 23.2519 78.646 23.1019 78.395 22.9739C78.179 22.8639 77.963 22.7529 77.747 22.6429C77.605 22.5709 77.454 22.4889 77.384 22.3449C77.262 22.0949 77.442 21.8059 77.623 21.5949C77.804 21.3839 78.008 21.1259 77.933 20.8569C77.892 20.7099 77.774 20.5999 77.658 20.5029C77.301 20.2069 76.902 19.9619 76.477 19.7769C76.31 19.7039 76.136 19.6399 75.955 19.6319C75.715 19.6219 75.483 19.7089 75.259 19.7959C74.902 19.9339 74.545 20.0719 74.187 20.2099C73.968 20.2939 73.727 20.3999 73.64 20.6199C73.553 20.8399 73.784 21.1499 73.986 21.0319C74.162 21.4749 73.667 21.8859 73.55 22.3489C73.465 22.6829 73.586 23.0319 73.705 23.3559C73.868 23.7989 74.073 24.2879 74.505 24.4709C74.637 24.5259 74.78 24.5479 74.923 24.5549C75.472 24.5789 76.012 24.3909 76.559 24.4089Z" fill="#C0B0D3"/>
<path d="M83.9108 17.78C84.0258 17.868 84.1488 17.959 84.2918 17.98C84.4348 18 84.6028 17.92 84.6288 17.777C84.6468 17.672 84.5878 17.571 84.5318 17.482C84.3918 17.26 84.2508 17.038 84.1108 16.815C83.9868 16.62 83.8598 16.419 83.6748 16.281C83.4908 16.143 83.2338 16.078 83.0278 16.179C82.9198 16.489 83.0178 16.84 83.2038 17.11C83.3878 17.379 83.6518 17.582 83.9108 17.78Z" fill="#C0B0D3"/>
<path d="M86.7692 21.521C86.9742 21.665 87.2212 21.754 87.3882 21.941C87.5002 22.066 87.5662 22.224 87.6442 22.373C87.8762 22.818 88.2272 23.2 88.6482 23.469C88.6842 23.17 88.6642 22.863 88.5892 22.571C88.5612 22.46 88.5232 22.348 88.4492 22.262C88.3582 22.155 88.2222 22.1 88.0992 22.033C87.8202 21.881 87.5842 21.65 87.4252 21.374C87.3552 21.254 87.3002 21.124 87.2182 21.012C86.9872 20.696 86.5822 20.556 86.3192 20.266C86.2032 20.137 86.1172 19.981 85.9882 19.864C85.8592 19.748 85.6632 19.678 85.5132 19.765C85.7002 20.069 85.8872 20.373 86.0742 20.676C86.2682 20.989 86.4692 21.31 86.7692 21.521Z" fill="#C0B0D3"/>
<path d="M84.0788 73.98C83.9658 73.902 83.8238 73.846 83.6938 73.89C83.5648 73.934 83.4868 74.119 83.5828 74.217C83.3828 74.318 83.1468 74.296 82.9248 74.331C82.7038 74.366 82.4598 74.502 82.4448 74.728C82.4398 74.803 82.4618 74.881 82.4398 74.953C82.3938 75.098 82.1898 75.156 82.1678 75.307C82.1498 75.426 82.2698 75.531 82.3898 75.537C82.5088 75.544 82.6208 75.482 82.7208 75.415C82.9268 75.276 83.1248 75.102 83.3688 75.061C83.6138 75.019 83.9148 75.193 83.8888 75.441C84.1988 75.403 84.4738 75.158 84.5478 74.851C84.5398 74.508 84.3598 74.173 84.0788 73.98Z" fill="#C0B0D3"/>
<path d="M79.2127 37.2399C79.1597 37.6419 79.2667 38.0449 79.3717 38.4359C79.4637 38.7769 79.5557 39.1179 79.6477 39.4589C79.7337 39.7779 79.8597 40.1429 80.1697 40.2519C80.3407 40.3119 80.5317 40.2769 80.7087 40.3159C81.0917 40.3999 81.3557 40.8139 81.7467 40.8469C82.1977 40.8849 82.5237 40.3849 82.5657 39.9299C82.6077 39.4749 82.4807 39.0139 82.5487 38.5619C82.6307 38.0179 83.0547 37.5099 83.5967 37.4479C83.7887 37.4259 83.9937 37.4559 84.1657 37.3669C84.4037 37.2439 84.4837 36.9469 84.5397 36.6829C84.6307 36.2529 84.7197 35.7949 84.5668 35.3829C84.4218 34.9939 84.0767 34.6959 83.9837 34.2909C83.6637 34.1639 83.2947 34.4129 83.1627 34.7329C83.0307 35.0529 83.0717 35.4159 83.1137 35.7599C83.0887 35.5559 82.3368 36.1379 82.2808 36.1759C81.6948 36.5699 81.3118 36.7149 80.6838 36.5599C80.0008 36.3939 79.3467 36.2159 79.2127 37.2399Z" fill="#C0B0D3"/>
<path d="M74.6818 51.0499C74.8838 50.8919 74.9718 50.6289 75.0248 50.3779C75.1378 49.8499 75.1448 49.2849 74.9468 48.7829C74.5988 47.8979 73.5778 47.3399 72.6518 47.5289C72.4018 47.5799 72.1248 47.674 71.9088 47.539C71.7188 47.42 71.6558 47.1679 71.4878 47.0199C71.1958 46.7619 70.7298 46.92 70.4268 47.165C70.1238 47.41 69.8628 47.741 69.4868 47.841C69.3408 47.522 68.9578 47.334 68.6188 47.415C68.2798 47.496 68.0218 47.8379 68.0338 48.1889C68.0498 48.6439 68.4438 48.981 68.6388 49.392C68.8808 49.902 68.7978 50.5259 68.5278 51.0209C68.2578 51.5159 67.8218 51.899 67.3578 52.217C67.2318 52.303 67.0988 52.3899 67.0168 52.5199C66.8688 52.7559 66.9288 53.063 66.9988 53.333C67.1718 54.002 67.3758 54.6619 67.6078 55.3129C67.9688 55.0919 68.3988 55.4839 68.5848 55.8659C68.7708 56.2479 68.9578 56.7229 69.3738 56.7969C69.7998 56.8719 70.2898 56.466 70.6308 56.734C70.7398 56.82 70.8048 56.963 70.9328 57.018C71.0438 57.066 71.1718 57.0329 71.2828 56.9859C72.2108 56.5999 72.5318 55.2149 71.8698 54.4549C72.1528 53.9019 72.6038 53.4379 73.1468 53.1409C73.2898 53.0629 73.4448 52.991 73.5408 52.859C73.8088 52.491 73.4718 51.905 73.7378 51.535C73.9498 51.242 74.3998 51.2709 74.6818 51.0499Z" fill="#C0B0D3"/>
<path d="M76.3288 33.9131C75.9528 31.4211 73.9838 28.4191 70.8688 27.8991C68.6858 27.2181 66.1418 28.3561 65.0178 30.3611C63.8938 32.3671 64.1728 35.0281 65.5408 36.8731C66.9088 38.7181 69.2438 39.7301 71.5268 39.6621C72.9528 39.6201 74.4328 39.1392 75.3628 38.0482C76.3068 36.9402 76.5468 35.3581 76.3288 33.9131Z" fill="#C0B0D3"/>
<path opacity="0.5" d="M42.69 96.226C57.894 88.23 68.282 72.196 68.282 53.705C68.282 29.241 50.106 9.07097 26.634 6.14697C11.429 14.143 1.04199 30.177 1.04199 48.668C1.04199 73.133 19.218 93.302 42.69 96.226Z" fill="black"/>
<g opacity="0.2">
<path d="M5.90194 43.721C5.90194 31.677 10.3159 20.679 17.5889 12.259C7.40294 21.051 0.939941 34.102 0.939941 48.684C0.939941 75.158 22.2189 96.62 48.4689 96.62C62.7769 96.62 75.5979 90.235 84.3109 80.146C76.0039 87.317 65.2229 91.657 53.4319 91.657C27.1809 91.657 5.90194 70.195 5.90194 43.721Z" fill="black"/>
</g>
<path d="M48.519 0.69599C48.519 0.68699 48.6501 0.684971 48.9061 0.688971C49.1871 0.696971 49.5631 0.706984 50.0421 0.720984C50.5511 0.739984 51.1681 0.762985 51.8911 0.789985C52.6221 0.819985 53.468 0.824969 54.405 0.998969C55.348 1.13697 56.394 1.29098 57.536 1.45798C58.682 1.62398 59.883 2.01698 61.198 2.32398C62.526 2.59998 63.872 3.13099 65.312 3.65699C66.024 3.93799 66.791 4.14699 67.515 4.50999C68.245 4.86099 68.993 5.22198 69.76 5.59098C71.331 6.26198 72.8051 7.27899 74.4041 8.22599C75.2201 8.67599 75.952 9.28497 76.73 9.85697C77.496 10.445 78.306 11.009 79.076 11.647C79.816 12.322 80.568 13.009 81.333 13.706C81.707 14.063 82.119 14.389 82.47 14.779C82.823 15.169 83.178 15.562 83.536 15.957C84.235 16.762 85.015 17.521 85.677 18.396C86.332 19.277 86.9961 20.169 87.6691 21.073C88.0211 21.514 88.325 21.992 88.61 22.487C88.905 22.975 89.201 23.466 89.5 23.96C89.798 24.454 90.098 24.951 90.4 25.45C90.695 25.953 90.9181 26.499 91.1821 27.026C91.6751 28.097 92.243 29.15 92.689 30.266C93.101 31.397 93.516 32.539 93.935 33.692C95.402 38.372 96.241 43.422 96.31 48.629C96.242 53.838 95.404 58.89 93.9361 63.571C93.5171 64.724 93.101 65.866 92.689 66.998C92.244 68.115 91.6751 69.168 91.1821 70.239C90.9181 70.766 90.695 71.312 90.4 71.815C90.098 72.315 89.798 72.811 89.5 73.305C89.202 73.799 88.905 74.29 88.61 74.778C88.325 75.273 88.0211 75.751 87.6691 76.192C86.9971 77.096 86.332 77.989 85.677 78.869C85.015 79.744 84.235 80.503 83.536 81.308C83.178 81.704 82.823 82.096 82.47 82.486C82.118 82.877 81.707 83.202 81.333 83.559C80.568 84.257 79.816 84.943 79.076 85.618C78.305 86.256 77.496 86.82 76.73 87.408C75.952 87.98 75.2201 88.589 74.4041 89.039C72.8051 89.986 71.331 91.003 69.76 91.674C68.993 92.043 68.245 92.403 67.515 92.754C66.791 93.117 66.024 93.326 65.312 93.607C63.872 94.132 62.526 94.663 61.198 94.939C59.883 95.245 58.682 95.639 57.536 95.804C56.394 95.971 55.3491 96.125 54.4061 96.263C53.4691 96.436 52.623 96.441 51.892 96.471C51.169 96.498 50.5531 96.521 50.0441 96.54C49.5661 96.553 49.1901 96.564 48.9081 96.572C48.6521 96.576 48.521 96.574 48.521 96.565C48.521 96.556 48.652 96.54 48.907 96.519C49.188 96.498 49.563 96.471 50.04 96.435C50.547 96.402 51.161 96.363 51.881 96.316C52.608 96.27 53.45 96.249 54.381 96.061C55.318 95.91 56.356 95.743 57.489 95.56C58.626 95.381 59.817 94.975 61.12 94.658C62.436 94.371 63.769 93.83 65.194 93.296C65.899 93.01 66.658 92.798 67.374 92.432C68.096 92.078 68.836 91.715 69.594 91.343C71.148 90.668 72.6041 89.648 74.1841 88.701C74.9911 88.25 75.713 87.642 76.481 87.071C77.237 86.484 78.037 85.921 78.797 85.285C79.527 84.613 80.27 83.929 81.024 83.234C81.393 82.879 81.8 82.555 82.147 82.166C82.495 81.778 82.845 81.388 83.198 80.994C83.888 80.194 84.658 79.44 85.31 78.571C85.956 77.697 86.611 76.811 87.274 75.914C87.622 75.476 87.921 75.002 88.202 74.512C88.493 74.028 88.785 73.541 89.079 73.051C89.373 72.561 89.669 72.069 89.967 71.574C90.258 71.075 90.477 70.534 90.737 70.012C91.222 68.951 91.784 67.908 92.222 66.802C92.628 65.682 93.037 64.551 93.45 63.41C94.895 58.776 95.72 53.779 95.789 48.625C95.72 43.473 94.894 38.477 93.45 33.845C93.037 32.704 92.628 31.573 92.222 30.453C91.783 29.347 91.222 28.305 90.737 27.244C90.477 26.722 90.258 26.181 89.967 25.683C89.67 25.188 89.374 24.696 89.08 24.206C88.786 23.716 88.494 23.23 88.203 22.746C87.923 22.255 87.623 21.781 87.275 21.344C86.612 20.447 85.958 19.561 85.3111 18.687C84.659 17.818 83.889 17.064 83.1991 16.264C82.8461 15.871 82.496 15.48 82.148 15.093C81.801 14.704 81.395 14.381 81.026 14.025C80.272 13.33 79.529 12.647 78.799 11.974C78.039 11.338 77.239 10.775 76.483 10.188C75.715 9.61696 74.993 9.00899 74.1861 8.55799C72.6061 7.61099 71.15 6.59096 69.596 5.91596C68.838 5.54396 68.0981 5.18097 67.3761 4.82697C66.6601 4.45997 65.9 4.24799 65.196 3.96299C63.77 3.42999 62.437 2.88799 61.121 2.60099C59.818 2.28299 58.6271 1.87798 57.4901 1.69898C56.3561 1.51598 55.318 1.34897 54.381 1.19697C53.451 1.00897 52.608 0.987962 51.881 0.941962C51.161 0.894962 50.547 0.855974 50.04 0.822974C49.563 0.787974 49.188 0.75999 48.907 0.73899C48.65 0.72099 48.519 0.70499 48.519 0.69599Z" fill="white"/>
</svg>
