<svg width="97" height="97" viewBox="0 0 97 97" fill="none" xmlns="http://www.w3.org/2000/svg">
<path d="M48.5149 96.3769C74.7644 96.3769 96.0439 74.9152 96.0439 48.4409C96.0439 21.9666 74.7644 0.504883 48.5149 0.504883C22.2653 0.504883 0.98584 21.9666 0.98584 48.4409C0.98584 74.9152 22.2653 96.3769 48.5149 96.3769Z" fill="#C0B0D3"/>
<g opacity="0.2">
<path d="M48.5149 96.3769C74.7644 96.3769 96.0439 74.9152 96.0439 48.4409C96.0439 21.9666 74.7644 0.504883 48.5149 0.504883C22.2653 0.504883 0.98584 21.9666 0.98584 48.4409C0.98584 74.9152 22.2653 96.3769 48.5149 96.3769Z" fill="white"/>
</g>
<path d="M66.4688 18.7989C66.0238 18.4559 65.5778 18.1119 65.1328 17.7679C64.9868 17.6559 64.8358 17.5369 64.7558 17.3709C64.6668 17.1889 64.6758 16.9769 64.6438 16.7769C64.5258 16.0369 63.7638 15.4649 63.0268 15.5659C62.7408 14.8339 62.6738 14.0319 62.4148 13.2889C62.1568 12.5459 61.6228 11.8159 60.8538 11.6809C60.5538 11.6289 60.2348 11.6699 59.9538 11.5509C59.6448 11.4209 59.4418 11.1229 59.1748 10.9179C58.2798 10.2319 56.7158 10.6059 56.1478 9.62788C56.0148 9.39788 55.9638 9.12287 55.8068 8.90887C55.6098 8.64187 55.2808 8.51588 54.9708 8.40288C53.8488 7.99488 52.6008 7.58788 51.4958 8.04088C51.1028 8.20188 50.7448 8.46888 50.3258 8.53688C49.8568 8.61288 49.3498 8.43388 48.9158 8.62688C48.6558 8.74188 48.4408 8.98388 48.1568 8.99688C47.9568 9.00688 47.7728 8.89788 47.5988 8.79888C46.5038 8.17488 45.1948 7.79288 43.9758 7.98188C44.1228 7.88388 44.2688 7.78388 44.4348 7.72588C44.5598 7.68188 44.6928 7.66388 44.8208 7.62988C45.1348 7.54588 45.4218 7.35988 45.6288 7.10688C45.6028 7.05988 45.5768 7.01187 45.5508 6.96487C45.3828 7.07787 45.1568 6.97288 44.9988 6.84588C44.8408 6.71888 44.6758 6.56088 44.4748 6.57088C44.3738 6.57588 44.2798 6.62388 44.1818 6.64588C43.7638 6.74188 43.3688 6.37988 42.9398 6.37488C42.7988 6.37288 42.6598 6.41088 42.5258 6.45388C41.9178 6.64888 41.3488 6.96388 40.8608 7.37788C40.8058 7.42388 40.7508 7.47388 40.7178 7.53688C40.6728 7.62288 40.6718 7.72488 40.6848 7.82088C40.7308 8.15088 40.9458 8.45188 41.2418 8.59988C41.5608 8.75988 41.9388 8.74088 42.2888 8.67588C42.3228 8.66988 42.3558 8.65888 42.3898 8.65188C42.1608 8.83988 41.9658 9.06588 41.8338 9.33188C41.5848 9.83688 41.6028 10.4939 41.9658 10.9219C41.5528 11.1989 41.1028 10.5499 40.6088 10.5029C40.2458 10.4689 39.9458 10.7669 39.7028 11.0409C39.3708 11.4159 39.0388 11.7909 38.7058 12.1659C38.3138 12.0549 37.9208 11.9439 37.5288 11.8329C37.3398 11.7799 37.1358 11.7269 36.9528 11.7969C36.7678 11.8669 36.6498 12.0449 36.4988 12.1729C36.0898 12.5199 35.3968 12.4419 35.0748 12.0119C35.0388 11.9629 35.0098 11.9109 34.9838 11.8559C35.1478 11.7619 35.2888 11.6399 35.3438 11.4629C35.2918 11.2899 35.0988 11.1989 34.9168 11.2069C34.9678 10.9589 35.1008 10.7279 35.3098 10.5859C35.5918 10.3929 35.9968 10.3179 36.1298 10.0059C36.3418 9.86687 36.5528 9.72887 36.7648 9.58987C36.8408 9.54087 36.9188 9.48787 36.9638 9.40887C37.0058 9.33487 37.0058 9.23088 36.9458 9.17188C37.3348 8.76888 36.8578 7.76888 37.2788 7.26188C37.5538 6.92988 38.0818 6.98887 38.4708 7.17188C38.8598 7.35488 39.2218 7.63688 39.6508 7.66888C40.2968 7.71788 40.8258 7.19788 41.3188 6.77288C41.8118 6.34888 42.4308 6.04388 43.0678 6.29288C42.8908 6.22388 43.4028 5.41188 43.7048 5.43788C43.8858 5.45388 43.9018 5.73988 44.0388 5.81488C44.9168 6.29488 46.0268 5.66088 46.9828 5.55188C48.1958 5.41288 49.4298 5.45788 50.6288 5.69188C50.7068 5.37488 50.3528 5.13588 50.0558 5.00488C48.9868 4.53288 47.9088 4.05788 46.7678 3.81388C44.7428 3.38188 42.5968 3.71288 40.7028 4.55388C40.2338 4.76188 39.7518 5.00588 39.2408 4.97588C38.9908 4.96088 38.7458 4.87988 38.4958 4.87988C38.0508 4.87988 37.6698 5.12588 37.3348 5.43988C36.9698 5.42588 36.6078 5.57488 36.2888 5.76388C36.1468 5.84888 36.0088 5.94188 35.8758 6.03988C35.9638 6.15888 36.1488 6.08588 36.2788 6.01588C36.5088 5.89188 36.7608 5.80788 37.0188 5.76688C36.9668 5.82488 36.9168 5.88188 36.8678 5.93988C36.5628 6.29588 36.1248 6.20588 35.6618 6.25988C35.5018 6.27888 35.3388 6.28088 35.1858 6.33288C35.0228 6.38888 34.8878 6.49688 34.7678 6.62188C34.9178 6.44588 35.0668 6.26888 35.2168 6.09288C35.3208 5.97088 35.4318 5.82488 35.4048 5.66588C35.8628 5.65888 36.3098 5.41388 36.5658 5.03188C36.6088 4.96688 36.6508 4.89488 36.7208 4.85988C36.8528 4.79288 37.0188 4.88788 37.1558 4.83288C37.2708 4.78688 37.3218 4.65688 37.3858 4.54988C37.5508 4.27288 37.8498 4.11187 38.1338 3.96387C38.6028 3.71987 39.0708 3.47588 39.5398 3.23188C39.3548 3.20488 39.1698 3.17788 38.9848 3.15088C38.8268 3.15688 38.7028 3.17388 38.5878 3.19888L38.5448 3.19788C36.9978 3.28588 35.4708 3.70688 34.0948 4.42388C33.9768 4.48488 33.8598 4.54888 33.7348 4.59388C33.6178 4.63588 33.4948 4.66188 33.3738 4.69088C32.6008 4.87788 31.8788 5.23088 31.1628 5.58088C29.8228 6.23588 28.4828 6.89188 27.1428 7.54688C26.9988 7.61688 26.8298 7.73887 26.8708 7.89487C27.1488 7.92487 27.4258 7.95488 27.7028 7.98488C27.0898 8.13388 26.5078 8.41688 26.0098 8.80688C25.8518 8.93088 25.6918 9.07088 25.4948 9.10988C25.3818 9.13288 25.2638 9.11988 25.1498 9.14288C24.9888 9.17488 24.8508 9.27588 24.7178 9.37388C23.3288 10.4009 21.9398 11.4269 20.5508 12.4539C19.7648 13.0349 18.9718 13.6219 18.3178 14.3509C17.5728 15.1819 16.6218 15.8959 16.0198 16.8379C15.5268 17.6089 15.2178 18.4929 14.6748 19.2289C15.0628 18.9229 15.4508 18.6169 15.8368 18.3089C16.0148 18.1669 16.1938 18.0239 16.3408 17.8499C16.4618 17.7079 16.5588 17.5479 16.6638 17.3929C16.9318 17.0009 17.2508 16.6469 17.5688 16.2949C17.7188 16.1289 17.8728 15.9599 18.0638 15.8439C18.1858 15.7699 18.3218 15.7179 18.4378 15.6339C18.5838 15.5279 18.6908 15.3759 18.8268 15.2569C18.9628 15.1379 19.1518 15.0499 19.3218 15.1109C19.1808 15.3629 19.0278 15.6079 18.8618 15.8439C18.8048 15.9249 18.7438 16.0089 18.6558 16.0549C18.5638 16.1029 18.4558 16.1039 18.3548 16.1269C17.9168 16.2239 17.6818 16.6919 17.5048 17.1079C17.6798 17.0949 17.8548 17.0819 18.0308 17.0689C18.0778 17.1559 18.0328 17.2629 17.9878 17.3519C17.5428 18.2249 17.0928 19.1059 16.4628 19.8539C16.8728 19.3229 17.1318 18.6749 17.2018 18.0059C16.5598 18.3809 16.1068 19.0039 15.6108 19.5609C15.2918 19.9189 14.9088 20.2749 14.4338 20.3189C14.4428 20.1099 14.5078 19.9039 14.6208 19.7279C14.1338 19.7079 13.8098 20.2119 13.5898 20.6509C13.1448 21.5369 12.7008 22.4229 12.2568 23.3089C11.9718 23.8769 11.6878 24.4439 11.4028 25.0119C11.1808 25.4539 10.9588 25.8969 10.7368 26.3389C10.6518 26.5069 10.5668 26.7089 10.6528 26.8769C11.2998 26.2409 11.8728 25.5289 12.3568 24.7599C12.4418 24.6249 12.5248 24.4879 12.6338 24.3729C12.7498 24.2509 12.8908 24.1579 13.0158 24.0459C13.5008 23.6089 13.7138 22.9039 14.2558 22.5429C14.2238 23.0739 13.7538 23.4489 13.3978 23.8429C13.0318 24.2479 12.7568 24.7369 12.6008 25.2629C12.5498 25.4339 12.5108 25.6119 12.4198 25.7649C12.3288 25.9189 12.1908 26.0399 12.0968 26.1919C11.8968 26.5169 11.9278 26.9279 11.9648 27.3079C11.9668 27.3289 11.9688 27.3509 11.9818 27.3669C12.0148 27.4109 12.0848 27.3849 12.1308 27.3549C12.4688 27.1399 12.8058 26.9259 13.1438 26.7109C13.0858 27.0179 13.1928 27.3289 13.2618 27.6339C13.3298 27.9389 13.3498 28.2919 13.1508 28.5309C12.5938 29.2029 12.1788 29.5839 12.1078 30.5209C12.0598 31.1579 12.0138 31.8829 11.5188 32.2819C11.4118 32.3679 11.2808 32.4449 11.2418 32.5769C11.2048 32.7039 11.2688 32.8359 11.2958 32.9659C11.3978 33.4559 10.9848 33.8799 10.6908 34.2839C10.6068 34.3989 10.5288 34.5249 10.5038 34.6659C10.4818 34.7919 10.5038 34.9199 10.5118 35.0479C10.5298 35.3429 10.4708 35.6429 10.3408 35.9079C10.5578 36.0369 10.7748 36.1659 10.9918 36.2949C11.0968 36.3579 11.2058 36.4229 11.2768 36.5239C11.3558 36.6369 11.3778 36.7809 11.4428 36.9029C11.5418 37.0889 11.7388 37.2199 11.7908 37.4239C11.8168 37.5259 11.8028 37.6339 11.7938 37.7389C11.7478 38.2939 11.8718 38.8629 12.1438 39.3469C12.2288 39.4979 12.3288 39.6439 12.3658 39.8129C12.4498 40.1919 12.2048 40.6029 12.3438 40.9649C12.2098 40.9849 12.2808 41.2139 12.3778 41.3099C12.4748 41.4059 12.6228 41.4179 12.7578 41.4299C12.8928 41.4419 13.0428 41.4689 13.1238 41.5789C13.2718 41.7839 13.0648 42.0499 12.9898 42.2929C12.9158 42.5299 12.9868 42.8059 13.1648 42.9779C13.2618 43.0709 13.3998 43.1639 13.3838 43.2979C13.3658 43.4519 13.1718 43.4949 13.0358 43.5659C12.6398 43.7699 12.6458 44.3539 12.8228 44.7659C12.9998 45.1779 13.2938 45.5649 13.2878 46.0139C13.6558 46.0499 13.9908 46.3219 14.1038 46.6759C14.1408 46.7909 14.1718 46.9329 14.2848 46.9739C14.4248 47.0249 14.5548 46.8739 14.6058 46.7339C14.7878 46.2389 14.6228 45.6419 14.8978 45.1929C15.0248 44.9859 15.2288 44.8419 15.3868 44.6589C15.5448 44.4759 15.6588 44.2119 15.5548 43.9919C15.4928 43.8599 15.3648 43.7719 15.2938 43.6449C15.2228 43.5179 15.2568 43.3069 15.4008 43.2929C15.6048 43.4409 15.7578 43.6609 15.8248 43.9059C16.0098 43.9059 16.1948 43.9059 16.3798 43.9049C16.3788 44.1979 16.3768 44.4899 16.3758 44.7829C16.0458 45.0279 15.8958 45.4929 16.0198 45.8869C16.0608 46.0169 16.1358 46.1449 16.2588 46.2029C16.3418 46.2419 16.4378 46.2439 16.5228 46.2779C16.9918 46.4659 16.8138 47.3979 17.3098 47.4919C17.5108 47.5299 17.7068 47.3849 17.9108 47.4009C18.0688 47.4129 18.2618 47.5099 18.3618 47.3859C18.4308 47.2999 18.3908 47.1749 18.3578 47.0699C18.2548 46.7419 18.2568 46.3819 18.3628 46.0549C18.1768 45.6209 18.0578 45.1589 18.0098 44.6899C18.0568 44.6649 18.1038 44.6399 18.1508 44.6139C18.3848 44.8119 18.6268 45.0199 18.7508 45.3019C18.8318 45.4849 18.8588 45.6909 18.9558 45.8649C19.0528 46.0399 19.2628 46.1799 19.4458 46.1029C19.6158 46.0309 19.6718 45.8129 19.6608 45.6269C19.6498 45.4409 19.5938 45.2539 19.6308 45.0719C19.7048 44.7089 20.0988 44.5249 20.4438 44.3969C20.4828 44.5239 20.3238 44.6089 20.2198 44.6909C19.9838 44.8749 19.9758 45.2269 20.0098 45.5259C20.0618 45.9859 20.1738 46.4609 20.4718 46.8139C20.7698 47.1669 21.2978 47.3559 21.7058 47.1439C22.2128 46.8809 22.2958 46.1969 22.3038 45.6219C22.4628 45.5399 22.6978 45.4769 22.7858 45.6339C22.8478 45.7439 22.7798 45.8809 22.7898 46.0079C22.8088 46.2419 23.0878 46.3899 23.1088 46.6239C23.1198 46.7569 23.0438 46.8799 22.9748 46.9929C22.7868 47.3009 22.6648 47.7739 22.9688 47.9639C23.0478 48.0129 23.1418 48.0299 23.2308 48.0579C23.6608 48.1929 23.9808 48.6259 23.9858 49.0799C24.1438 49.1189 24.2638 49.2779 24.2588 49.4419C24.2538 49.6059 24.1238 49.7569 23.9638 49.7859C23.8928 49.7989 23.8118 49.7929 23.7598 49.8429C23.6468 49.9519 23.7988 50.1869 23.6798 50.2889C23.6408 50.3219 23.5858 50.3269 23.5368 50.3439C23.2818 50.4359 23.3178 50.8019 23.3438 51.0749C23.4028 51.6919 23.1218 52.3309 22.6298 52.7009C22.2788 52.9649 21.7558 53.0799 21.4138 52.8039C21.2518 52.6729 21.1568 52.4779 21.0228 52.3189C20.8888 52.1599 20.6748 52.0309 20.4808 52.1039C20.3988 52.1349 20.3328 52.1989 20.2688 52.2599C19.8778 52.6419 19.4668 53.0589 19.3608 53.5979C19.3248 53.7779 19.3248 53.9699 19.2438 54.1349C19.1438 54.3399 18.9378 54.4679 18.7918 54.6419C18.6088 54.8599 18.5228 55.1579 18.5608 55.4409C18.7148 55.6269 18.4868 55.8769 18.3858 56.0969C18.2848 56.3169 18.1268 56.5089 18.0418 56.7359C17.8638 57.2089 18.0298 57.7359 18.1968 58.2139C18.4178 58.8489 18.6588 59.5149 19.1648 59.9539C19.2948 60.0669 19.4398 60.1609 19.5828 60.2569C20.1568 60.6409 20.7378 61.0709 21.0488 61.6909C21.3978 61.7829 21.8028 61.4779 22.1078 61.6729C22.2228 61.7459 22.2888 61.8749 22.3498 61.9969C22.5158 62.3289 22.6818 62.6609 22.8478 62.9919C22.9798 63.2569 23.1228 63.5339 23.3688 63.6959C23.6148 63.8579 23.9968 63.8519 24.1568 63.6029C24.3528 63.2989 24.1108 62.8789 24.2298 62.5379C24.3898 62.0789 25.1148 61.9669 25.1728 61.4839C25.1978 61.2789 25.0958 61.0289 25.2468 60.8889C25.3078 60.8319 25.3948 60.8149 25.4718 60.7819C25.7298 60.6729 25.8808 60.3569 25.8038 60.0859C26.3978 60.0389 27.1258 60.0589 27.4168 60.5829C27.4798 60.6969 27.6018 60.8519 27.6988 60.7649C27.6158 60.1119 27.5318 59.4459 27.6578 58.7999C27.6928 58.6189 27.7448 58.4339 27.7058 58.2539C27.5928 57.7239 26.8338 57.6159 26.5838 57.1359C26.2908 56.5749 26.8258 55.7879 26.4408 55.2869C26.2038 54.9789 25.7078 54.9319 25.5348 54.5839C25.4758 54.4639 25.4628 54.3219 25.3858 54.2129C25.3068 54.1019 25.1748 54.0459 25.0638 53.9679C24.6338 53.6629 24.5638 53.0509 24.6158 52.5239C24.6678 51.9969 24.7978 51.4499 24.6248 50.9499C24.5608 50.7649 24.4558 50.5909 24.4378 50.3949C24.4048 50.0529 24.7018 49.7099 25.0428 49.7119C25.3838 49.7139 25.6788 50.0809 25.5958 50.4139C25.5398 50.6389 25.3528 50.8019 25.2108 50.9849C25.0688 51.1679 24.9678 51.4339 25.0988 51.6249C25.4488 51.6649 25.5878 52.2199 25.2998 52.4229C25.2158 52.4819 25.1128 52.5109 25.0318 52.5749C24.8228 52.7429 24.8568 53.0849 25.0028 53.3109C25.1488 53.5369 25.3768 53.6959 25.5418 53.9079C25.6288 54.0199 25.7068 54.1529 25.8368 54.2089C25.9058 54.2389 25.9828 54.2439 26.0578 54.2479C26.2588 54.2589 26.4588 54.2709 26.6598 54.2819C26.7358 54.2859 26.8138 54.2899 26.8868 54.2689C27.0058 54.2339 27.0948 54.1369 27.1858 54.0529C27.5038 53.7579 27.9058 53.5769 28.2998 53.4009C28.4388 53.3389 28.5838 53.2759 28.7348 53.2839C29.0878 53.3009 29.2998 53.6679 29.5368 53.9329C29.8848 54.3219 30.3788 54.5359 30.8578 54.7379C31.0848 53.8949 31.3088 52.9789 30.9808 52.1699C30.7218 51.5329 30.1638 51.0789 29.7218 50.5539C29.2928 50.0449 28.9508 49.3599 29.1538 48.7239C29.2668 48.6659 29.3788 48.6069 29.4918 48.5489C29.9758 48.7559 30.3648 49.1779 30.5348 49.6799C30.6658 50.0649 30.6698 50.4809 30.7548 50.8789C30.8808 51.4699 31.1888 52.0189 31.6208 52.4379C31.6118 51.9709 31.6038 51.5039 31.5948 51.0369C31.5918 50.9029 31.5968 50.7509 31.6948 50.6599C31.7898 50.5719 31.9348 50.5769 32.0628 50.5919C32.4478 50.6369 32.8278 50.7259 33.1938 50.8579C33.3028 50.8969 33.4158 50.9429 33.4918 51.0309C33.5898 51.1429 33.6098 51.3009 33.6268 51.4489C33.6918 52.0169 33.7008 52.7119 33.2218 53.0189C32.8708 53.2439 32.3438 53.1819 32.1018 53.5229C31.9378 53.7529 31.9678 54.1019 31.7538 54.2859C31.6338 54.3889 31.4548 54.4209 31.3698 54.5539C31.2368 54.7609 31.4228 55.0379 31.3688 55.2789C31.3338 55.4339 31.1988 55.5799 31.2518 55.7289C31.2838 55.8189 31.3738 55.8719 31.4458 55.9349C31.7808 56.2319 31.7078 56.7679 31.6068 57.2059C31.5238 57.5649 31.4408 57.9239 31.3578 58.2829C31.4268 57.5559 31.2238 56.8049 30.7968 56.2149C30.4128 56.3049 30.0238 56.1289 29.6448 56.0179C29.2658 55.9079 28.7918 55.8899 28.5448 56.1999C28.3388 56.4579 28.3828 56.8359 28.4848 57.1509C28.5878 57.4659 28.7408 57.7789 28.7198 58.1099C28.6948 58.5139 28.4208 58.9479 28.6368 59.2889C28.7968 59.3579 28.9568 59.4269 29.1178 59.4959C29.3748 59.6069 29.6788 59.8979 29.4908 60.1059C29.3248 60.2889 28.8788 60.2169 28.9088 60.4629C28.9168 60.5239 28.9608 60.5739 29.0028 60.6189C29.3658 61.0029 29.7758 61.5019 29.5958 61.9999C29.8748 61.9229 30.1628 62.0699 30.4028 62.2329C31.0208 62.6529 31.5448 63.2139 31.9238 63.8619C32.0408 64.0619 32.1448 64.2699 32.2648 64.4689C32.5358 64.4959 32.6118 64.1039 32.5798 63.8319C32.5328 63.4189 32.4858 63.0059 32.4378 62.5929C32.4018 62.2789 32.3658 61.9629 32.2748 61.6609C32.1468 61.2329 31.9148 60.8439 31.7658 60.4229C31.6158 60.0019 31.5558 59.5139 31.7688 59.1219C32.2918 59.4499 32.6618 60.0159 32.7538 60.6299C32.7868 60.8489 32.7848 61.0709 32.8198 61.2899C32.9278 61.9739 33.3778 62.5709 33.4598 63.2589C33.4878 63.4949 33.4748 63.7479 33.5968 63.9519C33.6708 64.0769 33.7878 64.1689 33.9028 64.2579C34.3448 64.6019 34.7858 64.9449 35.2278 65.2889C35.3388 65.3749 35.4168 65.5629 35.5438 65.5039C35.3718 64.9189 35.1998 64.3329 35.0278 63.7479C35.3898 64.0549 35.7508 64.3619 36.1128 64.6679C36.0598 64.3839 36.0978 64.0719 36.2748 63.8449C36.4508 63.6179 36.7838 63.5059 37.0388 63.6359C37.2938 63.7659 37.3908 64.1589 37.1868 64.3619C37.7288 63.8629 38.6038 63.7789 39.2288 64.1659C39.3898 64.2659 39.5428 64.3959 39.7298 64.4179C40.0718 64.4599 40.4238 64.1289 40.7328 64.2839C41.0498 64.4419 41.1078 65.0289 41.4598 64.9949C41.6688 64.9749 41.8288 64.7119 42.0298 64.7709C42.0548 64.9419 42.0798 65.1119 42.1048 65.2829C42.6598 65.2269 43.3528 65.0489 43.4438 64.4929C43.4598 64.3939 43.4538 64.2899 43.4878 64.1949C43.5358 64.0589 43.6578 63.9659 43.7688 63.8759C44.2028 63.5259 44.5918 63.0739 44.7028 62.5249C44.8148 61.9759 44.5708 61.3269 44.0518 61.1249C43.9168 61.0049 44.0478 60.7839 44.1878 60.6709C44.3278 60.5579 44.4998 60.3939 44.4238 60.2299C44.3778 60.1299 44.2568 60.0899 44.1878 60.0029C44.0048 59.7739 44.2778 59.3839 44.0978 59.1519C44.0168 59.0469 43.8728 59.0189 43.7588 58.9509C43.4248 58.7509 43.4278 58.2259 43.6648 57.9159C43.9018 57.6049 44.2858 57.4559 44.6508 57.3209C45.0078 57.1889 45.3648 57.0559 45.7218 56.9239C46.0018 56.8199 46.3308 56.6509 46.3368 56.3499C46.3408 56.1359 46.1858 55.8709 46.3538 55.7409C46.4498 55.6669 46.5878 55.7049 46.7058 55.6769C46.9898 55.6089 47.0328 55.2239 47.0128 54.9299C46.9988 54.7169 46.9848 54.5029 46.9708 54.2899C46.9648 54.1969 46.9588 54.1019 46.9898 54.0139C47.0498 53.8419 47.2278 53.7499 47.3688 53.6369C47.5108 53.5239 47.6298 53.3199 47.5288 53.1689C47.0458 53.1899 46.5628 53.2109 46.0798 53.2319C45.8658 53.2409 45.6388 53.2469 45.4538 53.1369C45.2698 53.0269 45.1648 52.7549 45.3018 52.5889C45.1848 52.5489 45.0678 52.5089 44.9518 52.4689C44.9588 52.1949 44.9668 51.9209 44.9738 51.6479C44.9758 51.5689 44.9788 51.4869 45.0158 51.4179C45.0558 51.3429 45.1288 51.2929 45.1998 51.2459C45.4278 51.0949 45.6548 50.9439 45.8828 50.7929C45.8378 51.0429 45.9788 51.3139 46.2078 51.4199C46.4178 51.4339 46.4558 51.1089 46.3558 50.9229C46.2548 50.7369 46.0918 50.5339 46.1788 50.3409C46.2098 50.2709 46.2708 50.2179 46.3068 50.1499C46.4868 49.8089 45.9638 49.4319 46.0698 49.0609C45.6758 48.9569 45.2808 48.8519 44.8868 48.7479C44.7968 48.5989 44.6918 48.4589 44.5788 48.3269C43.4618 48.5769 42.3018 48.7139 41.1088 48.7139C41.0148 48.7139 40.9228 48.7089 40.8288 48.7069C40.8008 49.0089 40.8358 49.3359 40.8858 49.6309C41.0738 49.4729 41.2628 49.3139 41.4508 49.1559C41.4068 49.7469 41.4688 50.3459 41.6348 50.9149C41.6778 51.0629 41.7258 51.2329 41.6428 51.3629C41.5638 51.4869 41.3968 51.5229 41.3008 51.6329C41.0108 51.9619 41.5728 52.4999 41.3718 52.8899C40.9378 52.9069 40.5748 52.2819 40.1888 52.4839C40.0978 52.5319 40.0298 52.6209 39.9318 52.6509C39.7138 52.7169 39.5308 52.4419 39.5488 52.2129C39.5668 51.9839 39.6958 51.7769 39.7218 51.5489C39.7608 51.2139 39.5778 50.8989 39.5068 50.5689C39.4398 50.2559 39.4728 49.9219 39.3608 49.6229C39.2478 49.3239 38.8918 49.0739 38.6188 49.2379C38.6168 48.9579 38.5108 48.6849 38.3398 48.4659C35.8068 48.0179 33.4788 46.9689 31.5088 45.4659C31.4758 45.4889 31.4418 45.5119 31.4128 45.5409C31.1418 45.8129 31.1698 46.2509 31.1678 46.6369C31.1658 47.0219 31.0528 47.4879 30.6858 47.5959C30.3658 47.3479 30.4238 46.7929 30.0988 46.5519C29.9458 46.4389 29.7388 46.4229 29.5828 46.3139C29.3328 46.1399 29.2868 45.7939 29.2628 45.4889C29.2238 44.9939 29.2128 44.4219 29.5788 44.0889C29.6398 44.0329 29.7118 43.9869 29.7858 43.9429C26.9418 41.0419 41.1188 42.6919 41.1188 38.2899C41.1188 35.2439 40.4138 33.7299 39.8448 33.0549C40.5348 33.2959 41.7978 33.5399 43.9358 33.5399C49.2858 33.5399 51.1878 19.2599 54.0748 23.3419C54.3688 23.0449 54.8118 22.8949 55.2198 22.9849C56.4998 23.2669 56.5978 25.2169 57.7128 25.9109C58.2098 25.9009 58.7068 25.8899 59.2038 25.8789C59.4408 26.3409 60.0008 26.5679 60.5158 26.5259C61.2238 26.4689 61.8858 25.9129 61.9968 25.2049C62.1068 24.4969 61.5878 23.7269 60.8828 23.6399C60.6628 23.6129 60.4338 23.6449 60.2218 23.5779C60.0098 23.5109 59.8198 23.2839 59.9008 23.0749C60.2688 22.5709 61.0788 22.7589 61.5618 23.1519C62.0448 23.5449 62.4348 24.1019 63.0308 24.2799C63.3518 23.4129 64.6958 23.1879 64.8348 22.2729C64.8698 22.0409 64.8158 21.7919 64.9058 21.5749C65.1028 21.1029 65.8588 21.0399 65.9808 20.5429C66.0318 20.3329 65.9448 20.1159 65.9178 19.9009C65.8658 19.4709 66.0918 19.0149 66.4688 18.7989Z" fill="#C0B0D3"/>
<path d="M56.1257 26.0499C55.9327 25.8999 55.7057 25.8039 55.4717 25.7219C55.9237 26.6709 56.2837 27.6719 56.5447 28.7139C56.6767 28.6239 56.8037 28.5219 56.9197 28.4009C56.8867 27.5439 56.7987 26.5729 56.1257 26.0499Z" fill="#C0B0D3"/>
<path d="M28.5327 28.0389C28.5617 28.0509 28.5927 28.0629 28.6237 28.0589C28.6567 28.0549 28.6857 28.0359 28.7167 28.0259C28.8267 27.9909 28.9357 28.0759 29.0257 28.1489C29.1157 28.2219 29.2427 28.2909 29.3397 28.2269C29.4327 28.1659 29.4267 28.0249 29.3847 27.9219C29.3427 27.8189 29.2747 27.7209 29.2757 27.6089C29.2767 27.5579 29.2917 27.5079 29.2997 27.4579C29.3257 27.2769 29.2327 27.0849 29.0747 26.9939C28.9177 26.9029 28.7057 26.9199 28.5647 27.0339C28.6317 27.1219 28.7017 27.2159 28.7137 27.3259C28.7257 27.4359 28.6557 27.5639 28.5457 27.5699C28.4657 27.5749 28.3967 27.5179 28.3197 27.4979C28.2067 27.4689 28.0767 27.5339 28.0317 27.6429C28.1597 27.8159 28.3347 27.9539 28.5327 28.0389Z" fill="#C0B0D3"/>
<path d="M56.8887 8.94493C57.3587 9.74293 58.4967 10.0489 59.2977 9.59293C59.3437 9.56693 59.3887 9.53793 59.4227 9.49793C59.5847 9.30993 59.4247 9.02493 59.2677 8.83193C58.5237 8.46893 57.5977 8.51293 56.8887 8.94493Z" fill="#C0B0D3"/>
<path d="M52.394 5.80899C52.801 5.85899 53.208 5.90799 53.615 5.95799C53.82 5.98299 54.096 6.14099 53.987 6.31699C53.699 6.26099 53.462 6.61799 53.532 6.90499C53.601 7.19199 53.864 7.38899 54.131 7.51299C55.877 8.32199 57.988 6.95899 59.815 7.55899C60.788 7.87899 61.525 8.71299 62.487 9.06299C62.883 9.20699 63.4 9.36999 63.421 9.79399C63.426 9.90199 63.394 10.009 63.395 10.118C63.4 10.451 63.73 10.698 64.055 10.754C64.381 10.81 64.713 10.732 65.043 10.714C65.727 10.676 66.422 10.904 66.952 11.34C67.1 11.471 66.849 11.658 66.711 11.798C66.4 12.112 66.75 12.692 67.183 12.769C67.616 12.846 68.038 12.626 68.451 12.471C69.215 12.185 70.081 12.118 70.843 12.408C71.606 12.698 72.24 13.379 72.365 14.191C72.384 14.317 72.386 14.461 72.299 14.553C72.227 14.629 72.113 14.647 72.009 14.653C71.004 14.715 69.993 14.092 69.587 13.163C69.538 13.052 69.491 12.929 69.388 12.867C69.335 12.836 69.273 12.824 69.212 12.821C68.609 12.797 68.307 13.66 68.603 14.191C68.898 14.722 69.511 14.97 70.078 15.181C70.75 15.43 71.426 15.68 72.133 15.793C72.995 15.93 73.874 15.859 74.744 15.787C76.331 15.656 77.926 15.524 79.469 15.128C79.23 14.796 78.991 14.464 78.751 14.133C78.365 13.597 77.962 13.045 77.393 12.713C76.293 12.07 74.779 12.365 73.797 11.551C73.512 11.315 73.288 10.996 72.957 10.834C72.716 10.717 72.442 10.695 72.175 10.68C70.883 10.604 69.586 10.619 68.296 10.724C67.858 10.76 67.393 10.801 66.999 10.603C66.323 10.263 66.142 9.38999 65.684 8.78399C65.308 8.28699 64.746 7.97599 64.201 7.67999C63.89 7.51099 63.58 7.34199 63.269 7.17299C63.07 7.06499 62.869 6.95599 62.651 6.89499C62.208 6.77199 61.732 6.85799 61.28 6.77299C60.858 6.69399 60.479 6.47099 60.11 6.25199C59.391 5.82599 58.673 5.39899 57.954 4.97299C57.722 4.83499 57.481 4.69499 57.213 4.66899C56.646 4.61399 56.093 5.08399 55.547 4.92399C55.349 4.86599 55.184 4.73199 55.01 4.62199C54.066 4.02699 52.72 4.19199 51.944 4.99799C51.841 5.10499 51.742 5.23699 51.75 5.38599C51.763 5.66799 52.115 5.77499 52.394 5.80899Z" fill="#C0B0D3"/>
<path d="M92.4778 61.7168C92.3358 61.3608 92.1898 60.9968 91.9348 60.7128C91.7028 60.4538 91.3958 60.2768 91.1138 60.0748C90.1978 59.4188 89.5098 58.4468 89.1918 57.3598C89.5618 57.1638 89.7288 56.7228 89.8158 56.3108C90.0008 55.4378 90.0648 53.9908 89.7668 52.8028C89.4408 51.5048 88.6838 50.5168 87.1798 50.9248C87.0108 50.9708 86.8388 51.0258 86.6638 51.0138C85.9798 50.9668 85.4338 49.9548 84.8398 50.2998C84.3198 50.0568 84.7988 49.1748 84.4808 48.6938C84.3378 48.4778 84.0308 48.3388 84.0418 48.0788C84.0478 47.9308 84.1628 47.8138 84.2178 47.6768C84.3618 47.3158 84.0278 46.9018 83.6478 46.8408C83.2668 46.7798 82.8908 46.9718 82.5828 47.2058C82.2748 47.4398 81.9988 47.7238 81.6528 47.8948C82.3288 48.6108 82.6248 49.6728 82.4158 50.6388C81.7558 50.6768 81.0328 50.6948 80.5088 50.2878C80.3888 50.1948 80.2768 50.0778 80.1298 50.0418C80.0028 50.0108 79.8698 50.0458 79.7468 50.0908C79.0208 50.3588 78.4808 50.9698 77.9728 51.5588C77.9338 51.6048 77.8948 51.6518 77.8578 51.7008C77.5418 51.0118 77.0208 50.4188 76.3758 50.0268C75.8798 50.0908 75.6568 50.7178 75.7348 51.2148C75.8128 51.7128 76.0788 52.1688 76.1278 52.6698C75.9138 53.2418 74.9008 52.7608 74.4938 53.2138C74.2858 53.4438 74.3478 53.8178 74.5078 54.0838C74.6678 54.3498 74.9068 54.5628 75.0568 54.8348C74.6688 55.4608 74.2808 56.0878 73.8928 56.7138C73.8148 56.4508 73.6928 56.1458 73.4268 56.0908C73.0638 56.0168 72.8248 56.4618 72.7498 56.8278C72.6748 57.1938 72.5598 57.6498 72.1958 57.7178C72.3438 58.1818 73.1088 57.9098 73.4828 58.2178C73.7678 58.4528 73.6978 58.8958 73.7228 59.2658C73.7478 59.6358 74.1178 60.0708 74.4118 59.8478C74.5438 59.7478 74.5718 59.5648 74.5968 59.3998C74.7808 58.1568 75.2968 56.9658 76.0758 55.9848C76.2958 55.7088 76.5488 55.4148 76.5498 55.0618C76.5508 54.7598 76.3648 54.4508 76.4768 54.1698C76.6328 53.7788 77.1678 53.8138 77.5658 53.6528C77.4818 53.8198 77.3768 53.9748 77.2478 54.1098C77.0328 54.3328 76.7518 54.5188 76.6548 54.8148C76.5408 55.1628 76.7158 55.5778 76.5348 55.8948C76.4418 56.0568 76.2738 56.1578 76.1378 56.2858C75.7408 56.6608 75.6398 57.2478 75.5618 57.7908C75.3988 58.9168 75.2438 60.1088 75.6738 61.1608C75.9038 61.7248 76.2958 62.2268 76.4118 62.8248C76.0988 63.0688 75.6508 62.8108 75.3668 62.5318C75.0838 62.2538 74.7368 61.9188 74.3558 62.0248C74.0598 62.1068 73.8018 62.4468 73.5198 62.3258C73.7278 61.5178 73.3088 60.5908 72.5668 60.2198C72.3818 60.1458 72.2588 59.9378 72.2838 59.7388C71.8538 59.7258 71.6578 60.2638 71.5728 60.6888C71.4878 61.1138 71.2408 61.6468 70.8158 61.5768C70.6728 61.5538 70.5438 61.4578 70.3998 61.4648C70.0768 61.4798 69.9808 61.9428 69.6968 62.0968C69.4658 62.2218 69.1618 62.1158 68.9308 62.2408C68.7538 62.3358 68.6648 62.5428 68.5068 62.6678C68.1208 62.9758 67.5648 62.6828 67.1618 62.3968C66.7588 62.1118 66.1848 61.8378 65.8188 62.1708C65.5248 62.4378 65.5828 62.9308 65.3518 63.2548C65.0658 63.6548 64.3788 63.7508 64.3128 64.2388C64.0148 63.9548 63.4768 63.9928 63.2218 64.3168C63.2308 64.8738 63.4108 65.4278 63.7298 65.8828C63.4308 66.2068 63.0588 66.4628 62.6508 66.6238C62.8248 67.0748 63.0428 67.5078 63.3018 67.9148C62.9048 68.1708 63.0238 68.8598 62.6428 69.1408C62.4208 69.3048 62.1148 69.2618 61.8468 69.3238C61.5788 69.3848 61.3118 69.6978 61.4838 69.9148C61.4368 70.2968 60.7838 70.5198 60.5408 70.2228C60.2978 69.9258 60.2208 69.5048 59.9338 69.2508C59.5118 68.8768 58.8458 69.0258 58.3288 68.8028C58.1688 68.7338 58.0228 68.6288 57.8538 68.5858C57.3138 68.4498 56.8238 69.0278 56.7688 69.5858C56.7138 70.1438 56.9328 70.6878 57.0258 71.2408C57.1188 71.7938 57.0358 72.4578 56.5648 72.7558C56.3298 72.9038 56.0218 72.9438 55.8428 73.1568C55.4778 73.5898 55.9458 74.2118 56.0448 74.7708C56.1118 75.1508 55.9958 75.5358 55.8808 75.9028C55.6868 76.5208 55.3168 77.2698 54.6748 77.2238C54.1688 77.1878 53.8568 76.6558 53.6888 76.1728C53.5208 75.6898 53.3678 75.1378 52.9248 74.8868C52.1198 74.4318 51.1008 75.3418 50.2258 75.0458C50.2958 75.2418 50.3658 75.4388 50.4368 75.6348C50.0348 75.7318 49.9328 76.2718 50.0128 76.6808C50.0928 77.0908 50.2688 77.5198 50.1158 77.9078C49.9338 78.3718 49.3798 78.5408 48.8968 78.6518C49.0538 79.1838 49.0828 79.7538 48.9798 80.2988C49.1638 80.4898 48.7568 80.9798 48.4968 81.0258C48.2368 81.0728 47.9768 80.9598 47.7138 80.9378C47.1678 80.8938 46.6208 81.3058 46.5088 81.8468C47.0488 82.0008 47.5878 82.1558 48.1278 82.3098C48.3188 82.3638 48.5188 82.4188 48.7118 82.3738C48.9118 82.3268 49.0718 82.1798 49.2278 82.0458C50.4788 80.9778 52.4208 80.4938 53.7518 81.4588C54.0208 81.6538 54.2948 81.9128 54.6248 81.8818C54.8388 81.8618 55.0198 81.7208 55.1868 81.5848C55.7438 81.1338 56.3538 80.5708 56.3238 79.8508C56.3158 79.6608 56.2618 79.4678 56.3068 79.2828C56.4078 78.8688 56.9128 78.7318 57.2238 78.4438C57.9588 77.7628 57.4388 76.5438 56.8858 75.7058C57.5758 75.2768 58.2648 74.8478 58.9548 74.4188C59.1348 74.3068 59.3278 74.1908 59.5398 74.1938C59.7578 74.1968 59.9518 74.3238 60.1518 74.4118C61.3428 74.9348 62.6628 74.0518 63.5808 73.1238C64.3118 74.0718 65.7188 74.4128 66.7978 73.9048C67.2278 74.2018 67.2128 74.8898 66.9048 75.3138C66.5968 75.7378 66.0938 75.9628 65.6148 76.1698C65.9208 76.5968 66.2368 77.0478 66.3048 77.5698C66.3728 78.0918 66.0978 78.7008 65.5878 78.8128C65.6868 78.9938 65.7868 79.1748 65.8858 79.3558C66.3008 79.2868 66.7418 79.2608 67.1268 79.4328C67.5108 79.6048 67.8118 80.0268 67.7238 80.4418C67.0318 80.8268 66.1828 80.5388 65.4178 80.3368C64.6538 80.1338 63.6798 80.1008 63.2438 80.7658C62.9558 81.4498 62.4538 82.0398 61.8258 82.4298C62.1038 81.9678 62.0208 81.3168 61.6368 80.9408C61.0798 80.6198 60.4378 81.1848 60.0678 81.7128C59.6978 82.2408 59.1688 82.8668 58.5538 82.6818C58.3378 82.6168 58.1458 82.4518 57.9208 82.4618C57.6838 82.4718 57.5038 82.6698 57.3528 82.8548C56.9948 83.2908 56.6228 83.8008 56.6928 84.3628C56.7628 84.9238 57.5698 85.3318 57.8998 84.8738C57.7468 84.3178 57.6678 83.5738 58.1738 83.3048C58.7128 83.0188 59.3578 83.7258 59.2208 84.3248C59.0838 84.9238 58.4838 85.2978 57.8988 85.4688C57.3128 85.6398 56.6868 85.6768 56.1338 85.9378C55.9038 86.0458 55.6868 86.3888 55.9098 86.5118C56.1268 86.6398 56.3958 86.6768 56.6388 86.6128C56.8188 87.0868 56.6538 87.6708 56.2548 87.9788C55.8548 88.2868 55.2538 88.2928 54.8478 87.9928C53.9838 87.3558 54.3118 85.9148 53.6738 85.0478C53.4108 84.6898 52.9838 84.4598 52.5428 84.4368C51.6278 84.3888 50.8748 85.1748 50.4548 85.9968C50.3618 86.1788 50.2738 86.3718 50.1148 86.4988C49.7588 86.7828 49.2458 86.6158 48.8048 86.5058C48.3638 86.3958 47.7588 86.4528 47.6428 86.8958C48.5828 88.0318 49.8068 88.9258 51.1698 89.4728C51.3008 89.5248 51.4438 89.5838 51.5078 89.7098C51.5818 89.8538 51.5258 90.0268 51.5148 90.1878C51.4878 90.6328 51.8168 91.0078 52.1248 91.3278C52.4258 91.6408 52.7538 91.9678 53.1768 92.0588C53.5998 92.1498 54.1258 91.8778 54.1308 91.4418C54.1408 90.6388 52.6318 90.5078 52.6598 89.7048C53.2188 89.4288 53.9108 89.4478 54.4538 89.7538C55.0948 91.0098 56.9578 91.4048 58.0458 90.5158C58.5198 90.1278 58.8708 89.5408 59.4568 89.3688C60.3898 89.0948 61.2068 90.0018 62.0888 90.4108C63.2148 90.9328 64.5288 90.6308 65.7298 90.3198C66.7468 90.0568 67.7628 89.7928 68.7798 89.5298C68.2078 89.4578 67.6358 89.3858 67.0638 89.3128C67.9998 89.0428 68.8908 88.6138 69.6878 88.0498C69.6458 87.5728 69.2398 87.1538 68.7678 87.0998C70.0628 86.8418 70.4178 85.0608 71.5488 84.3738C71.9088 84.1548 72.3408 84.0548 72.6598 83.7778C73.1178 83.3808 73.2368 82.7128 73.2188 82.1048C73.1768 80.6878 72.5218 79.2998 71.4578 78.3728C72.2788 78.7308 73.1938 78.8688 74.0828 78.7678C74.0748 79.3148 74.4698 80.0908 74.9208 79.7858C75.0518 79.6978 75.1138 79.5398 75.1698 79.3908C75.4258 78.7068 75.6818 78.0228 75.9388 77.3378C76.1278 76.8318 76.3298 76.3068 76.7218 75.9378C77.3748 75.3228 78.4448 75.2448 78.9708 74.5168C78.8918 74.8378 79.3098 75.0988 79.6228 74.9998C79.9358 74.9008 80.1318 74.5938 80.2848 74.3018C80.6658 73.5758 80.8078 72.4388 80.0468 72.1468C79.3638 71.8848 78.2898 72.4948 78.0178 71.8098C77.9468 71.6308 77.9838 71.4288 78.0298 71.2428C78.5058 69.3058 79.9058 67.6228 81.7138 66.8128C82.3198 66.5418 83.0868 66.2038 83.0898 65.5348C83.5178 65.5998 83.8328 66.0818 83.7248 66.5048C84.1928 66.5658 84.6828 66.4358 85.0598 66.1488C84.7378 65.9208 84.8328 65.3898 85.1038 65.1018C85.3738 64.8138 85.7588 64.6608 86.0518 64.3968C86.8788 63.6498 86.9908 62.0528 88.0868 61.8758C88.9178 62.2058 88.8088 63.4298 88.4588 64.2588C88.1088 65.0878 87.6998 66.1418 88.3138 66.7958C88.5618 66.2168 89.0788 65.7608 89.6808 65.5908C89.1198 66.2998 89.0228 67.3508 89.4448 68.1518C89.8538 67.2068 90.6058 66.4168 91.5258 65.9658C91.4748 65.7038 91.4228 65.4418 91.3718 65.1798C92.0998 65.3498 92.7978 64.6478 92.9198 63.9038C93.0398 63.1598 92.7558 62.4158 92.4778 61.7168Z" fill="#C0B0D3"/>
<path d="M71.7967 89.2329C72.4317 89.4189 73.1607 89.2189 73.6157 88.7359C73.6957 88.6509 73.7718 88.5499 73.7818 88.4329C73.7918 88.3159 73.7107 88.1839 73.5937 88.1809C73.0357 88.6069 72.0888 88.3659 71.6828 88.9409C71.6458 88.9939 71.6147 89.0599 71.6367 89.1209C71.6607 89.1839 71.7327 89.2139 71.7967 89.2329Z" fill="#C0B0D3"/>
<path d="M68.7046 90.2938C68.5996 90.3018 68.5046 90.3558 68.4076 90.3978C68.0256 90.5628 67.5876 90.5438 67.1976 90.6888C66.9456 90.7828 66.7226 90.9418 66.5036 91.0988C66.0916 91.3948 65.6796 91.6898 65.2676 91.9858C66.1686 91.7938 67.0686 91.6028 67.9696 91.4108C68.2016 91.3618 68.4356 91.3118 68.6516 91.2128C69.0136 91.0468 69.3036 90.7528 69.6516 90.5588C69.4236 90.4868 69.1956 90.4148 68.9686 90.3428C68.8826 90.3138 68.7946 90.2868 68.7046 90.2938Z" fill="#C0B0D3"/>
<path d="M78.4398 16.3229C78.3658 16.0849 78.1218 15.9329 77.8768 15.8999C77.6318 15.8669 77.3848 15.9319 77.1488 16.0059C76.4398 16.2299 75.7598 16.5449 75.1308 16.9419C74.9708 17.0429 74.8128 17.1509 74.6918 17.2969C74.3748 17.6819 74.3898 18.2349 74.4218 18.7349C74.9258 18.7189 75.4308 18.7039 75.9348 18.6889C76.0748 18.6849 76.2148 18.6809 76.3528 18.7039C76.6248 18.7499 76.8668 18.8979 77.1228 19.0009C77.4518 19.1339 77.8098 19.1929 78.1638 19.1729C78.3338 19.0119 78.2898 18.7269 78.1868 18.5159C78.0828 18.3049 77.9288 18.1079 77.9108 17.8739C77.8658 17.3119 78.6068 16.8599 78.4398 16.3229Z" fill="#C0B0D3"/>
<path d="M76.5028 24.2689C76.8578 24.2809 77.2038 24.3779 77.5558 24.4259C77.9078 24.4739 78.2859 24.4659 78.5919 24.2849C78.8989 24.1039 79.1008 23.7069 78.9678 23.3749C78.8618 23.1119 78.5908 22.9629 78.3398 22.8339C78.1238 22.7239 77.9078 22.6129 77.6918 22.5029C77.5498 22.4309 77.3988 22.3489 77.3289 22.2049C77.2069 21.9549 77.3868 21.6659 77.5678 21.4549C77.7488 21.2439 77.9528 20.9859 77.8778 20.7179C77.8368 20.5709 77.7188 20.4609 77.6018 20.3639C77.2448 20.0679 76.8458 19.8229 76.4208 19.6379C76.2538 19.5649 76.0798 19.5009 75.8988 19.4929C75.6588 19.4819 75.4268 19.5699 75.2028 19.6569C74.8458 19.7949 74.4879 19.9329 74.1309 20.0709C73.9119 20.1549 73.6709 20.2619 73.5839 20.4809C73.4969 20.6999 73.7278 21.0109 73.9298 20.8929C74.1058 21.3359 73.6108 21.7469 73.4938 22.2099C73.4088 22.5439 73.5298 22.8929 73.6488 23.2169C73.8118 23.6599 74.0168 24.1489 74.4488 24.3309C74.5808 24.3869 74.7238 24.4079 74.8668 24.4149C75.4158 24.4389 75.9558 24.2509 76.5028 24.2689Z" fill="#C0B0D3"/>
<path d="M83.8547 17.6399C83.9697 17.7279 84.0916 17.8199 84.2356 17.8399C84.3786 17.8599 84.5466 17.7799 84.5726 17.6369C84.5906 17.5319 84.5317 17.4309 84.4757 17.3419C84.3347 17.1199 84.1946 16.8979 84.0546 16.6749C83.9316 16.4789 83.8036 16.2789 83.6196 16.1409C83.4346 16.0029 83.1786 15.9379 82.9716 16.0389C82.8636 16.3489 82.9617 16.7009 83.1477 16.9699C83.3327 17.2389 83.5957 17.4419 83.8547 17.6399Z" fill="#C0B0D3"/>
<path d="M86.713 21.3809C86.918 21.5249 87.165 21.6139 87.333 21.7999C87.445 21.9249 87.511 22.0829 87.589 22.2319C87.821 22.6769 88.172 23.0599 88.594 23.3279C88.63 23.0279 88.61 22.7219 88.535 22.4299C88.507 22.3189 88.469 22.2069 88.395 22.1209C88.303 22.0139 88.168 21.9589 88.045 21.8919C87.766 21.7399 87.53 21.5089 87.371 21.2329C87.301 21.1129 87.246 20.9829 87.164 20.8709C86.933 20.5539 86.528 20.4149 86.265 20.1249C86.149 19.9959 86.063 19.8399 85.934 19.7229C85.805 19.6069 85.609 19.5369 85.459 19.6239C85.646 19.9279 85.833 20.2319 86.02 20.5349C86.212 20.8489 86.413 21.1709 86.713 21.3809Z" fill="#C0B0D3"/>
<path d="M84.0227 73.8399C83.9097 73.7619 83.7677 73.7059 83.6387 73.7499C83.5097 73.7939 83.4317 73.9789 83.5267 74.0769C83.3267 74.1779 83.0906 74.1559 82.8686 74.1909C82.6466 74.2259 82.4037 74.3619 82.3887 74.5869C82.3837 74.6619 82.4057 74.7409 82.3837 74.8119C82.3377 74.9569 82.1337 75.0149 82.1117 75.1659C82.0937 75.2849 82.2147 75.3889 82.3337 75.3959C82.4527 75.4029 82.5647 75.3409 82.6647 75.2739C82.8707 75.1349 83.0686 74.9609 83.3126 74.9199C83.5576 74.8779 83.8587 75.0519 83.8337 75.2999C84.1437 75.2619 84.4187 75.0169 84.4927 74.7099C84.4837 74.3679 84.3037 74.0329 84.0227 73.8399Z" fill="#C0B0D3"/>
<path d="M79.1567 37.1C79.1047 37.502 79.2107 37.905 79.3157 38.296C79.4077 38.637 79.4997 38.978 79.5917 39.319C79.6777 39.638 79.8037 40.003 80.1137 40.112C80.2847 40.172 80.4757 40.137 80.6527 40.176C81.0357 40.26 81.2997 40.674 81.6907 40.707C82.1417 40.745 82.4667 40.245 82.5097 39.791C82.5517 39.336 82.4247 38.875 82.4927 38.423C82.5747 37.879 82.9977 37.371 83.5407 37.309C83.7327 37.287 83.9377 37.317 84.1097 37.229C84.3477 37.106 84.4277 36.809 84.4837 36.545C84.5747 36.115 84.6647 35.657 84.5117 35.245C84.3667 34.856 84.0217 34.558 83.9287 34.153C83.6087 34.026 83.2397 34.275 83.1077 34.595C82.9757 34.915 83.0167 35.278 83.0587 35.622C83.0337 35.418 82.2817 36 82.2257 36.038C81.6397 36.432 81.2567 36.577 80.6287 36.422C79.9447 36.254 79.2907 36.076 79.1567 37.1Z" fill="#C0B0D3"/>
<path d="M74.6266 50.9108C74.8286 50.7528 74.9156 50.4898 74.9696 50.2388C75.0826 49.7108 75.0896 49.1458 74.8916 48.6438C74.5436 47.7578 73.5226 47.2008 72.5966 47.3898C72.3466 47.4408 72.0696 47.5348 71.8536 47.3998C71.6636 47.2808 71.6006 47.0288 71.4336 46.8808C71.1416 46.6228 70.6756 46.7808 70.3726 47.0258C70.0696 47.2708 69.8086 47.6018 69.4326 47.7018C69.2866 47.3828 68.9036 47.1948 68.5646 47.2758C68.2256 47.3568 67.9676 47.6988 67.9796 48.0498C67.9956 48.5048 68.3896 48.8418 68.5846 49.2528C68.8266 49.7628 68.7436 50.3858 68.4736 50.8818C68.2036 51.3768 67.7676 51.7598 67.3036 52.0778C67.1776 52.1638 67.0446 52.2508 66.9626 52.3808C66.8146 52.6168 66.8746 52.9238 66.9446 53.1938C67.1176 53.8628 67.3206 54.5238 67.5536 55.1738C67.9146 54.9528 68.3446 55.3448 68.5306 55.7268C68.7166 56.1088 68.9036 56.5838 69.3196 56.6578C69.7456 56.7328 70.2356 56.3268 70.5766 56.5958C70.6856 56.6818 70.7506 56.8248 70.8786 56.8798C70.9896 56.9278 71.1176 56.8948 71.2286 56.8478C72.1566 56.4618 72.4776 55.0768 71.8156 54.3168C72.0986 53.7638 72.5496 53.2998 73.0926 53.0028C73.2356 52.9248 73.3906 52.8528 73.4866 52.7208C73.7546 52.3528 73.4176 51.7668 73.6836 51.3968C73.8936 51.1018 74.3436 51.1308 74.6266 50.9108Z" fill="#C0B0D3"/>
<path d="M76.273 33.773C75.897 31.281 73.928 28.279 70.813 27.759C68.631 27.078 66.086 28.216 64.962 30.221C63.838 32.227 64.116 34.888 65.485 36.732C66.853 38.577 69.188 39.589 71.471 39.521C72.897 39.479 74.377 38.999 75.307 37.907C76.251 36.8 76.491 35.218 76.273 33.773Z" fill="#C0B0D3"/>
<g opacity="0.5">
<path d="M48.5152 0.504883C44.1412 0.504883 39.9102 1.11288 35.8872 2.22888C56.0052 7.80888 70.7882 26.3779 70.7882 48.4409C70.7882 70.5039 56.0052 89.0729 35.8872 94.6529C39.9102 95.7689 44.1412 96.3769 48.5152 96.3769C74.7642 96.3769 96.0442 74.9149 96.0442 48.4409C96.0442 21.9659 74.7652 0.504883 48.5152 0.504883Z" fill="black"/>
</g>
<g opacity="0.2">
<path d="M5.84583 43.5809C5.84583 31.5369 10.2598 20.5399 17.5318 12.1189C7.34583 20.9109 0.882812 33.9619 0.882812 48.5439C0.882812 75.0179 22.1618 96.4799 48.4118 96.4799C62.7198 96.4799 75.5408 90.0949 84.2538 80.0059C75.9468 87.1769 65.1658 91.5169 53.3748 91.5169C27.1248 91.5169 5.84583 70.0549 5.84583 43.5809Z" fill="black"/>
</g>
<path d="M30.015 92.6019C30.012 92.6099 29.921 92.5769 29.746 92.5049C29.546 92.4179 29.293 92.3079 28.977 92.1719C28.629 92.0159 28.215 91.8299 27.733 91.6139C27.238 91.3979 26.673 91.1379 26.067 90.7849C23.574 89.5139 20.109 87.3309 16.38 83.9689C15.41 83.1689 14.549 82.1679 13.575 81.2049C12.637 80.2069 11.74 79.0949 10.803 77.9559C9.95501 76.7489 8.97999 75.5639 8.19199 74.1999C7.78399 73.5279 7.33701 72.8649 6.94501 72.1569C6.56801 71.4409 6.18699 70.7149 5.79999 69.9799C2.82099 64.0509 0.856008 56.8279 0.751008 49.1489C0.723008 45.3149 1.088 41.5689 1.853 38.0309C2.664 34.5049 3.79701 31.1929 5.17001 28.1659C8.02501 22.1629 11.695 17.3149 15.34 13.8709C18.973 10.4059 22.365 8.10893 24.826 6.77693C25.128 6.60193 25.413 6.43493 25.683 6.27893C25.96 6.14293 26.221 6.01494 26.465 5.89594C26.941 5.66594 27.349 5.46794 27.692 5.30194C28.003 5.15594 28.253 5.03893 28.451 4.94593C28.623 4.86893 28.713 4.83294 28.717 4.84094C28.721 4.84894 28.638 4.90094 28.474 4.99394C28.283 5.09894 28.04 5.23094 27.739 5.39594C27.403 5.57394 27.003 5.78593 26.538 6.03293C26.299 6.15893 26.043 6.29293 25.77 6.43593C25.505 6.59893 25.225 6.77094 24.929 6.95294C22.509 8.33294 19.172 10.6629 15.599 14.1349C12.014 17.5869 8.41 22.4139 5.607 28.3679C4.25999 31.3699 3.14799 34.6509 2.35199 38.1409C1.60199 41.6419 1.244 45.3489 1.272 49.1419C1.376 56.7399 3.30501 63.8849 6.23001 69.7669C6.60901 70.4959 6.984 71.2169 7.354 71.9269C7.738 72.6299 8.17901 73.2879 8.57901 73.9559C9.35301 75.3119 10.311 76.4899 11.144 77.6919C12.065 78.8259 12.947 79.9349 13.869 80.9319C14.827 81.8949 15.673 82.8959 16.628 83.6979C20.296 87.0689 23.708 89.2869 26.162 90.6069C26.758 90.9719 27.314 91.2459 27.8 91.4749C28.273 91.7079 28.679 91.9089 29.02 92.0769C29.326 92.2329 29.572 92.3579 29.766 92.4569C29.934 92.5439 30.018 92.5939 30.015 92.6019Z" fill="white"/>
</svg>
