<svg width="520" height="520" viewBox="0 0 520 520" fill="none" xmlns="http://www.w3.org/2000/svg">
<rect width="520" height="520" rx="260" fill="url(#paint0_linear_4559_25282)"/>
<path opacity="0.1" d="M243.873 49.2849C241.489 39.8686 247.186 30.2087 256.793 28.7759C289.156 23.9497 322.351 28.2331 352.593 41.3217C382.835 54.4104 408.679 75.6797 427.312 102.577C432.843 110.562 429.7 121.327 421.203 126.034V126.034C412.706 130.74 402.086 127.586 396.357 119.742C381.629 99.5782 361.73 83.6056 338.621 73.604C315.512 63.6025 290.247 60.0277 265.466 63.0921C255.826 64.2842 246.258 58.7013 243.873 49.2849V49.2849Z" fill="white"/>
<rect opacity="0.1" x="192" y="40.4473" width="34.8" height="32.8041" rx="16.4021" transform="rotate(-15.7525 192 40.4473)" fill="white"/>
<defs>
<linearGradient id="paint0_linear_4559_25282" x1="260" y1="0" x2="260" y2="520" gradientUnits="userSpaceOnUse">
<stop stop-color="#1F9FFC"/>
<stop offset="1" stop-color="#083581"/>
</linearGradient>
</defs>
</svg>
