<svg width="520" height="520" viewBox="0 0 520 520" fill="none" xmlns="http://www.w3.org/2000/svg">
<g clip-path="url(#clip0_4559_25277)">
<rect width="520" height="520" rx="260" fill="white" fill-opacity="0.2"/>
<path d="M-1103.95 163.049L-1147.47 182.303C-1183.66 198.319 -1207 234.173 -1207 273.75V299.527C-1207 354.94 -1161.94 399.787 -1106.53 399.526L1287.47 388.23C1342.52 387.97 1387 343.275 1387 288.231V277.102C1387 235.837 1361.65 198.81 1323.18 183.878L1258.38 158.724C1235.6 149.882 1210.37 149.687 1187.46 158.175L1087.41 195.237C1064.11 203.867 1038.44 203.516 1015.38 194.252L927.836 159.07C905.272 150.002 880.176 149.467 857.246 157.566L746.674 196.619C724.664 204.393 700.629 204.222 678.732 196.137L573.336 157.22C551.92 149.312 528.444 148.97 506.807 156.25L384.514 197.398C362.877 204.678 339.401 204.336 317.985 196.428L213.4 157.811C191.011 149.544 166.404 149.557 144.024 157.848L43.7753 194.984C20.0698 203.766 -6.08179 203.244 -29.4175 193.522L-109.299 160.245C-132.806 150.452 -159.164 149.997 -182.995 158.971L-278.49 194.933C-301.915 203.754 -327.795 203.47 -351.02 194.137L-436.886 159.63C-460.289 150.226 -486.38 150.012 -509.934 159.031L-599.303 193.252C-624.969 203.08 -653.548 201.912 -678.326 190.022L-731.34 164.582C-757.279 152.135 -787.322 151.463 -813.791 162.738L-881.309 191.496C-906.978 202.43 -936.048 202.143 -961.496 190.703L-1022.49 163.286C-1048.38 151.648 -1078 151.562 -1103.95 163.049Z" fill="url(#paint0_linear_4559_25277)"/>
<path d="M243.873 49.2849C241.489 39.8686 247.186 30.2087 256.793 28.7759C289.156 23.9497 322.351 28.2331 352.593 41.3217C382.835 54.4104 408.679 75.6797 427.312 102.577C432.843 110.562 429.7 121.327 421.203 126.034V126.034C412.706 130.74 402.086 127.586 396.357 119.742C381.629 99.5782 361.73 83.6056 338.621 73.604C315.512 63.6025 290.247 60.0277 265.466 63.0921C255.826 64.2842 246.258 58.7013 243.873 49.2849V49.2849Z" fill="white" fill-opacity="0.5"/>
<rect x="192" y="40.4473" width="34.8" height="32.8041" rx="16.4021" transform="rotate(-15.7525 192 40.4473)" fill="white" fill-opacity="0.5"/>
<path d="M-1145.77 163.848L-1214.26 204.74C-1244.49 222.787 -1263 255.397 -1263 290.601V436.361C-1263 491.839 -1217.84 536.712 -1162.36 536.359L1683.64 518.241C1738.62 517.891 1783 473.223 1783 418.243V294.352C1783 257.15 1762.35 223.023 1729.39 205.765L1635.78 156.739C1607.31 141.832 1573.42 141.511 1544.68 155.877L1435.28 210.553C1406.09 225.146 1371.6 224.572 1342.91 209.014L1247.46 157.258C1219.34 142.016 1185.64 141.137 1156.77 154.893L1035.1 212.875C1007.33 226.107 975.019 225.824 947.488 212.108L831.292 154.221C804.343 140.795 772.779 140.226 745.363 152.672L609.904 214.166C582.489 226.612 550.925 226.043 523.976 212.618L408.826 155.251C380.704 141.241 347.631 141.262 319.527 155.309L209.866 210.119C180.188 224.953 145.084 224.1 116.161 207.844L29.6194 159.202C0.49231 142.831 -34.8867 142.089 -64.6748 157.224L-168.658 210.056C-197.966 224.947 -232.72 224.483 -261.62 208.813L-354.91 158.231C-384.02 142.448 -419.056 142.098 -448.475 157.297L-545.08 207.208C-576.956 223.676 -615.211 221.806 -645.328 202.307L-701.131 166.178C-732.595 145.807 -772.808 144.742 -805.306 163.418L-876.645 204.417C-908.229 222.567 -947.183 222.108 -978.33 203.218L-1042.65 164.206C-1074.31 145.006 -1113.98 144.869 -1145.77 163.848Z" fill="url(#paint1_linear_4559_25277)"/>
</g>
<defs>
<linearGradient id="paint0_linear_4559_25277" x1="90" y1="145" x2="90" y2="400" gradientUnits="userSpaceOnUse">
<stop stop-color="#0D5385"/>
<stop offset="1" stop-color="#0D2F68"/>
</linearGradient>
<linearGradient id="paint1_linear_4559_25277" x1="260" y1="133" x2="260" y2="537" gradientUnits="userSpaceOnUse">
<stop stop-color="#1F9FFC"/>
<stop offset="1" stop-color="#083581"/>
</linearGradient>
<clipPath id="clip0_4559_25277">
<rect width="520" height="520" rx="260" fill="white"/>
</clipPath>
</defs>
</svg>
