<svg width="40" height="121" viewBox="0 0 40 121" fill="none" xmlns="http://www.w3.org/2000/svg">
<path d="M7 17C7 9.8203 12.8203 4 20 4C27.1797 4 33 9.8203 33 17V103C33 110.18 27.1797 116 20 116C12.8203 116 7 110.18 7 103V17Z" fill="white" fill-opacity="0.15"/>
<mask id="mask0_3516_55654" style="mask-type:alpha" maskUnits="userSpaceOnUse" x="7" y="4" width="26" height="122">
<path d="M7 17C7 9.8203 12.8203 4 20 4C27.1797 4 33 9.8203 33 17V113C33 120.18 27.1797 126 20 126C12.8203 126 7 120.18 7 113V17Z" fill="white"/>
</mask>
<g mask="url(#mask0_3516_55654)">
<path d="M7 -10.1459C7.76744 -13.6678 9.05021 -16.1759 10.3398 -17.9298C12.5151 -20.888 16.6827 -22.2795 19.1964 -19.603C20.6885 -18.0142 22.5959 -15.4322 25 -11.2968C29.5 -5.56289 30.5 -7.85645 33 -10.1459V103C33 110.18 27.1797 116 20 116C12.8203 116 7 110.18 7 103V-10.1459Z" fill="#0062F5"/>
</g>
</svg>
