<svg width="40" height="120" viewBox="0 0 40 120" fill="none" xmlns="http://www.w3.org/2000/svg">
<path d="M7 17C7 9.8203 12.8203 4 20 4C27.1797 4 33 9.8203 33 17V103C33 110.18 27.1797 116 20 116C12.8203 116 7 110.18 7 103V17Z" fill="white" fill-opacity="0.15"/>
<mask id="mask0_3521_55701" style="mask-type:alpha" maskUnits="userSpaceOnUse" x="7" y="4" width="26" height="120">
<path d="M7 17C7 9.8203 12.8203 4 20 4C27.1797 4 33 9.8203 33 17V111C33 118.18 27.1797 124 20 124C12.8203 124 7 118.18 7 111V17Z" fill="white"/>
</mask>
<g mask="url(#mask0_3521_55701)">
<path d="M7 95.3434C8.27473 94.8887 10.9713 94.6513 12.7594 94.539C13.9179 94.4662 15.0778 94.5333 16.2279 94.6907C17.6905 94.891 20.2476 95.2379 24.5 95.8065C29 96.2522 30.5 95.5214 33 95.3434V103.852C33 111.031 27.1797 116.852 20 116.852V116.852C12.8203 116.852 7 111.031 7 103.852V95.3434Z" fill="#0062F5"/>
</g>
</svg>
